G04 Layer_Color=8388736*
%FSLAX24Y24*%
%MOIN*%
G70*
G01*
G75*
%ADD60R,0.0429X0.0323*%
%ADD61R,0.0323X0.0429*%
G04:AMPARAMS|DCode=62|XSize=37.4mil|YSize=19.7mil|CornerRadius=0mil|HoleSize=0mil|Usage=FLASHONLY|Rotation=90.000|XOffset=0mil|YOffset=0mil|HoleType=Round|Shape=Octagon|*
%AMOCTAGOND62*
4,1,8,0.0049,0.0187,-0.0049,0.0187,-0.0098,0.0138,-0.0098,-0.0138,-0.0049,-0.0187,0.0049,-0.0187,0.0098,-0.0138,0.0098,0.0138,0.0049,0.0187,0.0*
%
%ADD62OCTAGOND62*%

%ADD63R,0.0256X0.0374*%
G04:AMPARAMS|DCode=64|XSize=37.4mil|YSize=19.7mil|CornerRadius=0mil|HoleSize=0mil|Usage=FLASHONLY|Rotation=0.000|XOffset=0mil|YOffset=0mil|HoleType=Round|Shape=Octagon|*
%AMOCTAGOND64*
4,1,8,0.0187,-0.0049,0.0187,0.0049,0.0138,0.0098,-0.0138,0.0098,-0.0187,0.0049,-0.0187,-0.0049,-0.0138,-0.0098,0.0138,-0.0098,0.0187,-0.0049,0.0*
%
%ADD64OCTAGOND64*%

%ADD65R,0.0374X0.0256*%
%ADD66R,0.0413X0.0354*%
G04:AMPARAMS|DCode=67|XSize=41.3mil|YSize=35.4mil|CornerRadius=0mil|HoleSize=0mil|Usage=FLASHONLY|Rotation=45.000|XOffset=0mil|YOffset=0mil|HoleType=Round|Shape=Rectangle|*
%AMROTATEDRECTD67*
4,1,4,-0.0021,-0.0271,-0.0271,-0.0021,0.0021,0.0271,0.0271,0.0021,-0.0021,-0.0271,0.0*
%
%ADD67ROTATEDRECTD67*%

%ADD68R,0.0472X0.0256*%
%ADD69R,0.0354X0.0413*%
%ADD70R,0.0157X0.0551*%
%ADD71R,0.0276X0.0650*%
%ADD72R,0.2402X0.2402*%
%ADD73R,0.0394X0.0630*%
G04:AMPARAMS|DCode=74|XSize=39.4mil|YSize=63mil|CornerRadius=0mil|HoleSize=0mil|Usage=FLASHONLY|Rotation=90.000|XOffset=0mil|YOffset=0mil|HoleType=Round|Shape=Octagon|*
%AMOCTAGOND74*
4,1,8,-0.0315,-0.0098,-0.0315,0.0098,-0.0217,0.0197,0.0217,0.0197,0.0315,0.0098,0.0315,-0.0098,0.0217,-0.0197,-0.0217,-0.0197,-0.0315,-0.0098,0.0*
%
%ADD74OCTAGOND74*%

%ADD75R,0.0630X0.0394*%
G04:AMPARAMS|DCode=76|XSize=161.4mil|YSize=240.2mil|CornerRadius=41.3mil|HoleSize=0mil|Usage=FLASHONLY|Rotation=90.000|XOffset=0mil|YOffset=0mil|HoleType=Round|Shape=RoundedRectangle|*
%AMROUNDEDRECTD76*
21,1,0.1614,0.1575,0,0,90.0*
21,1,0.0787,0.2402,0,0,90.0*
1,1,0.0827,0.0787,0.0394*
1,1,0.0827,0.0787,-0.0394*
1,1,0.0827,-0.0787,-0.0394*
1,1,0.0827,-0.0787,0.0394*
%
%ADD76ROUNDEDRECTD76*%
G04:AMPARAMS|DCode=77|XSize=157.5mil|YSize=240.2mil|CornerRadius=40.4mil|HoleSize=0mil|Usage=FLASHONLY|Rotation=90.000|XOffset=0mil|YOffset=0mil|HoleType=Round|Shape=RoundedRectangle|*
%AMROUNDEDRECTD77*
21,1,0.1575,0.1594,0,0,90.0*
21,1,0.0768,0.2402,0,0,90.0*
1,1,0.0807,0.0797,0.0384*
1,1,0.0807,0.0797,-0.0384*
1,1,0.0807,-0.0797,-0.0384*
1,1,0.0807,-0.0797,0.0384*
%
%ADD77ROUNDEDRECTD77*%
G04:AMPARAMS|DCode=78|XSize=82.7mil|YSize=192.9mil|CornerRadius=21.7mil|HoleSize=0mil|Usage=FLASHONLY|Rotation=90.000|XOffset=0mil|YOffset=0mil|HoleType=Round|Shape=RoundedRectangle|*
%AMROUNDEDRECTD78*
21,1,0.0827,0.1496,0,0,90.0*
21,1,0.0394,0.1929,0,0,90.0*
1,1,0.0433,0.0748,0.0197*
1,1,0.0433,0.0748,-0.0197*
1,1,0.0433,-0.0748,-0.0197*
1,1,0.0433,-0.0748,0.0197*
%
%ADD78ROUNDEDRECTD78*%
%ADD79R,0.0492X0.0748*%
G04:AMPARAMS|DCode=80|XSize=63mil|YSize=39.4mil|CornerRadius=0mil|HoleSize=0mil|Usage=FLASHONLY|Rotation=225.000|XOffset=0mil|YOffset=0mil|HoleType=Round|Shape=Rectangle|*
%AMROTATEDRECTD80*
4,1,4,0.0084,0.0362,0.0362,0.0084,-0.0084,-0.0362,-0.0362,-0.0084,0.0084,0.0362,0.0*
%
%ADD80ROTATEDRECTD80*%

G04:AMPARAMS|DCode=81|XSize=63mil|YSize=39.4mil|CornerRadius=0mil|HoleSize=0mil|Usage=FLASHONLY|Rotation=315.000|XOffset=0mil|YOffset=0mil|HoleType=Round|Shape=Rectangle|*
%AMROTATEDRECTD81*
4,1,4,-0.0362,0.0084,-0.0084,0.0362,0.0362,-0.0084,0.0084,-0.0362,-0.0362,0.0084,0.0*
%
%ADD81ROTATEDRECTD81*%

G04:AMPARAMS|DCode=82|XSize=63mil|YSize=39.4mil|CornerRadius=10.8mil|HoleSize=0mil|Usage=FLASHONLY|Rotation=45.000|XOffset=0mil|YOffset=0mil|HoleType=Round|Shape=RoundedRectangle|*
%AMROUNDEDRECTD82*
21,1,0.0630,0.0177,0,0,45.0*
21,1,0.0413,0.0394,0,0,45.0*
1,1,0.0217,0.0209,0.0084*
1,1,0.0217,-0.0084,-0.0209*
1,1,0.0217,-0.0209,-0.0084*
1,1,0.0217,0.0084,0.0209*
%
%ADD82ROUNDEDRECTD82*%
G04:AMPARAMS|DCode=83|XSize=47.2mil|YSize=39.4mil|CornerRadius=10.8mil|HoleSize=0mil|Usage=FLASHONLY|Rotation=180.000|XOffset=0mil|YOffset=0mil|HoleType=Round|Shape=RoundedRectangle|*
%AMROUNDEDRECTD83*
21,1,0.0472,0.0177,0,0,180.0*
21,1,0.0256,0.0394,0,0,180.0*
1,1,0.0217,-0.0128,0.0089*
1,1,0.0217,0.0128,0.0089*
1,1,0.0217,0.0128,-0.0089*
1,1,0.0217,-0.0128,-0.0089*
%
%ADD83ROUNDEDRECTD83*%
%ADD84R,0.0669X0.0591*%
G04:AMPARAMS|DCode=85|XSize=66.9mil|YSize=59.1mil|CornerRadius=15.7mil|HoleSize=0mil|Usage=FLASHONLY|Rotation=0.000|XOffset=0mil|YOffset=0mil|HoleType=Round|Shape=RoundedRectangle|*
%AMROUNDEDRECTD85*
21,1,0.0669,0.0276,0,0,0.0*
21,1,0.0354,0.0591,0,0,0.0*
1,1,0.0315,0.0177,-0.0138*
1,1,0.0315,-0.0177,-0.0138*
1,1,0.0315,-0.0177,0.0138*
1,1,0.0315,0.0177,0.0138*
%
%ADD85ROUNDEDRECTD85*%
G04:AMPARAMS|DCode=86|XSize=72.8mil|YSize=43.3mil|CornerRadius=0mil|HoleSize=0mil|Usage=FLASHONLY|Rotation=180.000|XOffset=0mil|YOffset=0mil|HoleType=Round|Shape=Octagon|*
%AMOCTAGOND86*
4,1,8,-0.0364,0.0108,-0.0364,-0.0108,-0.0256,-0.0217,0.0256,-0.0217,0.0364,-0.0108,0.0364,0.0108,0.0256,0.0217,-0.0256,0.0217,-0.0364,0.0108,0.0*
%
%ADD86OCTAGOND86*%

%ADD87R,0.0728X0.0433*%
%ADD88C,0.0039*%
%ADD89C,0.0335*%
%ADD90O,0.0512X0.0748*%
%ADD91O,0.0512X0.0827*%
%ADD92C,0.0276*%
D60*
X15458Y329D02*
D03*
Y872D02*
D03*
X20669Y6108D02*
D03*
Y5565D02*
D03*
X24606Y4975D02*
D03*
Y5518D02*
D03*
X10827Y447D02*
D03*
Y990D02*
D03*
D61*
X12917Y6230D02*
D03*
X13461D02*
D03*
X13902D02*
D03*
X14445D02*
D03*
X17122Y3868D02*
D03*
X16579D02*
D03*
X18303D02*
D03*
X17760D02*
D03*
X19484D02*
D03*
X18941D02*
D03*
X19563Y6034D02*
D03*
X19020D02*
D03*
X23941Y3081D02*
D03*
X24484D02*
D03*
X25713Y7608D02*
D03*
X26256D02*
D03*
X24532D02*
D03*
X25075D02*
D03*
X25926Y3288D02*
D03*
X25383D02*
D03*
X25926Y5207D02*
D03*
X25383D02*
D03*
X17839Y6034D02*
D03*
X18382D02*
D03*
X23350Y2097D02*
D03*
X23894D02*
D03*
X23350Y915D02*
D03*
X23894D02*
D03*
X23350Y1506D02*
D03*
X23894D02*
D03*
D62*
X18032Y5266D02*
D03*
X16850D02*
D03*
X19213D02*
D03*
D63*
X18287Y4439D02*
D03*
X17776D02*
D03*
X17106D02*
D03*
X16594D02*
D03*
X19468D02*
D03*
X18957D02*
D03*
D64*
X24626Y4065D02*
D03*
X22067Y5837D02*
D03*
D65*
X23799Y3809D02*
D03*
Y4321D02*
D03*
X21240Y5581D02*
D03*
Y6093D02*
D03*
D66*
X20276Y7333D02*
D03*
Y6703D02*
D03*
X21063D02*
D03*
Y7333D02*
D03*
X23425Y6703D02*
D03*
Y7333D02*
D03*
X17913D02*
D03*
Y6703D02*
D03*
X16929D02*
D03*
Y7333D02*
D03*
X16099Y4872D02*
D03*
Y4242D02*
D03*
X30354Y6388D02*
D03*
Y7018D02*
D03*
Y5923D02*
D03*
X30354Y5293D02*
D03*
D67*
X8832Y5075D02*
D03*
X9278Y4630D02*
D03*
X9646Y5023D02*
D03*
X9200Y5469D02*
D03*
D68*
X22776Y7392D02*
D03*
Y6644D02*
D03*
X21713D02*
D03*
X21713Y7018D02*
D03*
X21713Y7392D02*
D03*
X18563Y6644D02*
D03*
Y7392D02*
D03*
X19626D02*
D03*
X19626Y7018D02*
D03*
X19626Y6644D02*
D03*
D69*
X25142Y6236D02*
D03*
X25772D02*
D03*
X17165Y325D02*
D03*
X16535D02*
D03*
D70*
X12461Y2069D02*
D03*
X12658D02*
D03*
X12854Y2069D02*
D03*
X13051Y2069D02*
D03*
X13248Y2069D02*
D03*
X13445Y2069D02*
D03*
X13642D02*
D03*
X13839D02*
D03*
X11811Y2069D02*
D03*
X11949D02*
D03*
X12142Y2069D02*
D03*
X12268Y2069D02*
D03*
X14032Y2069D02*
D03*
X14154Y2069D02*
D03*
X14350Y2069D02*
D03*
X14469Y2069D02*
D03*
D71*
X16226Y1073D02*
D03*
X16726D02*
D03*
X17226D02*
D03*
X17726D02*
D03*
X18226D02*
D03*
X18726D02*
D03*
X19226D02*
D03*
X17226Y3199D02*
D03*
X17726D02*
D03*
X18226D02*
D03*
X18726D02*
D03*
X19226D02*
D03*
X19726D02*
D03*
X19726Y1073D02*
D03*
X16726Y3199D02*
D03*
X16226D02*
D03*
D72*
X35091Y4065D02*
D03*
D73*
X38122Y522D02*
D03*
X37622D02*
D03*
X37122D02*
D03*
X36622Y522D02*
D03*
X36122Y522D02*
D03*
X35622Y522D02*
D03*
X35122Y522D02*
D03*
X34622D02*
D03*
X34122D02*
D03*
X33622D02*
D03*
X33122Y522D02*
D03*
X32622Y522D02*
D03*
X32122D02*
D03*
X31622D02*
D03*
Y7608D02*
D03*
X32122D02*
D03*
X32622D02*
D03*
X33122Y7608D02*
D03*
X33622D02*
D03*
X34122Y7608D02*
D03*
X34622D02*
D03*
X35122D02*
D03*
X35622Y7608D02*
D03*
X36122D02*
D03*
X36622D02*
D03*
X37122Y7608D02*
D03*
X37622D02*
D03*
X38122D02*
D03*
D74*
X31035Y1815D02*
D03*
D75*
X31035Y2315D02*
D03*
X31035Y2815D02*
D03*
X31035Y3315D02*
D03*
X31035Y3815D02*
D03*
X31035Y4315D02*
D03*
X31035Y4815D02*
D03*
X31035Y5315D02*
D03*
X31035Y5815D02*
D03*
X31035Y6315D02*
D03*
D76*
X1390Y5364D02*
D03*
D77*
Y2726D02*
D03*
D78*
X1154Y4065D02*
D03*
D79*
X10039Y4262D02*
D03*
X11220D02*
D03*
D80*
X8506Y4327D02*
D03*
X8158Y4675D02*
D03*
X7810Y5023D02*
D03*
X7462Y5371D02*
D03*
X7114Y5719D02*
D03*
X6766Y6067D02*
D03*
X6418Y6415D02*
D03*
X3425Y2726D02*
D03*
X3773Y2378D02*
D03*
X4121Y2030D02*
D03*
X4469Y1683D02*
D03*
X4817Y1334D02*
D03*
X5165Y987D02*
D03*
D81*
Y6415D02*
D03*
X4817Y6067D02*
D03*
X4469Y5719D02*
D03*
X4121Y5371D02*
D03*
X3773Y5023D02*
D03*
X3425Y4675D02*
D03*
X3077Y4327D02*
D03*
X6418Y987D02*
D03*
X6766Y1334D02*
D03*
X7114Y1683D02*
D03*
X7462Y2030D02*
D03*
X7810Y2378D02*
D03*
X8158Y2727D02*
D03*
X8506Y3074D02*
D03*
D82*
X3077D02*
D03*
D83*
X13100Y4360D02*
D03*
X12037D02*
D03*
X12037Y3770D02*
D03*
X13100D02*
D03*
D84*
X26477Y5246D02*
D03*
X29312Y6427D02*
D03*
X26477D02*
D03*
Y3278D02*
D03*
X29312Y4459D02*
D03*
X26477D02*
D03*
X20310Y3475D02*
D03*
X23145Y4656D02*
D03*
X20310D02*
D03*
D85*
X29312Y5246D02*
D03*
Y3278D02*
D03*
X23145Y3475D02*
D03*
D86*
X15354Y4852D02*
D03*
D87*
Y6230D02*
D03*
D88*
X40180Y1000D02*
D03*
Y6905D02*
D03*
X28925Y915D02*
D03*
X7193Y7215D02*
D03*
X3913Y915D02*
D03*
D89*
X12012Y1439D02*
D03*
X14287D02*
D03*
D90*
X14850Y2D02*
D03*
X11449D02*
D03*
D91*
X14850Y1648D02*
D03*
X11449D02*
D03*
D92*
X25340Y6651D02*
D03*
X27396Y6427D02*
D03*
X25457Y4749D02*
D03*
M02*
