G04 Layer_Physical_Order=2*
G04 Layer_Color=16711680*
%FSLAX24Y24*%
%MOIN*%
G70*
G01*
G75*
G04:AMPARAMS|DCode=27|XSize=157.5mil|YSize=236.2mil|CornerRadius=39.4mil|HoleSize=0mil|Usage=FLASHONLY|Rotation=90.000|XOffset=0mil|YOffset=0mil|HoleType=Round|Shape=RoundedRectangle|*
%AMROUNDEDRECTD27*
21,1,0.1575,0.1575,0,0,90.0*
21,1,0.0787,0.2362,0,0,90.0*
1,1,0.0787,0.0787,0.0394*
1,1,0.0787,0.0787,-0.0394*
1,1,0.0787,-0.0787,-0.0394*
1,1,0.0787,-0.0787,0.0394*
%
%ADD27ROUNDEDRECTD27*%
%ADD39C,0.0157*%
%ADD40C,0.0079*%
%ADD41C,0.0059*%
%ADD46C,0.0118*%
%ADD49C,0.0295*%
%ADD50O,0.0472X0.0709*%
%ADD51O,0.0472X0.0787*%
%ADD52C,0.0236*%
%ADD53R,0.2937X0.2547*%
%ADD54C,0.0394*%
G36*
X38122Y171D02*
X29606D01*
X29545Y328D01*
X29788Y915D01*
X29544Y1504D01*
X29606Y1661D01*
X31385D01*
X31394Y1640D01*
X31575Y1565D01*
X31756Y1640D01*
X31830Y1821D01*
X31807Y1878D01*
X31921Y1926D01*
X31996Y2106D01*
X31921Y2287D01*
X31740Y2362D01*
X31559Y2287D01*
X31551Y2266D01*
X31545D01*
X31432Y2219D01*
X31302Y2089D01*
X28538D01*
X28425Y2042D01*
X26818Y436D01*
X17824D01*
X17385Y875D01*
Y1317D01*
X17406Y1325D01*
X17481Y1506D01*
X17406Y1687D01*
X17226Y1762D01*
X17106Y1712D01*
X16938Y1707D01*
X16757Y1781D01*
X16576Y1707D01*
X16501Y1526D01*
X16576Y1345D01*
X16597Y1336D01*
Y901D01*
X16644Y788D01*
X17116Y316D01*
X17056Y171D01*
X15266D01*
X15145Y121D01*
X15096Y2D01*
X14930Y4D01*
X14929Y0D01*
X11371D01*
X11369Y4D01*
X11203Y2D01*
X11154Y121D01*
X11033Y170D01*
X4172D01*
X4141Y328D01*
X4396Y433D01*
X4595Y915D01*
X4396Y1398D01*
X3913Y1597D01*
X3431Y1398D01*
X3232Y915D01*
X3431Y433D01*
X3686Y328D01*
X3654Y170D01*
X3258D01*
X3147Y282D01*
X3148Y336D01*
X2969Y410D01*
X2895Y588D01*
X2841Y587D01*
X2730Y698D01*
Y1119D01*
X2731Y1120D01*
X2775Y1121D01*
X2541Y1685D01*
X2353Y1763D01*
Y1933D01*
X2539Y2011D01*
X2689Y2372D01*
Y2713D01*
X3882D01*
Y4006D01*
X2335D01*
X787D01*
Y3671D01*
X602D01*
X328Y3557D01*
X170Y3657D01*
Y4474D01*
X328Y4573D01*
X602Y4459D01*
X787D01*
Y4124D01*
X2335D01*
X3882D01*
Y5417D01*
X2689D01*
Y5758D01*
X2539Y6120D01*
X2353Y6197D01*
Y6367D01*
X2541Y6445D01*
X2775Y7009D01*
X2731Y7010D01*
X2730Y7012D01*
Y7432D01*
X2841Y7543D01*
X2895Y7542D01*
X2969Y7720D01*
X3148Y7794D01*
X3147Y7848D01*
X3258Y7960D01*
X6512D01*
X6573Y7802D01*
X6330Y7215D01*
X6583Y6604D01*
X7193Y6352D01*
X7803Y6604D01*
X8056Y7215D01*
X7813Y7802D01*
X7874Y7960D01*
X18445D01*
X18532Y7802D01*
X18484Y7687D01*
X18559Y7506D01*
X18740Y7431D01*
X18921Y7506D01*
X18996Y7687D01*
X18992Y7697D01*
X19126Y7832D01*
X30306D01*
X30653Y7485D01*
X30616Y7299D01*
X30608Y7296D01*
X28810Y5498D01*
X28799Y5502D01*
X28618Y5427D01*
X28544Y5246D01*
X28618Y5065D01*
X28799Y4990D01*
X28980Y5065D01*
X29055Y5246D01*
X29051Y5257D01*
X30799Y7005D01*
X30976D01*
X30981Y6995D01*
X31161Y6920D01*
X31342Y6995D01*
X31417Y7175D01*
X31405Y7205D01*
X31404Y7220D01*
X31495Y7399D01*
X31518Y7409D01*
X31645Y7536D01*
X33148D01*
X33812Y6873D01*
X33932Y6823D01*
X34503D01*
X34623Y6873D01*
X34784Y7033D01*
X34919Y7006D01*
X34952Y6978D01*
Y6691D01*
X34941Y6687D01*
X34866Y6506D01*
X34941Y6325D01*
X35122Y6250D01*
X35303Y6325D01*
X35378Y6506D01*
X35303Y6687D01*
X35293Y6691D01*
Y6990D01*
X35303Y6995D01*
X35321Y7038D01*
X35475Y7069D01*
X35782Y6762D01*
X35903Y6712D01*
X36282D01*
X36403Y6762D01*
X36580Y6940D01*
X36591Y6935D01*
X36771Y7010D01*
X36846Y7191D01*
X36771Y7372D01*
X36591Y7447D01*
X36475Y7399D01*
X36387Y7374D01*
X36246Y7388D01*
X36142Y7431D01*
X36131Y7427D01*
X35744Y7814D01*
X35804Y7960D01*
X38122D01*
X38122Y171D01*
D02*
G37*
%LPC*%
G36*
X27008Y2864D02*
X26827Y2789D01*
X26752Y2608D01*
X26827Y2428D01*
X26837Y2423D01*
Y1731D01*
X26827Y1726D01*
X26752Y1545D01*
X26827Y1365D01*
X27008Y1290D01*
X27189Y1365D01*
X27264Y1545D01*
X27189Y1726D01*
X27178Y1731D01*
Y2423D01*
X27189Y2428D01*
X27264Y2608D01*
X27189Y2789D01*
X27008Y2864D01*
D02*
G37*
G36*
X20630Y7588D02*
X20449Y7514D01*
X20374Y7333D01*
X20449Y7152D01*
X20630Y7077D01*
X20733Y7120D01*
X21132D01*
X21204Y7048D01*
Y5533D01*
X20999Y5448D01*
X20899Y5207D01*
X20999Y4966D01*
X21240Y4866D01*
X23205D01*
X24247Y3824D01*
X24488Y3724D01*
X24787D01*
Y3184D01*
X24744Y3081D01*
X24819Y2900D01*
X25000Y2825D01*
X25181Y2900D01*
X25256Y3081D01*
X25213Y3184D01*
Y3724D01*
X31984D01*
Y2673D01*
X35157D01*
Y5457D01*
X31984D01*
Y4406D01*
X24629D01*
X23588Y5448D01*
X23346Y5548D01*
X21630D01*
Y7136D01*
X21568Y7287D01*
X21568Y7287D01*
X21371Y7483D01*
X21220Y7546D01*
X21220Y7546D01*
X20733D01*
X20630Y7588D01*
D02*
G37*
G36*
X12012Y1727D02*
X11808Y1643D01*
X11724Y1439D01*
X11808Y1236D01*
X12012Y1152D01*
X12215Y1236D01*
X12300Y1439D01*
X12215Y1643D01*
X12012Y1727D01*
D02*
G37*
G36*
X14287D02*
X14084Y1643D01*
X14000Y1439D01*
X14084Y1236D01*
X14287Y1152D01*
X14491Y1236D01*
X14575Y1439D01*
X14491Y1643D01*
X14287Y1727D01*
D02*
G37*
G36*
X31522Y6049D02*
X31341Y5974D01*
X31337Y5964D01*
X30522D01*
X30402Y5914D01*
X30075Y5587D01*
X29946Y5641D01*
X29765Y5566D01*
X29690Y5385D01*
X29765Y5204D01*
X29946Y5129D01*
X30127Y5204D01*
X30135Y5223D01*
X30235Y5265D01*
X30593Y5623D01*
X31337D01*
X31341Y5613D01*
X31522Y5538D01*
X31702Y5613D01*
X31777Y5793D01*
X31702Y5974D01*
X31522Y6049D01*
D02*
G37*
G36*
X23819Y7588D02*
X23638Y7514D01*
X23563Y7333D01*
X23638Y7152D01*
X23741Y7109D01*
X24393Y6457D01*
Y5979D01*
X24351Y5876D01*
X24425Y5695D01*
X24606Y5620D01*
X24787Y5695D01*
X24862Y5876D01*
X24819Y5979D01*
Y6545D01*
X24819Y6545D01*
X24757Y6696D01*
X24757Y6696D01*
X24042Y7411D01*
X24000Y7514D01*
X23819Y7588D01*
D02*
G37*
G36*
X14116Y2783D02*
X14013Y2741D01*
X14010D01*
X14005Y2743D01*
X14000Y2741D01*
X12172D01*
X12069Y2783D01*
X11888Y2708D01*
X11813Y2528D01*
X11888Y2347D01*
X12069Y2272D01*
X12172Y2315D01*
X14003D01*
X14003Y2315D01*
X14005Y2315D01*
X14007Y2315D01*
X14007Y2315D01*
X14013D01*
X14116Y2272D01*
X14297Y2347D01*
X14372Y2528D01*
X14297Y2708D01*
X14116Y2783D01*
D02*
G37*
G36*
X13765Y5975D02*
X13584Y5900D01*
X13509Y5719D01*
X13573Y5565D01*
Y5004D01*
X13416Y4938D01*
X12847Y5507D01*
X12734Y5554D01*
X7041D01*
X6959Y5635D01*
X6846Y5682D01*
X6567D01*
X6559Y5703D01*
X6378Y5777D01*
X6197Y5703D01*
X6122Y5522D01*
X6197Y5341D01*
X6352Y5277D01*
X6413Y5130D01*
X6349Y4975D01*
X6424Y4794D01*
X6604Y4719D01*
X6785Y4794D01*
X6860Y4975D01*
X7006Y5017D01*
X12578D01*
X13585Y4011D01*
X13698Y3964D01*
X14692D01*
X14701Y3943D01*
X14882Y3868D01*
X15063Y3943D01*
X15138Y4124D01*
X15063Y4305D01*
X14882Y4380D01*
X14858Y4370D01*
X14783Y4380D01*
X14708Y4561D01*
X14528Y4636D01*
X14507Y4627D01*
X14404Y4729D01*
X14291Y4776D01*
X14021D01*
X14018Y4775D01*
X13960Y4915D01*
X13957Y4917D01*
Y5565D01*
X14021Y5719D01*
X13946Y5900D01*
X13765Y5975D01*
D02*
G37*
%LPD*%
D27*
X1390Y5364D02*
D03*
Y2766D02*
D03*
D39*
X24921Y4065D02*
X25000Y3986D01*
Y3081D02*
Y3986D01*
X24606Y5876D02*
Y6545D01*
X23819Y7333D02*
X24606Y6545D01*
X21476Y5207D02*
X21713D01*
X21417Y5266D02*
X21476Y5207D01*
X21417Y5266D02*
Y7136D01*
X21220Y7333D02*
X21417Y7136D01*
X20630Y7333D02*
X21220D01*
X12069Y2528D02*
X14003D01*
X14005Y2530D01*
X14007Y2528D01*
X14116D01*
D40*
X35354Y7963D02*
X36142Y7175D01*
X36282Y6883D02*
X36591Y7191D01*
X35122Y6506D02*
Y7175D01*
X34902Y7392D02*
X35394D01*
X35903Y6883D01*
X36282D01*
X19055Y8002D02*
X30377D01*
X18740Y7687D02*
X19055Y8002D01*
X27008Y2608D02*
X27008Y2608D01*
Y1545D02*
Y2608D01*
X33502Y7835D02*
X34122Y7215D01*
X30748Y7923D02*
X30787Y7963D01*
X35354D01*
X31348Y7726D02*
X31457Y7835D01*
X31063Y7726D02*
X31348D01*
X31457Y7835D02*
X33502D01*
X31149Y7520D02*
X31158Y7530D01*
X31398D01*
X31575Y7707D01*
X33219D01*
X33932Y6993D01*
X34503D01*
X34902Y7392D01*
X30114Y5385D02*
X30522Y5793D01*
X31522D01*
X29946Y5385D02*
X30114D01*
X30377Y8002D02*
X30859Y7520D01*
X31149D01*
X28799Y5246D02*
X30728Y7175D01*
X31161D01*
D41*
X28583Y1821D02*
X31575D01*
X31545Y2106D02*
X31740D01*
X31368Y1929D02*
X31545Y2106D01*
X28538Y1929D02*
X31368D01*
X26884Y276D02*
X28538Y1929D01*
X26929Y167D02*
X28583Y1821D01*
X6604Y4975D02*
X6807Y5177D01*
X6378Y5522D02*
X6846D01*
X6974Y5394D01*
X12734D01*
X6604Y5286D02*
X12689D01*
X6807Y5177D02*
X12645D01*
X12689Y5286D02*
X13595Y4380D01*
X14213D01*
X12734Y5394D02*
X13591Y4538D01*
X17226Y808D02*
Y1506D01*
X16757Y901D02*
Y1526D01*
X17226Y808D02*
X17758Y276D01*
X26884D01*
X16757Y901D02*
X17490Y167D01*
X26929D01*
X12645Y5177D02*
X13698Y4124D01*
X14882D01*
X13591Y4538D02*
X13942D01*
X14021Y4616D01*
X14291D01*
X14528Y4380D01*
D46*
X13765Y4749D02*
X13780Y4734D01*
X13765Y4749D02*
Y5719D01*
D49*
X12012Y1439D02*
D03*
X14287D02*
D03*
D50*
X14850Y2D02*
D03*
X11449D02*
D03*
D51*
X14850Y1648D02*
D03*
X11449D02*
D03*
D52*
X2520Y4439D02*
D03*
X10787Y4291D02*
D03*
X31575Y1821D02*
D03*
X36142Y7175D02*
D03*
X36591Y7191D02*
D03*
X35122Y7175D02*
D03*
X34122Y7215D02*
D03*
X21024Y6939D02*
D03*
X25000Y3081D02*
D03*
X38110Y5601D02*
D03*
X36496Y6230D02*
D03*
X18740Y7687D02*
D03*
X17520Y6034D02*
D03*
X27008Y2608D02*
D03*
X31522Y6309D02*
D03*
X24606Y5876D02*
D03*
X23819Y7333D02*
D03*
X20630D02*
D03*
X21240Y5207D02*
D03*
X35122Y6506D02*
D03*
X27008Y1545D02*
D03*
X3819Y3120D02*
D03*
X3418Y3986D02*
D03*
X6604Y4975D02*
D03*
X6378Y5522D02*
D03*
X6604Y5286D02*
D03*
X31740Y2106D02*
D03*
X12598Y6230D02*
D03*
X16929Y6384D02*
D03*
X17594Y6703D02*
D03*
X19307Y7018D02*
D03*
X20594Y6703D02*
D03*
X22032Y7018D02*
D03*
X23744Y6703D02*
D03*
X24213Y7608D02*
D03*
X19803Y3868D02*
D03*
X18606Y4439D02*
D03*
X17106Y4758D02*
D03*
X30748Y7923D02*
D03*
X31063Y7726D02*
D03*
X31522Y5793D02*
D03*
X14213Y4380D02*
D03*
X14528D02*
D03*
X14882Y4124D02*
D03*
X11339Y4758D02*
D03*
X13780Y4734D02*
D03*
X12069Y2528D02*
D03*
X14116D02*
D03*
X29946Y5385D02*
D03*
X28799Y5246D02*
D03*
X17226Y1506D02*
D03*
X16757Y1526D02*
D03*
X23844Y3475D02*
D03*
X2894Y5941D02*
D03*
Y7516D02*
D03*
X3288Y430D02*
D03*
Y2004D02*
D03*
X3682Y5941D02*
D03*
X3288Y6729D02*
D03*
X3682Y7516D02*
D03*
X4076Y3579D02*
D03*
X4469Y4367D02*
D03*
X4076Y6729D02*
D03*
X4469Y7516D02*
D03*
X4863Y430D02*
D03*
X5257Y2792D02*
D03*
Y4367D02*
D03*
Y7516D02*
D03*
X5650Y430D02*
D03*
Y2004D02*
D03*
X6044Y2792D02*
D03*
X5650Y3579D02*
D03*
X6044Y5941D02*
D03*
X5650Y6729D02*
D03*
X6044Y7516D02*
D03*
X6438Y430D02*
D03*
Y2004D02*
D03*
X6831Y2792D02*
D03*
X6438Y3579D02*
D03*
X6831Y4367D02*
D03*
X7225Y430D02*
D03*
X7619Y1217D02*
D03*
X7225Y3579D02*
D03*
X7619Y4367D02*
D03*
X8013Y430D02*
D03*
X8406Y1217D02*
D03*
X8013Y3579D02*
D03*
X8406Y5941D02*
D03*
X8013Y6729D02*
D03*
X8406Y7516D02*
D03*
X8800Y430D02*
D03*
X9194Y1217D02*
D03*
X8800Y2004D02*
D03*
X9194Y2792D02*
D03*
X8800Y3579D02*
D03*
X9194Y5941D02*
D03*
X8800Y6729D02*
D03*
X9194Y7516D02*
D03*
X9587Y430D02*
D03*
X9981Y1217D02*
D03*
X9587Y2004D02*
D03*
X9981Y2792D02*
D03*
X9587Y3579D02*
D03*
X9981Y5941D02*
D03*
X9587Y6729D02*
D03*
X9981Y7516D02*
D03*
X10375Y430D02*
D03*
Y2004D02*
D03*
X10768Y2792D02*
D03*
X10375Y6729D02*
D03*
X10768Y7516D02*
D03*
X11556D02*
D03*
X11950Y430D02*
D03*
Y6729D02*
D03*
X12737Y430D02*
D03*
X13131Y1217D02*
D03*
X12737Y6729D02*
D03*
X13131Y7516D02*
D03*
X13524Y430D02*
D03*
Y6729D02*
D03*
X14312Y430D02*
D03*
X15099Y6729D02*
D03*
X15887Y430D02*
D03*
X16280Y5941D02*
D03*
X15887Y6729D02*
D03*
X17068Y5941D02*
D03*
X22580Y4367D02*
D03*
X28091Y2792D02*
D03*
X27698Y3579D02*
D03*
Y5154D02*
D03*
X28879Y2792D02*
D03*
X28485Y3579D02*
D03*
Y6729D02*
D03*
X29666Y2792D02*
D03*
X30454D02*
D03*
X30060Y3579D02*
D03*
X31635D02*
D03*
Y5154D02*
D03*
X32422Y2004D02*
D03*
X32816Y5941D02*
D03*
X33209Y2004D02*
D03*
X33603Y5941D02*
D03*
X33997Y2004D02*
D03*
X34391Y5941D02*
D03*
X34784Y2004D02*
D03*
X35178Y5941D02*
D03*
X35572Y2004D02*
D03*
X35965Y5941D02*
D03*
X36753Y1217D02*
D03*
X36359Y2004D02*
D03*
X36753Y2792D02*
D03*
Y4367D02*
D03*
Y5941D02*
D03*
X37540Y1217D02*
D03*
X37146Y2004D02*
D03*
X37540Y2792D02*
D03*
X37146Y3579D02*
D03*
X37540Y4367D02*
D03*
X37146Y5154D02*
D03*
X37540Y5941D02*
D03*
X13765Y5719D02*
D03*
X31161Y7175D02*
D03*
X25340Y6651D02*
D03*
X27396Y6427D02*
D03*
X25457Y4749D02*
D03*
X16099Y5191D02*
D03*
D53*
X33571Y4065D02*
D03*
X2335D02*
D03*
D54*
X24921D02*
X33571D01*
X24488D02*
X24921D01*
X21713Y5207D02*
X23346D01*
X24488Y4065D01*
X21240Y5207D02*
X21713D01*
M02*
