G04 Layer_Physical_Order=1*
G04 Layer_Color=255*
%FSLAX24Y24*%
%MOIN*%
G70*
G01*
G75*
%ADD10C,0.0591*%
%ADD11R,0.0390X0.0283*%
%ADD12R,0.0283X0.0390*%
G04:AMPARAMS|DCode=13|XSize=33.5mil|YSize=15.7mil|CornerRadius=0mil|HoleSize=0mil|Usage=FLASHONLY|Rotation=90.000|XOffset=0mil|YOffset=0mil|HoleType=Round|Shape=Octagon|*
%AMOCTAGOND13*
4,1,8,0.0039,0.0167,-0.0039,0.0167,-0.0079,0.0128,-0.0079,-0.0128,-0.0039,-0.0167,0.0039,-0.0167,0.0079,-0.0128,0.0079,0.0128,0.0039,0.0167,0.0*
%
%ADD13OCTAGOND13*%

%ADD14R,0.0217X0.0335*%
G04:AMPARAMS|DCode=15|XSize=33.5mil|YSize=15.7mil|CornerRadius=0mil|HoleSize=0mil|Usage=FLASHONLY|Rotation=0.000|XOffset=0mil|YOffset=0mil|HoleType=Round|Shape=Octagon|*
%AMOCTAGOND15*
4,1,8,0.0167,-0.0039,0.0167,0.0039,0.0128,0.0079,-0.0128,0.0079,-0.0167,0.0039,-0.0167,-0.0039,-0.0128,-0.0079,0.0128,-0.0079,0.0167,-0.0039,0.0*
%
%ADD15OCTAGOND15*%

%ADD16R,0.0335X0.0217*%
%ADD17R,0.0374X0.0315*%
G04:AMPARAMS|DCode=18|XSize=37.4mil|YSize=31.5mil|CornerRadius=0mil|HoleSize=0mil|Usage=FLASHONLY|Rotation=45.000|XOffset=0mil|YOffset=0mil|HoleType=Round|Shape=Rectangle|*
%AMROTATEDRECTD18*
4,1,4,-0.0021,-0.0244,-0.0244,-0.0021,0.0021,0.0244,0.0244,0.0021,-0.0021,-0.0244,0.0*
%
%ADD18ROTATEDRECTD18*%

%ADD19R,0.0433X0.0217*%
%ADD20R,0.0315X0.0374*%
%ADD21R,0.0118X0.0512*%
%ADD22R,0.0236X0.0610*%
%ADD23R,0.2362X0.2362*%
%ADD24R,0.0354X0.0591*%
G04:AMPARAMS|DCode=25|XSize=35.4mil|YSize=59.1mil|CornerRadius=0mil|HoleSize=0mil|Usage=FLASHONLY|Rotation=90.000|XOffset=0mil|YOffset=0mil|HoleType=Round|Shape=Octagon|*
%AMOCTAGOND25*
4,1,8,-0.0295,-0.0089,-0.0295,0.0089,-0.0207,0.0177,0.0207,0.0177,0.0295,0.0089,0.0295,-0.0089,0.0207,-0.0177,-0.0207,-0.0177,-0.0295,-0.0089,0.0*
%
%ADD25OCTAGOND25*%

%ADD26R,0.0591X0.0354*%
G04:AMPARAMS|DCode=27|XSize=157.5mil|YSize=236.2mil|CornerRadius=39.4mil|HoleSize=0mil|Usage=FLASHONLY|Rotation=90.000|XOffset=0mil|YOffset=0mil|HoleType=Round|Shape=RoundedRectangle|*
%AMROUNDEDRECTD27*
21,1,0.1575,0.1575,0,0,90.0*
21,1,0.0787,0.2362,0,0,90.0*
1,1,0.0787,0.0787,0.0394*
1,1,0.0787,0.0787,-0.0394*
1,1,0.0787,-0.0787,-0.0394*
1,1,0.0787,-0.0787,0.0394*
%
%ADD27ROUNDEDRECTD27*%
G04:AMPARAMS|DCode=28|XSize=153.5mil|YSize=236.2mil|CornerRadius=38.4mil|HoleSize=0mil|Usage=FLASHONLY|Rotation=90.000|XOffset=0mil|YOffset=0mil|HoleType=Round|Shape=RoundedRectangle|*
%AMROUNDEDRECTD28*
21,1,0.1535,0.1594,0,0,90.0*
21,1,0.0768,0.2362,0,0,90.0*
1,1,0.0768,0.0797,0.0384*
1,1,0.0768,0.0797,-0.0384*
1,1,0.0768,-0.0797,-0.0384*
1,1,0.0768,-0.0797,0.0384*
%
%ADD28ROUNDEDRECTD28*%
G04:AMPARAMS|DCode=29|XSize=78.7mil|YSize=189mil|CornerRadius=19.7mil|HoleSize=0mil|Usage=FLASHONLY|Rotation=90.000|XOffset=0mil|YOffset=0mil|HoleType=Round|Shape=RoundedRectangle|*
%AMROUNDEDRECTD29*
21,1,0.0787,0.1496,0,0,90.0*
21,1,0.0394,0.1890,0,0,90.0*
1,1,0.0394,0.0748,0.0197*
1,1,0.0394,0.0748,-0.0197*
1,1,0.0394,-0.0748,-0.0197*
1,1,0.0394,-0.0748,0.0197*
%
%ADD29ROUNDEDRECTD29*%
%ADD30R,0.0453X0.0709*%
G04:AMPARAMS|DCode=31|XSize=59.1mil|YSize=35.4mil|CornerRadius=0mil|HoleSize=0mil|Usage=FLASHONLY|Rotation=225.000|XOffset=0mil|YOffset=0mil|HoleType=Round|Shape=Rectangle|*
%AMROTATEDRECTD31*
4,1,4,0.0084,0.0334,0.0334,0.0084,-0.0084,-0.0334,-0.0334,-0.0084,0.0084,0.0334,0.0*
%
%ADD31ROTATEDRECTD31*%

G04:AMPARAMS|DCode=32|XSize=59.1mil|YSize=35.4mil|CornerRadius=0mil|HoleSize=0mil|Usage=FLASHONLY|Rotation=315.000|XOffset=0mil|YOffset=0mil|HoleType=Round|Shape=Rectangle|*
%AMROTATEDRECTD32*
4,1,4,-0.0334,0.0084,-0.0084,0.0334,0.0334,-0.0084,0.0084,-0.0334,-0.0334,0.0084,0.0*
%
%ADD32ROTATEDRECTD32*%

G04:AMPARAMS|DCode=33|XSize=59.1mil|YSize=35.4mil|CornerRadius=8.9mil|HoleSize=0mil|Usage=FLASHONLY|Rotation=45.000|XOffset=0mil|YOffset=0mil|HoleType=Round|Shape=RoundedRectangle|*
%AMROUNDEDRECTD33*
21,1,0.0591,0.0177,0,0,45.0*
21,1,0.0413,0.0354,0,0,45.0*
1,1,0.0177,0.0209,0.0084*
1,1,0.0177,-0.0084,-0.0209*
1,1,0.0177,-0.0209,-0.0084*
1,1,0.0177,0.0084,0.0209*
%
%ADD33ROUNDEDRECTD33*%
G04:AMPARAMS|DCode=34|XSize=43.3mil|YSize=35.4mil|CornerRadius=8.9mil|HoleSize=0mil|Usage=FLASHONLY|Rotation=180.000|XOffset=0mil|YOffset=0mil|HoleType=Round|Shape=RoundedRectangle|*
%AMROUNDEDRECTD34*
21,1,0.0433,0.0177,0,0,180.0*
21,1,0.0256,0.0354,0,0,180.0*
1,1,0.0177,-0.0128,0.0089*
1,1,0.0177,0.0128,0.0089*
1,1,0.0177,0.0128,-0.0089*
1,1,0.0177,-0.0128,-0.0089*
%
%ADD34ROUNDEDRECTD34*%
%ADD35R,0.0630X0.0551*%
G04:AMPARAMS|DCode=36|XSize=63mil|YSize=55.1mil|CornerRadius=13.8mil|HoleSize=0mil|Usage=FLASHONLY|Rotation=0.000|XOffset=0mil|YOffset=0mil|HoleType=Round|Shape=RoundedRectangle|*
%AMROUNDEDRECTD36*
21,1,0.0630,0.0276,0,0,0.0*
21,1,0.0354,0.0551,0,0,0.0*
1,1,0.0276,0.0177,-0.0138*
1,1,0.0276,-0.0177,-0.0138*
1,1,0.0276,-0.0177,0.0138*
1,1,0.0276,0.0177,0.0138*
%
%ADD36ROUNDEDRECTD36*%
G04:AMPARAMS|DCode=37|XSize=68.9mil|YSize=39.4mil|CornerRadius=0mil|HoleSize=0mil|Usage=FLASHONLY|Rotation=180.000|XOffset=0mil|YOffset=0mil|HoleType=Round|Shape=Octagon|*
%AMOCTAGOND37*
4,1,8,-0.0344,0.0098,-0.0344,-0.0098,-0.0246,-0.0197,0.0246,-0.0197,0.0344,-0.0098,0.0344,0.0098,0.0246,0.0197,-0.0246,0.0197,-0.0344,0.0098,0.0*
%
%ADD37OCTAGOND37*%

%ADD38R,0.0689X0.0394*%
%ADD39C,0.0157*%
%ADD40C,0.0079*%
%ADD41C,0.0059*%
%ADD42C,0.0197*%
%ADD43C,0.0098*%
%ADD44C,0.0276*%
%ADD45C,0.0236*%
%ADD46C,0.0118*%
%ADD47R,0.0669X0.0773*%
%ADD48R,0.0669X0.1070*%
%ADD49C,0.0295*%
%ADD50O,0.0472X0.0709*%
%ADD51O,0.0472X0.0787*%
%ADD52C,0.0236*%
G36*
X30413Y5057D02*
X30620Y5057D01*
X30622Y4959D01*
Y4610D01*
X30622D01*
Y4020D01*
X30622D01*
Y3610D01*
X30622D01*
Y3020D01*
X30622D01*
Y2610D01*
X30622D01*
Y2117D01*
X30622Y2020D01*
X30622Y1970D01*
X30622Y1864D01*
Y1807D01*
X30531Y1770D01*
X29786Y2515D01*
X29673Y2561D01*
X27295D01*
X27264Y2608D01*
X27189Y2789D01*
X27178Y2793D01*
Y3107D01*
X28871D01*
X28939Y2944D01*
X29135Y2863D01*
X29489D01*
X29685Y2944D01*
X29766Y3140D01*
Y3415D01*
X29685Y3611D01*
X29489Y3692D01*
X29135D01*
X28939Y3611D01*
X28871Y3448D01*
X26910D01*
Y3671D01*
X26044D01*
Y3601D01*
X25667D01*
Y3601D01*
X25643D01*
Y3601D01*
X25371D01*
X25229Y3743D01*
X25101Y3796D01*
X25120Y3895D01*
X29749D01*
X29870Y3945D01*
X30067Y4141D01*
X30116Y4262D01*
Y5057D01*
X30295D01*
Y5293D01*
X30413D01*
Y5057D01*
D02*
G37*
G36*
X16381Y5217D02*
Y5200D01*
X16364Y5108D01*
X16158D01*
Y4872D01*
X16040D01*
Y5108D01*
X15833D01*
Y5108D01*
X15734Y5092D01*
X15659Y5167D01*
X15049D01*
X14892Y5010D01*
X14832Y4985D01*
X14528Y5289D01*
X14536Y5341D01*
X14558Y5387D01*
X16211D01*
X16381Y5217D01*
D02*
G37*
G36*
X30089Y7254D02*
X30089D01*
Y7077D01*
X30354D01*
Y6959D01*
X30089D01*
Y6782D01*
X30221D01*
X30274Y6683D01*
X30261Y6664D01*
X30049D01*
Y6112D01*
Y5971D01*
X26147D01*
X26144Y5975D01*
X26144Y5976D01*
X26197Y6073D01*
X26418D01*
Y6427D01*
X26477D01*
Y6486D01*
X26871D01*
Y6729D01*
X26871Y6782D01*
X26950Y6828D01*
X27800D01*
X27921Y6878D01*
X28393Y7349D01*
X30081D01*
X30089Y7254D01*
D02*
G37*
G36*
X12215Y7869D02*
X10795Y6448D01*
X10795Y6448D01*
X9724Y5377D01*
X9667Y5434D01*
X9235Y5002D01*
X9248Y4990D01*
X8911Y4653D01*
X8854Y4682D01*
X8847Y4756D01*
X8958Y4866D01*
X8791Y5033D01*
X8624Y5200D01*
X8477Y5054D01*
X8552Y4979D01*
X8522Y4871D01*
X8497Y4864D01*
X8464Y4898D01*
X8200Y4633D01*
X7935Y4369D01*
X8033Y4271D01*
X8005Y4244D01*
X8422Y3826D01*
X8668Y4071D01*
X8975D01*
X9156Y4146D01*
X9243Y4233D01*
X9257Y4219D01*
X9292Y4254D01*
X9465Y4081D01*
X9646Y4006D01*
X9695D01*
Y3789D01*
X10237D01*
X10328Y3766D01*
X10391Y3615D01*
X10841Y3164D01*
X10841Y3164D01*
X10992Y3102D01*
X10992Y3102D01*
X11193D01*
X11793Y2502D01*
X11753Y2403D01*
X11673D01*
Y2128D01*
X11811D01*
Y2010D01*
X11673D01*
Y1734D01*
X11772D01*
X11808Y1643D01*
X11724Y1439D01*
X11799Y1259D01*
X11755Y1161D01*
X11140D01*
Y1250D01*
X10514D01*
Y750D01*
X10514Y730D01*
X10553Y648D01*
X10553Y632D01*
Y506D01*
X10827D01*
X11100D01*
X11100Y648D01*
X11140Y730D01*
X11208Y820D01*
X12329D01*
X12449Y870D01*
X12778Y1199D01*
X12828Y1319D01*
Y1615D01*
X12836Y1629D01*
X12927Y1638D01*
X12939Y1638D01*
X12987Y1590D01*
X13100Y1543D01*
X13386D01*
X13499Y1590D01*
X13558Y1649D01*
X13577Y1695D01*
X13668D01*
Y1272D01*
X13718Y1151D01*
X14118Y752D01*
X14238Y702D01*
X15123D01*
X15145Y612D01*
D01*
X15184Y530D01*
Y388D01*
X15458D01*
X15731D01*
Y530D01*
X15771Y612D01*
X15771Y612D01*
X15771Y612D01*
Y1132D01*
X15145D01*
Y1043D01*
X14388D01*
X14363Y1077D01*
X14397Y1197D01*
X14491Y1236D01*
X14575Y1439D01*
X14491Y1643D01*
X14528Y1734D01*
X14606D01*
Y2010D01*
X14469D01*
Y2069D01*
X14410D01*
Y2429D01*
X14361Y2502D01*
X14372Y2528D01*
X14424Y2606D01*
X14860D01*
X15857Y1610D01*
X15970Y1563D01*
X16337D01*
X16356Y1548D01*
X16384Y1494D01*
X16364Y1457D01*
X16285D01*
Y1073D01*
Y689D01*
X16314D01*
X16353Y636D01*
X16330Y591D01*
X16299D01*
Y384D01*
X16535D01*
Y266D01*
X16299D01*
Y171D01*
X15731D01*
Y270D01*
X15458D01*
X15184D01*
Y137D01*
X15145Y121D01*
X15096Y2D01*
X14930Y4D01*
X14929Y0D01*
X11371D01*
X11369Y4D01*
X11203Y2D01*
X11154Y121D01*
X11118Y135D01*
X11100Y226D01*
X11100Y249D01*
Y388D01*
X10827D01*
X10553D01*
Y269D01*
X10553Y226D01*
X10478Y170D01*
X4018D01*
X3998Y269D01*
X4396Y433D01*
X4571Y857D01*
X4686Y881D01*
X4734Y833D01*
X5082Y485D01*
X5666Y1070D01*
X5249Y1488D01*
X4970Y1766D01*
X4553Y2184D01*
X4274Y2462D01*
X4274Y2462D01*
X4179Y2558D01*
X6416Y4795D01*
X6424Y4794D01*
X6604Y4719D01*
X6785Y4794D01*
X6860Y4975D01*
X6796Y5130D01*
X6849Y5260D01*
X6951Y5297D01*
X7309Y4940D01*
X7309Y4940D01*
X7726Y4522D01*
X7754Y4550D01*
X7852Y4452D01*
X8116Y4717D01*
X8381Y4981D01*
X8283Y5079D01*
X8311Y5107D01*
X7963Y5455D01*
X7963Y5455D01*
X7545Y5872D01*
X7157Y6261D01*
X7202Y6355D01*
X7803Y6604D01*
X8056Y7215D01*
X7803Y7825D01*
X7711Y7863D01*
X7730Y7960D01*
X12178D01*
X12215Y7869D01*
D02*
G37*
G36*
X17767Y4986D02*
X17655Y4875D01*
X17605Y4754D01*
Y4725D01*
X17549D01*
Y4181D01*
X17500D01*
Y3705D01*
X17462Y3622D01*
X17343D01*
Y3809D01*
X17122D01*
Y3927D01*
X17343D01*
X17343Y4142D01*
X17293Y4220D01*
X17293Y4240D01*
Y4380D01*
X17106D01*
X16919D01*
Y4338D01*
X16821Y4283D01*
X16821Y4283D01*
Y4725D01*
X16808D01*
Y4980D01*
X16949D01*
X17047Y5079D01*
Y5085D01*
X17726D01*
X17767Y4986D01*
D02*
G37*
G36*
X12009Y5100D02*
X11618Y4709D01*
X11526Y4695D01*
X11484Y4695D01*
X11280D01*
Y4262D01*
Y3829D01*
X11526D01*
Y3916D01*
X11624Y3957D01*
X11697Y3885D01*
X11686Y3858D01*
Y3681D01*
X11751Y3523D01*
X11909Y3458D01*
X12165D01*
X12324Y3523D01*
X12389Y3681D01*
Y3790D01*
X12476Y3812D01*
X12488Y3812D01*
X12643Y3657D01*
X12756Y3610D01*
X12778D01*
X12814Y3523D01*
X12972Y3458D01*
X13228D01*
X13387Y3523D01*
X13452Y3681D01*
Y3858D01*
X13390Y4008D01*
X13387Y4027D01*
X13387Y4114D01*
X13452Y4272D01*
Y4392D01*
X13603Y4543D01*
X13625D01*
X13780Y4479D01*
X13914Y4535D01*
X13990Y4459D01*
X13957Y4380D01*
X14032Y4199D01*
X14213Y4124D01*
X14221Y4128D01*
X14463Y3886D01*
X14464Y3885D01*
X14643Y3706D01*
X14644Y3705D01*
X15239Y3110D01*
Y2961D01*
X15148Y2923D01*
X15084Y2987D01*
X14971Y3034D01*
X13774D01*
X13661Y2987D01*
X13334Y2660D01*
X12943D01*
X12830Y2613D01*
X12741Y2525D01*
X12707Y2443D01*
X12677D01*
Y2443D01*
X12445D01*
Y2443D01*
X12397D01*
X12355Y2543D01*
X12355Y2543D01*
X12292Y2606D01*
X12250Y2708D01*
X12147Y2751D01*
X11432Y3466D01*
X11281Y3528D01*
X11281Y3528D01*
X11080D01*
X10852Y3757D01*
X10919Y3829D01*
X11161D01*
Y4203D01*
X10915D01*
Y3832D01*
X10843Y3765D01*
X10754Y3854D01*
Y4705D01*
X11240Y5191D01*
X11972D01*
X12009Y5100D01*
D02*
G37*
G36*
X24386Y5962D02*
X24351Y5876D01*
X24357Y5860D01*
X24303Y5778D01*
X24293D01*
Y5589D01*
X24060Y5356D01*
X23998Y5205D01*
X23998Y5205D01*
Y4547D01*
X23578D01*
Y5049D01*
X22712D01*
Y4262D01*
X23297D01*
X23359Y4200D01*
X23479Y4151D01*
X23514D01*
Y4095D01*
X23998D01*
Y3996D01*
X23858D01*
Y3809D01*
X23740D01*
Y3996D01*
X23553D01*
Y3900D01*
X23455Y3834D01*
X23322Y3889D01*
X22968D01*
X22772Y3808D01*
X22691Y3612D01*
Y3606D01*
X20743D01*
Y3868D01*
X19877D01*
Y3622D01*
X19705D01*
Y3809D01*
X19484D01*
Y3927D01*
X19705D01*
Y3976D01*
X19803Y4016D01*
X19907Y3973D01*
X21402D01*
X21523Y4023D01*
X23559Y6060D01*
X24320D01*
X24386Y5962D01*
D02*
G37*
G36*
X28666Y5447D02*
X28618Y5427D01*
X28544Y5246D01*
X28618Y5065D01*
X28799Y4990D01*
X28891Y5028D01*
X28939Y4913D01*
X28941Y4912D01*
X28922Y4813D01*
X28918D01*
Y4518D01*
X29312D01*
Y4400D01*
X28918D01*
Y4236D01*
X26871D01*
Y4400D01*
X26083D01*
Y4236D01*
X24839D01*
X24813Y4262D01*
X24796D01*
Y4715D01*
X24919D01*
Y5234D01*
X24987Y5305D01*
X25014D01*
X25014Y5305D01*
X25041Y5316D01*
X25123Y5262D01*
Y4894D01*
X25643D01*
Y4894D01*
X25667D01*
Y4894D01*
X25963D01*
X26044Y4852D01*
X26083Y4768D01*
Y4518D01*
X26871D01*
Y4770D01*
X26910Y4852D01*
X26910D01*
X26910Y4852D01*
Y5545D01*
X28646D01*
X28666Y5447D01*
D02*
G37*
G36*
X24311Y7882D02*
Y7667D01*
X24531D01*
Y7549D01*
X24311D01*
Y7335D01*
X24543D01*
X24584Y7236D01*
X24496Y7149D01*
X24105D01*
X24039Y7247D01*
X24075Y7333D01*
X24000Y7514D01*
X23823Y7587D01*
X23820Y7588D01*
X23820Y7588D01*
X23819Y7588D01*
X23730Y7608D01*
X23730Y7608D01*
X23207D01*
X23110Y7618D01*
D01*
X23023Y7646D01*
X22989Y7667D01*
X22926Y7818D01*
X22910Y7863D01*
X22970Y7960D01*
X24261D01*
X24311Y7882D01*
D02*
G37*
G36*
X6675Y7863D02*
X6583Y7825D01*
X6330Y7215D01*
X6468Y6882D01*
X5917Y6332D01*
X6334Y5914D01*
X6367Y5829D01*
X6345Y5764D01*
X6197Y5703D01*
X6188Y5682D01*
X5429D01*
X5223Y5888D01*
X5318Y5984D01*
X5666Y6332D01*
X5082Y6916D01*
X4664Y6499D01*
X4316Y6151D01*
X3968Y5803D01*
X3620Y5455D01*
X3342Y5176D01*
X2924Y4759D01*
X2952Y4731D01*
X2855Y4633D01*
X3119Y4369D01*
X3383Y4104D01*
X3481Y4202D01*
X3509Y4174D01*
X3857Y4522D01*
X4205Y4870D01*
X4622Y5288D01*
X4707Y5255D01*
X4790Y5173D01*
X4903Y5126D01*
X6155D01*
X6196Y5027D01*
X3953Y2784D01*
X3857Y2880D01*
X3829Y2852D01*
X3731Y2949D01*
X3467Y2685D01*
X3202Y2420D01*
X3300Y2323D01*
X3272Y2295D01*
X3620Y1947D01*
X3620Y1947D01*
X3879Y1688D01*
X3855Y1573D01*
X3431Y1398D01*
X3232Y915D01*
X3431Y433D01*
X3828Y269D01*
X3809Y170D01*
X3216D01*
X3147Y240D01*
X3148Y336D01*
X2969Y410D01*
X2895Y588D01*
X2799Y587D01*
X2730Y656D01*
Y1119D01*
X2731Y1120D01*
X2775Y1121D01*
X2541Y1685D01*
X2303Y1783D01*
Y1890D01*
X2541Y1989D01*
X2688Y2343D01*
Y2716D01*
X2786Y2757D01*
X2836Y2707D01*
X2979Y2648D01*
X2980Y2643D01*
Y2643D01*
X3119Y2504D01*
X3383Y2768D01*
X3648Y3033D01*
X3509Y3172D01*
X3520Y3266D01*
X3558Y3356D01*
X3427Y3673D01*
X3189Y3910D01*
X3300Y4021D01*
X3035Y4285D01*
X2771Y4550D01*
X2632Y4411D01*
X2673Y4369D01*
X2619Y4287D01*
X2309Y4415D01*
X2309Y4514D01*
X2539Y4609D01*
X2689Y4971D01*
Y5305D01*
X1390D01*
Y5423D01*
X2689D01*
Y5758D01*
X2539Y6120D01*
X2275Y6229D01*
Y6335D01*
X2541Y6445D01*
X2775Y7009D01*
X2731Y7010D01*
X2730Y7012D01*
Y7474D01*
X2799Y7543D01*
X2895Y7542D01*
X2969Y7720D01*
X3148Y7794D01*
X3147Y7890D01*
X3216Y7960D01*
X6656D01*
X6675Y7863D01*
D02*
G37*
G36*
X13749Y7651D02*
X13731Y7608D01*
Y6543D01*
X13220D01*
X13201Y6543D01*
X13119Y6504D01*
X13102Y6504D01*
X12976D01*
Y6230D01*
X12917D01*
Y6171D01*
X12697D01*
Y6009D01*
X12697Y5957D01*
X12617Y5911D01*
X11603D01*
X11232Y6282D01*
X12699Y7750D01*
X13683D01*
X13749Y7651D01*
D02*
G37*
G36*
X17608Y7057D02*
X18218D01*
Y7071D01*
X18228Y7165D01*
X18807D01*
Y6870D01*
X18249Y6870D01*
X18179Y6939D01*
X18158Y6939D01*
X17972D01*
Y6703D01*
Y6467D01*
X18140Y6467D01*
X18157Y6445D01*
X18147Y6397D01*
X18122Y6347D01*
X18040Y6307D01*
X18024Y6307D01*
X17898D01*
Y6034D01*
Y5760D01*
X18040Y5760D01*
X18122Y5721D01*
X18141Y5721D01*
X18642D01*
Y6050D01*
X18661Y6064D01*
X18760Y6014D01*
Y5721D01*
X19280D01*
Y5721D01*
X19303D01*
Y5721D01*
X19823D01*
X19844Y5631D01*
Y5557D01*
X19733Y5447D01*
X19409D01*
Y5453D01*
X19311Y5551D01*
X19114D01*
X19016Y5453D01*
Y5447D01*
X18228D01*
Y5453D01*
X18130Y5551D01*
X17933D01*
X17835Y5453D01*
Y5447D01*
X17047D01*
Y5453D01*
X16949Y5551D01*
X16752D01*
X16701Y5500D01*
X16450Y5751D01*
X16299Y5814D01*
X16299Y5814D01*
X15567D01*
Y5915D01*
X15817D01*
Y6545D01*
X14892D01*
Y5915D01*
X15141D01*
Y5814D01*
X14658D01*
Y5917D01*
X14705D01*
Y6543D01*
X14658D01*
Y6729D01*
X15108Y7179D01*
X16624D01*
Y7057D01*
X17234D01*
Y7179D01*
X17608D01*
Y7057D01*
D02*
G37*
G36*
X38083Y896D02*
X37917D01*
Y935D01*
X36917D01*
Y935D01*
X36584D01*
X35723Y1796D01*
X35610Y1843D01*
X32230D01*
X31987Y2085D01*
X31996Y2106D01*
X31921Y2287D01*
X31740Y2362D01*
X31559Y2287D01*
X31547Y2258D01*
X31449Y2278D01*
Y2520D01*
X31449D01*
Y3110D01*
X31449D01*
Y3520D01*
X31449D01*
Y4110D01*
X31449D01*
Y4520D01*
X31449D01*
Y5020D01*
X31449D01*
Y5489D01*
X31522Y5538D01*
X31702Y5613D01*
X31777Y5793D01*
X31773Y5804D01*
X32640Y6670D01*
X33541D01*
X33826Y6385D01*
X33946Y6336D01*
X34937D01*
X34941Y6325D01*
X35122Y6250D01*
X35303Y6325D01*
X35378Y6506D01*
X35378Y6506D01*
X35432Y6588D01*
X37248D01*
X37248Y6588D01*
X37399Y6651D01*
X37773Y7025D01*
X37773Y7025D01*
X37835Y7175D01*
Y7195D01*
X37917D01*
Y7234D01*
X38083D01*
X38083Y896D01*
D02*
G37*
%LPC*%
G36*
X29705Y6368D02*
X29371D01*
Y6073D01*
X29705D01*
Y6368D01*
D02*
G37*
G36*
X29253Y6782D02*
X28918D01*
Y6486D01*
X29253D01*
Y6782D01*
D02*
G37*
G36*
X29705D02*
X29371D01*
Y6486D01*
X29705D01*
Y6782D01*
D02*
G37*
G36*
X26871Y6368D02*
X26536D01*
Y6073D01*
X26871D01*
Y6368D01*
D02*
G37*
G36*
X29253D02*
X28918D01*
Y6073D01*
X29253D01*
Y6368D01*
D02*
G37*
G36*
X16166Y1014D02*
X16029D01*
Y689D01*
X16166D01*
Y1014D01*
D02*
G37*
G36*
X6418Y903D02*
X6279Y764D01*
X6501Y541D01*
X6641Y680D01*
X6418Y903D01*
D02*
G37*
G36*
X8422Y3576D02*
X8005Y3158D01*
X7657Y2810D01*
X7657Y2810D01*
X7309Y2462D01*
X7309Y2462D01*
X7030Y2184D01*
X7030Y2184D01*
X6613Y1766D01*
X6265Y1418D01*
X6293Y1390D01*
X6195Y1293D01*
X6460Y1028D01*
X6724Y764D01*
X6822Y861D01*
X6849Y833D01*
X7197Y1181D01*
X7545Y1529D01*
X7545Y1529D01*
X7963Y1947D01*
X7963Y1947D01*
X8311Y2295D01*
X8311Y2295D01*
X8659Y2643D01*
X9007Y2991D01*
X8422Y3576D01*
D02*
G37*
G36*
X6112Y1209D02*
X5972Y1070D01*
X6195Y847D01*
X6334Y987D01*
X6112Y1209D01*
D02*
G37*
G36*
X16166Y1457D02*
X16029D01*
Y1132D01*
X16166D01*
Y1457D01*
D02*
G37*
G36*
X14606Y2403D02*
X14528D01*
Y2128D01*
X14606D01*
Y2403D01*
D02*
G37*
G36*
X9430Y5615D02*
X9284Y5469D01*
X9409Y5343D01*
X9555Y5489D01*
X9430Y5615D01*
D02*
G37*
G36*
X8991Y5594D02*
X8905Y5507D01*
X8845Y5448D01*
X8794Y5371D01*
X8707Y5284D01*
X8874Y5117D01*
X9041Y4950D01*
X9128Y5037D01*
X9187Y5096D01*
X9239Y5173D01*
X9326Y5260D01*
X9158Y5427D01*
X8991Y5594D01*
D02*
G37*
G36*
X9221Y5824D02*
X9075Y5677D01*
X9200Y5552D01*
X9346Y5698D01*
X9221Y5824D01*
D02*
G37*
G36*
X17293Y4685D02*
X17165D01*
Y4498D01*
X17293D01*
Y4685D01*
D02*
G37*
G36*
X17047D02*
X16919D01*
Y4498D01*
X17047D01*
Y4685D01*
D02*
G37*
G36*
X11161Y4695D02*
X10915D01*
Y4321D01*
X11161D01*
Y4695D01*
D02*
G37*
G36*
X12858Y6504D02*
X12697D01*
Y6289D01*
X12858D01*
Y6504D01*
D02*
G37*
G36*
X17854Y6939D02*
X17648D01*
Y6762D01*
X17854D01*
Y6939D01*
D02*
G37*
G36*
Y6644D02*
X17648D01*
Y6467D01*
X17854D01*
Y6644D01*
D02*
G37*
G36*
X17780Y6307D02*
X17618D01*
Y6093D01*
X17780D01*
Y6307D01*
D02*
G37*
G36*
X16870Y6644D02*
X16663D01*
Y6467D01*
X16870D01*
Y6644D01*
D02*
G37*
G36*
X17195D02*
X16988D01*
Y6467D01*
X17195D01*
Y6644D01*
D02*
G37*
G36*
X16870Y6939D02*
X16663D01*
Y6762D01*
X16870D01*
Y6939D01*
D02*
G37*
G36*
X17195D02*
X16988D01*
Y6762D01*
X17195D01*
Y6939D01*
D02*
G37*
G36*
X17780Y5975D02*
X17618D01*
Y5760D01*
X17780D01*
Y5975D01*
D02*
G37*
G36*
X36350Y5325D02*
X35150D01*
Y4124D01*
X36350D01*
Y5325D01*
D02*
G37*
G36*
X35031D02*
X33831D01*
Y4124D01*
X35031D01*
Y5325D01*
D02*
G37*
G36*
X36350Y4006D02*
X35150D01*
Y2805D01*
X36350D01*
Y4006D01*
D02*
G37*
G36*
X35031D02*
X33831D01*
Y2805D01*
X35031D01*
Y4006D01*
D02*
G37*
%LPD*%
D10*
X2773Y3693D02*
G03*
X2066Y3986I-707J-707D01*
G01*
X2773Y3693D02*
X3110Y3356D01*
X1154Y3986D02*
X2066D01*
D11*
X15458Y329D02*
D03*
Y872D02*
D03*
X20669Y6108D02*
D03*
Y5565D02*
D03*
X24606Y4975D02*
D03*
Y5518D02*
D03*
X10827Y447D02*
D03*
Y990D02*
D03*
D12*
X12917Y6230D02*
D03*
X13461D02*
D03*
X13902D02*
D03*
X14445D02*
D03*
X17122Y3868D02*
D03*
X16579D02*
D03*
X18303D02*
D03*
X17760D02*
D03*
X19484D02*
D03*
X18941D02*
D03*
X19563Y6034D02*
D03*
X19020D02*
D03*
X23941Y3081D02*
D03*
X24484D02*
D03*
X25713Y7608D02*
D03*
X26256D02*
D03*
X24532D02*
D03*
X25075D02*
D03*
X25926Y3288D02*
D03*
X25383D02*
D03*
X25926Y5207D02*
D03*
X25383D02*
D03*
X17839Y6034D02*
D03*
X18382D02*
D03*
X23350Y2097D02*
D03*
X23894D02*
D03*
X23350Y915D02*
D03*
X23894D02*
D03*
X23350Y1506D02*
D03*
X23894D02*
D03*
D13*
X18032Y5266D02*
D03*
X16850D02*
D03*
X19213D02*
D03*
D14*
X18287Y4439D02*
D03*
X17776D02*
D03*
X17106D02*
D03*
X16594D02*
D03*
X19468D02*
D03*
X18957D02*
D03*
D15*
X24626Y4065D02*
D03*
X22067Y5837D02*
D03*
D16*
X23799Y3809D02*
D03*
Y4321D02*
D03*
X21240Y5581D02*
D03*
Y6093D02*
D03*
D17*
X20276Y7333D02*
D03*
Y6703D02*
D03*
X21063D02*
D03*
Y7333D02*
D03*
X23425Y6703D02*
D03*
Y7333D02*
D03*
X17913D02*
D03*
Y6703D02*
D03*
X16929D02*
D03*
Y7333D02*
D03*
X16099Y4872D02*
D03*
Y4242D02*
D03*
X30354Y6388D02*
D03*
Y7018D02*
D03*
Y5923D02*
D03*
X30354Y5293D02*
D03*
D18*
X8832Y5075D02*
D03*
X9278Y4630D02*
D03*
X9646Y5023D02*
D03*
X9200Y5469D02*
D03*
D19*
X22776Y7392D02*
D03*
Y6644D02*
D03*
X21713D02*
D03*
X21713Y7018D02*
D03*
X21713Y7392D02*
D03*
X18563Y6644D02*
D03*
Y7392D02*
D03*
X19626D02*
D03*
X19626Y7018D02*
D03*
X19626Y6644D02*
D03*
D20*
X25142Y6236D02*
D03*
X25772D02*
D03*
X17165Y325D02*
D03*
X16535D02*
D03*
D21*
X12461Y2069D02*
D03*
X12658D02*
D03*
X12854Y2069D02*
D03*
X13051Y2069D02*
D03*
X13248Y2069D02*
D03*
X13445Y2069D02*
D03*
X13642D02*
D03*
X13839D02*
D03*
X11811Y2069D02*
D03*
X11949D02*
D03*
X12142Y2069D02*
D03*
X12268Y2069D02*
D03*
X14032Y2069D02*
D03*
X14154Y2069D02*
D03*
X14350Y2069D02*
D03*
X14469Y2069D02*
D03*
D22*
X16226Y1073D02*
D03*
X16726D02*
D03*
X17226D02*
D03*
X17726D02*
D03*
X18226D02*
D03*
X18726D02*
D03*
X19226D02*
D03*
X17226Y3199D02*
D03*
X17726D02*
D03*
X18226D02*
D03*
X18726D02*
D03*
X19226D02*
D03*
X19726D02*
D03*
X19726Y1073D02*
D03*
X16726Y3199D02*
D03*
X16226D02*
D03*
D23*
X35091Y4065D02*
D03*
D24*
X38122Y522D02*
D03*
X37622D02*
D03*
X37122D02*
D03*
X36622Y522D02*
D03*
X36122Y522D02*
D03*
X35622Y522D02*
D03*
X35122Y522D02*
D03*
X34622D02*
D03*
X34122D02*
D03*
X33622D02*
D03*
X33122Y522D02*
D03*
X32622Y522D02*
D03*
X32122D02*
D03*
X31622D02*
D03*
Y7608D02*
D03*
X32122D02*
D03*
X32622D02*
D03*
X33122Y7608D02*
D03*
X33622D02*
D03*
X34122Y7608D02*
D03*
X34622D02*
D03*
X35122D02*
D03*
X35622Y7608D02*
D03*
X36122D02*
D03*
X36622D02*
D03*
X37122Y7608D02*
D03*
X37622D02*
D03*
X38122D02*
D03*
D25*
X31035Y1815D02*
D03*
D26*
X31035Y2315D02*
D03*
X31035Y2815D02*
D03*
X31035Y3315D02*
D03*
X31035Y3815D02*
D03*
X31035Y4315D02*
D03*
X31035Y4815D02*
D03*
X31035Y5315D02*
D03*
X31035Y5815D02*
D03*
X31035Y6315D02*
D03*
D27*
X1390Y5364D02*
D03*
D28*
Y2726D02*
D03*
D29*
X1154Y4065D02*
D03*
D30*
X10039Y4262D02*
D03*
X11220D02*
D03*
D31*
X8506Y4327D02*
D03*
X8158Y4675D02*
D03*
X7810Y5023D02*
D03*
X7462Y5371D02*
D03*
X7114Y5719D02*
D03*
X6766Y6067D02*
D03*
X6418Y6415D02*
D03*
X3425Y2726D02*
D03*
X3773Y2378D02*
D03*
X4121Y2030D02*
D03*
X4469Y1683D02*
D03*
X4817Y1334D02*
D03*
X5165Y987D02*
D03*
D32*
Y6415D02*
D03*
X4817Y6067D02*
D03*
X4469Y5719D02*
D03*
X4121Y5371D02*
D03*
X3773Y5023D02*
D03*
X3425Y4675D02*
D03*
X3077Y4327D02*
D03*
X6418Y987D02*
D03*
X6766Y1334D02*
D03*
X7114Y1683D02*
D03*
X7462Y2030D02*
D03*
X7810Y2378D02*
D03*
X8158Y2727D02*
D03*
X8506Y3074D02*
D03*
D33*
X3077D02*
D03*
D34*
X13100Y4360D02*
D03*
X12037D02*
D03*
X12037Y3770D02*
D03*
X13100D02*
D03*
D35*
X26477Y5246D02*
D03*
X29312Y6427D02*
D03*
X26477D02*
D03*
Y3278D02*
D03*
X29312Y4459D02*
D03*
X26477D02*
D03*
X20310Y3475D02*
D03*
X23145Y4656D02*
D03*
X20310D02*
D03*
D36*
X29312Y5246D02*
D03*
Y3278D02*
D03*
X23145Y3475D02*
D03*
D37*
X15354Y4852D02*
D03*
D38*
Y6230D02*
D03*
D39*
X11152Y5404D02*
X14016D01*
X10541Y4793D02*
X11152Y5404D01*
X10541Y3766D02*
Y4793D01*
X10992Y3315D02*
X11281D01*
X10541Y3766D02*
X10992Y3315D01*
X10787Y4291D02*
X11033D01*
X12205Y2006D02*
Y2392D01*
X11281Y3315D02*
X12069Y2528D01*
X33887Y6801D02*
X37248D01*
X33681Y7008D02*
X33887Y6801D01*
X37248D02*
X37622Y7175D01*
X21024Y6742D02*
Y6939D01*
X24484Y3081D02*
X25000D01*
X17520Y6034D02*
X17839D01*
X31203Y6309D02*
X31522D01*
X24606Y5518D02*
Y5876D01*
X23425Y7333D02*
X23819D01*
X20276D02*
X20630D01*
X20669Y5565D02*
X21240D01*
Y5207D02*
Y5565D01*
X21024Y6742D02*
X21063Y6703D01*
X24524Y5518D02*
X24606D01*
X24211Y5205D02*
X24524Y5518D01*
X19016Y7963D02*
X22480D01*
X12611D02*
X19016D01*
X19020Y7959D01*
Y6034D02*
Y7959D01*
X22480Y7963D02*
X22776Y7667D01*
Y7392D02*
Y7667D01*
X22362Y6978D02*
Y7274D01*
Y6644D02*
Y6978D01*
X22244Y7392D02*
X22362Y7274D01*
X21713Y7392D02*
X22244D01*
X12598Y6230D02*
X12917D01*
X16929Y6384D02*
Y6703D01*
X17594D02*
X17913D01*
X19307Y7018D02*
X19626D01*
X20276Y6703D02*
X20594D01*
X21713Y7018D02*
X22032D01*
X23425Y6703D02*
X23744D01*
X24213Y7608D02*
X24532D01*
X37622Y7175D02*
Y7608D01*
X19468Y3884D02*
X19484Y3868D01*
X19468Y3884D02*
Y4439D01*
X18287Y3884D02*
X18303Y3868D01*
X18287Y3884D02*
Y4439D01*
X19484Y3868D02*
X19803D01*
X18287Y4439D02*
X18606D01*
X17106D02*
Y4758D01*
Y4439D02*
X17122Y4423D01*
Y3868D02*
Y4423D01*
X23366Y7392D02*
X23425Y7333D01*
X22776Y7392D02*
X23366D01*
X22362Y6132D02*
Y6644D01*
X21713D02*
X22362D01*
X22067Y5837D02*
X22362Y6132D01*
X21063Y7333D02*
X21339D01*
X21398Y7392D01*
X21713D01*
X20217D02*
X20276Y7333D01*
X19626Y7392D02*
X20217D01*
X16579Y3868D02*
X16594Y3884D01*
Y4439D01*
X30190Y5758D02*
X30354Y5923D01*
Y6388D01*
X30728Y6762D01*
X31683D01*
X31929Y7008D01*
X33681D01*
X11260Y4439D02*
X11339Y4518D01*
Y4758D01*
X9646Y4998D02*
X10945Y6297D01*
X24211Y3868D02*
X24486Y3593D01*
X24211Y3868D02*
Y5205D01*
X14445Y6230D02*
Y6817D01*
X15020Y7392D01*
X18563D01*
X12069Y2528D02*
X12205Y2392D01*
X14094Y2132D02*
X14116Y2153D01*
Y2528D01*
X24606Y5518D02*
X25014D01*
X25254Y5758D01*
X24486Y3593D02*
X25078D01*
X25383Y3288D01*
X25772Y5837D02*
Y6236D01*
Y5837D02*
X25850Y5758D01*
X30190D01*
X25383Y5207D02*
Y5709D01*
X25432Y5758D01*
X25254D02*
X25432D01*
X25850D01*
X17165Y325D02*
X17476D01*
X17726Y574D01*
Y1073D01*
X23799Y3809D02*
X23844Y3765D01*
Y3475D02*
Y3765D01*
X10945Y6297D02*
X12611Y7963D01*
X16099Y4872D02*
Y5191D01*
X16594Y4439D02*
Y5305D01*
X16299Y5601D02*
X16594Y5305D01*
X14016Y5404D02*
X14213Y5601D01*
X14445D01*
Y6230D01*
X15354Y5601D02*
Y6230D01*
X14445Y5601D02*
X15354D01*
X16299D01*
X15354Y4852D02*
X15965Y4242D01*
X16099D01*
Y3951D02*
Y4242D01*
Y3951D02*
X16226Y3824D01*
Y3199D02*
Y3824D01*
X11033Y4291D02*
X11260Y4065D01*
D40*
X13839Y1272D02*
X14238Y872D01*
X15458D01*
X13839Y1272D02*
Y2069D01*
X10827Y990D02*
X12329D01*
X12658Y1319D01*
Y2069D01*
X27008Y3278D02*
X29312D01*
X36142Y7175D02*
Y7589D01*
X36122Y7608D02*
X36142Y7589D01*
X33957Y6969D02*
X36973D01*
X33750Y7175D02*
X33957Y6969D01*
X36973D02*
X37122Y7117D01*
X36591Y7191D02*
X36622Y7223D01*
Y7608D01*
X37122Y7117D02*
Y7608D01*
X35122Y7175D02*
Y7608D01*
X34122Y7215D02*
Y7608D01*
X18632Y7795D02*
X18740Y7687D01*
X14089Y7795D02*
X18632D01*
X13461Y6230D02*
X13902D01*
X23587Y3435D02*
X23941Y3081D01*
X33946Y6506D02*
X35122D01*
X33611Y6841D02*
X33946Y6506D01*
X22921Y6358D02*
X24475D01*
X22202Y5640D02*
X22921Y6358D01*
X21811Y5640D02*
X22202D01*
X21732Y5719D02*
X21811Y5640D01*
X21732Y5719D02*
Y6171D01*
X21492Y6412D02*
X21732Y6171D01*
X19626Y6412D02*
X21492D01*
X27008Y1545D02*
X27205Y1742D01*
X24626Y4065D02*
Y4955D01*
X22362Y6978D02*
X24567D01*
X24803Y7215D01*
Y7845D01*
X24921Y7963D01*
X26181D01*
X27205Y1742D02*
X29331D01*
X30551Y522D01*
X31622D01*
X19646Y4774D02*
X19764Y4656D01*
X19035Y4774D02*
X19646D01*
X18957Y4695D02*
X19035Y4774D01*
X18957Y4439D02*
Y4695D01*
X18941Y4423D02*
X18957Y4439D01*
X18941Y3868D02*
Y4423D01*
X17776Y4754D02*
X17953Y4931D01*
X17776Y4439D02*
Y4754D01*
X17760Y4423D02*
X17776Y4439D01*
X17760Y3868D02*
Y4423D01*
X26181Y7963D02*
X26256Y7888D01*
Y7608D02*
Y7888D01*
X25075Y7608D02*
X25713D01*
X18563Y6289D02*
Y6644D01*
X18382Y6108D02*
X18563Y6289D01*
X18382Y6034D02*
Y6108D01*
X19563Y6034D02*
Y6349D01*
X19626Y6412D01*
Y6644D01*
X30709Y7963D02*
X30748Y7923D01*
X31053Y7717D02*
X31063Y7726D01*
X30354Y7835D02*
X30472Y7717D01*
X31053D01*
X28444Y7835D02*
X30354D01*
X31533Y7520D02*
X31622Y7608D01*
X31161Y7175D02*
X33750D01*
X31522Y5793D02*
X32569Y6841D01*
X33611D01*
X25926Y3288D02*
X25936Y3278D01*
X26477D01*
X27008D01*
Y2608D02*
Y3278D01*
X29749Y4065D02*
X29946Y4262D01*
Y5385D01*
X24626Y4065D02*
X29749D01*
X25926Y5207D02*
X26438D01*
X26477Y5246D01*
X28799D02*
X29312D01*
X26067Y7254D02*
X27682D01*
X28391Y7963D01*
X30709D01*
X25713Y7608D02*
X26067Y7254D01*
X24475Y6358D02*
X25242Y7126D01*
X27735D01*
X28444Y7835D01*
X24528Y6230D02*
X25295Y6998D01*
X27800D01*
X16726Y1073D02*
X16757Y1104D01*
Y1526D01*
X19764Y4287D02*
X19907Y4144D01*
X19764Y4287D02*
Y4656D01*
X20035Y4931D02*
X20310Y4656D01*
X17953Y4931D02*
X20035D01*
X23479Y4321D02*
X23799D01*
X23145Y4656D02*
X23479Y4321D01*
X19907Y4144D02*
X21402D01*
X23489Y6230D01*
X24528D01*
X13902Y6230D02*
Y7608D01*
X14089Y7795D01*
X27800Y6998D02*
X28322Y7520D01*
X31533D01*
X20694Y3435D02*
X23587D01*
D41*
X13248Y2500D02*
X13400D01*
X13774Y2874D01*
X14971D01*
X13819Y2766D02*
X14926D01*
X31575Y1821D02*
X31740D01*
X31986Y1575D01*
X6369Y4975D02*
X6604D01*
X3773Y2378D02*
X6369Y4975D01*
X5363Y5522D02*
X6378D01*
X4817Y6067D02*
X5363Y5522D01*
X4903Y5286D02*
X6604D01*
X4469Y5719D02*
X4903Y5286D01*
X21545Y118D02*
X25094D01*
X31740Y2106D02*
X32163Y1683D01*
X35610D01*
X36622Y671D01*
Y522D02*
Y671D01*
X31986Y1575D02*
X35193D01*
X36122Y645D01*
Y522D02*
Y645D01*
X23622Y2293D02*
X23730Y2402D01*
X29673D01*
X30608Y1467D01*
X34803D01*
X35622Y648D01*
Y522D02*
Y648D01*
X23894Y2097D02*
X26460D01*
X26657Y2293D01*
X29628D01*
X30573Y1349D01*
X33947D01*
X34622Y673D01*
Y522D02*
Y673D01*
X23894Y915D02*
X25432D01*
X26701Y2185D01*
X29583D01*
X30528Y1240D01*
X33533D01*
X34122Y652D01*
Y522D02*
Y652D01*
X21635Y335D02*
X25004D01*
X26746Y2077D01*
X29539D01*
X30483Y1132D01*
X33130D01*
X33622Y640D01*
Y522D02*
Y640D01*
X21590Y226D02*
X25049D01*
X26791Y1969D01*
X29494D01*
X30439Y1024D01*
X32766D01*
X33122Y667D01*
Y522D02*
Y667D01*
X25094Y118D02*
X26836Y1860D01*
X29449D01*
X30394Y915D01*
X32335D01*
X32622Y629D01*
Y522D02*
Y629D01*
X14195Y4380D02*
X14213D01*
X14528Y4201D02*
Y4380D01*
X11693Y4114D02*
Y4557D01*
Y4114D02*
X12037Y3770D01*
X21772Y915D02*
X23350D01*
X21334Y1506D02*
X23350D01*
X23622Y1920D02*
X23719Y1823D01*
X23622Y1920D02*
Y2293D01*
X23719Y1680D02*
Y1823D01*
Y1680D02*
X23894Y1506D01*
X23350Y2024D02*
Y2097D01*
Y2024D02*
X23587Y1788D01*
Y683D02*
Y1788D01*
X23476Y573D02*
X23587Y683D01*
X21961Y573D02*
X23476D01*
X12598Y3927D02*
Y4650D01*
Y3927D02*
X12756Y3770D01*
X13100D01*
X13445Y2069D02*
Y2392D01*
X13386Y1703D02*
X13445Y1762D01*
Y2069D01*
X12854Y2069D02*
Y2412D01*
X12943Y2500D01*
X13248D01*
Y2069D02*
Y2500D01*
X13051Y1752D02*
Y2069D01*
Y1752D02*
X13100Y1703D01*
X13386D01*
X13445Y2392D02*
X13819Y2766D01*
X19633Y2030D02*
X21545Y118D01*
X19678Y2139D02*
X21590Y226D01*
X19723Y2247D02*
X21635Y335D01*
X20113Y2421D02*
X21961Y573D01*
X20157Y2530D02*
X21772Y915D01*
X20202Y2638D02*
X21334Y1506D01*
X17226Y1073D02*
Y1506D01*
X18312Y1723D02*
X18382Y1653D01*
X18357Y1831D02*
X18490Y1698D01*
X18226Y1073D02*
Y1282D01*
X18382Y1438D01*
Y1653D01*
X18490Y1466D02*
Y1698D01*
Y1466D02*
X18726Y1230D01*
Y1073D02*
Y1230D01*
X16099Y2530D02*
X20157D01*
X15832Y2796D02*
X16099Y2530D01*
X14926Y2766D02*
X15970Y1723D01*
X18312D01*
X16014Y1831D02*
X18357D01*
X14971Y2874D02*
X16014Y1831D01*
X15399Y2600D02*
Y3177D01*
Y2600D02*
X15968Y2030D01*
X19633D01*
X16013Y2139D02*
X19678D01*
X15507Y2645D02*
X16013Y2139D01*
X15507Y2645D02*
Y3221D01*
X15615Y2689D02*
X16058Y2247D01*
X19723D01*
X15724Y2734D02*
X16036Y2421D01*
X20113D01*
X15724Y2734D02*
Y3559D01*
X15940Y2841D02*
X16143Y2638D01*
X20202D01*
X12598Y4650D02*
X12919Y4971D01*
X15079Y4204D02*
Y4206D01*
Y4204D02*
X15724Y3559D01*
X14528Y4201D02*
X14685Y4043D01*
Y4043D02*
Y4043D01*
Y4043D02*
X14800Y3927D01*
X14801D01*
X14577Y3998D02*
Y3999D01*
Y3998D02*
X14756Y3819D01*
X14756D01*
X15399Y3177D01*
X14801Y3927D02*
X15507Y3221D01*
X14195Y4380D02*
X14577Y3999D01*
X12323Y5187D02*
X14404D01*
X15940Y3651D01*
X12756Y5079D02*
X14359D01*
X15832Y3606D01*
X14314Y4971D02*
X15079Y4206D01*
X12919Y4971D02*
X14314D01*
X12037Y4360D02*
X12756Y5079D01*
X15832Y2796D02*
Y3606D01*
X11693Y4557D02*
X12323Y5187D01*
X15940Y2841D02*
Y3651D01*
X14882Y4124D02*
X15615Y3391D01*
Y2689D02*
Y3391D01*
D42*
X38122Y522D02*
Y4104D01*
X38083Y4065D02*
X38122Y4104D01*
X35091Y4065D02*
X38083D01*
X38122Y522D02*
X38122Y522D01*
X3425Y2726D02*
X3819Y3120D01*
X3077Y4327D02*
X3418Y3986D01*
X6418Y987D02*
X6957Y447D01*
X10827D02*
X11303D01*
X29902Y7018D02*
X30354D01*
X29312Y6427D02*
X29902Y7018D01*
X11303Y447D02*
X11425Y325D01*
X25340Y6434D02*
Y6651D01*
X25142Y6236D02*
X25340Y6434D01*
X26477Y6427D02*
X27396D01*
X25747Y4459D02*
X26477D01*
X25457Y4749D02*
X25747Y4459D01*
X11425Y325D02*
X13524D01*
X6957Y447D02*
X10827D01*
X13524Y325D02*
X16535D01*
X11449Y1648D02*
X11870Y2069D01*
X14430Y2069D02*
X14850Y1648D01*
X38122Y4104D02*
Y7608D01*
D43*
X16850Y5266D02*
X18032D01*
X19808D02*
X20025Y5482D01*
Y5940D01*
X18032Y5266D02*
X19213D01*
X19808D01*
X20025Y5940D02*
X20177Y6093D01*
X21240D01*
D44*
X8832Y5075D02*
Y5101D01*
X9200Y5469D01*
X8558Y5075D02*
X8832D01*
X8158Y4675D02*
X8558Y5075D01*
D45*
X9278Y4630D02*
X9646Y4262D01*
X10039D01*
X9278Y4630D02*
X9646Y4998D01*
X8975Y4327D02*
X9278Y4630D01*
X8506Y4327D02*
X8975D01*
D46*
X13100Y4360D02*
X13150D01*
X13524Y4734D02*
X13780D01*
X13150Y4360D02*
X13524Y4734D01*
X11524Y5719D02*
X13765D01*
X10945Y6297D02*
X11524Y5719D01*
D47*
X2421Y2340D02*
D03*
D48*
Y5410D02*
D03*
D49*
X12012Y1439D02*
D03*
X14287D02*
D03*
D50*
X14850Y2D02*
D03*
X11449D02*
D03*
D51*
X14850Y1648D02*
D03*
X11449D02*
D03*
D52*
X2520Y4439D02*
D03*
X10787Y4291D02*
D03*
X31575Y1821D02*
D03*
X36142Y7175D02*
D03*
X36591Y7191D02*
D03*
X35122Y7175D02*
D03*
X34122Y7215D02*
D03*
X21024Y6939D02*
D03*
X25000Y3081D02*
D03*
X38110Y5601D02*
D03*
X36496Y6230D02*
D03*
X18740Y7687D02*
D03*
X17520Y6034D02*
D03*
X27008Y2608D02*
D03*
X31522Y6309D02*
D03*
X24606Y5876D02*
D03*
X23819Y7333D02*
D03*
X20630D02*
D03*
X21240Y5207D02*
D03*
X35122Y6506D02*
D03*
X27008Y1545D02*
D03*
X3819Y3120D02*
D03*
X3418Y3986D02*
D03*
X6604Y4975D02*
D03*
X6378Y5522D02*
D03*
X6604Y5286D02*
D03*
X31740Y2106D02*
D03*
X12598Y6230D02*
D03*
X16929Y6384D02*
D03*
X17594Y6703D02*
D03*
X19307Y7018D02*
D03*
X20594Y6703D02*
D03*
X22032Y7018D02*
D03*
X23744Y6703D02*
D03*
X24213Y7608D02*
D03*
X19803Y3868D02*
D03*
X18606Y4439D02*
D03*
X17106Y4758D02*
D03*
X30748Y7923D02*
D03*
X31063Y7726D02*
D03*
X31522Y5793D02*
D03*
X14213Y4380D02*
D03*
X14528D02*
D03*
X14882Y4124D02*
D03*
X11339Y4758D02*
D03*
X13780Y4734D02*
D03*
X12069Y2528D02*
D03*
X14116D02*
D03*
X29946Y5385D02*
D03*
X28799Y5246D02*
D03*
X17226Y1506D02*
D03*
X16757Y1526D02*
D03*
X23844Y3475D02*
D03*
X2894Y5941D02*
D03*
Y7516D02*
D03*
X3288Y430D02*
D03*
Y2004D02*
D03*
X3682Y5941D02*
D03*
X3288Y6729D02*
D03*
X3682Y7516D02*
D03*
X4076Y3579D02*
D03*
X4469Y4367D02*
D03*
X4076Y6729D02*
D03*
X4469Y7516D02*
D03*
X4863Y430D02*
D03*
X5257Y2792D02*
D03*
Y4367D02*
D03*
Y7516D02*
D03*
X5650Y430D02*
D03*
Y2004D02*
D03*
X6044Y2792D02*
D03*
X5650Y3579D02*
D03*
X6044Y5941D02*
D03*
X5650Y6729D02*
D03*
X6044Y7516D02*
D03*
X6438Y430D02*
D03*
Y2004D02*
D03*
X6831Y2792D02*
D03*
X6438Y3579D02*
D03*
X6831Y4367D02*
D03*
X7225Y430D02*
D03*
X7619Y1217D02*
D03*
X7225Y3579D02*
D03*
X7619Y4367D02*
D03*
X8013Y430D02*
D03*
X8406Y1217D02*
D03*
X8013Y3579D02*
D03*
X8406Y5941D02*
D03*
X8013Y6729D02*
D03*
X8406Y7516D02*
D03*
X8800Y430D02*
D03*
X9194Y1217D02*
D03*
X8800Y2004D02*
D03*
X9194Y2792D02*
D03*
X8800Y3579D02*
D03*
X9194Y5941D02*
D03*
X8800Y6729D02*
D03*
X9194Y7516D02*
D03*
X9587Y430D02*
D03*
X9981Y1217D02*
D03*
X9587Y2004D02*
D03*
X9981Y2792D02*
D03*
X9587Y3579D02*
D03*
X9981Y5941D02*
D03*
X9587Y6729D02*
D03*
X9981Y7516D02*
D03*
X10375Y430D02*
D03*
Y2004D02*
D03*
X10768Y2792D02*
D03*
X10375Y6729D02*
D03*
X10768Y7516D02*
D03*
X11556D02*
D03*
X11950Y430D02*
D03*
Y6729D02*
D03*
X12737Y430D02*
D03*
X13131Y1217D02*
D03*
X12737Y6729D02*
D03*
X13131Y7516D02*
D03*
X13524Y430D02*
D03*
Y6729D02*
D03*
X14312Y430D02*
D03*
X15099Y6729D02*
D03*
X15887Y430D02*
D03*
X16280Y5941D02*
D03*
X15887Y6729D02*
D03*
X17068Y5941D02*
D03*
X22580Y4367D02*
D03*
X28091Y2792D02*
D03*
X27698Y3579D02*
D03*
Y5154D02*
D03*
X28879Y2792D02*
D03*
X28485Y3579D02*
D03*
Y6729D02*
D03*
X29666Y2792D02*
D03*
X30454D02*
D03*
X30060Y3579D02*
D03*
X31635D02*
D03*
Y5154D02*
D03*
X32422Y2004D02*
D03*
X32816Y5941D02*
D03*
X33209Y2004D02*
D03*
X33603Y5941D02*
D03*
X33997Y2004D02*
D03*
X34391Y5941D02*
D03*
X34784Y2004D02*
D03*
X35178Y5941D02*
D03*
X35572Y2004D02*
D03*
X35965Y5941D02*
D03*
X36753Y1217D02*
D03*
X36359Y2004D02*
D03*
X36753Y2792D02*
D03*
Y4367D02*
D03*
Y5941D02*
D03*
X37540Y1217D02*
D03*
X37146Y2004D02*
D03*
X37540Y2792D02*
D03*
X37146Y3579D02*
D03*
X37540Y4367D02*
D03*
X37146Y5154D02*
D03*
X37540Y5941D02*
D03*
X13765Y5719D02*
D03*
X31161Y7175D02*
D03*
X25340Y6651D02*
D03*
X27396Y6427D02*
D03*
X25457Y4749D02*
D03*
X16099Y5191D02*
D03*
M02*
