G04 Layer_Color=16711935*
%FSLAX24Y24*%
%MOIN*%
G70*
G01*
G75*
G04:AMPARAMS|DCode=65|XSize=161.4mil|YSize=240.2mil|CornerRadius=41.3mil|HoleSize=0mil|Usage=FLASHONLY|Rotation=90.000|XOffset=0mil|YOffset=0mil|HoleType=Round|Shape=RoundedRectangle|*
%AMROUNDEDRECTD65*
21,1,0.1614,0.1575,0,0,90.0*
21,1,0.0787,0.2402,0,0,90.0*
1,1,0.0827,0.0787,0.0394*
1,1,0.0827,0.0787,-0.0394*
1,1,0.0827,-0.0787,-0.0394*
1,1,0.0827,-0.0787,0.0394*
%
%ADD65ROUNDEDRECTD65*%
%ADD79C,0.0039*%
%ADD80O,0.0512X0.0748*%
%ADD81O,0.0512X0.0827*%
%ADD82C,0.0335*%
%ADD83C,0.0276*%
%ADD84R,0.2976X0.2587*%
D65*
X1390Y2687D02*
D03*
Y5285D02*
D03*
D79*
X3913Y915D02*
D03*
X7193Y7215D02*
D03*
X28925Y915D02*
D03*
X42515Y7018D02*
D03*
Y1112D02*
D03*
X945Y1112D02*
D03*
Y7018D02*
D03*
D80*
X11449Y790D02*
D03*
X14850D02*
D03*
D81*
X11449Y2435D02*
D03*
X14850D02*
D03*
D82*
X14287Y2227D02*
D03*
X12012D02*
D03*
D83*
X25457Y4749D02*
D03*
X27396Y6427D02*
D03*
X25340Y6651D02*
D03*
D84*
X2335Y4065D02*
D03*
X33571D02*
D03*
M02*
