M48
;Layer_Color=9474304
;FILE_FORMAT=2:4
INCH,LZ
;TYPE=PLATED
T1F00S00C0.0118
%
T01
X001713Y00043
X002501
X003288
X002894Y001217
X002107
X004863Y00043
X00565
X006438
X007225
X008013
X0088
X009587
X010375
X009981Y001217
X009194
X008406
X007619
X01195Y00043
X012737
X013524
X014312
X013918Y001217
X013131
X015887Y00043
X016757Y001526
X017226Y001506
X027008Y001545
X036753Y001217
X03754
X037146Y002004
X036359
X035572
X034784
X033997
X033209
X032422
X03174Y002106
X031575Y001821
X031635Y003579
Y005154
X031522Y005793
Y006309
X031161Y007175
X031063Y007726
X030748Y007923
X032816Y005941
X033603
X034391
X035178
X035122Y006506
Y007175
X036142
X036591Y007191
X036496Y00623
X036753Y005941
X03754
X03811Y0056
X037146Y005154
X03754Y004367
X036753
X037146Y003579
X03754Y002792
X036753
X035965Y005941
X034122Y007215
X030454Y002792
X029666
X028879
X028091
X028485Y003579
X027698
Y005154
X028799Y005246
X029946Y005385
X03006Y003579
X027008Y002608
X025Y003081
X023844Y003474
X02258Y004367
X02124Y005207
X021024Y006939
X020594Y006703
X02063Y007333
X019307Y007018
X01874Y007687
X017594Y006703
X01752Y006033
X017068Y005941
X016929Y006384
X01628Y005941
X015493
X015887Y006729
X015099
X014882Y004124
X017106Y004758
X018606Y004439
X019803Y003868
X022032Y007018
X023744Y006703
X023819Y007333
X024213Y007608
X02534Y006651
X024606Y005876
X025457Y004749
X027396Y006427
X028485Y006729
X013524
X012737
X012598Y00623
X01195Y006729
X011556Y007516
X010768
X009981
X009194
X008406
X0088Y006729
X009587
X010375
X009981Y005941
X009194
X008406
X008013Y006729
X00565
X006044Y007516
X005257
X004469
X003682
X002894
X002107
X002501Y006729
X003288
X004076
X003682Y005941
X002894
X001713Y006729
X003418Y003986
X004076Y003579
X003819Y00312
X003288Y002004
X00565
X006438
X006831Y002792
X006044
X005257
X00565Y003579
X006438
X007225
X008013
X0088
X009587
X009981Y002792
X010768
X010375Y002004
X009587
X0088
X009194Y002792
X010669Y004262
X011339Y004758
X012069Y003315
X014116
X014213Y00438
X014528
X01378Y004734
X013765Y005719
X013131Y007516
X013524Y002004
X007619Y004367
X006831
X006604Y004974
Y005285
X006378Y005522
X006044Y005941
X005257Y004367
X004469
M30
