M48
;Layer_Color=9474304
;FILE_FORMAT=2:4
INCH,LZ
;TYPE=PLATED
T1F00S00C0.0118
%
T01
X003288Y00043
X004863
X00565
X006438
X007225
X008013
X0088
X009587
X010375
X009981Y001217
X009194
X008406
X007619
X01195Y00043
X012737
X013524
X014312
X013131Y001217
X015887Y00043
X016757Y001526
X017226Y001506
X027008Y001545
X036753Y001217
X03754
X037146Y002004
X036359
X035572
X034784
X033997
X033209
X032422
X03174Y002106
X031575Y001821
X031635Y003579
Y005154
X031522Y005793
Y006309
X031161Y007175
X031063Y007726
X030748Y007923
X032816Y005941
X033603
X034391
X035178
X035122Y006506
Y007175
X036142
X036591Y007191
X036496Y00623
X036753Y005941
X035965
X03754
X03811Y005601
X037146Y005154
X036753Y004367
X03754
X037146Y003579
X036753Y002792
X03754
X030454
X034122Y007215
X029946Y005385
X028799Y005246
X027698Y005154
X027396Y006427
X028485Y006729
Y003579
X027698
X028091Y002792
X028879
X029666
X03006Y003579
X027008Y002608
X025Y003081
X023844Y003475
X02258Y004367
X02124Y005207
X021024Y006939
X020594Y006703
X02063Y007333
X019307Y007018
X01874Y007687
X017594Y006703
X01752Y006034
X017068Y005941
X016929Y006384
X01628Y005941
X016099Y005191
X017106Y004758
X018606Y004439
X019803Y003868
X014882Y004124
X015099Y006729
X015887
X022032Y007018
X023744Y006703
X023819Y007333
X024213Y007608
X02534Y006651
X024606Y005876
X025457Y004749
X014528Y00438
X014213
X01378Y004734
X013765Y005719
X013524Y006729
X012737
X012598Y00623
X01195Y006729
X011556Y007516
X010768
X009981
X009194
X008406
X008013Y006729
X0088
X009587
X010375
X009981Y005941
X009194
X008406
X006044
X006378Y005522
X006604Y005286
Y004975
X006831Y004367
X007619
X007225Y003579
X006438
X00565
X005257Y002792
X006044
X006831
X006438Y002004
X00565
X003288
X003819Y00312
X004076Y003579
X003418Y003986
X00252Y004439
X002894Y005941
X003682
X003288Y006729
X004076
X003682Y007516
X002894
X004469
X005257
X006044
X00565Y006729
X005257Y004367
X004469
X008013Y003579
X0088
X009587
X009194Y002792
X009981
X010768
X010375Y002004
X009587
X0088
X012069Y002528
X014116
X011339Y004758
X010787Y004291
X013131Y007516
M30
