G04 Layer_Color=65535*
%FSLAX24Y24*%
%MOIN*%
G70*
G01*
G75*
%ADD36C,0.0197*%
%ADD37C,0.0079*%
%ADD41C,0.0098*%
%ADD50C,0.0100*%
%ADD51C,0.0200*%
%ADD52C,0.0050*%
%ADD53C,0.0080*%
D36*
X16499Y1919D02*
G03*
X16499Y1919I-98J0D01*
G01*
D37*
X22318Y4065D02*
G03*
X22318Y4065I-591J0D01*
G01*
X28485Y3868D02*
G03*
X28485Y3868I-591J0D01*
G01*
Y5837D02*
G03*
X28485Y5837I-591J0D01*
G01*
X20448Y4951D02*
X23007Y4951D01*
X20448Y3179D02*
X23007D01*
X26615Y4754D02*
X29174Y4754D01*
X26615Y2982D02*
X29174D01*
X26615Y6722D02*
X29174Y6722D01*
X26615Y4951D02*
X29174D01*
X21535Y5443D02*
X21772D01*
Y6230D01*
X21535D02*
X21772D01*
X21535Y5443D02*
Y6230D01*
X11890Y3514D02*
X13248Y3514D01*
X11890Y4616D02*
X13248D01*
X18907Y7589D02*
X19282D01*
X18907Y6447D02*
Y7589D01*
Y6447D02*
X19282D01*
Y7589D01*
X10413Y4577D02*
X10846D01*
X10413Y3947D02*
X10846D01*
X-610Y1736D02*
Y6236D01*
X16850Y207D02*
Y443D01*
X19944Y1526D02*
Y2746D01*
X16007Y1526D02*
Y2746D01*
X19944D01*
X16007Y1526D02*
X19944D01*
X30236Y5608D02*
X30472D01*
X30236Y6703D02*
X30472D01*
X25457Y6118D02*
Y6354D01*
X9339Y5162D02*
X9506Y5329D01*
X15906Y4695D02*
X16142D01*
X22057Y6447D02*
X22431D01*
Y7589D01*
X22057D02*
X22431D01*
X22057Y6447D02*
Y7589D01*
X8972Y4769D02*
X9139Y4936D01*
X16811Y7018D02*
X17047D01*
X17795D02*
X18031D01*
X23307D02*
X23543D01*
X20945D02*
X21181D01*
X20157D02*
X20394D01*
X24094Y3671D02*
X24331D01*
Y4459D01*
X24094D02*
X24331D01*
X24094Y3671D02*
Y4459D01*
X19606Y4734D02*
Y4970D01*
X18819D02*
X19606D01*
X18819Y4734D02*
Y4970D01*
Y4734D02*
X19606D01*
X17244D02*
Y4970D01*
X16457D02*
X17244D01*
X16457Y4734D02*
Y4970D01*
Y4734D02*
X17244D01*
X18425D02*
Y4970D01*
X17638D02*
X18425D01*
X17638Y4734D02*
Y4970D01*
Y4734D02*
X18425D01*
X22572Y5692D02*
Y5902D01*
X22520Y5955D01*
X22415D01*
X22362Y5902D01*
Y5692D01*
X22415Y5640D01*
X22520D01*
X22467Y5745D02*
X22572Y5640D01*
X22520D02*
X22572Y5692D01*
X22677Y5640D02*
X22782D01*
X22730D01*
Y5955D01*
X22677Y5902D01*
X12008Y5128D02*
Y4813D01*
X12218D01*
X12533Y5128D02*
X12323D01*
Y4813D01*
X12533D01*
X12323Y4970D02*
X12428D01*
X12638Y5128D02*
Y4813D01*
X12795D01*
X12847Y4865D01*
Y5075D01*
X12795Y5128D01*
X12638D01*
X12952Y4813D02*
X13057D01*
X13005D01*
Y5128D01*
X12952Y5075D01*
X18858Y8022D02*
Y7759D01*
X18911Y7707D01*
X19016D01*
X19068Y7759D01*
Y8022D01*
X19331Y7707D02*
Y8022D01*
X19173Y7864D01*
X19383D01*
X5512Y7490D02*
Y7228D01*
X5564Y7175D01*
X5669D01*
X5722Y7228D01*
Y7490D01*
X6037D02*
X5932Y7438D01*
X5827Y7333D01*
Y7228D01*
X5879Y7175D01*
X5984D01*
X6037Y7228D01*
Y7280D01*
X5984Y7333D01*
X5827D01*
X10525Y4997D02*
X10472Y5049D01*
X10367D01*
X10315Y4997D01*
Y4787D01*
X10367Y4734D01*
X10472D01*
X10525Y4787D01*
X10630Y4734D02*
X10735D01*
X10682D01*
Y5049D01*
X10630Y4997D01*
X11102Y4734D02*
X10892D01*
X11102Y4944D01*
Y4997D01*
X11050Y5049D01*
X10945D01*
X10892Y4997D01*
X1863Y6499D02*
X1811Y6551D01*
X1706D01*
X1654Y6499D01*
Y6289D01*
X1706Y6236D01*
X1811D01*
X1863Y6289D01*
X1968Y6236D02*
Y6551D01*
X2178Y6236D01*
Y6551D01*
X2283Y6236D02*
X2388D01*
X2336D01*
Y6551D01*
X2283Y6499D01*
X41299Y7588D02*
Y7326D01*
X41352Y7274D01*
X41457D01*
X41509Y7326D01*
Y7588D01*
X41824Y7274D02*
X41614D01*
X41824Y7484D01*
Y7536D01*
X41771Y7588D01*
X41667D01*
X41614Y7536D01*
X17671Y469D02*
X17618Y522D01*
X17513D01*
X17461Y469D01*
Y259D01*
X17513Y207D01*
X17618D01*
X17671Y259D01*
X17775Y207D02*
X17880D01*
X17828D01*
Y522D01*
X17775Y469D01*
X18038Y207D02*
X18143D01*
X18090D01*
Y522D01*
X18038Y469D01*
X10472Y325D02*
X10158D01*
Y482D01*
X10210Y535D01*
X10315D01*
X10367Y482D01*
Y325D01*
Y430D02*
X10472Y535D01*
Y640D02*
Y745D01*
Y692D01*
X10158D01*
X10210Y640D01*
X10420Y902D02*
X10472Y955D01*
Y1059D01*
X10420Y1112D01*
X10210D01*
X10158Y1059D01*
Y955D01*
X10210Y902D01*
X10263D01*
X10315Y955D01*
Y1112D01*
X18985Y696D02*
Y434D01*
X19037Y381D01*
X19142D01*
X19194Y434D01*
Y696D01*
X19509D02*
X19299D01*
Y538D01*
X19404Y591D01*
X19457D01*
X19509Y538D01*
Y434D01*
X19457Y381D01*
X19352D01*
X19299Y434D01*
X27540Y2805D02*
X27645D01*
X27593D01*
Y2490D01*
X27540D01*
X27645D01*
X27960Y2805D02*
X27855D01*
X27802Y2753D01*
Y2543D01*
X27855Y2490D01*
X27960D01*
X28012Y2543D01*
Y2753D01*
X27960Y2805D01*
X28117Y2753D02*
X28170Y2805D01*
X28275D01*
X28327Y2753D01*
Y2543D01*
X28275Y2490D01*
X28170D01*
X28117Y2543D01*
Y2753D01*
X10984Y1191D02*
X11247D01*
X11299Y1243D01*
Y1348D01*
X11247Y1401D01*
X10984D01*
X11037Y1716D02*
X10984Y1663D01*
Y1558D01*
X11037Y1506D01*
X11089D01*
X11142Y1558D01*
Y1663D01*
X11194Y1716D01*
X11247D01*
X11299Y1663D01*
Y1558D01*
X11247Y1506D01*
X10984Y1821D02*
X11299D01*
Y1978D01*
X11247Y2031D01*
X11194D01*
X11142Y1978D01*
Y1821D01*
Y1978D01*
X11089Y2031D01*
X11037D01*
X10984Y1978D01*
Y1821D01*
X30249Y4350D02*
X30197Y4297D01*
Y4192D01*
X30249Y4140D01*
X30459D01*
X30512Y4192D01*
Y4297D01*
X30459Y4350D01*
X30512Y4455D02*
Y4560D01*
Y4507D01*
X30197D01*
X30249Y4455D01*
Y4717D02*
X30197Y4769D01*
Y4874D01*
X30249Y4927D01*
X30302D01*
X30354Y4874D01*
Y4822D01*
Y4874D01*
X30407Y4927D01*
X30459D01*
X30512Y4874D01*
Y4769D01*
X30459Y4717D01*
X30249Y7484D02*
X30197Y7431D01*
Y7326D01*
X30249Y7274D01*
X30459D01*
X30512Y7326D01*
Y7431D01*
X30459Y7484D01*
X30197Y7798D02*
Y7588D01*
X30354D01*
X30302Y7693D01*
Y7746D01*
X30354Y7798D01*
X30459D01*
X30512Y7746D01*
Y7641D01*
X30459Y7588D01*
X25367Y6794D02*
X25315Y6846D01*
X25210D01*
X25157Y6794D01*
Y6584D01*
X25210Y6532D01*
X25315D01*
X25367Y6584D01*
X25472Y6794D02*
X25525Y6846D01*
X25630D01*
X25682Y6794D01*
Y6741D01*
X25630Y6689D01*
X25682Y6636D01*
Y6584D01*
X25630Y6532D01*
X25525D01*
X25472Y6584D01*
Y6636D01*
X25525Y6689D01*
X25472Y6741D01*
Y6794D01*
X25525Y6689D02*
X25630D01*
X27558Y7283D02*
X27348D01*
Y6969D01*
X27558D01*
X27348Y7126D02*
X27453D01*
X27662Y6969D02*
Y7283D01*
X27872Y6969D01*
Y7283D01*
X15618Y1132D02*
X15303D01*
Y1289D01*
X15355Y1342D01*
X15460D01*
X15513Y1289D01*
Y1132D01*
Y1237D02*
X15618Y1342D01*
Y1447D02*
Y1552D01*
Y1499D01*
X15303D01*
X15355Y1447D01*
Y1709D02*
X15303Y1762D01*
Y1867D01*
X15355Y1919D01*
X15408D01*
X15460Y1867D01*
X15513Y1919D01*
X15565D01*
X15618Y1867D01*
Y1762D01*
X15565Y1709D01*
X15513D01*
X15460Y1762D01*
X15408Y1709D01*
X15355D01*
X15460Y1762D02*
Y1867D01*
X12736Y5600D02*
Y5915D01*
X12894D01*
X12946Y5863D01*
Y5758D01*
X12894Y5705D01*
X12736D01*
X12841D02*
X12946Y5600D01*
X13051D02*
X13156D01*
X13104D01*
Y5915D01*
X13051Y5863D01*
X13523Y5915D02*
X13418Y5863D01*
X13313Y5758D01*
Y5653D01*
X13366Y5600D01*
X13471D01*
X13523Y5653D01*
Y5705D01*
X13471Y5758D01*
X13313D01*
X24331Y6978D02*
Y7293D01*
X24488D01*
X24541Y7241D01*
Y7136D01*
X24488Y7083D01*
X24331D01*
X24436D02*
X24541Y6978D01*
X24646D02*
X24751D01*
X24698D01*
Y7293D01*
X24646Y7241D01*
X25118Y7293D02*
X24908D01*
Y7136D01*
X25013Y7188D01*
X25065D01*
X25118Y7136D01*
Y7031D01*
X25065Y6978D01*
X24960D01*
X24908Y7031D01*
X18858Y2175D02*
Y2490D01*
X19016D01*
X19068Y2438D01*
Y2333D01*
X19016Y2280D01*
X18858D01*
X18963D02*
X19068Y2175D01*
X19173D02*
X19278D01*
X19226D01*
Y2490D01*
X19173Y2438D01*
X19436Y2175D02*
X19540D01*
X19488D01*
Y2490D01*
X19436Y2438D01*
X17795Y2175D02*
Y2490D01*
X17953D01*
X18005Y2438D01*
Y2333D01*
X17953Y2280D01*
X17795D01*
X17900D02*
X18005Y2175D01*
X18110D02*
X18215D01*
X18163D01*
Y2490D01*
X18110Y2438D01*
X18373D02*
X18425Y2490D01*
X18530D01*
X18582Y2438D01*
Y2228D01*
X18530Y2175D01*
X18425D01*
X18373Y2228D01*
Y2438D01*
X13898Y5541D02*
Y5856D01*
X14055D01*
X14108Y5804D01*
Y5699D01*
X14055Y5646D01*
X13898D01*
X14003D02*
X14108Y5541D01*
X14212Y5594D02*
X14265Y5541D01*
X14370D01*
X14422Y5594D01*
Y5804D01*
X14370Y5856D01*
X14265D01*
X14212Y5804D01*
Y5751D01*
X14265Y5699D01*
X14422D01*
X25551Y7018D02*
Y7333D01*
X25709D01*
X25761Y7280D01*
Y7175D01*
X25709Y7123D01*
X25551D01*
X25656D02*
X25761Y7018D01*
X25866Y7280D02*
X25919Y7333D01*
X26023D01*
X26076Y7280D01*
Y7228D01*
X26023Y7175D01*
X26076Y7123D01*
Y7070D01*
X26023Y7018D01*
X25919D01*
X25866Y7070D01*
Y7123D01*
X25919Y7175D01*
X25866Y7228D01*
Y7280D01*
X25919Y7175D02*
X26023D01*
X24921Y5128D02*
Y5443D01*
X25079D01*
X25131Y5390D01*
Y5285D01*
X25079Y5233D01*
X24921D01*
X25026D02*
X25131Y5128D01*
X25236Y5443D02*
X25446D01*
Y5390D01*
X25236Y5180D01*
Y5128D01*
X24105Y2514D02*
Y2829D01*
X24262D01*
X24315Y2777D01*
Y2672D01*
X24262Y2619D01*
X24105D01*
X24210D02*
X24315Y2514D01*
X24630Y2829D02*
X24525Y2777D01*
X24420Y2672D01*
Y2567D01*
X24472Y2514D01*
X24577D01*
X24630Y2567D01*
Y2619D01*
X24577Y2672D01*
X24420D01*
X20379Y5049D02*
Y5364D01*
X20537D01*
X20589Y5312D01*
Y5207D01*
X20537Y5154D01*
X20379D01*
X20484D02*
X20589Y5049D01*
X20904Y5364D02*
X20694D01*
Y5207D01*
X20799Y5259D01*
X20851D01*
X20904Y5207D01*
Y5102D01*
X20851Y5049D01*
X20746D01*
X20694Y5102D01*
X19828Y5876D02*
Y6191D01*
X19985D01*
X20038Y6138D01*
Y6033D01*
X19985Y5981D01*
X19828D01*
X19933D02*
X20038Y5876D01*
X20143D02*
X20248D01*
X20195D01*
Y6191D01*
X20143Y6138D01*
X25340Y5482D02*
Y5797D01*
X25497D01*
X25550Y5745D01*
Y5640D01*
X25497Y5587D01*
X25340D01*
X25445D02*
X25550Y5482D01*
X25865D02*
X25655D01*
X25865Y5692D01*
Y5745D01*
X25812Y5797D01*
X25707D01*
X25655Y5745D01*
X25340Y3563D02*
Y3878D01*
X25497D01*
X25550Y3825D01*
Y3720D01*
X25497Y3668D01*
X25340D01*
X25445D02*
X25550Y3563D01*
X25812D02*
Y3878D01*
X25655Y3720D01*
X25865D01*
X20249Y7871D02*
X20197Y7923D01*
X20092D01*
X20039Y7871D01*
Y7661D01*
X20092Y7608D01*
X20197D01*
X20249Y7661D01*
X20512Y7608D02*
Y7923D01*
X20354Y7766D01*
X20564D01*
X21071Y7910D02*
X21019Y7962D01*
X20914D01*
X20861Y7910D01*
Y7700D01*
X20914Y7648D01*
X21019D01*
X21071Y7700D01*
X21176Y7648D02*
X21281D01*
X21229D01*
Y7962D01*
X21176Y7910D01*
X23360Y7921D02*
X23307Y7973D01*
X23202D01*
X23150Y7921D01*
Y7711D01*
X23202Y7658D01*
X23307D01*
X23360Y7711D01*
X23674Y7658D02*
X23464D01*
X23674Y7868D01*
Y7921D01*
X23622Y7973D01*
X23517D01*
X23464Y7921D01*
X17887Y7910D02*
X17835Y7962D01*
X17730D01*
X17677Y7910D01*
Y7700D01*
X17730Y7648D01*
X17835D01*
X17887Y7700D01*
X17992Y7962D02*
X18202D01*
Y7910D01*
X17992Y7700D01*
Y7648D01*
X16903Y7871D02*
X16850Y7923D01*
X16745D01*
X16693Y7871D01*
Y7661D01*
X16745Y7608D01*
X16850D01*
X16903Y7661D01*
X17218Y7923D02*
X17113Y7871D01*
X17008Y7766D01*
Y7661D01*
X17060Y7608D01*
X17165D01*
X17218Y7661D01*
Y7713D01*
X17165Y7766D01*
X17008D01*
X8360Y5535D02*
X8307Y5482D01*
Y5377D01*
X8360Y5325D01*
X8570D01*
X8622Y5377D01*
Y5482D01*
X8570Y5535D01*
X8622Y5640D02*
Y5745D01*
Y5692D01*
X8307D01*
X8360Y5640D01*
X8622Y6059D02*
X8307D01*
X8465Y5902D01*
Y6112D01*
X16968Y5915D02*
Y6230D01*
X17126D01*
X17178Y6178D01*
Y6073D01*
X17126Y6020D01*
X16968D01*
X17073D02*
X17178Y5915D01*
X17283Y6178D02*
X17336Y6230D01*
X17441D01*
X17493Y6178D01*
Y6125D01*
X17441Y6073D01*
X17388D01*
X17441D01*
X17493Y6020D01*
Y5968D01*
X17441Y5915D01*
X17336D01*
X17283Y5968D01*
X22032Y8022D02*
Y7759D01*
X22084Y7707D01*
X22189D01*
X22241Y7759D01*
Y8022D01*
X22346Y7707D02*
X22451D01*
X22399D01*
Y8022D01*
X22346Y7969D01*
X15446Y4472D02*
X15394Y4419D01*
Y4314D01*
X15446Y4262D01*
X15656D01*
X15709Y4314D01*
Y4419D01*
X15656Y4472D01*
X15709Y4577D02*
Y4682D01*
Y4629D01*
X15394D01*
X15446Y4577D01*
Y4839D02*
X15394Y4892D01*
Y4996D01*
X15446Y5049D01*
X15656D01*
X15709Y4996D01*
Y4892D01*
X15656Y4839D01*
X15446D01*
X8793Y5928D02*
X8740Y5876D01*
Y5771D01*
X8793Y5719D01*
X9003D01*
X9055Y5771D01*
Y5876D01*
X9003Y5928D01*
Y6033D02*
X9055Y6086D01*
Y6191D01*
X9003Y6243D01*
X8793D01*
X8740Y6191D01*
Y6086D01*
X8793Y6033D01*
X8845D01*
X8898Y6086D01*
Y6243D01*
X24213Y1978D02*
Y2293D01*
X24370D01*
X24423Y2241D01*
Y2136D01*
X24370Y2083D01*
X24213D01*
X24318D02*
X24423Y1978D01*
X24527D02*
X24632D01*
X24580D01*
Y2293D01*
X24527Y2241D01*
X25000Y1978D02*
X24790D01*
X25000Y2188D01*
Y2241D01*
X24947Y2293D01*
X24842D01*
X24790Y2241D01*
X24213Y758D02*
Y1073D01*
X24370D01*
X24423Y1020D01*
Y915D01*
X24370Y863D01*
X24213D01*
X24318D02*
X24423Y758D01*
X24527D02*
X24632D01*
X24580D01*
Y1073D01*
X24527Y1020D01*
X24947Y758D02*
Y1073D01*
X24790Y915D01*
X25000D01*
X24213Y1348D02*
Y1663D01*
X24370D01*
X24423Y1611D01*
Y1506D01*
X24370Y1453D01*
X24213D01*
X24318D02*
X24423Y1348D01*
X24527D02*
X24632D01*
X24580D01*
Y1663D01*
X24527Y1611D01*
X24790D02*
X24842Y1663D01*
X24947D01*
X25000Y1611D01*
Y1558D01*
X24947Y1506D01*
X24895D01*
X24947D01*
X25000Y1453D01*
Y1401D01*
X24947Y1348D01*
X24842D01*
X24790Y1401D01*
X22691Y5351D02*
X22638Y5403D01*
X22534D01*
X22481Y5351D01*
Y5298D01*
X22534Y5246D01*
X22638D01*
X22691Y5194D01*
Y5141D01*
X22638Y5089D01*
X22534D01*
X22481Y5141D01*
X22796Y5403D02*
Y5089D01*
X22901Y5194D01*
X23006Y5089D01*
Y5403D01*
X25131Y3999D02*
Y4209D01*
X25079Y4262D01*
X24974D01*
X24921Y4209D01*
Y3999D01*
X24974Y3947D01*
X25079D01*
X25026Y4052D02*
X25131Y3947D01*
X25079D02*
X25131Y3999D01*
X25446Y3947D02*
X25236D01*
X25446Y4157D01*
Y4209D01*
X25394Y4262D01*
X25289D01*
X25236Y4209D01*
X18855Y5377D02*
X18645D01*
X18593Y5325D01*
Y5220D01*
X18645Y5167D01*
X18855D01*
X18907Y5220D01*
Y5325D01*
X18803Y5272D02*
X18907Y5377D01*
Y5325D02*
X18855Y5377D01*
X18645Y5482D02*
X18593Y5535D01*
Y5640D01*
X18645Y5692D01*
X18698D01*
X18750Y5640D01*
Y5587D01*
Y5640D01*
X18803Y5692D01*
X18855D01*
X18907Y5640D01*
Y5535D01*
X18855Y5482D01*
X17786Y5338D02*
X17576D01*
X17524Y5285D01*
Y5180D01*
X17576Y5128D01*
X17786D01*
X17839Y5180D01*
Y5285D01*
X17734Y5233D02*
X17839Y5338D01*
Y5285D02*
X17786Y5338D01*
X17839Y5600D02*
X17524D01*
X17681Y5443D01*
Y5653D01*
X16586Y5372D02*
X16377D01*
X16324Y5320D01*
Y5215D01*
X16377Y5162D01*
X16586D01*
X16639Y5215D01*
Y5320D01*
X16534Y5267D02*
X16639Y5372D01*
Y5320D02*
X16586Y5372D01*
X16324Y5687D02*
Y5477D01*
X16482D01*
X16429Y5582D01*
Y5635D01*
X16482Y5687D01*
X16586D01*
X16639Y5635D01*
Y5530D01*
X16586Y5477D01*
X16595Y2175D02*
Y2490D01*
X16753D01*
X16805Y2438D01*
Y2333D01*
X16753Y2280D01*
X16595D01*
X16700D02*
X16805Y2175D01*
X16910D02*
X17015D01*
X16963D01*
Y2490D01*
X16910Y2438D01*
X17172Y2490D02*
X17382D01*
Y2438D01*
X17172Y2228D01*
Y2175D01*
D41*
X21230Y6407D02*
G03*
X21230Y6407I-49J0D01*
G01*
X19793Y6329D02*
G03*
X19793Y6329I-49J0D01*
G01*
X15958Y1220D02*
G03*
X15958Y1220I-49J0D01*
G01*
X21644Y7707D02*
G03*
X21644Y7707I-49J0D01*
G01*
X23789Y4636D02*
G03*
X23789Y4636I-49J0D01*
G01*
X18691Y4380D02*
G03*
X18691Y4380I-49J0D01*
G01*
X16329D02*
G03*
X16329Y4380I-49J0D01*
G01*
X17510D02*
G03*
X17510Y4380I-49J0D01*
G01*
D50*
X11791Y4656D02*
G03*
X11791Y4656I-88J0D01*
G01*
X14850Y1235D02*
Y1951D01*
Y-162D02*
Y344D01*
X11449Y1235D02*
Y1951D01*
Y-182D02*
Y344D01*
X13641Y2305D02*
X14330D01*
X11449Y-235D02*
X14850Y-235D01*
X11969Y2303D02*
X12658D01*
D51*
X9286Y4125D02*
G03*
X9286Y4125I-100J0D01*
G01*
D52*
X5792Y7024D02*
X6145Y6671D01*
X5509Y6741D02*
X5792Y7024D01*
X2468Y3701D02*
X2786Y4019D01*
X2468Y3701D02*
X2822Y3347D01*
X5438Y731D02*
X5792Y377D01*
X6110Y696D01*
X8761Y4054D02*
X9115Y3701D01*
X8797Y3383D02*
X9115Y3701D01*
D53*
X30985Y6565D02*
X30985Y7658D01*
X31390Y7658D01*
X30985Y472D02*
Y1565D01*
Y472D02*
X31390D01*
X38363Y7658D02*
X41125D01*
X38363Y472D02*
X41125Y472D01*
X41125Y7658D02*
X41125Y472D01*
M02*
