G04 Layer_Color=65535*
%FSLAX24Y24*%
%MOIN*%
G70*
G01*
G75*
%ADD36C,0.0039*%
D36*
X118Y-2402D02*
Y-2533D01*
X144Y-2559D01*
X197D01*
X223Y-2533D01*
Y-2402D01*
X380Y-2559D02*
X276D01*
X380Y-2454D01*
Y-2428D01*
X354Y-2402D01*
X302D01*
X276Y-2428D01*
X2034Y-1813D02*
X2008Y-1840D01*
Y-1892D01*
X2034Y-1918D01*
X2139D01*
X2165Y-1892D01*
Y-1840D01*
X2139Y-1813D01*
X2008Y-1761D02*
Y-1656D01*
X2034D01*
X2139Y-1761D01*
X2165D01*
X2861Y-1824D02*
Y-1719D01*
X2835Y-1693D01*
X2782D01*
X2756Y-1719D01*
Y-1824D01*
X2782Y-1850D01*
X2835D01*
X2808Y-1798D02*
X2861Y-1850D01*
X2835D02*
X2861Y-1824D01*
X2992Y-1850D02*
Y-1693D01*
X2913Y-1772D01*
X3018D01*
X1811Y-1339D02*
Y-1181D01*
X1890D01*
X1916Y-1207D01*
Y-1260D01*
X1890Y-1286D01*
X1811D01*
X1864D02*
X1916Y-1339D01*
X1968D02*
X2021D01*
X1995D01*
Y-1181D01*
X1968Y-1207D01*
X2178Y-1339D02*
Y-1181D01*
X2100Y-1260D01*
X2205D01*
X2408Y-3078D02*
X2501Y-3170D01*
X2538D01*
X2575Y-3133D01*
Y-3096D01*
X2483Y-3003D01*
X2631Y-3078D02*
X2668Y-3041D01*
X2650Y-3059D01*
X2538Y-2948D01*
Y-2985D01*
X-704Y-4352D02*
X-862D01*
Y-4274D01*
X-836Y-4247D01*
X-783D01*
X-757Y-4274D01*
Y-4352D01*
Y-4300D02*
X-704Y-4247D01*
Y-4090D02*
Y-4195D01*
X-809Y-4090D01*
X-836D01*
X-862Y-4116D01*
Y-4169D01*
X-836Y-4195D01*
X1929Y-4370D02*
X1818Y-4259D01*
X1873Y-4203D01*
X1911D01*
X1948Y-4240D01*
X1948Y-4277D01*
X1892Y-4333D01*
X1929Y-4296D02*
X2003Y-4296D01*
X2040Y-4259D02*
X2078Y-4222D01*
X2059Y-4240D01*
X1948Y-4129D01*
Y-4166D01*
X4252Y-276D02*
Y-433D01*
X4331D01*
X4357Y-407D01*
Y-302D01*
X4331Y-276D01*
X4252D01*
X4514Y-433D02*
X4409D01*
X4514Y-328D01*
Y-302D01*
X4488Y-276D01*
X4436D01*
X4409Y-302D01*
X1273Y-3832D02*
X1247Y-3858D01*
Y-3911D01*
X1273Y-3937D01*
X1378D01*
X1404Y-3911D01*
Y-3858D01*
X1378Y-3832D01*
X1404Y-3780D02*
Y-3727D01*
Y-3753D01*
X1247D01*
X1273Y-3780D01*
X1404Y-3648D02*
Y-3596D01*
Y-3622D01*
X1247D01*
X1273Y-3648D01*
X1601Y-3832D02*
X1575Y-3858D01*
Y-3911D01*
X1601Y-3937D01*
X1706D01*
X1732Y-3911D01*
Y-3858D01*
X1706Y-3832D01*
Y-3780D02*
X1732Y-3753D01*
Y-3701D01*
X1706Y-3675D01*
X1601D01*
X1575Y-3701D01*
Y-3753D01*
X1601Y-3780D01*
X1627D01*
X1654Y-3753D01*
Y-3675D01*
X-2848Y2336D02*
X-2874Y2362D01*
X-2927D01*
X-2953Y2336D01*
Y2231D01*
X-2927Y2205D01*
X-2874D01*
X-2848Y2231D01*
X-2795Y2336D02*
X-2769Y2362D01*
X-2717D01*
X-2690Y2336D01*
Y2310D01*
X-2717Y2283D01*
X-2743D01*
X-2717D01*
X-2690Y2257D01*
Y2231D01*
X-2717Y2205D01*
X-2769D01*
X-2795Y2231D01*
X3255Y1404D02*
X3228Y1378D01*
Y1325D01*
X3255Y1299D01*
X3360D01*
X3386Y1325D01*
Y1378D01*
X3360Y1404D01*
X3386Y1457D02*
Y1509D01*
Y1483D01*
X3228D01*
X3255Y1457D01*
X2034Y761D02*
X2008Y787D01*
X1955D01*
X1929Y761D01*
Y656D01*
X1955Y630D01*
X2008D01*
X2034Y656D01*
Y709D01*
X1982D01*
X2087Y630D02*
Y787D01*
X2165D01*
X2192Y761D01*
Y709D01*
X2165Y682D01*
X2087D01*
X2349Y761D02*
X2323Y787D01*
X2270D01*
X2244Y761D01*
Y735D01*
X2270Y709D01*
X2323D01*
X2349Y682D01*
Y656D01*
X2323Y630D01*
X2270D01*
X2244Y656D01*
X4128Y-1384D02*
Y-1279D01*
X4102Y-1253D01*
X4049D01*
X4023Y-1279D01*
Y-1384D01*
X4049Y-1410D01*
X4102D01*
X4075Y-1358D02*
X4128Y-1410D01*
X4102D02*
X4128Y-1384D01*
X4285Y-1410D02*
X4180D01*
X4285Y-1305D01*
Y-1279D01*
X4259Y-1253D01*
X4207D01*
X4180Y-1279D01*
X3215Y105D02*
X3189Y79D01*
Y26D01*
X3215Y-0D01*
X3320D01*
X3346Y26D01*
Y79D01*
X3320Y105D01*
X3346Y236D02*
X3189D01*
X3268Y157D01*
Y262D01*
X3609Y1365D02*
X3583Y1339D01*
Y1286D01*
X3609Y1260D01*
X3714D01*
X3740Y1286D01*
Y1339D01*
X3714Y1365D01*
X3583Y1522D02*
Y1417D01*
X3661D01*
X3635Y1470D01*
Y1496D01*
X3661Y1522D01*
X3714D01*
X3740Y1496D01*
Y1444D01*
X3714Y1417D01*
X4010Y2305D02*
X3973D01*
X3936Y2268D01*
Y2231D01*
X4010Y2157D01*
X4047D01*
X4084Y2194D01*
Y2231D01*
X4103Y2435D02*
X4084Y2379D01*
Y2305D01*
X4121Y2268D01*
X4159D01*
X4196Y2305D01*
Y2342D01*
X4177Y2361D01*
X4140Y2361D01*
X4084Y2305D01*
X3886Y-2812D02*
X3775Y-2700D01*
X3831Y-2645D01*
X3868D01*
X3905Y-2682D01*
X3905Y-2719D01*
X3849Y-2774D01*
X3886Y-2737D02*
X3961Y-2737D01*
X3905Y-2607D02*
Y-2570D01*
X3942Y-2533D01*
X3979D01*
X3998Y-2552D01*
Y-2589D01*
X3979Y-2607D01*
X3998Y-2589D01*
X4035Y-2589D01*
X4053Y-2607D01*
Y-2645D01*
X4016Y-2682D01*
X3979D01*
X3404Y-591D02*
X3246D01*
Y-512D01*
X3272Y-486D01*
X3325D01*
X3351Y-512D01*
Y-591D01*
Y-538D02*
X3404Y-486D01*
X3272Y-433D02*
X3246Y-407D01*
Y-354D01*
X3272Y-328D01*
X3299D01*
X3325Y-354D01*
X3351Y-328D01*
X3377D01*
X3404Y-354D01*
Y-407D01*
X3377Y-433D01*
X3351D01*
X3325Y-407D01*
X3299Y-433D01*
X3272D01*
X3325Y-407D02*
Y-354D01*
X3661Y-315D02*
X3819D01*
Y-210D01*
X3661Y-53D02*
Y-158D01*
X3819D01*
Y-53D01*
X3740Y-158D02*
Y-105D01*
X3661Y-0D02*
X3819D01*
Y79D01*
X3793Y105D01*
X3688D01*
X3661Y79D01*
Y-0D01*
X3819Y157D02*
Y210D01*
Y184D01*
X3661D01*
X3688Y157D01*
X-1612Y-4116D02*
X-1454D01*
Y-4037D01*
X-1481Y-4011D01*
X-1586D01*
X-1612Y-4037D01*
Y-4116D01*
X-1454Y-3959D02*
Y-3906D01*
Y-3932D01*
X-1612D01*
X-1586Y-3959D01*
X-479Y3924D02*
Y4029D01*
X-505Y4055D01*
X-558D01*
X-584Y4029D01*
Y3924D01*
X-558Y3898D01*
X-505D01*
X-532Y3950D02*
X-479Y3898D01*
X-505D02*
X-479Y3924D01*
X-427Y4055D02*
X-322D01*
Y4029D01*
X-427Y3924D01*
Y3898D01*
X3819Y-2047D02*
Y-1890D01*
X3898D01*
X3924Y-1916D01*
Y-1969D01*
X3898Y-1995D01*
X3819D01*
X3871D02*
X3924Y-2047D01*
X3976D02*
X4029D01*
X4003D01*
Y-1890D01*
X3976Y-1916D01*
X4212Y-1890D02*
X4160Y-1916D01*
X4108Y-1969D01*
Y-2021D01*
X4134Y-2047D01*
X4186D01*
X4212Y-2021D01*
Y-1995D01*
X4186Y-1969D01*
X4108D01*
X3425Y-1378D02*
X3268D01*
Y-1299D01*
X3294Y-1273D01*
X3346D01*
X3373Y-1299D01*
Y-1378D01*
Y-1325D02*
X3425Y-1273D01*
Y-1221D02*
Y-1168D01*
Y-1194D01*
X3268D01*
X3294Y-1221D01*
X3268Y-1089D02*
Y-984D01*
X3294D01*
X3399Y-1089D01*
X3425D01*
X3346Y-2520D02*
X3235Y-2408D01*
X3291Y-2353D01*
X3328D01*
X3365Y-2390D01*
X3365Y-2427D01*
X3309Y-2483D01*
X3346Y-2445D02*
X3421Y-2445D01*
X3458Y-2408D02*
X3495Y-2371D01*
X3476Y-2390D01*
X3365Y-2279D01*
Y-2316D01*
X3458Y-2223D02*
Y-2186D01*
X3495Y-2149D01*
X3532D01*
X3551Y-2167D01*
Y-2204D01*
X3588Y-2204D01*
X3606Y-2223D01*
Y-2260D01*
X3569Y-2297D01*
X3532D01*
X3513Y-2279D01*
X3513Y-2241D01*
X3476D01*
X3458Y-2223D01*
X3513Y-2241D02*
X3551Y-2204D01*
X-2350Y1614D02*
X-2508D01*
Y1693D01*
X-2482Y1719D01*
X-2429D01*
X-2403Y1693D01*
Y1614D01*
Y1667D02*
X-2350Y1719D01*
Y1877D02*
Y1772D01*
X-2455Y1877D01*
X-2482D01*
X-2508Y1850D01*
Y1798D01*
X-2482Y1772D01*
X-2350Y2008D02*
X-2508D01*
X-2429Y1929D01*
Y2034D01*
X-2063Y3713D02*
Y3581D01*
X-2037Y3555D01*
X-1984D01*
X-1958Y3581D01*
Y3713D01*
X-1800D02*
X-1905D01*
Y3634D01*
X-1853Y3660D01*
X-1827D01*
X-1800Y3634D01*
Y3581D01*
X-1827Y3555D01*
X-1879D01*
X-1905Y3581D01*
X-2350Y-1890D02*
X-2508D01*
Y-1811D01*
X-2482Y-1785D01*
X-2429D01*
X-2403Y-1811D01*
Y-1890D01*
Y-1837D02*
X-2350Y-1785D01*
X-2508Y-1732D02*
Y-1627D01*
X-2482D01*
X-2377Y-1732D01*
X-2350D01*
X3481Y2770D02*
X3407Y2844D01*
X3370D01*
X3332Y2807D01*
Y2770D01*
X3407Y2696D01*
X3444D01*
X3481Y2733D01*
X3425Y2751D02*
X3499Y2751D01*
X3481Y2733D02*
Y2770D01*
X3537Y2788D02*
X3574Y2826D01*
X3555Y2807D01*
X3444Y2918D01*
Y2881D01*
X3398Y656D02*
Y814D01*
X3476D01*
X3503Y787D01*
Y735D01*
X3476Y709D01*
X3398D01*
X3450D02*
X3503Y656D01*
X3634D02*
Y814D01*
X3555Y735D01*
X3660D01*
X2183Y-2415D02*
Y-2258D01*
X2262D01*
X2288Y-2284D01*
Y-2336D01*
X2262Y-2363D01*
X2183D01*
X2236D02*
X2288Y-2415D01*
X2446Y-2258D02*
X2341D01*
Y-2336D01*
X2393Y-2310D01*
X2420D01*
X2446Y-2336D01*
Y-2389D01*
X2420Y-2415D01*
X2367D01*
X2341Y-2389D01*
X1798Y-2572D02*
X1772Y-2598D01*
Y-2651D01*
X1798Y-2677D01*
X1903D01*
X1929Y-2651D01*
Y-2598D01*
X1903Y-2572D01*
X1798Y-2520D02*
X1772Y-2493D01*
Y-2441D01*
X1798Y-2415D01*
X1824D01*
X1850Y-2441D01*
X1877Y-2415D01*
X1903D01*
X1929Y-2441D01*
Y-2493D01*
X1903Y-2520D01*
X1877D01*
X1850Y-2493D01*
X1824Y-2520D01*
X1798D01*
X1850Y-2493D02*
Y-2441D01*
X39Y-4331D02*
Y-4488D01*
X118D01*
X144Y-4462D01*
Y-4357D01*
X118Y-4331D01*
X39D01*
X197Y-4357D02*
X223Y-4331D01*
X276D01*
X302Y-4357D01*
Y-4383D01*
X276Y-4409D01*
X249D01*
X276D01*
X302Y-4436D01*
Y-4462D01*
X276Y-4488D01*
X223D01*
X197Y-4462D01*
X-3187Y2867D02*
X-3075Y2756D01*
X-3020Y2812D01*
Y2849D01*
X-3038Y2867D01*
X-3075Y2867D01*
X-3131Y2812D01*
X-3075Y2867D01*
Y2904D01*
X-3094Y2923D01*
X-3131D01*
X-3187Y2867D01*
X-3020Y2960D02*
X-2983Y2997D01*
X-2946D01*
X-2890Y2941D01*
X-2946Y2886D01*
X-2983D01*
Y2923D01*
X-2927Y2979D01*
X-2927Y3090D02*
X-2908Y3071D01*
X-2927Y3053D01*
X-2890Y3090D01*
X-2908Y3071D01*
X-2853Y3016D01*
X-2816D01*
X-2834Y3183D02*
X-2816Y3164D01*
X-2834Y3146D01*
X-2797Y3183D01*
X-2816Y3164D01*
X-2760Y3108D01*
X-2723D01*
X-2612Y3220D02*
X-2649Y3183D01*
X-2686D01*
X-2723Y3220D01*
Y3257D01*
X-2686Y3294D01*
X-2649D01*
X-2630Y3275D01*
X-2704Y3201D01*
X-2630Y3350D02*
X-2556Y3275D01*
X-2593Y3313D01*
Y3350D01*
Y3387D01*
X-2575Y3405D01*
X-2519Y3461D02*
X-2463Y3405D01*
X-2426D01*
X-2370Y3461D01*
X-2352Y3442D01*
Y3405D01*
X-2370Y3387D01*
X-2370Y3461D02*
X-2445Y3535D01*
M02*
