M48
;Layer_Color=9474304
;FILE_FORMAT=2:4
INCH,LZ
;TYPE=PLATED
T1F00S00C0.0079
T2F00S00C0.0098
T3F00S00C0.0118
T4F00S00C0.0157
T7F00S00C0.0354
T8F00S00C0.0827
T9F00S00C0.1181
%
T01
X-002283Y-004134
X-001614Y-004488
X-001201Y-004685
X-001561Y-003546
X-001772Y-003543
X-002244Y-002192
X-003445Y-0025
X-000748Y-002362
X000248Y-001957
X000512
X000419Y-001622
X000512Y-001075
X000472Y-000787
X000197Y-001142
X-000236Y-000827
X001024Y-000906
X001077Y-000571
X002217Y-000591
X002402Y-001063
X002576Y-00122
X00248Y-001772
X001783Y-00189
X003071Y-000817
X002972Y-003268
X002987Y-003469
X000787Y-003425
X000079Y-003268
X001299Y-004409
X-001929Y-000689
X-001905Y-000256
X-001413Y000325
X-000315Y000197
X-000079Y-00002
X000079Y-000236
X000419Y000225
X001535Y000295
X002244Y000669
X002283Y000984
X002272Y-000118
X001496Y001418
X000039Y001417
X-000234Y000768
X-000512Y002559
X-000057Y003071
X-000018Y003386
X-00252Y00313
X-001905Y004441
X003346Y002521
X003962Y001811
X004449Y-00016
X004764Y-000197
T02
X-001929Y000315
T03
X004753Y-000968
X003962Y-002298
X002868Y-001777
X002835Y-001181
X002717Y-003228
X002323Y-00374
X001811Y-003189
X001654Y-004238
X000827Y-00378
X000276Y-003883
X-000374Y-003839
X-000771Y-003661
X-00122Y-003465
X-002362Y002323
X-00252Y002559
X003579Y002777
X004291Y00202
X003036Y001473
X002664Y001201
X002677Y000354
T04
X-002495Y-000945
Y-00063
X-002141Y-000472
Y-000157
Y000158
Y000472
X-002495Y000315
Y00063
Y000945
Y-000315
T07
X-003482Y003091
X-002835Y00374
X004409Y001417
X004547Y000748
T08
X-002638Y-00315
X002559Y003543
T09
X000748Y001142
M30
