G04 Layer_Physical_Order=2*
G04 Layer_Color=36540*
%FSLAX24Y24*%
%MOIN*%
G70*
G01*
G75*
%ADD31C,0.0157*%
%ADD32C,0.0079*%
%ADD33C,0.0197*%
%ADD34C,0.0049*%
%ADD35C,0.0059*%
%ADD36C,0.0039*%
%ADD37C,0.0098*%
%ADD43C,0.0591*%
%ADD44C,0.0984*%
%ADD46O,0.0276X0.0472*%
%ADD47C,0.0236*%
%ADD48O,0.0630X0.0394*%
%ADD49O,0.0866X0.0472*%
G04:AMPARAMS|DCode=50|XSize=59.1mil|YSize=59.1mil|CornerRadius=0mil|HoleSize=0mil|Usage=FLASHONLY|Rotation=45.000|XOffset=0mil|YOffset=0mil|HoleType=Round|Shape=Octagon|*
%AMOCTAGOND50*
4,1,8,0.0313,0.0104,0.0104,0.0313,-0.0104,0.0313,-0.0313,0.0104,-0.0313,-0.0104,-0.0104,-0.0313,0.0104,-0.0313,0.0313,-0.0104,0.0313,0.0104,0.0*
%
%ADD50OCTAGOND50*%

%ADD51C,0.0157*%
G36*
X298Y-1743D02*
X419Y-1793D01*
X539Y-1743D01*
X595Y-1816D01*
X612Y-1858D01*
X1619Y-2865D01*
Y-3138D01*
X1598Y-3189D01*
X1555Y-3253D01*
X1430D01*
X1237Y-3060D01*
X1101Y-3004D01*
X693D01*
X558Y-3060D01*
X520Y-3097D01*
X422Y-3057D01*
Y-2686D01*
X389Y-2607D01*
X389Y-2607D01*
X183Y-2400D01*
Y-1818D01*
X278Y-1738D01*
X298Y-1743D01*
D02*
G37*
G36*
X-130Y-1643D02*
Y-2483D01*
X-97Y-2562D01*
X110Y-2769D01*
Y-3001D01*
X11Y-3042D01*
X-5Y-3026D01*
X-84Y-2993D01*
X-1284D01*
X-2077Y-2201D01*
X-2074Y-2192D01*
X-2124Y-2071D01*
X-2244Y-2022D01*
X-2365Y-2071D01*
X-2415Y-2192D01*
X-2393Y-2243D01*
X-2459Y-2342D01*
X-2653D01*
X-2693Y-2243D01*
X-2035Y-1585D01*
X-212D01*
X-130Y-1643D01*
D02*
G37*
G36*
X-2964Y-1925D02*
X-2911Y-1947D01*
X-2891Y-2042D01*
X-2955Y-2116D01*
X-3189D01*
X-3279Y-2154D01*
X-3463Y-2337D01*
X-3565Y-2379D01*
X-3615Y-2500D01*
X-3565Y-2621D01*
X-3445Y-2670D01*
X-3380Y-2750D01*
Y-3443D01*
X-3478Y-3495D01*
X-3488Y-3488D01*
X-4444Y-2059D01*
X-4396Y-1953D01*
X-4368Y-1942D01*
X-4342Y-1878D01*
Y-1861D01*
X-2991D01*
X-2964Y-1925D01*
D02*
G37*
G36*
X2716Y-4005D02*
X1888Y-4558D01*
X1353Y-4664D01*
X1324Y-4570D01*
X1420Y-4530D01*
X1470Y-4409D01*
X1420Y-4289D01*
X1299Y-4239D01*
X1231Y-4267D01*
X1176Y-4184D01*
X1291Y-4068D01*
X2165D01*
X2286Y-4018D01*
X2371Y-3933D01*
X2426Y-3911D01*
X2687D01*
X2716Y-4005D01*
D02*
G37*
G36*
X-1805Y-3110D02*
X-1821Y-3233D01*
X-2087Y-3499D01*
X-2120Y-3578D01*
Y-3928D01*
X-2218Y-3990D01*
X-2283Y-3963D01*
X-2404Y-4013D01*
X-2408Y-4022D01*
X-2591D01*
X-3156Y-3458D01*
Y-2775D01*
X-2947Y-2566D01*
X-2350D01*
X-1805Y-3110D01*
D02*
G37*
G36*
X-1514Y-687D02*
X-1378Y-743D01*
X-461D01*
X-406Y-825D01*
X-407Y-827D01*
X-357Y-947D01*
X-236Y-997D01*
X-116Y-947D01*
X-66Y-827D01*
X-67Y-825D01*
X-12Y-743D01*
X220D01*
X246Y-782D01*
X269Y-841D01*
X250Y-887D01*
X197Y-971D01*
X76Y-1021D01*
X34Y-1124D01*
X-171Y-1329D01*
X-2088D01*
X-2178Y-1366D01*
X-2504Y-1693D01*
X-2603Y-1652D01*
Y-1202D01*
X-2521Y-1147D01*
X-2495Y-1158D01*
X-2345Y-1096D01*
X-2282Y-945D01*
X-2317Y-862D01*
X-2242Y-787D01*
X-2241Y-787D01*
X-2220Y-795D01*
X-2055D01*
X-2050Y-809D01*
X-1929Y-859D01*
X-1809Y-809D01*
X-1759Y-689D01*
X-1742Y-664D01*
X-1536D01*
X-1514Y-687D01*
D02*
G37*
G36*
X-3614Y2694D02*
X-3350Y2694D01*
X-3350Y2694D01*
X-3226Y2643D01*
X-1654D01*
X-1370Y2359D01*
X-1426Y2276D01*
X-1469Y2293D01*
X-2058D01*
X-2149Y2323D01*
X-2212Y2474D01*
X-2362Y2536D01*
X-2513Y2474D01*
X-2575Y2323D01*
X-2513Y2172D01*
X-2362Y2110D01*
X-2339Y2119D01*
X-2295Y2075D01*
X-2205Y2038D01*
X-1522D01*
X-1348Y1864D01*
Y859D01*
X-1925D01*
X-2045Y810D01*
X-2189Y666D01*
X-2191Y665D01*
X-2319Y718D01*
X-2345Y781D01*
X-2345Y794D01*
X-2282Y945D01*
X-2345Y1096D01*
X-2495Y1158D01*
X-2521Y1147D01*
X-2603Y1202D01*
Y1772D01*
X-2593D01*
X-2657Y1925D01*
X-2810Y1989D01*
X-2964Y1925D01*
X-2991Y1861D01*
X-4251D01*
X-4342Y1874D01*
X-4355Y1906D01*
X-4368Y1937D01*
X-4368Y1937D01*
X-4368Y1937D01*
X-4396Y1949D01*
X-4399Y1950D01*
X-4447Y2054D01*
X-3900Y2872D01*
X-3802Y2882D01*
X-3614Y2694D01*
D02*
G37*
G36*
X2047Y4485D02*
X2036Y4459D01*
X3488Y3488D01*
X4558Y1888D01*
X4565Y1852D01*
X4489Y1789D01*
X4409Y1822D01*
X4209Y1739D01*
X4132Y1811D01*
X4131Y1813D01*
X4082Y1932D01*
X3962Y1981D01*
X3923Y1966D01*
X3825Y2031D01*
Y2581D01*
X3775Y2702D01*
X3765Y2711D01*
X3792Y2777D01*
X3730Y2928D01*
X3579Y2990D01*
X3429Y2928D01*
X3366Y2777D01*
X3346Y2691D01*
X3226Y2641D01*
X3183Y2538D01*
X2181Y1536D01*
X2170Y1509D01*
X2072Y1529D01*
Y1746D01*
X2072Y1746D01*
X2037Y1829D01*
X2037Y1829D01*
X1421Y2445D01*
X1339Y2479D01*
X700D01*
X112Y3068D01*
X113Y3071D01*
X63Y3191D01*
X103Y3265D01*
X108Y3278D01*
X229Y3313D01*
X394Y3245D01*
X605Y3332D01*
X692Y3543D01*
X605Y3754D01*
X394Y3842D01*
X183Y3754D01*
X121Y3605D01*
X95Y3543D01*
X4Y3547D01*
X-18Y3556D01*
X-38Y3548D01*
X-95Y3543D01*
X-183Y3754D01*
X-394Y3842D01*
X-605Y3754D01*
X-692Y3543D01*
X-614Y3356D01*
X-659Y3258D01*
X-2417D01*
X-2520Y3300D01*
X-2640Y3250D01*
X-2690Y3130D01*
X-2681Y3108D01*
X-2736Y3026D01*
X-3086D01*
X-3086Y3223D01*
X-3335Y3472D01*
X-3344Y3568D01*
X-3273Y3621D01*
X-3179Y3594D01*
X-3121Y3454D01*
X-2835Y3335D01*
X-2548Y3454D01*
X-2430Y3740D01*
X-2548Y4026D01*
X-2557Y4111D01*
X-2138Y4391D01*
X-2043Y4362D01*
X-2026Y4320D01*
X-1905Y4270D01*
X-1785Y4320D01*
X-1735Y4441D01*
X-1747Y4469D01*
X-1681Y4568D01*
X1994D01*
X2047Y4485D01*
D02*
G37*
G36*
X3484Y2301D02*
Y1846D01*
Y1361D01*
X3386Y1320D01*
X3244Y1461D01*
X3249Y1473D01*
X3187Y1624D01*
X3036Y1687D01*
X2886Y1624D01*
X2823Y1473D01*
X2886Y1323D01*
X3036Y1260D01*
X3049Y1265D01*
X3247Y1067D01*
Y295D01*
X3288Y197D01*
X3602Y-116D01*
X3564Y-207D01*
X3092D01*
X3002Y-245D01*
X2803Y-443D01*
X2514D01*
X2378Y-308D01*
X2392Y-239D01*
X2435Y-136D01*
X2531Y-39D01*
X2569Y51D01*
Y827D01*
X2531Y917D01*
X2447Y1002D01*
X2404Y1105D01*
X2400Y1107D01*
Y1393D01*
X3364Y2357D01*
X3386Y2366D01*
X3484Y2301D01*
D02*
G37*
G36*
X2461Y-699D02*
X2843D01*
X2885Y-738D01*
X2915Y-781D01*
X2900Y-817D01*
X2936Y-904D01*
X2865Y-981D01*
X2835Y-968D01*
X2684Y-1030D01*
X2661Y-1085D01*
X2576Y-1050D01*
X2568Y-1053D01*
X2522Y-942D01*
X2402Y-893D01*
X2281Y-942D01*
X2231Y-1063D01*
X2281Y-1184D01*
X2402Y-1233D01*
X2410Y-1230D01*
X2456Y-1341D01*
X2576Y-1391D01*
X2697Y-1341D01*
X2698Y-1338D01*
X2835Y-1394D01*
X2938Y-1352D01*
X3711D01*
X3751Y-1450D01*
X3070Y-2131D01*
X2638D01*
X2534Y-2026D01*
X2557Y-1910D01*
X2601Y-1892D01*
X2651Y-1772D01*
X2601Y-1651D01*
X2480Y-1601D01*
X2477Y-1603D01*
X2072Y-1197D01*
Y-807D01*
X2170Y-741D01*
X2217Y-761D01*
X2338Y-711D01*
X2451Y-695D01*
X2461Y-699D01*
D02*
G37*
G36*
X3962Y1641D02*
X3997Y1655D01*
X4072Y1580D01*
X4005Y1417D01*
X4123Y1131D01*
X4409Y1012D01*
X4615Y1098D01*
X4727Y1037D01*
X4844Y449D01*
X4760Y367D01*
X4008D01*
X3825Y550D01*
Y1591D01*
X3923Y1656D01*
X3962Y1641D01*
D02*
G37*
D31*
Y-2848D02*
Y-2298D01*
X3069Y-3740D02*
X3962Y-2848D01*
X2323Y-3740D02*
X3069D01*
X-1220Y-4035D02*
Y-3465D01*
X-898Y-4358D02*
X760D01*
X-1220Y-4035D02*
X-898Y-4358D01*
X1221Y-3898D02*
X2165D01*
X760Y-4358D02*
X1221Y-3898D01*
X3579Y2656D02*
Y2777D01*
Y2656D02*
X3655Y2581D01*
X2165Y-3898D02*
X2323Y-3740D01*
X-866Y433D02*
X571D01*
X-1122Y689D02*
X-866Y433D01*
X-1220Y689D02*
X-1122D01*
X-1925D02*
X-1220D01*
X748Y-551D02*
Y256D01*
X571Y433D02*
X748Y256D01*
X-2141Y472D02*
X-1925Y689D01*
X4741Y-535D02*
X4961Y-315D01*
X3655Y479D02*
X3937Y197D01*
X4803D01*
X4961Y39D01*
Y-315D02*
Y39D01*
X2835Y-1181D02*
X3819D01*
X4465Y-535D01*
X4741D01*
X3655Y479D02*
Y1846D01*
Y2581D01*
D32*
X2272Y984D02*
Y1446D01*
X-274Y3130D02*
X-18Y3386D01*
X-2520Y3130D02*
X-274D01*
X-2362Y2323D02*
X-2205Y2165D01*
X2441Y51D02*
Y827D01*
X2283Y984D02*
X2441Y827D01*
X1535Y-394D02*
Y295D01*
X1024Y-906D02*
X1535Y-394D01*
X-118Y-1457D02*
X197Y-1142D01*
X-2088Y-1457D02*
X-118D01*
X-2875Y-2244D02*
X-2088Y-1457D01*
X-3189Y-2244D02*
X-2875D01*
X-3445Y-2500D02*
X-3189Y-2244D01*
X744Y-4685D02*
X1019Y-4409D01*
X-1201Y-4685D02*
X744D01*
X2272Y1446D02*
X3346Y2521D01*
X1019Y-4409D02*
X1299D01*
X-2205Y2165D02*
X-1469D01*
X-1220Y1917D01*
Y689D02*
Y1917D01*
X2272Y-118D02*
X2441Y51D01*
X2098Y-208D02*
X2461Y-571D01*
X2856D01*
X3092Y-335D01*
X4626D01*
X4764Y-197D01*
X2098Y-208D02*
Y523D01*
X2244Y669D01*
X3689Y1811D02*
X3962D01*
X3655Y1846D02*
X3689Y1811D01*
D33*
X-1575Y2835D02*
X-866Y2126D01*
X-3226Y2835D02*
X-1575D01*
X-3482Y3091D02*
X-3226Y2835D01*
X1338Y2126D02*
X1772Y1692D01*
Y-1535D02*
Y1692D01*
Y-1535D02*
X2559Y-2323D01*
X748Y-1722D02*
X1811Y-2785D01*
X748Y-1722D02*
Y-551D01*
X571Y-4047D02*
Y-3318D01*
X479Y-4139D02*
X571Y-4047D01*
X-602Y-4139D02*
X479D01*
X693Y-3196D02*
X1101D01*
X571Y-3318D02*
X693Y-3196D01*
X571Y-3318D02*
X571Y-3318D01*
X1101Y-3196D02*
X1350Y-3445D01*
X1988D01*
X-771Y-3970D02*
X-602Y-4139D01*
X-771Y-3970D02*
Y-3661D01*
X2205Y-3228D02*
X2717D01*
X1988Y-3445D02*
X2205Y-3228D01*
X2559Y-2323D02*
X2717D01*
X3150D01*
X2717Y-3228D02*
Y-2323D01*
X1811Y-3189D02*
Y-2785D01*
X-1378Y-551D02*
X748D01*
X-866Y2126D02*
X1338D01*
X-1457Y-472D02*
X-1378Y-551D01*
X-2141Y-472D02*
X-1457D01*
X3150Y-2323D02*
X4409Y-1063D01*
X4658D01*
X4753Y-968D01*
D34*
X354Y-906D02*
X472Y-787D01*
X354Y-1271D02*
Y-906D01*
X-18Y-1643D02*
X354Y-1271D01*
X-18Y-2483D02*
Y-1643D01*
X512Y-1260D02*
Y-1075D01*
X71Y-1701D02*
X512Y-1260D01*
X71Y-2447D02*
Y-1701D01*
X-18Y-2483D02*
X221Y-2722D01*
X71Y-2447D02*
X310Y-2686D01*
Y-3364D02*
Y-2686D01*
X-563Y-3499D02*
X175D01*
X-527Y-3410D02*
X138D01*
X-84Y-3105D02*
X79Y-3268D01*
X-1331Y-3105D02*
X-84D01*
X-743Y-3194D02*
X-527Y-3410D01*
X138D02*
X221Y-3327D01*
X-780Y-3282D02*
X-563Y-3499D01*
X175D02*
X310Y-3364D01*
X221Y-3327D02*
Y-2722D01*
X787Y-3425D02*
X1012Y-3650D01*
X-1713Y-3282D02*
X-780D01*
X-1563Y-3194D02*
X-743D01*
X-2244Y-2192D02*
X-1331Y-3105D01*
X1012Y-3650D02*
X2098D01*
X-2008Y-3578D02*
X-1713Y-3282D01*
X-2303Y-2454D02*
X-1563Y-3194D01*
X-2008Y-4094D02*
Y-3578D01*
Y-4094D02*
X-1614Y-4488D01*
X-3268Y-3504D02*
X-2638Y-4134D01*
X-2283D01*
X-2993Y-2454D02*
X-2303D01*
X-3268Y-2728D02*
X-2993Y-2454D01*
X-3268Y-3504D02*
Y-2728D01*
X2279Y-3469D02*
X2987D01*
X2098Y-3650D02*
X2279Y-3469D01*
X-1240Y-389D02*
X261D01*
X-1373Y-256D02*
X-1240Y-389D01*
X-1905Y-256D02*
X-1373D01*
X261Y-389D02*
X419Y-231D01*
Y225D01*
D35*
X652Y2362D02*
X1339D01*
X-57Y3071D02*
X652Y2362D01*
X1339D02*
X1954Y1746D01*
Y-1246D02*
Y1746D01*
Y-1246D02*
X2480Y-1772D01*
D36*
X-195Y-98D02*
X-57Y-236D01*
X79D01*
X-1020Y-98D02*
X-195D01*
X-1079Y-39D02*
X-1020Y-98D01*
X-1413Y-39D02*
X-1079D01*
X-1275Y268D02*
X-988Y-20D01*
X-1275Y268D02*
Y382D01*
X-1356Y463D02*
X-1275Y382D01*
X-1470Y463D02*
X-1356D01*
X-988Y-20D02*
X-79D01*
X-2023Y-39D02*
X-1413D01*
X-2137Y158D02*
X-2019Y39D01*
X-2141Y-157D02*
X-2023Y-39D01*
X-1566Y39D02*
X-1551Y55D01*
X-2019Y39D02*
X-1566D01*
X-1413Y-39D02*
Y325D01*
X-1551Y382D02*
X-1470Y463D01*
X-1551Y55D02*
Y382D01*
X-2141Y158D02*
X-2137D01*
X-2318Y-591D02*
Y453D01*
Y-591D02*
X-2220Y-689D01*
X-1929D01*
X-2495Y630D02*
X-2318Y453D01*
D37*
X3841Y-160D02*
X4449D01*
X3386Y295D02*
X3841Y-160D01*
X3386Y295D02*
Y1124D01*
X3036Y1473D02*
X3386Y1124D01*
D43*
X4547Y748D02*
D03*
D44*
X2559Y3543D02*
D03*
X-2638Y-3150D02*
D03*
D46*
X-2141Y-1089D02*
D03*
Y1089D02*
D03*
D47*
X-2495Y630D02*
D03*
X-2141Y472D02*
D03*
Y-472D02*
D03*
Y157D02*
D03*
Y-158D02*
D03*
X-2520Y2559D02*
D03*
X-2362Y2323D02*
D03*
X-1220Y-3465D02*
D03*
X-771Y-3661D02*
D03*
X3579Y2777D02*
D03*
X3036Y1473D02*
D03*
X2835Y-1181D02*
D03*
X2717Y-3228D02*
D03*
X1811Y-3189D02*
D03*
X2323Y-3740D02*
D03*
X3962Y-2298D02*
D03*
X2664Y1201D02*
D03*
X2677Y354D02*
D03*
X2868Y-1777D02*
D03*
X4291Y2020D02*
D03*
X1654Y-4238D02*
D03*
X4753Y-968D02*
D03*
D48*
X-1846Y1772D02*
D03*
Y-1772D02*
D03*
D49*
X-4051Y2392D02*
D03*
Y-2392D02*
D03*
D50*
X-3482Y3091D02*
D03*
D51*
X-2520Y3130D02*
D03*
X-18Y3386D02*
D03*
X-57Y3071D02*
D03*
X2244Y669D02*
D03*
X1535Y295D02*
D03*
X1024Y-906D02*
D03*
X197Y-1142D02*
D03*
X512Y-1957D02*
D03*
X-3445Y-2500D02*
D03*
X79Y-3268D02*
D03*
X787Y-3425D02*
D03*
X-2283Y-4134D02*
D03*
X-1614Y-4488D02*
D03*
X-1201Y-4685D02*
D03*
X2283Y984D02*
D03*
X-2244Y-2192D02*
D03*
X2987Y-3469D02*
D03*
X512Y-1075D02*
D03*
X472Y-787D02*
D03*
X248Y-1957D02*
D03*
X-748Y-2362D02*
D03*
X2480Y-1772D02*
D03*
X3346Y2521D02*
D03*
X1299Y-4409D02*
D03*
X419Y225D02*
D03*
X-1905Y-256D02*
D03*
X-79Y-20D02*
D03*
X79Y-236D02*
D03*
X-1929Y-689D02*
D03*
X-1413Y325D02*
D03*
X4764Y-197D02*
D03*
X4449Y-160D02*
D03*
X2272Y-118D02*
D03*
X3962Y1811D02*
D03*
M02*
