G04 Layer_Color=65535*
%FSLAX24Y24*%
%MOIN*%
G70*
G01*
G75*
%ADD32C,0.0079*%
%ADD36C,0.0039*%
%ADD37C,0.0098*%
%ADD74C,0.0100*%
D32*
X4023Y-1764D02*
X4259D01*
Y-977D01*
X4023D02*
X4259D01*
X4023Y-1764D02*
Y-977D01*
X2795Y-2165D02*
X3031D01*
Y-1378D01*
X2795D02*
X3031D01*
X2795Y-2165D02*
Y-1378D01*
X3996Y-376D02*
Y-140D01*
Y-376D02*
X4783D01*
Y-140D01*
X3996D02*
X4783D01*
X-79Y-4665D02*
X630D01*
X-79Y-4154D02*
X630D01*
X472Y-4665D02*
Y-4154D01*
X394Y-4665D02*
Y-4154D01*
X315Y-4665D02*
Y-4154D01*
X3250Y2422D02*
X3807Y2979D01*
X3083Y2589D02*
X3250Y2422D01*
X3083Y2589D02*
X3640Y3146D01*
X3807Y2979D01*
X-2476Y3740D02*
X-2476Y3504D01*
X-2476Y3740D02*
X-1334Y3740D01*
Y3504D02*
Y3740D01*
X-2476Y3504D02*
X-1334D01*
X-2535Y2894D02*
Y3366D01*
X-571Y4213D02*
X886D01*
Y3031D02*
Y4213D01*
X-571Y3031D02*
X886D01*
X-571D02*
Y4213D01*
X-1289Y4232D02*
X-709D01*
X-1443Y-4409D02*
Y-3622D01*
X-1679Y-4409D02*
X-1443D01*
X-1679Y-3622D02*
X-1679Y-4409D01*
X-1679Y-3622D02*
X-1443D01*
X2220Y-3036D02*
X2484Y-2771D01*
X2220Y-3036D02*
X3027Y-3843D01*
X3292Y-3579D01*
X2484Y-2771D02*
X3292Y-3579D01*
D36*
X-1220Y-1024D02*
Y2913D01*
X2717D01*
Y-1024D02*
Y2913D01*
X-1220Y-1024D02*
X2717D01*
D37*
X3718Y-800D02*
G03*
X3718Y-800I-49J0D01*
G01*
X2490Y-1201D02*
G03*
X2490Y-1201I-49J0D01*
G01*
X915Y-4705D02*
G03*
X915Y-4705I-49J0D01*
G01*
X3424Y2047D02*
G03*
X3424Y2047I-49J0D01*
G01*
X4117Y-420D02*
G03*
X4117Y-420I-49J0D01*
G01*
X3752Y-3335D02*
G03*
X3752Y-3335I-49J0D01*
G01*
X-3150Y2520D02*
Y2835D01*
X-3307Y2677D02*
X-2992D01*
D74*
X-814Y-1285D02*
G03*
X-814Y-1285I-67J0D01*
G01*
X-4Y-1391D02*
G03*
X422Y-1391I213J1D01*
G01*
X960D01*
X-525D02*
X-5D01*
X-570Y-3360D02*
X1005D01*
M02*
