G04 Layer_Color=128*
%FSLAX24Y24*%
%MOIN*%
G70*
G01*
G75*
%ADD10R,0.0244X0.0228*%
%ADD12R,0.0228X0.0244*%
%ADD13R,0.0244X0.0244*%
%ADD15R,0.0244X0.0244*%
%ADD16R,0.0217X0.0335*%
%ADD59R,0.0354X0.0709*%
%ADD60R,0.0354X0.0551*%
%ADD61R,0.0433X0.0217*%
%ADD63R,0.0394X0.0906*%
G04:AMPARAMS|DCode=64|XSize=90.6mil|YSize=39.4mil|CornerRadius=9.8mil|HoleSize=0mil|Usage=FLASHONLY|Rotation=90.000|XOffset=0mil|YOffset=0mil|HoleType=Round|Shape=RoundedRectangle|*
%AMROUNDEDRECTD64*
21,1,0.0906,0.0197,0,0,90.0*
21,1,0.0709,0.0394,0,0,90.0*
1,1,0.0197,0.0098,0.0354*
1,1,0.0197,0.0098,-0.0354*
1,1,0.0197,-0.0098,-0.0354*
1,1,0.0197,-0.0098,0.0354*
%
%ADD64ROUNDEDRECTD64*%
%ADD65R,0.0906X0.0394*%
G04:AMPARAMS|DCode=66|XSize=90.6mil|YSize=39.4mil|CornerRadius=9.8mil|HoleSize=0mil|Usage=FLASHONLY|Rotation=180.000|XOffset=0mil|YOffset=0mil|HoleType=Round|Shape=RoundedRectangle|*
%AMROUNDEDRECTD66*
21,1,0.0906,0.0197,0,0,180.0*
21,1,0.0709,0.0394,0,0,180.0*
1,1,0.0197,-0.0354,0.0098*
1,1,0.0197,0.0354,0.0098*
1,1,0.0197,0.0354,-0.0098*
1,1,0.0197,-0.0354,-0.0098*
%
%ADD66ROUNDEDRECTD66*%
G04:AMPARAMS|DCode=67|XSize=78.7mil|YSize=39.4mil|CornerRadius=9.8mil|HoleSize=0mil|Usage=FLASHONLY|Rotation=270.000|XOffset=0mil|YOffset=0mil|HoleType=Round|Shape=RoundedRectangle|*
%AMROUNDEDRECTD67*
21,1,0.0787,0.0197,0,0,270.0*
21,1,0.0591,0.0394,0,0,270.0*
1,1,0.0197,-0.0098,-0.0295*
1,1,0.0197,-0.0098,0.0295*
1,1,0.0197,0.0098,0.0295*
1,1,0.0197,0.0098,-0.0295*
%
%ADD67ROUNDEDRECTD67*%
%ADD68R,0.0394X0.0787*%
G04:AMPARAMS|DCode=69|XSize=90.6mil|YSize=39.4mil|CornerRadius=0mil|HoleSize=0mil|Usage=FLASHONLY|Rotation=270.000|XOffset=0mil|YOffset=0mil|HoleType=Round|Shape=Octagon|*
%AMOCTAGOND69*
4,1,8,-0.0098,-0.0453,0.0098,-0.0453,0.0197,-0.0354,0.0197,0.0354,0.0098,0.0453,-0.0098,0.0453,-0.0197,0.0354,-0.0197,-0.0354,-0.0098,-0.0453,0.0*
%
%ADD69OCTAGOND69*%

%ADD70R,0.0827X0.0394*%
%ADD118C,0.0128*%
G36*
X-1507Y-526D02*
X-1783D01*
Y-427D01*
X-1507D01*
Y-526D01*
D02*
G37*
G36*
Y-722D02*
X-1783D01*
Y-624D01*
X-1507D01*
Y-722D01*
D02*
G37*
G36*
Y-132D02*
X-1783D01*
Y-33D01*
X-1507D01*
Y-132D01*
D02*
G37*
G36*
Y-329D02*
X-1783D01*
Y-230D01*
X-1507D01*
Y-329D01*
D02*
G37*
G36*
Y-919D02*
X-1783D01*
Y-821D01*
X-1507D01*
Y-919D01*
D02*
G37*
G36*
X-1612Y-1605D02*
X-1557Y-1660D01*
X-1527Y-1732D01*
Y-1811D01*
X-1557Y-1883D01*
X-1612Y-1938D01*
X-1685Y-1968D01*
X-1999D01*
X-2071Y-1938D01*
X-2127Y-1883D01*
X-2157Y-1811D01*
Y-1732D01*
X-2127Y-1660D01*
X-2071Y-1605D01*
X-1999Y-1575D01*
X-1685D01*
X-1612Y-1605D01*
D02*
G37*
G36*
X-3720Y-2191D02*
X-3653Y-2258D01*
X-3617Y-2345D01*
Y-2439D01*
X-3653Y-2526D01*
X-3720Y-2592D01*
X-3807Y-2628D01*
X-4294D01*
X-4381Y-2592D01*
X-4448Y-2526D01*
X-4484Y-2439D01*
Y-2345D01*
X-4448Y-2258D01*
X-4381Y-2191D01*
X-4294Y-2155D01*
X-3807D01*
X-3720Y-2191D01*
D02*
G37*
G36*
X-1507Y-1116D02*
X-1783D01*
Y-1018D01*
X-1507D01*
Y-1116D01*
D02*
G37*
G36*
X-2059Y-873D02*
X-2020Y-912D01*
X-1999Y-963D01*
Y-990D01*
Y-1187D01*
Y-1214D01*
X-2020Y-1265D01*
X-2059Y-1304D01*
X-2110Y-1325D01*
X-2165D01*
X-2215Y-1304D01*
X-2254Y-1265D01*
X-2275Y-1214D01*
Y-1187D01*
Y-990D01*
Y-963D01*
X-2254Y-912D01*
X-2215Y-873D01*
X-2165Y-852D01*
X-2110D01*
X-2059Y-873D01*
D02*
G37*
G36*
X-1507Y1049D02*
X-1783D01*
Y1148D01*
X-1507D01*
Y1049D01*
D02*
G37*
G36*
Y852D02*
X-1783D01*
Y951D01*
X-1507D01*
Y852D01*
D02*
G37*
G36*
X-3720Y2592D02*
X-3653Y2525D01*
X-3617Y2439D01*
Y2345D01*
X-3653Y2258D01*
X-3720Y2191D01*
X-3807Y2155D01*
X-4294D01*
X-4381Y2191D01*
X-4448Y2258D01*
X-4484Y2345D01*
Y2439D01*
X-4448Y2525D01*
X-4381Y2592D01*
X-4294Y2628D01*
X-3807D01*
X-3720Y2592D01*
D02*
G37*
G36*
X-1612Y1939D02*
X-1557Y1883D01*
X-1527Y1811D01*
Y1733D01*
X-1557Y1660D01*
X-1612Y1605D01*
X-1685Y1575D01*
X-1999D01*
X-2071Y1605D01*
X-2127Y1660D01*
X-2157Y1733D01*
Y1811D01*
X-2127Y1883D01*
X-2071Y1939D01*
X-1999Y1969D01*
X-1685D01*
X-1612Y1939D01*
D02*
G37*
G36*
X-2059Y1304D02*
X-2020Y1265D01*
X-1999Y1214D01*
Y1187D01*
Y990D01*
Y963D01*
X-2020Y912D01*
X-2059Y873D01*
X-2110Y852D01*
X-2165D01*
X-2215Y873D01*
X-2254Y912D01*
X-2275Y963D01*
Y990D01*
Y1187D01*
Y1214D01*
X-2254Y1265D01*
X-2215Y1304D01*
X-2165Y1325D01*
X-2110D01*
X-2059Y1304D01*
D02*
G37*
G36*
X-1507Y262D02*
X-1783D01*
Y360D01*
X-1507D01*
Y262D01*
D02*
G37*
G36*
Y65D02*
X-1783D01*
Y163D01*
X-1507D01*
Y65D01*
D02*
G37*
G36*
Y655D02*
X-1783D01*
Y754D01*
X-1507D01*
Y655D01*
D02*
G37*
G36*
Y459D02*
X-1783D01*
Y557D01*
X-1507D01*
Y459D01*
D02*
G37*
D10*
X-1913Y4122D02*
D03*
Y3752D02*
D03*
X-1551Y3679D02*
D03*
Y3309D02*
D03*
X-1925Y-4161D02*
D03*
X-1925Y-3791D02*
D03*
X-1575Y-4161D02*
D03*
X-1575Y-3791D02*
D03*
D12*
X-1626Y2756D02*
D03*
X-1996D02*
D03*
X-1626Y2413D02*
D03*
X-1996D02*
D03*
X2941Y-3740D02*
D03*
X2571D02*
D03*
X-1905Y3130D02*
D03*
X-2275D02*
D03*
X-3377Y2247D02*
D03*
X-3007D02*
D03*
X-169Y-3351D02*
D03*
X-539D02*
D03*
X-874Y-4520D02*
D03*
X-504D02*
D03*
X-152Y-4508D02*
D03*
X218D02*
D03*
D13*
X-2272Y4114D02*
D03*
Y3760D02*
D03*
X3543Y-2776D02*
D03*
Y-3130D02*
D03*
X-1654Y-2657D02*
D03*
Y-2303D02*
D03*
Y-2933D02*
D03*
Y-3287D02*
D03*
D15*
X-965Y-2933D02*
D03*
X-1319D02*
D03*
X650Y-4460D02*
D03*
X1004D02*
D03*
D16*
X-945Y-3327D02*
D03*
X-1201Y-4154D02*
D03*
X-689D02*
D03*
X630D02*
D03*
X118D02*
D03*
X374Y-3327D02*
D03*
D59*
X-965Y3346D02*
D03*
X965D02*
D03*
D60*
X1437Y4291D02*
D03*
X-1437D02*
D03*
D61*
X1240Y-4099D02*
D03*
X1240Y-3725D02*
D03*
X1240Y-3351D02*
D03*
X2303D02*
D03*
Y-4099D02*
D03*
D63*
X20Y-2559D02*
D03*
X512D02*
D03*
X1004D02*
D03*
X1496D02*
D03*
X1988Y-2559D02*
D03*
X2480D02*
D03*
X2972Y2165D02*
D03*
X2480D02*
D03*
X1988D02*
D03*
X1496Y2165D02*
D03*
D64*
X2972Y-2559D02*
D03*
D65*
X3858Y-1673D02*
D03*
Y-1181D02*
D03*
Y-689D02*
D03*
X3858Y-197D02*
D03*
X3858Y295D02*
D03*
Y1280D02*
D03*
X-866Y1280D02*
D03*
X-866Y787D02*
D03*
X-866Y-197D02*
D03*
X-866Y-689D02*
D03*
Y-1181D02*
D03*
Y-1673D02*
D03*
D66*
X3858Y787D02*
D03*
D67*
X1004Y2224D02*
D03*
D68*
X512Y2224D02*
D03*
D69*
X20Y2165D02*
D03*
D70*
X-827Y295D02*
D03*
D118*
X-2073Y-158D02*
G03*
X-2073Y-158I-64J0D01*
G01*
Y157D02*
G03*
X-2073Y157I-64J0D01*
G01*
Y-472D02*
G03*
X-2073Y-472I-64J0D01*
G01*
Y472D02*
G03*
X-2073Y472I-64J0D01*
G01*
X-2427Y-315D02*
G03*
X-2427Y-315I-64J0D01*
G01*
Y315D02*
G03*
X-2427Y315I-64J0D01*
G01*
Y-630D02*
G03*
X-2427Y-630I-64J0D01*
G01*
Y630D02*
G03*
X-2427Y630I-64J0D01*
G01*
Y-945D02*
G03*
X-2427Y-945I-64J0D01*
G01*
Y945D02*
G03*
X-2427Y945I-64J0D01*
G01*
M02*
