G04 Layer_Color=8388736*
%FSLAX24Y24*%
%MOIN*%
G70*
G01*
G75*
%ADD53C,0.0630*%
%ADD75R,0.0283X0.0268*%
G04:AMPARAMS|DCode=76|XSize=28.3mil|YSize=26.8mil|CornerRadius=0mil|HoleSize=0mil|Usage=FLASHONLY|Rotation=315.000|XOffset=0mil|YOffset=0mil|HoleType=Round|Shape=Rectangle|*
%AMROTATEDRECTD76*
4,1,4,-0.0195,0.0006,-0.0006,0.0195,0.0195,-0.0006,0.0006,-0.0195,-0.0195,0.0006,0.0*
%
%ADD76ROTATEDRECTD76*%

%ADD77R,0.0268X0.0283*%
%ADD78R,0.0283X0.0283*%
%ADD79R,0.0374X0.0256*%
%ADD80R,0.0283X0.0283*%
%ADD81R,0.0256X0.0374*%
%ADD82R,0.0394X0.0236*%
G04:AMPARAMS|DCode=83|XSize=37.4mil|YSize=25.6mil|CornerRadius=0mil|HoleSize=0mil|Usage=FLASHONLY|Rotation=135.000|XOffset=0mil|YOffset=0mil|HoleType=Round|Shape=Rectangle|*
%AMROTATEDRECTD83*
4,1,4,0.0223,-0.0042,0.0042,-0.0223,-0.0223,0.0042,-0.0042,0.0223,0.0223,-0.0042,0.0*
%
%ADD83ROTATEDRECTD83*%

%ADD84R,0.0276X0.0512*%
G04:AMPARAMS|DCode=85|XSize=51.2mil|YSize=27.6mil|CornerRadius=7.9mil|HoleSize=0mil|Usage=FLASHONLY|Rotation=90.000|XOffset=0mil|YOffset=0mil|HoleType=Round|Shape=RoundedRectangle|*
%AMROUNDEDRECTD85*
21,1,0.0512,0.0118,0,0,90.0*
21,1,0.0354,0.0276,0,0,90.0*
1,1,0.0157,0.0059,0.0177*
1,1,0.0157,0.0059,-0.0177*
1,1,0.0157,-0.0059,-0.0177*
1,1,0.0157,-0.0059,0.0177*
%
%ADD85ROUNDEDRECTD85*%
%ADD86R,0.0620X0.0217*%
G04:AMPARAMS|DCode=87|XSize=37.4mil|YSize=19.7mil|CornerRadius=0mil|HoleSize=0mil|Usage=FLASHONLY|Rotation=180.000|XOffset=0mil|YOffset=0mil|HoleType=Round|Shape=Octagon|*
%AMOCTAGOND87*
4,1,8,-0.0187,0.0049,-0.0187,-0.0049,-0.0138,-0.0098,0.0138,-0.0098,0.0187,-0.0049,0.0187,0.0049,0.0138,0.0098,-0.0138,0.0098,-0.0187,0.0049,0.0*
%
%ADD87OCTAGOND87*%

%ADD88R,0.0413X0.0394*%
%ADD89P,0.0401X4X270.0*%
G04:AMPARAMS|DCode=90|XSize=66.9mil|YSize=35.4mil|CornerRadius=9.8mil|HoleSize=0mil|Usage=FLASHONLY|Rotation=0.000|XOffset=0mil|YOffset=0mil|HoleType=Round|Shape=RoundedRectangle|*
%AMROUNDEDRECTD90*
21,1,0.0669,0.0157,0,0,0.0*
21,1,0.0472,0.0354,0,0,0.0*
1,1,0.0197,0.0236,-0.0079*
1,1,0.0197,-0.0236,-0.0079*
1,1,0.0197,-0.0236,0.0079*
1,1,0.0197,0.0236,0.0079*
%
%ADD90ROUNDEDRECTD90*%
G04:AMPARAMS|DCode=91|XSize=66.9mil|YSize=33.5mil|CornerRadius=9.3mil|HoleSize=0mil|Usage=FLASHONLY|Rotation=0.000|XOffset=0mil|YOffset=0mil|HoleType=Round|Shape=RoundedRectangle|*
%AMROUNDEDRECTD91*
21,1,0.0669,0.0148,0,0,0.0*
21,1,0.0482,0.0335,0,0,0.0*
1,1,0.0187,0.0241,-0.0074*
1,1,0.0187,-0.0241,-0.0074*
1,1,0.0187,-0.0241,0.0074*
1,1,0.0187,0.0241,0.0074*
%
%ADD91ROUNDEDRECTD91*%
G04:AMPARAMS|DCode=92|XSize=59.1mil|YSize=33.5mil|CornerRadius=9.3mil|HoleSize=0mil|Usage=FLASHONLY|Rotation=0.000|XOffset=0mil|YOffset=0mil|HoleType=Round|Shape=RoundedRectangle|*
%AMROUNDEDRECTD92*
21,1,0.0591,0.0148,0,0,0.0*
21,1,0.0404,0.0335,0,0,0.0*
1,1,0.0187,0.0202,-0.0074*
1,1,0.0187,-0.0202,-0.0074*
1,1,0.0187,-0.0202,0.0074*
1,1,0.0187,0.0202,0.0074*
%
%ADD92ROUNDEDRECTD92*%
G04:AMPARAMS|DCode=93|XSize=47.2mil|YSize=25.6mil|CornerRadius=0mil|HoleSize=0mil|Usage=FLASHONLY|Rotation=225.000|XOffset=0mil|YOffset=0mil|HoleType=Round|Shape=Rectangle|*
%AMROTATEDRECTD93*
4,1,4,0.0077,0.0258,0.0258,0.0077,-0.0077,-0.0258,-0.0258,-0.0077,0.0077,0.0258,0.0*
%
%ADD93ROTATEDRECTD93*%

%ADD94R,0.0985X0.1142*%
%ADD95R,0.0631X0.0276*%
%ADD96C,0.0039*%
%ADD97C,0.1024*%
%ADD98C,0.1496*%
%ADD99O,0.0039X0.0639*%
%ADD100O,0.0316X0.0512*%
%ADD101C,0.0276*%
%ADD102O,0.0670X0.0434*%
%ADD103O,0.0906X0.0512*%
G04:AMPARAMS|DCode=104|XSize=63mil|YSize=63mil|CornerRadius=0mil|HoleSize=0mil|Usage=FLASHONLY|Rotation=45.000|XOffset=0mil|YOffset=0mil|HoleType=Round|Shape=Octagon|*
%AMOCTAGOND104*
4,1,8,0.0334,0.0111,0.0111,0.0334,-0.0111,0.0334,-0.0334,0.0111,-0.0334,-0.0111,-0.0111,-0.0334,0.0111,-0.0334,0.0334,-0.0111,0.0334,0.0111,0.0*
%
%ADD104OCTAGOND104*%

D53*
X4547Y748D02*
D03*
X4409Y1417D02*
D03*
X-2835Y3740D02*
D03*
D75*
X-2441Y1957D02*
D03*
Y1587D02*
D03*
X3346Y-1445D02*
D03*
Y-1075D02*
D03*
X-771Y-3988D02*
D03*
Y-4358D02*
D03*
X3346Y-697D02*
D03*
X3346Y-327D02*
D03*
X-2442Y-1996D02*
D03*
X-2442Y-1626D02*
D03*
D76*
X3294Y-2454D02*
D03*
X3556Y-2192D02*
D03*
X3700Y-2887D02*
D03*
X3962Y-2625D02*
D03*
X2060Y-4121D02*
D03*
X1798Y-4383D02*
D03*
D77*
X3831Y-1969D02*
D03*
X4201D02*
D03*
X1783Y-1258D02*
D03*
X2154Y-1258D02*
D03*
X2118Y-2376D02*
D03*
X2488D02*
D03*
X3398Y735D02*
D03*
X3768D02*
D03*
D78*
X3655Y1555D02*
D03*
Y1201D02*
D03*
X3268Y335D02*
D03*
Y-20D02*
D03*
X3307Y1201D02*
D03*
Y1555D02*
D03*
X1654Y-3602D02*
D03*
Y-3957D02*
D03*
X1339Y-3957D02*
D03*
X1339Y-3602D02*
D03*
X2087Y-1955D02*
D03*
Y-1600D02*
D03*
X1831Y-2382D02*
D03*
Y-2736D02*
D03*
D79*
X3728Y-1115D02*
D03*
Y-1627D02*
D03*
X4554Y-1371D02*
D03*
X2500Y-1516D02*
D03*
Y-2028D02*
D03*
X3327Y-1772D02*
D03*
X-1147Y-3760D02*
D03*
Y-4272D02*
D03*
D80*
X-3130Y2311D02*
D03*
X-2776D02*
D03*
D81*
X4646Y155D02*
D03*
X4134D02*
D03*
X4390Y-672D02*
D03*
D82*
X787Y-4409D02*
D03*
X-236D02*
D03*
D83*
X3152Y3077D02*
D03*
X3918Y2673D02*
D03*
X3556Y2311D02*
D03*
D84*
X-2279Y3130D02*
D03*
X-1905D02*
D03*
X-1531Y3130D02*
D03*
X-1905Y4114D02*
D03*
X-2279Y4114D02*
D03*
D85*
X-1531D02*
D03*
D86*
X-999Y4006D02*
D03*
Y3750D02*
D03*
Y3494D02*
D03*
Y3238D02*
D03*
X1314D02*
D03*
Y3494D02*
D03*
Y3750D02*
D03*
Y4006D02*
D03*
D87*
X-1974Y-4016D02*
D03*
D88*
X3730Y315D02*
D03*
Y-315D02*
D03*
D89*
X4141Y2332D02*
D03*
X3890Y2081D02*
D03*
D90*
X2717Y2461D02*
D03*
Y1831D02*
D03*
Y689D02*
D03*
Y-571D02*
D03*
Y59D02*
D03*
X-1220Y689D02*
D03*
D91*
Y59D02*
D03*
Y-571D02*
D03*
Y2461D02*
D03*
D92*
X-1181Y1831D02*
D03*
D93*
X3396Y-3196D02*
D03*
X3132Y-2931D02*
D03*
X2867Y-2667D02*
D03*
X2116Y-3418D02*
D03*
X2645Y-3947D02*
D03*
D94*
X217Y-2376D02*
D03*
D95*
X1300Y-1588D02*
D03*
Y-1982D02*
D03*
Y-2376D02*
D03*
Y-2769D02*
D03*
Y-3163D02*
D03*
X-865D02*
D03*
Y-2769D02*
D03*
Y-2376D02*
D03*
Y-1982D02*
D03*
Y-1588D02*
D03*
D96*
X394Y3543D02*
D03*
X-394D02*
D03*
D97*
X2559Y3543D02*
D03*
D98*
X-2638Y-3150D02*
D03*
D99*
X748Y1142D02*
D03*
D100*
X-2141Y-1089D02*
D03*
Y1089D02*
D03*
D101*
X-2495Y945D02*
D03*
Y-945D02*
D03*
Y630D02*
D03*
Y-630D02*
D03*
Y315D02*
D03*
Y-315D02*
D03*
X-2141Y472D02*
D03*
Y-472D02*
D03*
Y157D02*
D03*
Y-158D02*
D03*
D102*
X-1846Y1772D02*
D03*
Y-1772D02*
D03*
D103*
X-4051Y2392D02*
D03*
Y-2392D02*
D03*
D104*
X-3482Y3091D02*
D03*
M02*
