G04 Layer_Physical_Order=4*
G04 Layer_Color=16711680*
%FSLAX24Y24*%
%MOIN*%
G70*
G01*
G75*
%ADD10R,0.0244X0.0228*%
%ADD12R,0.0228X0.0244*%
%ADD13R,0.0244X0.0244*%
%ADD15R,0.0244X0.0244*%
%ADD16R,0.0217X0.0335*%
%ADD31C,0.0157*%
%ADD32C,0.0079*%
%ADD33C,0.0197*%
%ADD34C,0.0049*%
%ADD35C,0.0059*%
%ADD36C,0.0039*%
%ADD37C,0.0098*%
%ADD38C,0.0118*%
%ADD43C,0.0591*%
%ADD44C,0.0984*%
%ADD46O,0.0276X0.0472*%
%ADD47C,0.0236*%
%ADD48O,0.0630X0.0394*%
%ADD49O,0.0866X0.0472*%
G04:AMPARAMS|DCode=50|XSize=59.1mil|YSize=59.1mil|CornerRadius=0mil|HoleSize=0mil|Usage=FLASHONLY|Rotation=45.000|XOffset=0mil|YOffset=0mil|HoleType=Round|Shape=Octagon|*
%AMOCTAGOND50*
4,1,8,0.0313,0.0104,0.0104,0.0313,-0.0104,0.0313,-0.0313,0.0104,-0.0313,-0.0104,-0.0104,-0.0313,0.0104,-0.0313,0.0313,-0.0104,0.0313,0.0104,0.0*
%
%ADD50OCTAGOND50*%

%ADD51C,0.0157*%
%ADD52C,0.0197*%
%ADD59R,0.0354X0.0709*%
%ADD60R,0.0354X0.0551*%
%ADD61R,0.0433X0.0217*%
%ADD62R,0.0295X0.0138*%
%ADD63R,0.0394X0.0906*%
G04:AMPARAMS|DCode=64|XSize=90.6mil|YSize=39.4mil|CornerRadius=9.8mil|HoleSize=0mil|Usage=FLASHONLY|Rotation=90.000|XOffset=0mil|YOffset=0mil|HoleType=Round|Shape=RoundedRectangle|*
%AMROUNDEDRECTD64*
21,1,0.0906,0.0197,0,0,90.0*
21,1,0.0709,0.0394,0,0,90.0*
1,1,0.0197,0.0098,0.0354*
1,1,0.0197,0.0098,-0.0354*
1,1,0.0197,-0.0098,-0.0354*
1,1,0.0197,-0.0098,0.0354*
%
%ADD64ROUNDEDRECTD64*%
%ADD65R,0.0906X0.0394*%
G04:AMPARAMS|DCode=66|XSize=90.6mil|YSize=39.4mil|CornerRadius=9.8mil|HoleSize=0mil|Usage=FLASHONLY|Rotation=180.000|XOffset=0mil|YOffset=0mil|HoleType=Round|Shape=RoundedRectangle|*
%AMROUNDEDRECTD66*
21,1,0.0906,0.0197,0,0,180.0*
21,1,0.0709,0.0394,0,0,180.0*
1,1,0.0197,-0.0354,0.0098*
1,1,0.0197,0.0354,0.0098*
1,1,0.0197,0.0354,-0.0098*
1,1,0.0197,-0.0354,-0.0098*
%
%ADD66ROUNDEDRECTD66*%
G04:AMPARAMS|DCode=67|XSize=78.7mil|YSize=39.4mil|CornerRadius=9.8mil|HoleSize=0mil|Usage=FLASHONLY|Rotation=270.000|XOffset=0mil|YOffset=0mil|HoleType=Round|Shape=RoundedRectangle|*
%AMROUNDEDRECTD67*
21,1,0.0787,0.0197,0,0,270.0*
21,1,0.0591,0.0394,0,0,270.0*
1,1,0.0197,-0.0098,-0.0295*
1,1,0.0197,-0.0098,0.0295*
1,1,0.0197,0.0098,0.0295*
1,1,0.0197,0.0098,-0.0295*
%
%ADD67ROUNDEDRECTD67*%
%ADD68R,0.0394X0.0787*%
G04:AMPARAMS|DCode=69|XSize=90.6mil|YSize=39.4mil|CornerRadius=0mil|HoleSize=0mil|Usage=FLASHONLY|Rotation=270.000|XOffset=0mil|YOffset=0mil|HoleType=Round|Shape=Octagon|*
%AMOCTAGOND69*
4,1,8,-0.0098,-0.0453,0.0098,-0.0453,0.0197,-0.0354,0.0197,0.0354,0.0098,0.0453,-0.0098,0.0453,-0.0197,0.0354,-0.0197,-0.0354,-0.0098,-0.0453,0.0*
%
%ADD69OCTAGOND69*%

%ADD70R,0.0827X0.0394*%
%ADD71C,0.0236*%
%ADD72C,0.0315*%
%ADD73C,0.1181*%
G36*
X2825Y1476D02*
X2823Y1473D01*
X2886Y1323D01*
X3036Y1260D01*
X3169Y1315D01*
X3327Y1257D01*
Y1004D01*
X3327D01*
X3348Y972D01*
X3312Y886D01*
Y847D01*
X3858D01*
Y728D01*
X3312D01*
Y689D01*
X3348Y603D01*
X3327Y571D01*
X3327D01*
Y407D01*
X3130D01*
X3051Y374D01*
X2887Y210D01*
X1854D01*
X1789Y368D01*
X1962Y541D01*
X2141D01*
X2244Y499D01*
X2365Y549D01*
X2415Y669D01*
X2405Y693D01*
X2404Y864D01*
X2454Y984D01*
X2404Y1105D01*
X2394Y1124D01*
X2363Y1188D01*
X2395Y1267D01*
Y1634D01*
X2719D01*
X2825Y1476D01*
D02*
G37*
G36*
X-520Y1701D02*
X-581Y1555D01*
X-1398D01*
Y1381D01*
X-1452Y1246D01*
X-1619D01*
Y1098D01*
X-1678D01*
Y1049D01*
X-1905D01*
Y951D01*
Y661D01*
X-2082D01*
X-2141Y685D01*
X-2212Y733D01*
Y768D01*
X-2243Y843D01*
X-2301Y901D01*
X-2282Y945D01*
X-2345Y1096D01*
X-2495Y1158D01*
X-2603Y1230D01*
Y1772D01*
X-2593D01*
X-2610Y1812D01*
X-2505Y1970D01*
X-789D01*
X-520Y1701D01*
D02*
G37*
G36*
X1672Y-749D02*
Y-1063D01*
Y-1766D01*
X1663Y-1769D01*
X1613Y-1890D01*
X1500Y-2028D01*
X27D01*
X-39Y-1870D01*
X118Y-1713D01*
X187Y-1700D01*
X287Y-1716D01*
X298Y-1743D01*
X419Y-1793D01*
X539Y-1743D01*
X589Y-1622D01*
X586Y-1613D01*
X866Y-1334D01*
X898Y-1254D01*
Y-1195D01*
X1024Y-1076D01*
X1144Y-1026D01*
X1194Y-906D01*
X1160Y-823D01*
X1248Y-683D01*
X1605D01*
X1672Y-749D01*
D02*
G37*
G36*
X-511Y-3150D02*
X-732D01*
X-764Y-3006D01*
Y-2992D01*
X-965D01*
Y-2874D01*
X-764D01*
Y-2732D01*
X-918D01*
X-1023Y-2575D01*
X-1023Y-2575D01*
X-1023Y-2575D01*
Y-1949D01*
X-511D01*
Y-3150D01*
D02*
G37*
G36*
X-2058Y-945D02*
X-1983Y-977D01*
X-1905D01*
Y-1018D01*
X-1678D01*
Y-1067D01*
X-1619D01*
Y-1215D01*
X-1452D01*
X-1398Y-1349D01*
Y-1687D01*
X-1449Y-1811D01*
X-1449Y-1811D01*
Y-1946D01*
X-1453Y-2102D01*
X-1594D01*
Y-2303D01*
X-1654D01*
Y-2362D01*
X-1854D01*
Y-2628D01*
X-1867Y-2657D01*
X-1854Y-2687D01*
Y-2903D01*
X-1867Y-2933D01*
X-1854Y-2963D01*
Y-3228D01*
X-1654D01*
Y-3346D01*
X-1854D01*
Y-3407D01*
X-1892Y-3423D01*
X-1942Y-3543D01*
X-2088Y-3598D01*
X-2126D01*
Y-3858D01*
X-2283Y-3963D01*
X-2283Y-3963D01*
X-2404Y-4013D01*
X-2407Y-4021D01*
X-2599Y-4082D01*
X-3488Y-3488D01*
X-4407Y-2113D01*
X-4368Y-1942D01*
X-4342Y-1878D01*
Y-1861D01*
X-2991D01*
X-2964Y-1925D01*
X-2810Y-1989D01*
X-2657Y-1925D01*
X-2593Y-1772D01*
X-2603D01*
Y-1230D01*
X-2495Y-1158D01*
X-2345Y-1096D01*
X-2320Y-1035D01*
X-2259Y-938D01*
X-2137Y-900D01*
X-2104D01*
X-2058Y-945D01*
D02*
G37*
G36*
X-3570Y2448D02*
Y2306D01*
X-3377D01*
Y2247D01*
X-3318D01*
Y2046D01*
X-3206D01*
X-3121Y1889D01*
X-3139Y1861D01*
X-4196D01*
X-4342Y1874D01*
X-4342Y1874D01*
X-4355Y1906D01*
X-4368Y1937D01*
X-4368D01*
X-4368Y1937D01*
X-4407Y2058D01*
X-4410Y2109D01*
X-4410Y2109D01*
X-4166Y2474D01*
X-4017Y2489D01*
X-3710D01*
X-3570Y2448D01*
D02*
G37*
G36*
X4518Y1948D02*
X4414Y1820D01*
X4409Y1822D01*
X4277Y1768D01*
X4108Y1868D01*
X4092Y1907D01*
X4082Y1932D01*
X3962Y1981D01*
X3841Y1932D01*
X3831Y1907D01*
X3791Y1811D01*
X3832Y1713D01*
X3771Y1555D01*
X3373D01*
X3296Y1603D01*
X3248Y1680D01*
Y2106D01*
X2972D01*
Y2224D01*
X3248D01*
Y2284D01*
X3346Y2350D01*
X3467Y2400D01*
X3517Y2521D01*
X3656Y2596D01*
X3730Y2626D01*
X3786Y2760D01*
X3938Y2816D01*
X4518Y1948D01*
D02*
G37*
G36*
X2036Y4459D02*
X2036Y4459D01*
X2036Y4459D01*
X3488Y3488D01*
X3757Y3087D01*
X3652Y2960D01*
X3579Y2990D01*
X3429Y2928D01*
X3419Y2905D01*
X2207D01*
X1675Y3437D01*
X1585Y3474D01*
X1220D01*
Y3780D01*
X765D01*
X709Y3780D01*
X551Y3776D01*
X394Y3842D01*
X183Y3754D01*
X126Y3618D01*
X86Y3601D01*
X50Y3585D01*
X-115Y3636D01*
X-143Y3659D01*
X-144Y3661D01*
X-183Y3754D01*
X-394Y3842D01*
X-551Y3776D01*
X-709Y3780D01*
Y3780D01*
X-1084D01*
X-1181Y3936D01*
X-1181Y3937D01*
X-1181D01*
Y4568D01*
X1181D01*
Y3937D01*
X1693D01*
Y4568D01*
X1923D01*
X2036Y4459D01*
D02*
G37*
%LPC*%
G36*
X-1738Y1246D02*
X-1905D01*
Y1157D01*
X-1738D01*
Y1246D01*
D02*
G37*
G36*
X-2244Y-2022D02*
X-2365Y-2071D01*
X-2415Y-2192D01*
X-2365Y-2313D01*
X-2244Y-2362D01*
X-2124Y-2313D01*
X-2074Y-2192D01*
X-2124Y-2071D01*
X-2244Y-2022D01*
D02*
G37*
G36*
X-3445Y-2330D02*
X-3565Y-2379D01*
X-3615Y-2500D01*
X-3565Y-2621D01*
X-3445Y-2670D01*
X-3324Y-2621D01*
X-3274Y-2500D01*
X-3324Y-2379D01*
X-3445Y-2330D01*
D02*
G37*
G36*
X-1713Y-2102D02*
X-1854D01*
Y-2244D01*
X-1713D01*
Y-2102D01*
D02*
G37*
G36*
X-1738Y-1126D02*
X-1905D01*
Y-1215D01*
X-1738D01*
Y-1126D01*
D02*
G37*
G36*
X-3436Y2188D02*
X-3570D01*
Y2046D01*
X-3436D01*
Y2188D01*
D02*
G37*
%LPD*%
D10*
X-1913Y4122D02*
D03*
Y3752D02*
D03*
X-1551Y3679D02*
D03*
Y3309D02*
D03*
X-1925Y-4161D02*
D03*
X-1925Y-3791D02*
D03*
X-1575Y-4161D02*
D03*
X-1575Y-3791D02*
D03*
D12*
X-1626Y2756D02*
D03*
X-1996D02*
D03*
X-1626Y2413D02*
D03*
X-1996D02*
D03*
X2941Y-3740D02*
D03*
X2571D02*
D03*
X-1905Y3130D02*
D03*
X-2275D02*
D03*
X-3377Y2247D02*
D03*
X-3007D02*
D03*
X-169Y-3351D02*
D03*
X-539D02*
D03*
X-874Y-4520D02*
D03*
X-504D02*
D03*
X-152Y-4508D02*
D03*
X218D02*
D03*
D13*
X-2272Y4114D02*
D03*
Y3760D02*
D03*
X3543Y-2776D02*
D03*
Y-3130D02*
D03*
X-1654Y-2657D02*
D03*
Y-2303D02*
D03*
Y-2933D02*
D03*
Y-3287D02*
D03*
D15*
X-965Y-2933D02*
D03*
X-1319D02*
D03*
X650Y-4460D02*
D03*
X1004D02*
D03*
D16*
X-945Y-3327D02*
D03*
X-1201Y-4154D02*
D03*
X-689D02*
D03*
X630D02*
D03*
X118D02*
D03*
X374Y-3327D02*
D03*
D31*
X-164Y-4520D02*
Y-4435D01*
X-2362Y2323D02*
X-2087D01*
X-1996Y2413D01*
X276Y-3996D02*
Y-3883D01*
X118Y-4154D02*
X276Y-3996D01*
X-689Y-4154D02*
X-374Y-3839D01*
X2788Y1201D02*
X3091D01*
X-164Y-4435D02*
X118Y-4154D01*
X2835Y-1181D02*
X3189Y-1535D01*
Y-1894D02*
Y-1535D01*
Y-1894D02*
X3593Y-2298D01*
X3962D01*
X2868Y-2244D02*
Y-1777D01*
Y-2244D02*
X2972Y-2348D01*
Y-2559D02*
Y-2348D01*
X-874Y-4339D02*
X-689Y-4154D01*
X2323Y-3740D02*
X2571D01*
Y-4021D02*
Y-3740D01*
X2493Y-4099D02*
X2571Y-4021D01*
X2303Y-4099D02*
X2493D01*
X-965Y-2579D02*
X-748Y-2362D01*
X-965Y-2933D02*
Y-2579D01*
X-2638Y-3150D02*
X-2500Y-3287D01*
X-1654D01*
X3504Y787D02*
X3858D01*
X3091Y1201D02*
X3504Y787D01*
X2972Y-2559D02*
X3327D01*
X3543Y-2776D01*
X-1846Y-2111D02*
Y-1772D01*
Y-2111D02*
X-1654Y-2303D01*
X-980Y-1067D02*
X-866Y-1181D01*
X-1678Y-1067D02*
X-980D01*
X1654Y-4238D02*
Y-3976D01*
X1402Y-3725D02*
X1654Y-3976D01*
X1240Y-3725D02*
X1402D01*
X-504Y-4520D02*
X-164D01*
X-874D02*
Y-4339D01*
X-2141Y1089D02*
X-2131Y1098D01*
X-1678D01*
X-2141Y-1089D02*
X-2119Y-1067D01*
X-1678D01*
D32*
X-1475Y2992D02*
X-1042Y2559D01*
X-512D01*
X-1768Y2992D02*
X-1475D01*
X-1905Y3130D02*
X-1768Y2992D01*
X-2835Y3740D02*
X-2815Y3760D01*
X-2272D01*
X1909Y669D02*
X2244D01*
X1535Y295D02*
X1909Y669D01*
X-1201Y-4685D02*
Y-4154D01*
X1402Y-3351D02*
X1929Y-3878D01*
Y-4291D02*
Y-3878D01*
X1711Y-4509D02*
X1929Y-4291D01*
X1240Y-3351D02*
X1402D01*
X3031Y-1102D02*
X3327Y-1398D01*
X3031Y-1102D02*
Y-1100D01*
X3327Y-1411D02*
Y-1398D01*
Y-1411D02*
X3589Y-1673D01*
X3858D01*
X1399Y-4509D02*
X1711D01*
X1299Y-4409D02*
X1399Y-4509D01*
X1299Y-4409D02*
Y-4158D01*
X1240Y-4099D02*
X1299Y-4158D01*
X615Y-4523D02*
X630Y-4508D01*
X254Y-4498D02*
X589D01*
X615Y-4523D02*
Y-4523D01*
X2060Y-330D02*
X2272Y-118D01*
X2791Y-859D02*
X3031Y-1100D01*
X2060Y-777D02*
Y-330D01*
Y-777D02*
X2142Y-859D01*
X2791D01*
X224Y-4528D02*
X254Y-4498D01*
X600Y-4509D02*
X615Y-4523D01*
X589Y-4498D02*
X600Y-4509D01*
X630Y-4508D02*
Y-4154D01*
X2154Y2777D02*
X3579D01*
X1585Y3346D02*
X2154Y2777D01*
X965Y3346D02*
X1585D01*
D33*
X-945Y-3488D02*
X-771Y-3661D01*
X-945Y-3488D02*
Y-3327D01*
D34*
X-2283Y-4134D02*
X-1898D01*
X-1626Y2413D02*
Y2756D01*
X-799Y2413D02*
X-551Y2165D01*
X-1626Y2413D02*
X-799D01*
X-743Y2081D02*
X-197Y1535D01*
X-2841Y2081D02*
X-743D01*
X-3007Y2247D02*
X-2841Y2081D01*
X419Y-1622D02*
X786Y-1254D01*
X79Y-3287D02*
Y-3268D01*
X960Y-3486D02*
Y-3214D01*
Y-3486D02*
X964Y-3490D01*
Y-3490D02*
Y-3490D01*
X886Y-3568D02*
X964Y-3490D01*
X728Y-3568D02*
X886D01*
X645Y-3484D02*
X728Y-3568D01*
X787Y-3425D02*
Y-3413D01*
X118Y-3327D02*
X374D01*
X79Y-3287D02*
X118Y-3327D01*
X645Y-3484D02*
Y-3479D01*
X527D02*
X645D01*
X787Y-3413D02*
X827Y-3374D01*
X512Y-3059D02*
X827Y-3374D01*
X374Y-3327D02*
X527Y-3479D01*
X1024Y-3150D02*
X1476D01*
X960Y-3214D02*
X1024Y-3150D01*
X-1925Y-4161D02*
X-1898Y-4134D01*
X-1614Y-4488D02*
Y-4201D01*
X-1575Y-4161D01*
X512Y-3059D02*
Y-2559D01*
X2744Y-3543D02*
X2941Y-3740D01*
X1870Y-3543D02*
X2744D01*
X1476Y-3150D02*
X1870Y-3543D01*
X3278Y-3396D02*
X3543Y-3130D01*
X3150Y-3268D02*
X3278Y-3396D01*
X3281Y-3400D01*
X2941Y-3740D02*
X3281Y-3400D01*
X2972Y-3268D02*
X3150D01*
X2060Y1846D02*
X2195Y1711D01*
Y1304D02*
Y1711D01*
X609Y-282D02*
X2195Y1304D01*
X2283Y1693D02*
X2480Y1890D01*
X2283Y1267D02*
Y1693D01*
X698Y-319D02*
X2283Y1267D01*
X2480Y1890D02*
Y2165D01*
X1988D02*
X2060Y2094D01*
Y1846D02*
Y2094D01*
X-197Y1217D02*
Y1535D01*
Y1217D02*
X39Y980D01*
Y604D02*
Y980D01*
X276Y-241D02*
Y-118D01*
X138Y-379D02*
X276Y-241D01*
X134Y-379D02*
X138D01*
X39Y-473D02*
X134Y-379D01*
X39Y-1634D02*
Y-473D01*
X-49Y-1597D02*
Y-335D01*
X-234Y-150D02*
X-49Y-335D01*
X-234Y-150D02*
Y39D01*
X-49Y207D02*
X276Y-118D01*
X-49Y207D02*
Y866D01*
X-234Y457D02*
X-152Y375D01*
Y122D02*
Y375D01*
X-234Y39D02*
X-152Y122D01*
X-234Y457D02*
Y768D01*
X-399Y-1947D02*
X-49Y-1597D01*
X-293Y-1966D02*
X39Y-1634D01*
X-399Y-3210D02*
Y-1947D01*
X-293Y-3228D02*
Y-1966D01*
X786Y-1254D02*
Y-355D01*
X1240Y98D01*
X2933D01*
X3130Y295D01*
X3858D01*
X609Y-651D02*
Y-282D01*
X472Y-787D02*
X609Y-651D01*
X698Y-889D02*
Y-319D01*
X1783Y-1063D02*
Y-703D01*
Y-1890D02*
Y-1063D01*
X1652Y-571D02*
X1783Y-703D01*
X1077Y-571D02*
X1652D01*
X1783Y-1063D02*
X2402D01*
X-728Y197D02*
X-315D01*
X-827Y295D02*
X-728Y197D01*
X512Y-1075D02*
X698Y-889D01*
X-539Y-3351D02*
X-399Y-3210D01*
X-293Y-3228D02*
X-169Y-3351D01*
X-102Y919D02*
X-49Y866D01*
X-533Y919D02*
X-102D01*
X-665Y787D02*
X-533Y919D01*
X-866Y787D02*
X-665D01*
X39Y604D02*
X419Y225D01*
X1004Y2020D02*
Y2224D01*
Y2020D02*
X1135Y1890D01*
Y1780D02*
Y1890D01*
Y1780D02*
X1496Y1418D01*
X394Y2106D02*
X512Y2224D01*
X394Y1772D02*
Y2106D01*
X39Y1417D02*
X394Y1772D01*
X-551Y2165D02*
X20D01*
X-1905Y-256D02*
X-1882Y-280D01*
X-1925Y-276D02*
X-1905Y-256D01*
X-1882Y-280D02*
X-1678D01*
X-1929Y-689D02*
X-1913Y-673D01*
X-1678D01*
X-1383Y-595D02*
Y-438D01*
X-1461Y-673D02*
X-1383Y-595D01*
X-1678Y-673D02*
X-1461D01*
X-1142Y-197D02*
X-866D01*
X-1383Y-438D02*
X-1142Y-197D01*
D35*
X-965Y3150D02*
X-886Y3071D01*
X-57D01*
X-965Y3150D02*
Y3346D01*
X-1002Y3309D02*
X-965Y3346D01*
X-1551Y3309D02*
X-1002D01*
X-1913Y4433D02*
X-1905Y4441D01*
X-1913Y4122D02*
Y4433D01*
X-1921Y4114D02*
X-1913Y4122D01*
X-2272Y4114D02*
X-1921D01*
X3264Y-669D02*
X3839D01*
X3384Y-955D02*
X3610Y-1181D01*
X3839Y-669D02*
X3858Y-689D01*
X3239Y-817D02*
X3377Y-955D01*
X3071Y-817D02*
X3239D01*
X3377Y-955D02*
X3384D01*
X2480Y-2559D02*
Y-1772D01*
X1988Y-1808D02*
X2576Y-1220D01*
X1988Y-2559D02*
Y-1808D01*
X3610Y-1181D02*
X3858D01*
X3185Y-591D02*
X3264Y-669D01*
X2217Y-591D02*
X3185D01*
D36*
X-1561Y-3805D02*
Y-3546D01*
X-1850Y-3622D02*
X-1772Y-3543D01*
X-1850Y-3717D02*
Y-3622D01*
X-1925Y-3791D02*
X-1850Y-3717D01*
X-1575Y-3791D02*
X-1561Y-3805D01*
X-2060Y-793D02*
X-1983Y-870D01*
X-2236Y-793D02*
X-2060D01*
X-2318Y-711D02*
X-2236Y-793D01*
X-1983Y-870D02*
X-1678D01*
Y114D02*
X-1457D01*
X-1413Y158D01*
Y325D01*
X-1929Y315D02*
X-1925Y311D01*
X-1678D01*
X-2318Y-711D02*
Y768D01*
X-2495Y945D02*
X-2318Y768D01*
X-1389Y-787D02*
X-1174D01*
X-1472Y-870D02*
X-1389Y-787D01*
X-1678Y-870D02*
X-1472D01*
X-1174Y-787D02*
X-1075Y-689D01*
X-866D01*
X-1901Y-83D02*
X-1678D01*
X-2141Y158D02*
X-1901Y-83D01*
D37*
X2788Y1201D02*
Y1699D01*
X-2283Y2756D02*
Y3130D01*
X-2520Y2559D02*
X-2323Y2756D01*
X-2283D01*
X-1686Y3543D02*
X-1551Y3679D01*
X-1853Y3543D02*
X-1686D01*
X-2267Y3130D02*
X-1853Y3543D01*
X-2275Y3130D02*
X-2267D01*
X-2283Y2756D02*
X-1996D01*
X-4051Y2392D02*
X-3522D01*
X-3377Y2247D01*
X2664Y1201D02*
X2788D01*
Y1699D02*
X2972Y1883D01*
Y2165D01*
D38*
X-1915Y3691D02*
X-1913D01*
X827Y-3740D02*
X866Y-3780D01*
X-2102Y512D02*
X-1678D01*
X-1913Y3691D02*
Y3752D01*
X-2220Y3386D02*
X-1915Y3691D01*
X-2583Y3386D02*
X-2220D01*
X-2879Y3091D02*
X-2583Y3386D01*
X-3482Y3091D02*
X-2879D01*
X827Y-3780D02*
Y-3740D01*
X866Y-4252D02*
Y-3780D01*
Y-4252D02*
X1004Y-4390D01*
Y-4460D02*
Y-4390D01*
X-2141Y-472D02*
X-2137Y-476D01*
X-1678D01*
X-2141Y472D02*
X-2102Y512D01*
X-1678Y508D02*
Y512D01*
D43*
X4547Y748D02*
D03*
X4409Y1417D02*
D03*
X-2835Y3740D02*
D03*
D44*
X2559Y3543D02*
D03*
D46*
X-2141Y-1089D02*
D03*
Y1089D02*
D03*
D47*
X-2495Y945D02*
D03*
Y-945D02*
D03*
Y630D02*
D03*
Y-630D02*
D03*
Y315D02*
D03*
Y-315D02*
D03*
X-2141Y472D02*
D03*
Y-472D02*
D03*
Y157D02*
D03*
Y-158D02*
D03*
X-2520Y2559D02*
D03*
X-2362Y2323D02*
D03*
X827Y-3780D02*
D03*
X-1220Y-3465D02*
D03*
X276Y-3883D02*
D03*
X-771Y-3661D02*
D03*
X-374Y-3839D02*
D03*
X3579Y2777D02*
D03*
X3036Y1473D02*
D03*
X2835Y-1181D02*
D03*
X2717Y-3228D02*
D03*
X1811Y-3189D02*
D03*
X2323Y-3740D02*
D03*
X3962Y-2298D02*
D03*
X2664Y1201D02*
D03*
X2677Y354D02*
D03*
X2868Y-1777D02*
D03*
X4291Y2020D02*
D03*
X1654Y-4238D02*
D03*
X4753Y-968D02*
D03*
D48*
X-1846Y1772D02*
D03*
Y-1772D02*
D03*
D49*
X-4051Y2392D02*
D03*
Y-2392D02*
D03*
D50*
X-3482Y3091D02*
D03*
D51*
X-2520Y3130D02*
D03*
X-18Y3386D02*
D03*
X-57Y3071D02*
D03*
X-512Y2559D02*
D03*
X-1905Y4441D02*
D03*
X2244Y669D02*
D03*
X1535Y295D02*
D03*
X1024Y-906D02*
D03*
X197Y-1142D02*
D03*
X512Y-1957D02*
D03*
X419Y-1622D02*
D03*
X-3445Y-2500D02*
D03*
X79Y-3268D02*
D03*
X787Y-3425D02*
D03*
X-1561Y-3546D02*
D03*
X-2283Y-4134D02*
D03*
X-1772Y-3543D02*
D03*
X-1614Y-4488D02*
D03*
X-1201Y-4685D02*
D03*
X2283Y984D02*
D03*
X3071Y-817D02*
D03*
X1077Y-571D02*
D03*
X-315Y197D02*
D03*
X-2244Y-2192D02*
D03*
X2972Y-3268D02*
D03*
X2402Y-1063D02*
D03*
X1783Y-1890D02*
D03*
X2987Y-3469D02*
D03*
X512Y-1075D02*
D03*
X472Y-787D02*
D03*
X248Y-1957D02*
D03*
X-748Y-2362D02*
D03*
X2480Y-1772D02*
D03*
X2576Y-1220D02*
D03*
X3346Y2521D02*
D03*
X-234Y768D02*
D03*
X39Y1417D02*
D03*
X-236Y-827D02*
D03*
X1299Y-4409D02*
D03*
X1496Y1418D02*
D03*
X419Y225D02*
D03*
X-1905Y-256D02*
D03*
X-79Y-20D02*
D03*
X79Y-236D02*
D03*
X-1929Y-689D02*
D03*
X-1413Y325D02*
D03*
X4764Y-197D02*
D03*
X4449Y-160D02*
D03*
X2272Y-118D02*
D03*
X2217Y-591D02*
D03*
X3962Y1811D02*
D03*
D52*
X-1929Y315D02*
D03*
D59*
X-965Y3346D02*
D03*
X965D02*
D03*
D60*
X1437Y4291D02*
D03*
X-1437D02*
D03*
D61*
X1240Y-4099D02*
D03*
X1240Y-3725D02*
D03*
X1240Y-3351D02*
D03*
X2303D02*
D03*
Y-4099D02*
D03*
D62*
X-1678Y-1067D02*
D03*
Y-870D02*
D03*
Y-673D02*
D03*
Y-476D02*
D03*
Y-280D02*
D03*
Y-83D02*
D03*
Y114D02*
D03*
Y311D02*
D03*
Y508D02*
D03*
Y705D02*
D03*
Y902D02*
D03*
Y1098D02*
D03*
D63*
X20Y-2559D02*
D03*
X512D02*
D03*
X1004D02*
D03*
X1496D02*
D03*
X1988Y-2559D02*
D03*
X2480D02*
D03*
X2972Y2165D02*
D03*
X2480D02*
D03*
X1988D02*
D03*
X1496Y2165D02*
D03*
D64*
X2972Y-2559D02*
D03*
D65*
X3858Y-1673D02*
D03*
Y-1181D02*
D03*
Y-689D02*
D03*
X3858Y-197D02*
D03*
X3858Y295D02*
D03*
Y1280D02*
D03*
X-866Y1280D02*
D03*
X-866Y787D02*
D03*
X-866Y-197D02*
D03*
X-866Y-689D02*
D03*
Y-1181D02*
D03*
Y-1673D02*
D03*
D66*
X3858Y787D02*
D03*
D67*
X1004Y2224D02*
D03*
D68*
X512Y2224D02*
D03*
D69*
X20Y2165D02*
D03*
D70*
X-827Y295D02*
D03*
D71*
X-1319Y-3366D02*
X-1220Y-3465D01*
X-1319Y-3366D02*
Y-2933D01*
X-1654D02*
X-1319D01*
Y-2657D02*
X-1236Y-2575D01*
Y-1811D01*
X-1098Y-1673D01*
X-866D01*
X-1654Y-2657D02*
X-1654Y-2657D01*
X-1319D01*
Y-2933D02*
Y-2657D01*
D72*
X3858Y1280D02*
X4077D01*
D73*
X-2638Y-3150D02*
D03*
M02*
