G04 Layer_Physical_Order=3*
G04 Layer_Color=128*
%FSLAX24Y24*%
%MOIN*%
G70*
G01*
G75*
%ADD38C,0.0118*%
%ADD43C,0.0591*%
%ADD53C,0.0630*%
%ADD54C,0.1417*%
%ADD55C,0.0394*%
%ADD56C,0.0315*%
%ADD57C,0.0354*%
%ADD58C,0.0335*%
G36*
X-1248Y-4507D02*
Y-4803D01*
X-1313D01*
X-1431Y-4921D01*
X-2093D01*
Y-4910D01*
X-2449Y-4553D01*
Y-4094D01*
X-2390D01*
X-2311Y-4016D01*
X-1739D01*
X-1248Y-4507D01*
D02*
G37*
G36*
X-2495Y630D02*
X-2338Y472D01*
X-2141D01*
Y-472D01*
X-2299Y-630D01*
X-2692D01*
X-2692Y-630D01*
Y630D01*
X-2495Y630D01*
D02*
G37*
D38*
X-4761Y-1878D02*
G03*
X2125Y4656I4761J1878D01*
G01*
X-2122Y4657D02*
G03*
X-4763Y1874I2122J-4657D01*
G01*
X-2692Y1772D02*
G03*
X-2928Y1772I-118J0D01*
G01*
Y-1772D02*
G03*
X-2692Y-1772I118J0D01*
G01*
X-4763Y1874D02*
X-4431D01*
X-4431Y1772D02*
X-4431Y1874D01*
Y-1772D02*
X-2928D01*
X-4431Y-1878D02*
Y-1772D01*
X-4761Y-1878D02*
X-4431D01*
X2121Y4657D02*
X2125Y4656D01*
X-2122Y4657D02*
X2121D01*
X-4431Y1772D02*
X-2928D01*
X-2692Y-1772D02*
Y1772D01*
X-2928Y-1772D02*
X-2928Y-1772D01*
D43*
X4409Y1417D02*
D03*
X-2835Y3740D02*
D03*
X-3482Y3091D02*
D03*
D53*
X394Y3543D02*
D03*
X-394D02*
D03*
D54*
X748Y1142D02*
D03*
D55*
X-2495Y945D02*
D03*
Y-945D02*
D03*
Y630D02*
D03*
Y-630D02*
D03*
Y315D02*
D03*
Y-315D02*
D03*
X-2141Y472D02*
D03*
Y-472D02*
D03*
Y158D02*
D03*
Y-157D02*
D03*
D56*
X-2520Y3130D02*
D03*
X-18Y3386D02*
D03*
X-57Y3071D02*
D03*
X-512Y2559D02*
D03*
X-1905Y4441D02*
D03*
X2244Y669D02*
D03*
X1535Y295D02*
D03*
X1024Y-906D02*
D03*
X197Y-1142D02*
D03*
X419Y-1622D02*
D03*
X-3445Y-2500D02*
D03*
X79Y-3268D02*
D03*
X787Y-3425D02*
D03*
X-1561Y-3546D02*
D03*
X-2283Y-4134D02*
D03*
X-1772Y-3543D02*
D03*
X-1614Y-4488D02*
D03*
X-1201Y-4685D02*
D03*
X2283Y984D02*
D03*
X3071Y-817D02*
D03*
X1077Y-571D02*
D03*
X-315Y197D02*
D03*
X-2244Y-2192D02*
D03*
X2972Y-3268D02*
D03*
X2402Y-1063D02*
D03*
X1783Y-1890D02*
D03*
X2987Y-3469D02*
D03*
X512Y-1075D02*
D03*
X472Y-787D02*
D03*
X2480Y-1772D02*
D03*
X2576Y-1220D02*
D03*
X3346Y2521D02*
D03*
X-234Y768D02*
D03*
X39Y1417D02*
D03*
X-236Y-827D02*
D03*
X1299Y-4409D02*
D03*
X1496Y1418D02*
D03*
X419Y225D02*
D03*
X-1905Y-256D02*
D03*
X-79Y-20D02*
D03*
X79Y-236D02*
D03*
X-1929Y-689D02*
D03*
X-1413Y325D02*
D03*
X4764Y-197D02*
D03*
X4449Y-160D02*
D03*
X2272Y-118D02*
D03*
X2217Y-591D02*
D03*
X3962Y1811D02*
D03*
D57*
X-2362Y2323D02*
D03*
X827Y-3780D02*
D03*
X-1220Y-3465D02*
D03*
X-771Y-3661D02*
D03*
X-374Y-3839D02*
D03*
X3579Y2777D02*
D03*
X3036Y1473D02*
D03*
X2835Y-1181D02*
D03*
X2717Y-3228D02*
D03*
X1811Y-3189D02*
D03*
X2323Y-3740D02*
D03*
X3962Y-2298D02*
D03*
X4753Y-968D02*
D03*
D58*
X-1929Y315D02*
D03*
M02*
