G04 Layer_Color=32896*
%FSLAX24Y24*%
%MOIN*%
G70*
G01*
G75*
%ADD60C,0.0039*%
D60*
X-3310Y-2080D02*
Y-2211D01*
X-3336Y-2237D01*
X-3389D01*
X-3415Y-2211D01*
Y-2080D01*
X-3572Y-2106D02*
X-3546Y-2080D01*
X-3494D01*
X-3467Y-2106D01*
Y-2132D01*
X-3494Y-2158D01*
X-3546D01*
X-3572Y-2185D01*
Y-2211D01*
X-3546Y-2237D01*
X-3494D01*
X-3467Y-2211D01*
X-3625Y-2080D02*
Y-2237D01*
X-3704D01*
X-3730Y-2211D01*
Y-2185D01*
X-3704Y-2158D01*
X-3625D01*
X-3704D01*
X-3730Y-2132D01*
Y-2106D01*
X-3704Y-2080D01*
X-3625D01*
X1435Y2872D02*
Y3030D01*
X1356D01*
X1330Y3004D01*
Y2951D01*
X1356Y2925D01*
X1435D01*
X1383D02*
X1330Y2872D01*
X1173D02*
X1278D01*
X1173Y2977D01*
Y3004D01*
X1199Y3030D01*
X1251D01*
X1278Y3004D01*
X1120Y2899D02*
X1094Y2872D01*
X1041D01*
X1015Y2899D01*
Y3004D01*
X1041Y3030D01*
X1094D01*
X1120Y3004D01*
Y2977D01*
X1094Y2951D01*
X1015D01*
X-2520Y2165D02*
Y2323D01*
X-2598D01*
X-2625Y2297D01*
Y2244D01*
X-2598Y2218D01*
X-2520D01*
X-2572D02*
X-2625Y2165D01*
X-2782D02*
X-2677D01*
X-2782Y2270D01*
Y2297D01*
X-2756Y2323D01*
X-2703D01*
X-2677Y2297D01*
X-2940Y2323D02*
X-2835D01*
Y2244D01*
X-2887Y2270D01*
X-2913D01*
X-2940Y2244D01*
Y2192D01*
X-2913Y2165D01*
X-2861D01*
X-2835Y2192D01*
X-2191Y3465D02*
X-2034D01*
Y3543D01*
X-2060Y3570D01*
X-2113D01*
X-2139Y3543D01*
Y3465D01*
Y3517D02*
X-2191Y3570D01*
Y3727D02*
Y3622D01*
X-2086Y3727D01*
X-2060D01*
X-2034Y3701D01*
Y3648D01*
X-2060Y3622D01*
X-2191Y3779D02*
Y3832D01*
Y3806D01*
X-2034D01*
X-2060Y3779D01*
X1405Y-3130D02*
Y-2972D01*
X1327D01*
X1301Y-2999D01*
Y-3051D01*
X1327Y-3077D01*
X1405D01*
X1353D02*
X1301Y-3130D01*
X1248D02*
X1196D01*
X1222D01*
Y-2972D01*
X1248Y-2999D01*
X1117Y-3104D02*
X1091Y-3130D01*
X1038D01*
X1012Y-3104D01*
Y-2999D01*
X1038Y-2972D01*
X1091D01*
X1117Y-2999D01*
Y-3025D01*
X1091Y-3051D01*
X1012D01*
X-1759Y-3045D02*
X-1732Y-3071D01*
Y-3123D01*
X-1759Y-3150D01*
X-1864D01*
X-1890Y-3123D01*
Y-3071D01*
X-1864Y-3045D01*
X-1759Y-2992D02*
X-1732Y-2966D01*
Y-2913D01*
X-1759Y-2887D01*
X-1785D01*
X-1811Y-2913D01*
Y-2940D01*
Y-2913D01*
X-1837Y-2887D01*
X-1864D01*
X-1890Y-2913D01*
Y-2966D01*
X-1864Y-2992D01*
X-1890Y-2730D02*
Y-2835D01*
X-1785Y-2730D01*
X-1759D01*
X-1732Y-2756D01*
Y-2809D01*
X-1759Y-2835D01*
X1312Y-3963D02*
X1339Y-3937D01*
X1391D01*
X1417Y-3963D01*
Y-4068D01*
X1391Y-4094D01*
X1339D01*
X1312Y-4068D01*
X1260Y-4094D02*
X1207D01*
X1234D01*
Y-3937D01*
X1260Y-3963D01*
X1024Y-4094D02*
X1129D01*
X1024Y-3990D01*
Y-3963D01*
X1050Y-3937D01*
X1102D01*
X1129Y-3963D01*
X-1373Y1732D02*
Y1601D01*
X-1399Y1575D01*
X-1452D01*
X-1478Y1601D01*
Y1732D01*
X-1531Y1706D02*
X-1557Y1732D01*
X-1609D01*
X-1636Y1706D01*
Y1680D01*
X-1609Y1654D01*
X-1583D01*
X-1609D01*
X-1636Y1627D01*
Y1601D01*
X-1609Y1575D01*
X-1557D01*
X-1531Y1601D01*
X-1916Y-993D02*
X-1890Y-1020D01*
Y-1072D01*
X-1916Y-1098D01*
X-2021D01*
X-2047Y-1072D01*
Y-1020D01*
X-2021Y-993D01*
X-1916Y-941D02*
X-1890Y-915D01*
Y-862D01*
X-1916Y-836D01*
X-1942D01*
X-1969Y-862D01*
Y-888D01*
Y-862D01*
X-1995Y-836D01*
X-2021D01*
X-2047Y-862D01*
Y-915D01*
X-2021Y-941D01*
X-2047Y-783D02*
Y-731D01*
Y-757D01*
X-1890D01*
X-1916Y-783D01*
X-2744Y-2152D02*
X-2718Y-2126D01*
X-2665D01*
X-2639Y-2152D01*
Y-2257D01*
X-2665Y-2283D01*
X-2718D01*
X-2744Y-2257D01*
X-2796Y-2283D02*
X-2849D01*
X-2823D01*
Y-2126D01*
X-2796Y-2152D01*
X-2928Y-2126D02*
X-3032D01*
Y-2152D01*
X-2928Y-2257D01*
Y-2283D01*
X4753Y-582D02*
X4596D01*
Y-503D01*
X4622Y-477D01*
X4727D01*
X4753Y-503D01*
Y-582D01*
X4596Y-320D02*
Y-425D01*
X4701Y-320D01*
X4727D01*
X4753Y-346D01*
Y-398D01*
X4727Y-425D01*
X954Y4856D02*
X980Y4882D01*
X1033D01*
X1059Y4856D01*
Y4829D01*
X1033Y4803D01*
X980D01*
X954Y4777D01*
Y4751D01*
X980Y4724D01*
X1033D01*
X1059Y4751D01*
X901Y4882D02*
Y4724D01*
X849Y4777D01*
X796Y4724D01*
Y4882D01*
M02*
