G04 Layer_Physical_Order=2*
G04 Layer_Color=36540*
%FSLAX24Y24*%
%MOIN*%
G70*
G01*
G75*
%ADD37C,0.0079*%
%ADD38C,0.0049*%
%ADD39C,0.0059*%
%ADD40C,0.0118*%
%ADD41C,0.0098*%
%ADD42C,0.0157*%
%ADD44C,0.0100*%
%ADD45O,0.0630X0.0315*%
%ADD46O,0.0591X0.0315*%
%ADD47O,0.0866X0.0433*%
%ADD53C,0.0984*%
%ADD54C,0.0197*%
G36*
X-3865Y-1503D02*
X-3865Y-1503D01*
X-3760Y-1547D01*
X-3760Y-1547D01*
X-3329D01*
X-3299Y-1578D01*
Y-1884D01*
X-3438Y-2023D01*
X-3541Y-2066D01*
X-3597Y-2202D01*
X-3570Y-2268D01*
X-3614Y-2393D01*
X-3642Y-2404D01*
X-3654Y-2432D01*
X-3770Y-2455D01*
X-4096Y-2129D01*
Y-1407D01*
X-3997Y-1371D01*
X-3865Y-1503D01*
D02*
G37*
G36*
X-2861Y-1542D02*
X-2741Y-1592D01*
X-1959D01*
X-1576Y-1975D01*
X-1617Y-2074D01*
X-2947D01*
X-3013Y-1975D01*
X-3000Y-1946D01*
Y-1542D01*
X-2922Y-1497D01*
X-2910Y-1494D01*
X-2861Y-1542D01*
D02*
G37*
G36*
X1576Y-2063D02*
X1654Y-2095D01*
X1670Y-2088D01*
X1788Y-2146D01*
X1793Y-2159D01*
X2716Y-3082D01*
X2677Y-3182D01*
X2563Y-3229D01*
X2553Y-3253D01*
X2358D01*
X1979Y-2874D01*
X1900Y-2841D01*
X1450D01*
Y-2118D01*
X1532Y-2058D01*
X1576Y-2063D01*
D02*
G37*
G36*
X-2111Y-2513D02*
X-2139Y-2581D01*
X-2082Y-2716D01*
X-1954Y-2770D01*
X-1791Y-2933D01*
X-1693Y-2973D01*
X-1647D01*
X-1609Y-3064D01*
X-1988Y-3443D01*
X-2028Y-3541D01*
Y-3578D01*
X-2123Y-3641D01*
X-2153Y-3628D01*
X-2914D01*
X-2935Y-3614D01*
X-3614Y-2935D01*
X-3662Y-2863D01*
X-3648Y-2759D01*
X-3569Y-2706D01*
X-3507Y-2732D01*
X-3455Y-2710D01*
X-3355D01*
X-3234Y-2661D01*
X-2988Y-2415D01*
X-2176D01*
X-2111Y-2513D01*
D02*
G37*
G36*
X2635Y-677D02*
X2691Y-813D01*
X2827Y-869D01*
X2962Y-813D01*
X2968Y-799D01*
X3065Y-779D01*
X3255Y-969D01*
Y-1949D01*
X3137Y-2067D01*
X3053Y-2011D01*
X3087Y-1929D01*
X3031Y-1794D01*
X2977Y-1771D01*
X2891Y-1723D01*
X2834Y-1588D01*
X2706Y-1534D01*
X2284Y-1112D01*
X2186Y-1072D01*
X332D01*
X234Y-1112D01*
X120Y-1226D01*
X4Y-1203D01*
X-21Y-1143D01*
X-65Y-1125D01*
X-84Y-1028D01*
X322Y-621D01*
X2598D01*
X2635Y-677D01*
D02*
G37*
G36*
X1520Y4485D02*
X1501Y4428D01*
X1606Y4407D01*
X1654Y4297D01*
X1619Y4213D01*
X1622Y4205D01*
X1274Y3856D01*
X101D01*
X35Y3955D01*
X56Y4004D01*
X-0Y4140D01*
X-136Y4196D01*
X-144Y4193D01*
X-321Y4370D01*
X-411Y4407D01*
X-509D01*
X-512Y4415D01*
X-648Y4471D01*
X-783Y4415D01*
X-839Y4280D01*
X-783Y4144D01*
X-648Y4088D01*
X-512Y4144D01*
X-420Y4108D01*
X-324Y4012D01*
X-328Y4004D01*
X-307Y3955D01*
X-373Y3856D01*
X-509D01*
X-512Y3864D01*
X-648Y3920D01*
X-783Y3864D01*
X-839Y3728D01*
X-783Y3593D01*
X-648Y3537D01*
X-512Y3593D01*
X-509Y3600D01*
X1327D01*
X1417Y3638D01*
X1803Y4024D01*
X1811Y4021D01*
X1947Y4077D01*
X1972Y4139D01*
X2094Y4177D01*
X3342Y3342D01*
X3466Y3157D01*
X3429Y3035D01*
X3368Y3010D01*
X3312Y2874D01*
X3368Y2738D01*
X3478Y2693D01*
X3438Y2598D01*
X3494Y2462D01*
X3630Y2406D01*
X3766Y2462D01*
X3783Y2505D01*
X3894Y2516D01*
X4367Y1809D01*
X4402Y1634D01*
X4312Y1578D01*
X4055Y1684D01*
X3769Y1566D01*
X3650Y1280D01*
X3730Y1087D01*
X3664Y988D01*
X3469D01*
X3124Y1334D01*
X3071Y1462D01*
X2935Y1519D01*
X2799Y1462D01*
X2743Y1327D01*
X2799Y1191D01*
X2928Y1138D01*
X3314Y752D01*
X3412Y712D01*
X3717D01*
X3772Y630D01*
X3767Y618D01*
X3823Y483D01*
X3957Y427D01*
X3944Y395D01*
X4000Y259D01*
X4136Y203D01*
X4271Y259D01*
X4328Y395D01*
X4271Y531D01*
X4203Y559D01*
X4190Y617D01*
X4263Y712D01*
X4446D01*
X4492Y599D01*
X4618Y547D01*
X4727Y0D01*
X4609Y-592D01*
X4532Y-624D01*
X4510Y-676D01*
X4141Y-1045D01*
X4091Y-1165D01*
Y-1568D01*
X3993Y-1634D01*
X3952Y-1617D01*
X3761Y-1426D01*
Y-1088D01*
X3860Y-1022D01*
X3880Y-1030D01*
X4015Y-974D01*
X4072Y-839D01*
X4015Y-703D01*
X3880Y-647D01*
X3777Y-689D01*
X3691D01*
X3105Y-103D01*
X3000Y-60D01*
X3000Y-60D01*
X140D01*
X140Y-60D01*
X34Y-103D01*
X34Y-103D01*
X-239Y-376D01*
X-355Y-353D01*
X-376Y-302D01*
X-400Y-292D01*
Y-70D01*
X-433Y9D01*
X-433Y9D01*
X-523Y99D01*
Y590D01*
X-425Y626D01*
X79Y417D01*
X591Y629D01*
X803Y1142D01*
X635Y1548D01*
X710Y1623D01*
X736Y1613D01*
X872Y1669D01*
X894Y1721D01*
X1010Y1744D01*
X1254Y1500D01*
X1248Y1399D01*
X1167Y1347D01*
X1134Y1361D01*
X998Y1305D01*
X942Y1169D01*
X998Y1034D01*
X1134Y978D01*
X1173Y994D01*
X1271Y928D01*
Y525D01*
X1253Y517D01*
X1197Y382D01*
X1253Y246D01*
X1389Y190D01*
X1524Y246D01*
X1580Y382D01*
X1524Y517D01*
X1506Y525D01*
Y1531D01*
X1471Y1614D01*
X1471Y1614D01*
X574Y2512D01*
X491Y2546D01*
X149D01*
X-160Y2855D01*
X-137Y2971D01*
X-61Y3002D01*
X-58Y3010D01*
X964D01*
X1031Y2942D01*
X1012Y2846D01*
X999Y2840D01*
X943Y2705D01*
X999Y2569D01*
X1135Y2513D01*
X1270Y2569D01*
X1287Y2610D01*
X1400Y2563D01*
X1535Y2619D01*
X1574Y2713D01*
X1673Y2694D01*
Y1259D01*
X1713Y1161D01*
X2370Y504D01*
X2423Y376D01*
X2559Y319D01*
X2574Y325D01*
X2665Y295D01*
X2721Y160D01*
X2856Y103D01*
X2992Y160D01*
X3048Y295D01*
X2992Y431D01*
X2856Y487D01*
X2842Y481D01*
X2751Y511D01*
X2695Y647D01*
X2566Y700D01*
X1950Y1317D01*
Y2785D01*
X2003Y2913D01*
X1947Y3049D01*
X1811Y3105D01*
X1675Y3049D01*
X1626Y2929D01*
X1557Y2900D01*
X1528Y2893D01*
X1400Y2946D01*
X1392Y2943D01*
X1107Y3228D01*
X1017Y3266D01*
X-58D01*
X-61Y3273D01*
X-197Y3330D01*
X-332Y3273D01*
X-338Y3261D01*
X-433Y3234D01*
X-569Y3290D01*
X-704Y3234D01*
X-726Y3182D01*
X-842Y3159D01*
X-912Y3228D01*
X-1002Y3266D01*
X-1239D01*
X-1242Y3273D01*
X-1378Y3330D01*
X-1514Y3273D01*
X-1570Y3138D01*
X-1514Y3002D01*
X-1378Y2946D01*
X-1242Y3002D01*
X-1239Y3010D01*
X-1055D01*
X-807Y2762D01*
X-811Y2755D01*
X-754Y2619D01*
X-619Y2563D01*
X-483Y2619D01*
X-457Y2682D01*
X-341Y2705D01*
X18Y2346D01*
X100Y2312D01*
X100Y2312D01*
X442D01*
X570Y2184D01*
X529Y2086D01*
X-510D01*
X-592Y2051D01*
X-592Y2051D01*
X-759Y1885D01*
X-875Y1908D01*
X-906Y1984D01*
X-1041Y2040D01*
X-1177Y1984D01*
X-1233Y1848D01*
X-1223Y1824D01*
X-1735Y1313D01*
X-3927D01*
X-3937Y1336D01*
X-4073Y1393D01*
X-4208Y1336D01*
X-4265Y1201D01*
X-4208Y1065D01*
X-4073Y1009D01*
X-3937Y1065D01*
X-3927Y1089D01*
X-1688D01*
X-1609Y1122D01*
X-1065Y1666D01*
X-1041Y1656D01*
X-1023Y1664D01*
X-924Y1598D01*
Y-262D01*
X-943Y-270D01*
X-954Y-298D01*
X-1051Y-317D01*
X-1755Y387D01*
X-1798Y490D01*
X-1901Y533D01*
X-2064Y696D01*
X-2170Y740D01*
X-2170Y740D01*
X-3480D01*
X-3583Y782D01*
X-3718Y726D01*
X-3774Y591D01*
X-3718Y455D01*
X-3583Y399D01*
X-3480Y441D01*
X-2994D01*
X-2928Y343D01*
X-2948Y295D01*
X-2891Y160D01*
X-2866Y149D01*
Y43D01*
X-2880Y37D01*
X-2936Y-98D01*
X-2880Y-234D01*
X-2744Y-290D01*
X-2609Y-234D01*
X-2553Y-98D01*
X-2609Y37D01*
X-2634Y48D01*
Y154D01*
X-2620Y160D01*
X-2564Y295D01*
X-2584Y343D01*
X-2518Y441D01*
X-2232D01*
X-2112Y322D01*
X-2069Y219D01*
X-1966Y176D01*
X-1041Y-750D01*
X-1041Y-750D01*
X-935Y-793D01*
X-935Y-793D01*
X-460D01*
X-423Y-884D01*
X-561Y-1022D01*
X-1554D01*
X-1609Y-941D01*
X-1590Y-896D01*
X-1646Y-760D01*
X-1782Y-704D01*
X-1918Y-760D01*
X-1974Y-896D01*
X-1955Y-941D01*
X-2010Y-1022D01*
X-2280D01*
X-3166Y-136D01*
X-3187Y-85D01*
X-3323Y-29D01*
X-3458Y-85D01*
X-3515Y-220D01*
X-3458Y-356D01*
X-3407Y-377D01*
X-2893Y-891D01*
X-2959Y-962D01*
X-3080Y-912D01*
X-3610D01*
X-3661Y-891D01*
X-3742Y-924D01*
X-3782Y-829D01*
X-3917Y-773D01*
X-4053Y-829D01*
X-4067Y-863D01*
X-4192Y-812D01*
X-4328Y-868D01*
X-4384Y-1003D01*
X-4328Y-1139D01*
X-4320Y-1142D01*
Y-1410D01*
X-4401Y-1465D01*
X-4409Y-1462D01*
X-4466Y-1485D01*
X-4565Y-1420D01*
Y1463D01*
X-4485Y1520D01*
X-4428Y1501D01*
X-4367Y1809D01*
X-3745Y2739D01*
X-3625Y2742D01*
X-3400Y2517D01*
X-3135Y2517D01*
X-2871Y2781D01*
X-2871Y3046D01*
X-3135Y3310D01*
X-3213D01*
X-3243Y3409D01*
X-3021Y3557D01*
X-2927Y3528D01*
X-2847Y3334D01*
X-2561Y3216D01*
X-2274Y3334D01*
X-2156Y3620D01*
X-2274Y3907D01*
X-2316Y3924D01*
X-2325Y4022D01*
X-1809Y4367D01*
X-1501Y4428D01*
X-1520Y4485D01*
X-1463Y4565D01*
X1463D01*
X1520Y4485D01*
D02*
G37*
G36*
X1383Y-1439D02*
X1063Y-1759D01*
X1030Y-1839D01*
Y-1880D01*
X931Y-1946D01*
X879Y-1924D01*
X743Y-1981D01*
X687Y-2116D01*
X743Y-2252D01*
X879Y-2308D01*
X931Y-2286D01*
X1030Y-2352D01*
Y-2873D01*
X475Y-3428D01*
X-235D01*
X-235Y-3428D01*
X-314Y-3460D01*
X-684Y-3830D01*
X-1255D01*
X-1267Y-3802D01*
X-1381Y-3755D01*
X-1373Y-3736D01*
X-1429Y-3601D01*
X-1565Y-3545D01*
X-1610Y-3457D01*
X-190Y-2037D01*
X-61Y-1983D01*
X-5Y-1848D01*
X-46Y-1748D01*
X15Y-1723D01*
X56Y-1682D01*
X172Y-1705D01*
X201Y-1774D01*
X337Y-1830D01*
X472Y-1774D01*
X528Y-1639D01*
X472Y-1503D01*
X447Y-1386D01*
X478Y-1348D01*
X1345D01*
X1383Y-1439D01*
D02*
G37*
%LPC*%
G36*
X3780Y2160D02*
X3644Y2104D01*
X3588Y1969D01*
X3644Y1833D01*
X3780Y1777D01*
X3915Y1833D01*
X3971Y1969D01*
X3915Y2104D01*
X3780Y2160D01*
D02*
G37*
G36*
X-3819Y78D02*
X-3954Y22D01*
X-4011Y-114D01*
X-3954Y-249D01*
X-3819Y-305D01*
X-3683Y-249D01*
X-3627Y-114D01*
X-3683Y22D01*
X-3819Y78D01*
D02*
G37*
%LPD*%
D37*
X-648Y3728D02*
X1327D01*
X1811Y4213D01*
X-197Y3138D02*
X1017D01*
X1400Y2755D01*
X-648Y4280D02*
X-411D01*
X-1002Y3138D02*
X-619Y2755D01*
X-1378Y3138D02*
X-1002D01*
X-411Y4280D02*
X-136Y4004D01*
D38*
X-1599Y-4110D02*
X-666D01*
X-1663Y-4045D02*
X-1599Y-4110D01*
X-2052Y-4045D02*
X-1663D01*
X-2186Y-4180D02*
X-2052Y-4045D01*
X-1761Y-3932D02*
X-1565Y-3736D01*
X-1961Y-3932D02*
X-1761D01*
X-2153Y-3740D02*
X-1961Y-3932D01*
X-1688Y1201D02*
X-1041Y1848D01*
X-4073Y1201D02*
X-1688D01*
X1142Y-1839D02*
X1620Y-1360D01*
X1142Y-2919D02*
Y-1839D01*
X521Y-3539D02*
X1142Y-2919D01*
X1620Y-1360D02*
X2147D01*
X-637Y-3942D02*
X-235Y-3539D01*
X-1402Y-3942D02*
X-637D01*
X-666Y-4110D02*
X-194Y-3638D01*
X-625Y-4208D02*
X-153Y-3736D01*
X-113Y-3835D02*
X644D01*
X-584Y-4307D02*
X-113Y-3835D01*
X-153Y-3736D02*
X603D01*
X-194Y-3638D02*
X562D01*
X-235Y-3539D02*
X521D01*
X-1557Y-4307D02*
X-584D01*
X-1671Y-4208D02*
X-625D01*
X-1712Y-4249D02*
X-1671Y-4208D01*
X-1875Y-4249D02*
X-1712D01*
X-1890Y-4264D02*
X-1875Y-4249D01*
X644Y-3835D02*
X1427Y-3051D01*
X562Y-3638D02*
X1339Y-2861D01*
X603Y-3736D02*
X1386Y-2953D01*
X2598Y-1929D02*
X2896D01*
X2423Y-1754D02*
X2598Y-1929D01*
X2423Y-1754D02*
Y-1636D01*
X2147Y-1360D02*
X2423Y-1636D01*
X1900Y-2953D02*
X2312Y-3365D01*
X2699D01*
X1859Y-3051D02*
X2069Y-3261D01*
Y-3686D02*
Y-3261D01*
X1695Y-4060D02*
X2069Y-3686D01*
X79Y-4736D02*
X709D01*
X1212Y-4233D01*
X1766D01*
X1872Y-2080D02*
X2953Y-3160D01*
X1872Y-1710D02*
X2035Y-1547D01*
X2069D01*
X1872Y-2080D02*
Y-1710D01*
X-635Y1593D02*
X-531Y1697D01*
X-635Y53D02*
X-512Y-70D01*
Y-437D02*
Y-70D01*
X-635Y53D02*
Y1593D01*
X1339Y-2861D02*
Y-1917D01*
X1386Y-2953D02*
X1900D01*
X1427Y-3051D02*
X1859D01*
X2953Y-3456D02*
Y-3160D01*
X2781Y-3627D02*
X2953Y-3456D01*
X2372Y-3627D02*
X2781D01*
X1766Y-4233D02*
X2372Y-3627D01*
X-1402Y-3942D02*
Y-3938D01*
X-1671Y-4421D02*
X-1557Y-4307D01*
X-2967Y-3740D02*
X-2153D01*
X-4208Y-1019D02*
X-4192Y-1003D01*
X-4208Y-2175D02*
Y-1019D01*
X-3780Y-2928D02*
X-2967Y-3740D01*
X-3780Y-2928D02*
Y-2604D01*
X-4208Y-2175D02*
X-3780Y-2604D01*
D39*
X572Y1969D02*
X736Y1804D01*
X-510Y1969D02*
X572D01*
X-807Y1671D02*
X-510Y1969D01*
X-807Y-406D02*
Y1671D01*
X-569Y3098D02*
X100Y2429D01*
X491D01*
X1389Y1531D01*
Y382D02*
Y1531D01*
D40*
X3122Y-3474D02*
Y-2925D01*
X2953Y-2756D02*
X3122Y-2925D01*
X2953Y-2756D02*
Y-2305D01*
X3122D01*
X-935Y-644D02*
X-296D01*
X140Y-209D01*
X3122Y-2305D02*
X3132Y-2295D01*
X3612Y-1488D02*
X3919Y-1795D01*
X3612Y-821D02*
X3630Y-839D01*
X3880D01*
X3612Y-1488D02*
Y-821D01*
X1950Y-4303D02*
X2493Y-3760D01*
X2836D01*
X3122Y-3474D01*
X140Y-209D02*
X3000D01*
X3612Y-821D01*
X-3583Y591D02*
X-2170D01*
X-1934Y354D01*
X-935Y-644D01*
X-3917Y-1240D02*
Y-965D01*
Y-1240D02*
X-3760Y-1398D01*
X-3268D01*
X-3406Y-2202D02*
X-3150Y-1946D01*
Y-1516D01*
X-3268Y-1398D02*
X-3150Y-1516D01*
D41*
X-1373Y-4500D02*
X-923D01*
X-880Y-4457D01*
X-254D01*
X236Y-3967D02*
X630D01*
X730Y-4067D01*
X1085D01*
X-254Y-4457D02*
X236Y-3967D01*
X1811Y1259D02*
Y2913D01*
Y1259D02*
X2559Y511D01*
X-1890Y-3541D02*
X-197Y-1848D01*
X-1890Y-3760D02*
Y-3541D01*
X-1463Y-2835D02*
X-254Y-1625D01*
X-1693Y-2835D02*
X-1463D01*
X-1947Y-2581D02*
X-1693Y-2835D01*
X2186Y-1210D02*
X2699Y-1723D01*
X332Y-1210D02*
X2186D01*
X-254Y-1625D02*
X-83D01*
X1555Y-3596D02*
Y-3446D01*
X1772Y-3230D01*
X1085Y-4067D02*
X1555Y-3596D01*
X-83Y-1625D02*
X332Y-1210D01*
X2935Y1327D02*
X3412Y850D01*
X4513D01*
X4628Y735D01*
D42*
X-1260Y-2244D02*
X-1022Y-2006D01*
X-3059Y-2244D02*
X-1260D01*
X-3355Y-2540D02*
X-3059Y-2244D01*
X-1022Y-2006D02*
Y-1193D01*
X-3507Y-2540D02*
X-3355D01*
X-2350Y-1193D02*
X-490D01*
X252Y-451D02*
X2977D01*
X-490Y-1193D02*
X252Y-451D01*
X-3661Y-1083D02*
X-3080D01*
X-2741Y-1421D01*
X-1889D01*
X-1339Y-1971D01*
X-3323Y-220D02*
X-2350Y-1193D01*
X3425Y-2020D02*
X3427Y-2022D01*
X4165D01*
X4262Y-1925D01*
X2977Y-451D02*
X3425Y-899D01*
Y-2020D02*
Y-899D01*
X4262Y-1925D02*
Y-1165D01*
X4667Y-760D01*
X3132Y-2295D02*
X3150D01*
X3425Y-2020D01*
X2108Y-1813D02*
X2590Y-2295D01*
X3132D01*
D44*
X6063Y123D02*
X6163Y223D01*
X6363D01*
X6463Y123D01*
Y23D01*
X6363Y-77D01*
X6263D01*
X6363D01*
X6463Y-177D01*
Y-277D01*
X6363Y-377D01*
X6163D01*
X6063Y-277D01*
X6663Y-377D02*
Y-277D01*
X6763D01*
Y-377D01*
X6663D01*
X8162Y123D02*
X8062Y223D01*
X7862D01*
X7762Y123D01*
Y23D01*
X7862Y-77D01*
X8062D01*
X8162Y-177D01*
Y-277D01*
X8062Y-377D01*
X7862D01*
X7762Y-277D01*
X8362Y-377D02*
X8562D01*
X8462D01*
Y23D01*
X8362D01*
X9062Y-577D02*
X9162D01*
X9262Y-477D01*
Y23D01*
X8962D01*
X8862Y-77D01*
Y-277D01*
X8962Y-377D01*
X9262D01*
D45*
X-2520Y-1780D02*
D03*
D46*
Y1780D02*
D03*
D47*
X-3701Y-1780D02*
D03*
Y1780D02*
D03*
D53*
X-2756Y-3150D02*
D03*
X2441Y3543D02*
D03*
D54*
X776Y302D02*
D03*
X-1291Y2073D02*
D03*
X-1024Y2138D02*
D03*
X-1890Y-4264D02*
D03*
X1811Y2913D02*
D03*
X1811Y4213D02*
D03*
X1400Y2755D02*
D03*
X-3323Y-220D02*
D03*
X-3661Y-1083D02*
D03*
X-1339Y-1971D02*
D03*
X-1947Y-2581D02*
D03*
X-4398Y591D02*
D03*
X-648Y4280D02*
D03*
Y3728D02*
D03*
X-293Y3493D02*
D03*
X-197Y3138D02*
D03*
X179Y2705D02*
D03*
X1339Y-1917D02*
D03*
X3053Y1631D02*
D03*
X2982Y787D02*
D03*
X2539Y2742D02*
D03*
X3185Y1988D02*
D03*
X736Y1804D02*
D03*
X-531Y1697D02*
D03*
X-569Y3098D02*
D03*
X283Y-981D02*
D03*
X2362Y-3004D02*
D03*
X1950Y-4303D02*
D03*
X416Y-3365D02*
D03*
X2896Y-1929D02*
D03*
X1695Y-4060D02*
D03*
X1772Y-3230D02*
D03*
X-254Y-4457D02*
D03*
X1085Y-4067D02*
D03*
X2699Y-3365D02*
D03*
X2108Y-1813D02*
D03*
X1389Y382D02*
D03*
X3880Y-1193D02*
D03*
X-406Y-3398D02*
D03*
X-254Y-3070D02*
D03*
X2935Y1327D02*
D03*
X3880Y-839D02*
D03*
X2699Y-1723D02*
D03*
X1596Y59D02*
D03*
X2125Y-969D02*
D03*
X-197Y-1848D02*
D03*
X79Y-4736D02*
D03*
X2069Y-1547D02*
D03*
X-1041Y1848D02*
D03*
X-4073Y1201D02*
D03*
X-512Y-437D02*
D03*
X-807Y-406D02*
D03*
X4667Y-760D02*
D03*
X3919Y-1795D02*
D03*
X61Y-3043D02*
D03*
X4628Y735D02*
D03*
X2559Y511D02*
D03*
X2223Y1209D02*
D03*
X-3583Y591D02*
D03*
X-619Y2755D02*
D03*
X-1378Y3138D02*
D03*
X-136Y4004D02*
D03*
X-1890Y-3760D02*
D03*
X-1402Y-3938D02*
D03*
X-1373Y-4500D02*
D03*
X-1671Y-4421D02*
D03*
X-2186Y-4180D02*
D03*
X-1565Y-3736D02*
D03*
X-4192Y-1003D02*
D03*
X-4134Y-571D02*
D03*
X-1934Y354D02*
D03*
X-3917Y-965D02*
D03*
X-3406Y-2202D02*
D03*
X-3507Y-2540D02*
D03*
M02*
