G04 Layer_Physical_Order=3*
G04 Layer_Color=128*
%FSLAX24Y24*%
%MOIN*%
G70*
G01*
G75*
%ADD40C,0.0118*%
%ADD44C,0.0100*%
%ADD45C,0.0591*%
%ADD55C,0.1417*%
%ADD56C,0.0354*%
%ADD57C,0.0335*%
G36*
X-1366Y-4507D02*
Y-4803D01*
X-1431D01*
X-1549Y-4921D01*
X-2211D01*
Y-4910D01*
X-2567Y-4553D01*
Y-4094D01*
X-2508D01*
X-2429Y-4016D01*
X-1857D01*
X-1366Y-4507D01*
D02*
G37*
D40*
X-1580Y4661D02*
G03*
X-4661Y1580I1580J-4661D01*
G01*
X-4661Y-1580D02*
G03*
X1580Y4661I4661J1580D01*
G01*
Y4661D01*
X-1580D02*
X1580D01*
X-4661Y1580D02*
X-4661D01*
X-4661Y-1580D02*
Y1580D01*
D44*
X6463Y732D02*
X6063D01*
X6463Y1132D01*
Y1231D01*
X6363Y1331D01*
X6163D01*
X6063Y1231D01*
X6663Y732D02*
Y832D01*
X6763D01*
Y732D01*
X6663D01*
X7762D02*
Y1331D01*
X8062D01*
X8162Y1231D01*
Y1032D01*
X8062Y932D01*
X7762D01*
X8362Y732D02*
X8562D01*
X8462D01*
Y1331D01*
X8362D01*
X8962Y1132D02*
X9162D01*
X9262Y1032D01*
Y732D01*
X8962D01*
X8862Y832D01*
X8962Y932D01*
X9262D01*
X9462Y732D02*
Y1132D01*
X9762D01*
X9862Y1032D01*
Y732D01*
X10362D02*
X10162D01*
X10062Y832D01*
Y1032D01*
X10162Y1132D01*
X10362D01*
X10462Y1032D01*
Y932D01*
X10062D01*
D45*
X4055Y1280D02*
D03*
X-3268Y2913D02*
D03*
X-2561Y3620D02*
D03*
D55*
X79Y1142D02*
D03*
D56*
X491Y-4326D02*
D03*
X-2429Y-4016D02*
D03*
X-1535Y-2581D02*
D03*
X3644Y-2323D02*
D03*
D57*
X551Y-984D02*
D03*
X-118Y-906D02*
D03*
X-1102Y-2165D02*
D03*
X564Y-2100D02*
D03*
X-1839Y-3150D02*
D03*
X-827Y-866D02*
D03*
X-807Y-236D02*
D03*
X-503Y-79D02*
D03*
X-2842Y-196D02*
D03*
X-3507Y-2540D02*
D03*
X-3406Y-2202D02*
D03*
X-3917Y-965D02*
D03*
X-1934Y354D02*
D03*
X-2756Y295D02*
D03*
X-3819Y-114D02*
D03*
X-4409Y-1654D02*
D03*
X-4192Y-1003D02*
D03*
X-1565Y-3736D02*
D03*
X-2186Y-4180D02*
D03*
X-1671Y-4421D02*
D03*
X-1373Y-4500D02*
D03*
X-1402Y-3938D02*
D03*
X-1890Y-3760D02*
D03*
X-136Y4004D02*
D03*
X-1378Y3138D02*
D03*
X-619Y2755D02*
D03*
X-3583Y591D02*
D03*
X1180Y-3583D02*
D03*
X1134Y1169D02*
D03*
X2559Y511D02*
D03*
X4136Y395D02*
D03*
X4628Y735D02*
D03*
X3959Y618D02*
D03*
X2856Y295D02*
D03*
X3919Y-1795D02*
D03*
X4667Y-760D02*
D03*
X-4073Y1201D02*
D03*
X-1041Y1848D02*
D03*
X2069Y-1547D02*
D03*
X79Y-4736D02*
D03*
X-197Y-1848D02*
D03*
X2699Y-1723D02*
D03*
X3880Y-839D02*
D03*
X2935Y1327D02*
D03*
X2827Y-677D02*
D03*
X1389Y382D02*
D03*
X2108Y-1813D02*
D03*
X2699Y-3365D02*
D03*
X337Y-1639D02*
D03*
X879Y-2116D02*
D03*
X1085Y-4067D02*
D03*
X-254Y-4457D02*
D03*
X1772Y-3230D02*
D03*
X1695Y-4060D02*
D03*
X2896Y-1929D02*
D03*
X1950Y-4303D02*
D03*
X-569Y3098D02*
D03*
X-531Y1697D02*
D03*
X736Y1804D02*
D03*
X-157Y-1278D02*
D03*
X-1782Y-896D02*
D03*
X1339Y-1917D02*
D03*
X1654Y-1903D02*
D03*
X-197Y3138D02*
D03*
X-648Y3728D02*
D03*
Y4280D02*
D03*
X-1947Y-2581D02*
D03*
X-1339Y-1971D02*
D03*
X-3661Y-1083D02*
D03*
X-3323Y-220D02*
D03*
X1135Y2705D02*
D03*
X1400Y2755D02*
D03*
X1811Y4213D02*
D03*
X1811Y2913D02*
D03*
X3504Y2874D02*
D03*
X3630Y2598D02*
D03*
X3780Y1969D02*
D03*
X-1890Y-4264D02*
D03*
M02*
