G04 Layer_Color=16711935*
%FSLAX24Y24*%
%MOIN*%
G70*
G01*
G75*
%ADD69R,0.0283X0.0268*%
%ADD70C,0.0138*%
%ADD71R,0.0268X0.0283*%
%ADD72R,0.0256X0.0374*%
%ADD81R,0.0283X0.0283*%
G04:AMPARAMS|DCode=84|XSize=28.3mil|YSize=26.8mil|CornerRadius=0mil|HoleSize=0mil|Usage=FLASHONLY|Rotation=135.000|XOffset=0mil|YOffset=0mil|HoleType=Round|Shape=Rectangle|*
%AMROTATEDRECTD84*
4,1,4,0.0195,-0.0006,0.0006,-0.0195,-0.0195,0.0006,-0.0006,0.0195,0.0195,-0.0006,0.0*
%
%ADD84ROTATEDRECTD84*%

%ADD85R,0.0283X0.0283*%
%ADD87P,0.0401X4X180.0*%
%ADD95R,0.0492X0.0748*%
%ADD96O,0.0906X0.0472*%
%ADD97R,0.0276X0.0276*%
%ADD98C,0.0276*%
%ADD99C,0.0630*%
G04:AMPARAMS|DCode=100|XSize=63mil|YSize=63mil|CornerRadius=0mil|HoleSize=0mil|Usage=FLASHONLY|Rotation=45.000|XOffset=0mil|YOffset=0mil|HoleType=Round|Shape=Octagon|*
%AMOCTAGOND100*
4,1,8,0.0334,0.0111,0.0111,0.0334,-0.0111,0.0334,-0.0334,0.0111,-0.0334,-0.0111,-0.0111,-0.0334,0.0111,-0.0334,0.0334,-0.0111,0.0334,0.0111,0.0*
%
%ADD100OCTAGOND100*%

%ADD101O,0.0039X0.0639*%
%ADD103C,0.1024*%
%ADD104R,0.0433X0.0157*%
%ADD105R,0.0394X0.0630*%
%ADD106R,0.0630X0.0394*%
G04:AMPARAMS|DCode=107|XSize=63mil|YSize=39.4mil|CornerRadius=0mil|HoleSize=0mil|Usage=FLASHONLY|Rotation=270.000|XOffset=0mil|YOffset=0mil|HoleType=Round|Shape=Octagon|*
%AMOCTAGOND107*
4,1,8,-0.0098,-0.0315,0.0098,-0.0315,0.0197,-0.0217,0.0197,0.0217,0.0098,0.0315,-0.0098,0.0315,-0.0197,0.0217,-0.0197,-0.0217,-0.0098,-0.0315,0.0*
%
%ADD107OCTAGOND107*%

%ADD108R,0.0591X0.0394*%
%ADD109R,0.0709X0.1417*%
%ADD110R,0.0709X0.1260*%
%ADD111C,0.1220*%
G36*
X-2205Y-1578D02*
X-2191Y-1595D01*
X-2179Y-1613D01*
X-2168Y-1631D01*
X-2158Y-1651D01*
X-2151Y-1671D01*
X-2144Y-1692D01*
X-2140Y-1714D01*
X-2137Y-1735D01*
X-2136Y-1757D01*
X-2137Y-1779D01*
X-2139Y-1800D01*
X-2143Y-1822D01*
X-2149Y-1843D01*
X-2156Y-1863D01*
X-2165Y-1883D01*
X-2175Y-1902D01*
X-2187Y-1920D01*
X-2201Y-1938D01*
X-2215Y-1954D01*
X-2231Y-1969D01*
X-2248Y-1982D01*
X-2266Y-1994D01*
X-2285Y-2005D01*
X-2305Y-2014D01*
X-2326Y-2022D01*
X-2347Y-2028D01*
X-2368Y-2032D01*
X-2390Y-2035D01*
X-2411Y-2035D01*
X-2628D01*
X-2650Y-2035D01*
X-2671Y-2032D01*
X-2693Y-2028D01*
X-2714Y-2022D01*
X-2734Y-2014D01*
X-2754Y-2005D01*
X-2773Y-1994D01*
X-2791Y-1982D01*
X-2808Y-1969D01*
X-2824Y-1954D01*
X-2839Y-1938D01*
X-2852Y-1920D01*
X-2864Y-1902D01*
X-2874Y-1883D01*
X-2883Y-1863D01*
X-2891Y-1843D01*
X-2896Y-1822D01*
X-2900Y-1800D01*
X-2903Y-1779D01*
X-2903Y-1757D01*
X-2902Y-1735D01*
X-2899Y-1714D01*
X-2895Y-1692D01*
X-2889Y-1671D01*
X-2881Y-1651D01*
X-2871Y-1631D01*
X-2861Y-1613D01*
X-2848Y-1595D01*
X-2834Y-1578D01*
X-2820Y-1563D01*
X-2219D01*
X-2205Y-1578D01*
D02*
G37*
G36*
X-2390Y2035D02*
X-2368Y2032D01*
X-2347Y2028D01*
X-2326Y2022D01*
X-2305Y2014D01*
X-2285Y2005D01*
X-2266Y1994D01*
X-2248Y1982D01*
X-2231Y1969D01*
X-2215Y1954D01*
X-2201Y1938D01*
X-2187Y1920D01*
X-2175Y1902D01*
X-2165Y1883D01*
X-2156Y1863D01*
X-2149Y1843D01*
X-2143Y1822D01*
X-2139Y1800D01*
X-2137Y1779D01*
X-2136Y1757D01*
X-2137Y1735D01*
X-2140Y1714D01*
X-2144Y1692D01*
X-2151Y1671D01*
X-2158Y1651D01*
X-2168Y1631D01*
X-2179Y1613D01*
X-2191Y1595D01*
X-2205Y1578D01*
X-2219Y1563D01*
X-2820D01*
X-2834Y1578D01*
X-2848Y1595D01*
X-2861Y1613D01*
X-2871Y1631D01*
X-2881Y1651D01*
X-2889Y1671D01*
X-2895Y1692D01*
X-2899Y1714D01*
X-2902Y1735D01*
X-2903Y1757D01*
X-2903Y1779D01*
X-2900Y1800D01*
X-2896Y1822D01*
X-2891Y1843D01*
X-2883Y1863D01*
X-2874Y1883D01*
X-2864Y1902D01*
X-2852Y1920D01*
X-2839Y1938D01*
X-2824Y1954D01*
X-2808Y1969D01*
X-2791Y1982D01*
X-2773Y1994D01*
X-2754Y2005D01*
X-2734Y2014D01*
X-2714Y2022D01*
X-2693Y2028D01*
X-2671Y2032D01*
X-2650Y2035D01*
X-2628Y2035D01*
X-2411D01*
X-2390Y2035D01*
D02*
G37*
D69*
X-3843Y-2540D02*
D03*
X-3843Y-2170D02*
D03*
X-1825Y3507D02*
D03*
Y3877D02*
D03*
D70*
X-965Y-3917D02*
D03*
Y-3720D02*
D03*
X-1161Y-3917D02*
D03*
Y-3720D02*
D03*
X1950Y-3661D02*
D03*
X1811Y-3522D02*
D03*
Y-3801D02*
D03*
X1672Y-3661D02*
D03*
X2223Y-3365D02*
D03*
X2362Y-3504D02*
D03*
Y-3226D02*
D03*
X2501Y-3365D02*
D03*
X3819Y2182D02*
D03*
Y2379D02*
D03*
X3622Y2182D02*
D03*
Y2379D02*
D03*
D71*
X-1750Y-3476D02*
D03*
X-1380D02*
D03*
X797Y2705D02*
D03*
X427D02*
D03*
X-3495Y2247D02*
D03*
X-3125D02*
D03*
X839Y-4421D02*
D03*
X1209D02*
D03*
X1077Y-3055D02*
D03*
X1447D02*
D03*
D72*
X3900Y126D02*
D03*
X4411D02*
D03*
X4156Y-701D02*
D03*
D81*
X-1015Y-3358D02*
D03*
X-660D02*
D03*
X-180Y-4139D02*
D03*
X-535D02*
D03*
X-667Y-3070D02*
D03*
X-1022D02*
D03*
D84*
X657Y-3595D02*
D03*
X918Y-3334D02*
D03*
X2113Y-4147D02*
D03*
X2375Y-3885D02*
D03*
D85*
X61Y-3307D02*
D03*
Y-3661D02*
D03*
X4116Y-1213D02*
D03*
Y-1567D02*
D03*
X-1850Y-1599D02*
D03*
Y-1244D02*
D03*
X-1947Y-1942D02*
D03*
Y-2297D02*
D03*
D87*
X-1668Y-2899D02*
D03*
X-1417Y-3150D02*
D03*
D95*
X-1024Y2677D02*
D03*
X-2205D02*
D03*
D96*
X-3701Y-1780D02*
D03*
Y1780D02*
D03*
D97*
X3644Y-2323D02*
D03*
D98*
X-1535Y-2581D02*
D03*
X-2429Y-4016D02*
D03*
X491Y-4326D02*
D03*
X3329Y-2756D02*
D03*
D99*
X-2561Y3620D02*
D03*
X4055Y1280D02*
D03*
D100*
X-3268Y2913D02*
D03*
D101*
X79Y1142D02*
D03*
D103*
X2441Y3543D02*
D03*
D104*
X-2362Y98D02*
D03*
Y-98D02*
D03*
Y-295D02*
D03*
Y-492D02*
D03*
Y-886D02*
D03*
Y-1083D02*
D03*
Y-1280D02*
D03*
Y-1476D02*
D03*
Y-689D02*
D03*
Y1476D02*
D03*
Y1280D02*
D03*
Y1083D02*
D03*
Y886D02*
D03*
Y689D02*
D03*
Y492D02*
D03*
Y295D02*
D03*
D105*
X-413Y-2559D02*
D03*
X79D02*
D03*
X571D02*
D03*
X1063D02*
D03*
X1555Y-2559D02*
D03*
X2047D02*
D03*
X2539Y-2559D02*
D03*
X2539Y2165D02*
D03*
X2047D02*
D03*
X1555D02*
D03*
X1063Y2165D02*
D03*
X79Y2165D02*
D03*
D106*
X3425Y-1673D02*
D03*
Y-1181D02*
D03*
Y-689D02*
D03*
X3425Y-197D02*
D03*
X3425Y295D02*
D03*
Y787D02*
D03*
Y1280D02*
D03*
X-1299Y787D02*
D03*
Y295D02*
D03*
X-1299Y-197D02*
D03*
X-1299Y-689D02*
D03*
Y-1181D02*
D03*
Y-1673D02*
D03*
D107*
X571Y2165D02*
D03*
X-413D02*
D03*
D108*
X-1299Y1280D02*
D03*
D109*
X1161Y3937D02*
D03*
D110*
X-1161D02*
D03*
D111*
X-2756Y-3150D02*
D03*
M02*
