G04 Layer_Physical_Order=1*
G04 Layer_Color=255*
%FSLAX24Y24*%
%MOIN*%
G70*
G01*
G75*
%ADD10R,0.0244X0.0228*%
%ADD11C,0.0098*%
%ADD12R,0.0228X0.0244*%
%ADD13R,0.0217X0.0335*%
G04:AMPARAMS|DCode=14|XSize=33.5mil|YSize=15.7mil|CornerRadius=0mil|HoleSize=0mil|Usage=FLASHONLY|Rotation=90.000|XOffset=0mil|YOffset=0mil|HoleType=Round|Shape=Octagon|*
%AMOCTAGOND14*
4,1,8,0.0039,0.0167,-0.0039,0.0167,-0.0079,0.0128,-0.0079,-0.0128,-0.0039,-0.0167,0.0039,-0.0167,0.0079,-0.0128,0.0079,0.0128,0.0039,0.0167,0.0*
%
%ADD14OCTAGOND14*%

%ADD15R,0.0157X0.0394*%
%ADD16R,0.0118X0.0394*%
%ADD17R,0.0118X0.0236*%
%ADD18R,0.0213X0.0315*%
%ADD19R,0.0236X0.0472*%
G04:AMPARAMS|DCode=20|XSize=47.2mil|YSize=23.6mil|CornerRadius=5.9mil|HoleSize=0mil|Usage=FLASHONLY|Rotation=90.000|XOffset=0mil|YOffset=0mil|HoleType=Round|Shape=RoundedRectangle|*
%AMROUNDEDRECTD20*
21,1,0.0472,0.0118,0,0,90.0*
21,1,0.0354,0.0236,0,0,90.0*
1,1,0.0118,0.0059,0.0177*
1,1,0.0118,0.0059,-0.0177*
1,1,0.0118,-0.0059,-0.0177*
1,1,0.0118,-0.0059,0.0177*
%
%ADD20ROUNDEDRECTD20*%
%ADD21R,0.0581X0.0177*%
%ADD22R,0.0244X0.0244*%
%ADD23R,0.0374X0.0354*%
G04:AMPARAMS|DCode=24|XSize=24.4mil|YSize=22.8mil|CornerRadius=0mil|HoleSize=0mil|Usage=FLASHONLY|Rotation=225.000|XOffset=0mil|YOffset=0mil|HoleType=Round|Shape=Rectangle|*
%AMROTATEDRECTD24*
4,1,4,0.0006,0.0167,0.0167,0.0006,-0.0006,-0.0167,-0.0167,-0.0006,0.0006,0.0167,0.0*
%
%ADD24ROTATEDRECTD24*%

G04:AMPARAMS|DCode=25|XSize=24.4mil|YSize=22.8mil|CornerRadius=0mil|HoleSize=0mil|Usage=FLASHONLY|Rotation=135.000|XOffset=0mil|YOffset=0mil|HoleType=Round|Shape=Rectangle|*
%AMROTATEDRECTD25*
4,1,4,0.0167,-0.0006,0.0006,-0.0167,-0.0167,0.0006,-0.0006,0.0167,0.0167,-0.0006,0.0*
%
%ADD25ROTATEDRECTD25*%

%ADD26R,0.0244X0.0244*%
%ADD27P,0.0345X4X270.0*%
%ADD28P,0.0345X4X180.0*%
%ADD29P,0.2004X4X270.0*%
G04:AMPARAMS|DCode=30|XSize=33.5mil|YSize=9.8mil|CornerRadius=0mil|HoleSize=0mil|Usage=FLASHONLY|Rotation=225.000|XOffset=0mil|YOffset=0mil|HoleType=Round|Shape=Rectangle|*
%AMROTATEDRECTD30*
4,1,4,0.0084,0.0153,0.0153,0.0084,-0.0084,-0.0153,-0.0153,-0.0084,0.0084,0.0153,0.0*
%
%ADD30ROTATEDRECTD30*%

G04:AMPARAMS|DCode=31|XSize=33.5mil|YSize=9.8mil|CornerRadius=0mil|HoleSize=0mil|Usage=FLASHONLY|Rotation=135.000|XOffset=0mil|YOffset=0mil|HoleType=Round|Shape=Rectangle|*
%AMROTATEDRECTD31*
4,1,4,0.0153,-0.0084,0.0084,-0.0153,-0.0153,0.0084,-0.0084,0.0153,0.0153,-0.0084,0.0*
%
%ADD31ROTATEDRECTD31*%

%ADD32R,0.0433X0.0217*%
G04:AMPARAMS|DCode=33|XSize=63mil|YSize=31.5mil|CornerRadius=7.9mil|HoleSize=0mil|Usage=FLASHONLY|Rotation=0.000|XOffset=0mil|YOffset=0mil|HoleType=Round|Shape=RoundedRectangle|*
%AMROUNDEDRECTD33*
21,1,0.0630,0.0157,0,0,0.0*
21,1,0.0472,0.0315,0,0,0.0*
1,1,0.0157,0.0236,-0.0079*
1,1,0.0157,-0.0236,-0.0079*
1,1,0.0157,-0.0236,0.0079*
1,1,0.0157,0.0236,0.0079*
%
%ADD33ROUNDEDRECTD33*%
G04:AMPARAMS|DCode=34|XSize=63mil|YSize=29.5mil|CornerRadius=7.4mil|HoleSize=0mil|Usage=FLASHONLY|Rotation=0.000|XOffset=0mil|YOffset=0mil|HoleType=Round|Shape=RoundedRectangle|*
%AMROUNDEDRECTD34*
21,1,0.0630,0.0148,0,0,0.0*
21,1,0.0482,0.0295,0,0,0.0*
1,1,0.0148,0.0241,-0.0074*
1,1,0.0148,-0.0241,-0.0074*
1,1,0.0148,-0.0241,0.0074*
1,1,0.0148,0.0241,0.0074*
%
%ADD34ROUNDEDRECTD34*%
G04:AMPARAMS|DCode=35|XSize=55.1mil|YSize=29.5mil|CornerRadius=7.4mil|HoleSize=0mil|Usage=FLASHONLY|Rotation=0.000|XOffset=0mil|YOffset=0mil|HoleType=Round|Shape=RoundedRectangle|*
%AMROUNDEDRECTD35*
21,1,0.0551,0.0148,0,0,0.0*
21,1,0.0404,0.0295,0,0,0.0*
1,1,0.0148,0.0202,-0.0074*
1,1,0.0148,-0.0202,-0.0074*
1,1,0.0148,-0.0202,0.0074*
1,1,0.0148,0.0202,0.0074*
%
%ADD35ROUNDEDRECTD35*%
%ADD36R,0.0453X0.0709*%
%ADD37C,0.0079*%
%ADD38C,0.0049*%
%ADD39C,0.0059*%
%ADD40C,0.0118*%
%ADD41C,0.0098*%
%ADD42C,0.0157*%
%ADD43C,0.0197*%
%ADD44C,0.0100*%
%ADD45O,0.0630X0.0315*%
%ADD46O,0.0591X0.0315*%
%ADD47O,0.0866X0.0433*%
%ADD48R,0.0236X0.0236*%
%ADD49C,0.0236*%
%ADD50C,0.0591*%
G04:AMPARAMS|DCode=51|XSize=59.1mil|YSize=59.1mil|CornerRadius=0mil|HoleSize=0mil|Usage=FLASHONLY|Rotation=45.000|XOffset=0mil|YOffset=0mil|HoleType=Round|Shape=Octagon|*
%AMOCTAGOND51*
4,1,8,0.0313,0.0104,0.0104,0.0313,-0.0104,0.0313,-0.0313,0.0104,-0.0313,-0.0104,-0.0104,-0.0313,0.0104,-0.0313,0.0313,-0.0104,0.0313,0.0104,0.0*
%
%ADD51OCTAGOND51*%

%ADD52C,0.1457*%
%ADD53C,0.0984*%
%ADD54C,0.0197*%
G36*
X-990Y-427D02*
X-943Y-541D01*
X-924Y-549D01*
Y-972D01*
X-1067D01*
Y-1343D01*
X-1067D01*
Y-1626D01*
X-1082Y-1661D01*
Y-1871D01*
X-1180Y-1891D01*
X-1203Y-1836D01*
X-1339Y-1780D01*
X-1474Y-1836D01*
X-1530Y-1971D01*
X-1530Y-1972D01*
X-1585Y-2053D01*
X-2723D01*
X-2880Y-1896D01*
Y-1653D01*
X-2763Y-1535D01*
X-2730Y-1456D01*
X-2679Y-1440D01*
X-2586Y-1427D01*
X-2586Y-1427D01*
X-2586Y-1427D01*
X-2507D01*
Y-1230D01*
X-2448D01*
Y-1171D01*
X-2311D01*
Y-1033D01*
X-2311D01*
Y-955D01*
X-2496D01*
Y-837D01*
X-2311D01*
Y-827D01*
X-2212Y-776D01*
X-2131Y-810D01*
X-2027D01*
X-1972Y-892D01*
X-1974Y-896D01*
X-1939Y-980D01*
X-1980Y-1079D01*
X-1983D01*
Y-1480D01*
X-1983D01*
Y-1575D01*
X-1782D01*
X-1581D01*
Y-1433D01*
X-1581D01*
Y-1079D01*
X-1584D01*
X-1625Y-980D01*
X-1590Y-896D01*
X-1629Y-802D01*
X-1532Y-761D01*
X-1501Y-688D01*
X-1438D01*
X-1355Y-654D01*
X-1090Y-388D01*
X-990Y-427D01*
D02*
G37*
G36*
X552Y-870D02*
Y-1043D01*
X469Y-1079D01*
D01*
X382Y-1107D01*
X283Y-1008D01*
X183Y-1108D01*
X325Y-1250D01*
X241Y-1334D01*
X99Y-1192D01*
X91Y-1200D01*
X-5Y-1181D01*
X-21Y-1143D01*
X-157Y-1087D01*
X-213Y-1110D01*
X-311Y-1044D01*
Y-972D01*
X-400D01*
Y-583D01*
X-376Y-573D01*
X-320Y-437D01*
X-342Y-385D01*
X-276Y-286D01*
X-31D01*
X552Y-870D01*
D02*
G37*
G36*
X-3894Y-314D02*
X-3819Y-372D01*
Y-593D01*
X-3740Y-671D01*
X-3583D01*
X-3504Y-593D01*
Y-439D01*
X-3406Y-378D01*
X-3323Y-412D01*
X-3275Y-392D01*
X-3177Y-458D01*
Y-876D01*
X-3196D01*
Y-917D01*
X-3219Y-1006D01*
X-3411D01*
X-3454Y-962D01*
X-3575Y-912D01*
X-3610D01*
X-3661Y-891D01*
X-3742Y-924D01*
X-3782Y-829D01*
X-3917Y-773D01*
X-4053Y-829D01*
X-4067Y-863D01*
X-4192Y-812D01*
X-4256Y-731D01*
Y-598D01*
X-4256D01*
Y-465D01*
X-4457D01*
Y-346D01*
X-4256D01*
Y-314D01*
X-3894D01*
D02*
G37*
G36*
X3447Y-2489D02*
Y-2520D01*
X3774D01*
X3826Y-2618D01*
X3342Y-3342D01*
X2113Y-4163D01*
X2022Y-4126D01*
X2002Y-4026D01*
X2106Y-3922D01*
X2114Y-3930D01*
X2376Y-3668D01*
X2547Y-3497D01*
X2563Y-3500D01*
X2699Y-3557D01*
X2834Y-3500D01*
X2891Y-3365D01*
X2859Y-3287D01*
X2894Y-3234D01*
Y-2756D01*
X2953D01*
Y-2697D01*
X3258D01*
Y-2527D01*
X3348Y-2467D01*
X3447Y-2489D01*
D02*
G37*
G36*
X-2902Y-2343D02*
X-2902Y-2343D01*
X-2823Y-2376D01*
X-2142D01*
X-2094Y-2474D01*
X-2139Y-2581D01*
X-2082Y-2716D01*
X-1947Y-2772D01*
X-1945Y-2772D01*
X-1758Y-2959D01*
X-1660Y-3000D01*
X-1517D01*
X-1464Y-3053D01*
X-1439Y-3063D01*
X-1352Y-3150D01*
X-1630Y-3428D01*
X-1953D01*
X-1953Y-3428D01*
X-2032Y-3460D01*
X-2032Y-3460D01*
X-2390Y-3819D01*
X-2429Y-3803D01*
X-2567Y-3860D01*
X-3342Y-3342D01*
X-3652Y-2878D01*
X-3652Y-2878D01*
X-3595Y-2786D01*
X-3504Y-2748D01*
X-3474Y-2718D01*
X-3371Y-2676D01*
X-3315Y-2540D01*
X-3371Y-2404D01*
Y-2379D01*
X-3270Y-2337D01*
X-3214Y-2202D01*
X-3235Y-2149D01*
X-3152Y-2093D01*
X-2902Y-2343D01*
D02*
G37*
G36*
X-3593Y-1379D02*
Y-1498D01*
X-3308D01*
X-3222Y-1548D01*
X-3222Y-1595D01*
Y-1977D01*
X-3216Y-1991D01*
X-3296Y-2055D01*
X-3406Y-2010D01*
X-3508Y-2052D01*
X-3843D01*
X-3949Y-2096D01*
X-4021Y-2040D01*
X-4144Y-1917D01*
Y-1791D01*
X-4181Y-1701D01*
X-4221Y-1661D01*
X-4218Y-1654D01*
X-4245Y-1587D01*
X-4194Y-1528D01*
X-4104Y-1498D01*
Y-1498D01*
X-4104Y-1498D01*
X-3730D01*
Y-1345D01*
X-3676Y-1314D01*
X-3593Y-1379D01*
D02*
G37*
G36*
X-3480Y2597D02*
X-3449Y2512D01*
X-3449D01*
Y2110D01*
X-3417D01*
Y2090D01*
X-3367Y1969D01*
X-3241Y1844D01*
Y1729D01*
X-3496Y1475D01*
X-3617D01*
X-3738Y1425D01*
X-3844Y1318D01*
X-3937Y1336D01*
X-4073Y1393D01*
X-4208Y1336D01*
X-4265Y1201D01*
X-4297Y1152D01*
X-4565D01*
Y1463D01*
X-4485Y1520D01*
X-4428Y1501D01*
X-4367Y1809D01*
X-3745Y2739D01*
X-3625Y2742D01*
X-3480Y2597D01*
D02*
G37*
G36*
X-856Y2884D02*
X-862Y2870D01*
X-825Y2780D01*
X-807Y2762D01*
X-811Y2755D01*
X-754Y2619D01*
X-619Y2563D01*
X-483Y2619D01*
X-432Y2742D01*
X-12D01*
X78Y2780D01*
X123Y2825D01*
X607D01*
X697Y2862D01*
X756Y2921D01*
X951D01*
X992Y2823D01*
X943Y2705D01*
X999Y2569D01*
X1135Y2513D01*
X1270Y2569D01*
X1287Y2610D01*
X1400Y2563D01*
X1535Y2619D01*
X1551Y2658D01*
X1660Y2693D01*
X1691Y2660D01*
X1641Y2539D01*
Y2382D01*
X1691Y2261D01*
X1811Y2211D01*
X2283D01*
X2336Y2146D01*
X2331Y2140D01*
X2252Y2080D01*
X1811D01*
X1691Y2030D01*
X1641Y1909D01*
Y1752D01*
X1691Y1631D01*
X1811Y1582D01*
X2283D01*
X2358Y1520D01*
Y1260D01*
X2559D01*
Y1142D01*
X2358D01*
Y1063D01*
X1421D01*
X1322Y1162D01*
X1325Y1169D01*
X1269Y1305D01*
X1134Y1361D01*
X998Y1305D01*
X942Y1169D01*
X998Y1034D01*
X1134Y978D01*
X1141Y981D01*
X1242Y880D01*
X1247Y855D01*
X1240Y793D01*
X1232Y768D01*
X1230Y764D01*
X1060Y594D01*
X1026Y511D01*
Y-407D01*
X935Y-444D01*
X150Y340D01*
X148Y385D01*
X155Y449D01*
X591Y629D01*
X803Y1142D01*
X635Y1548D01*
X710Y1623D01*
X736Y1613D01*
X872Y1669D01*
X928Y1804D01*
X872Y1940D01*
X736Y1996D01*
X601Y1940D01*
X544Y1804D01*
X557Y1775D01*
X481Y1699D01*
X79Y1866D01*
X-337Y1694D01*
X-339Y1697D01*
X-395Y1832D01*
X-531Y1888D01*
X-666Y1832D01*
X-723Y1697D01*
X-666Y1561D01*
X-531Y1505D01*
X-506Y1480D01*
X-646Y1142D01*
X-433Y629D01*
X-71Y479D01*
X-91Y381D01*
X-327D01*
X-718Y772D01*
X-801Y806D01*
X-1499D01*
X-1533Y888D01*
X-1654Y938D01*
X-2126D01*
X-2246Y888D01*
X-2296Y768D01*
Y610D01*
X-2290Y594D01*
X-2303Y503D01*
X-2409Y460D01*
X-2409Y460D01*
X-2504Y364D01*
X-2601Y384D01*
X-2620Y431D01*
X-2697Y463D01*
Y531D01*
X-2898D01*
Y650D01*
X-2697D01*
Y791D01*
X-2913D01*
Y1152D01*
X-2822Y1169D01*
X-2551D01*
Y1370D01*
Y1571D01*
X-2848D01*
X-2903Y1653D01*
X-2900Y1659D01*
Y1915D01*
X-2941Y2012D01*
X-2897Y2110D01*
X-2693D01*
Y2252D01*
X-2894D01*
Y2311D01*
X-2953D01*
Y2512D01*
X-3001D01*
X-3042Y2610D01*
X-2960Y2692D01*
X-2701D01*
Y2661D01*
X-2350D01*
X-2284Y2563D01*
X-2296Y2534D01*
Y2387D01*
X-2248Y2270D01*
X-2131Y2222D01*
X-1649D01*
X-1532Y2270D01*
X-1483Y2387D01*
Y2534D01*
X-1525Y2636D01*
X-1486Y2734D01*
X-1198D01*
X-1108Y2772D01*
X-940Y2940D01*
X-856Y2884D01*
D02*
G37*
G36*
X3342Y3342D02*
X3466Y3157D01*
X3429Y3035D01*
X3368Y3010D01*
X3312Y2874D01*
X3368Y2738D01*
X3478Y2693D01*
X3438Y2598D01*
X3353Y2546D01*
X3067D01*
Y2543D01*
X2660D01*
X2622Y2581D01*
X2501Y2631D01*
X2416D01*
X2404Y2660D01*
X2283Y2710D01*
X2007D01*
X1959Y2808D01*
X2003Y2913D01*
X1947Y3049D01*
X1811Y3105D01*
X1794Y3098D01*
X1713Y3153D01*
Y3551D01*
X1319D01*
Y3551D01*
X614D01*
Y3691D01*
X245D01*
Y3809D01*
X614D01*
Y3906D01*
X965D01*
Y3906D01*
X1339D01*
X1339Y3906D01*
Y3906D01*
X1436Y3903D01*
X1457Y3894D01*
X1575D01*
X1680Y3938D01*
X1691Y3964D01*
X1811Y4021D01*
X1947Y4077D01*
X1972Y4139D01*
X2094Y4177D01*
X3342Y3342D01*
D02*
G37*
%LPC*%
G36*
X-1841Y-1693D02*
X-1983D01*
Y-1835D01*
X-1841D01*
Y-1693D01*
D02*
G37*
G36*
X-1581D02*
X-1723D01*
Y-1835D01*
X-1581D01*
Y-1693D01*
D02*
G37*
G36*
X-2311Y-1289D02*
X-2389D01*
Y-1427D01*
X-2311D01*
Y-1289D01*
D02*
G37*
G36*
X3258Y-2815D02*
X3012D01*
Y-3189D01*
X3258D01*
Y-2815D01*
D02*
G37*
G36*
X-2693Y2512D02*
X-2835D01*
Y2370D01*
X-2693D01*
Y2512D01*
D02*
G37*
G36*
X-2299Y1311D02*
X-2433D01*
Y1169D01*
X-2299D01*
Y1311D01*
D02*
G37*
G36*
Y1571D02*
X-2433D01*
Y1429D01*
X-2299D01*
Y1571D01*
D02*
G37*
G36*
X-1649Y2070D02*
X-2052D01*
X-2169Y2021D01*
X-2217Y1905D01*
Y1757D01*
X-2169Y1640D01*
X-2052Y1592D01*
X-1649D01*
X-1532Y1640D01*
X-1483Y1757D01*
Y1905D01*
X-1532Y2021D01*
X-1649Y2070D01*
D02*
G37*
G36*
X-1041Y2040D02*
X-1177Y1984D01*
X-1233Y1848D01*
X-1177Y1712D01*
X-1041Y1656D01*
X-906Y1712D01*
X-850Y1848D01*
X-906Y1984D01*
X-1041Y2040D01*
D02*
G37*
%LPD*%
D10*
X-4457Y-406D02*
D03*
X-4457Y-776D02*
D03*
X2778Y-969D02*
D03*
Y-1339D02*
D03*
X3445Y906D02*
D03*
Y1276D02*
D03*
X1339Y-1642D02*
D03*
Y-1272D02*
D03*
X-866Y-1535D02*
D03*
X-866Y-1165D02*
D03*
X-512Y-1535D02*
D03*
X-512Y-1165D02*
D03*
X1024Y-1642D02*
D03*
X1024Y-1272D02*
D03*
X3053Y-421D02*
D03*
X3053Y-51D02*
D03*
X4057Y2218D02*
D03*
Y1848D02*
D03*
X669Y-1642D02*
D03*
X669Y-1272D02*
D03*
X1654D02*
D03*
X1654Y-1642D02*
D03*
D11*
X-4469Y-1398D02*
D03*
Y-1201D02*
D03*
X-4272Y-1398D02*
D03*
Y-1201D02*
D03*
X-4040Y-2202D02*
D03*
X-3843D02*
D03*
X-4040Y-2398D02*
D03*
X-3843D02*
D03*
X3325Y1850D02*
D03*
X3465Y1990D02*
D03*
Y1711D02*
D03*
X3604Y1850D02*
D03*
D12*
X3630Y2346D02*
D03*
X3260D02*
D03*
X-2138Y2862D02*
D03*
X-2508D02*
D03*
X3492Y-1929D02*
D03*
X3122D02*
D03*
X-4457Y-114D02*
D03*
X-4087D02*
D03*
X366Y-4646D02*
D03*
X736D02*
D03*
X-2862Y1370D02*
D03*
X-2492D02*
D03*
X4577Y-445D02*
D03*
X4207D02*
D03*
D13*
X-3917Y-1252D02*
D03*
X-3406D02*
D03*
X2106Y-2106D02*
D03*
X2618D02*
D03*
X4648Y-32D02*
D03*
X4136D02*
D03*
D14*
X-3661Y-425D02*
D03*
X2362Y-1280D02*
D03*
X4392Y795D02*
D03*
D15*
X-3039Y-1152D02*
D03*
D16*
X-2842D02*
D03*
Y-640D02*
D03*
X-3039D02*
D03*
D17*
X-2645Y-1230D02*
D03*
X-2448Y-1230D02*
D03*
X-2448Y-561D02*
D03*
X-2645D02*
D03*
D18*
X-2496Y-896D02*
D03*
D19*
X768Y3236D02*
D03*
X1142D02*
D03*
X1516Y3236D02*
D03*
X1142Y4220D02*
D03*
X768Y4220D02*
D03*
D20*
X1516D02*
D03*
D21*
X-2069Y4006D02*
D03*
Y3750D02*
D03*
Y3494D02*
D03*
Y3238D02*
D03*
X245D02*
D03*
Y3494D02*
D03*
Y3750D02*
D03*
Y4006D02*
D03*
D22*
X454Y4437D02*
D03*
X99D02*
D03*
X-3248Y2311D02*
D03*
X-2894D02*
D03*
X-3253Y591D02*
D03*
X-2898D02*
D03*
D23*
X3612Y315D02*
D03*
Y-315D02*
D03*
D24*
X1611Y-3621D02*
D03*
X1872Y-3883D02*
D03*
D25*
X2370Y-3390D02*
D03*
X2108Y-3652D02*
D03*
D26*
X1410Y-4337D02*
D03*
Y-3983D02*
D03*
X2598Y1988D02*
D03*
Y2343D02*
D03*
X2953D02*
D03*
Y1988D02*
D03*
X2638Y-59D02*
D03*
Y-413D02*
D03*
X2559Y1201D02*
D03*
Y1555D02*
D03*
X-1782Y-1634D02*
D03*
X-1782Y-1280D02*
D03*
D27*
X283Y-1292D02*
D03*
X32Y-1543D02*
D03*
D28*
X1110Y-4456D02*
D03*
X859Y-4205D02*
D03*
D29*
X-197Y-3150D02*
D03*
D30*
X-392Y-4319D02*
D03*
X-531Y-4180D02*
D03*
X-670Y-4040D02*
D03*
X-809Y-3901D02*
D03*
X-948Y-3762D02*
D03*
X-1088Y-3623D02*
D03*
X-1227Y-3484D02*
D03*
X-1366Y-3344D02*
D03*
X-2Y-1980D02*
D03*
X137Y-2120D02*
D03*
X276Y-2259D02*
D03*
X416Y-2398D02*
D03*
X555Y-2537D02*
D03*
X694Y-2676D02*
D03*
X833Y-2816D02*
D03*
X972Y-2955D02*
D03*
D31*
X-1366D02*
D03*
X-1227Y-2816D02*
D03*
X-1088Y-2676D02*
D03*
X-948Y-2537D02*
D03*
X-809Y-2398D02*
D03*
X-670Y-2259D02*
D03*
X-531Y-2120D02*
D03*
X-392Y-1980D02*
D03*
X972Y-3344D02*
D03*
X833Y-3484D02*
D03*
X694Y-3623D02*
D03*
X555Y-3762D02*
D03*
X416Y-3901D02*
D03*
X276Y-4040D02*
D03*
X137Y-4180D02*
D03*
X-2Y-4319D02*
D03*
D32*
X3191Y-1567D02*
D03*
Y-819D02*
D03*
X4254D02*
D03*
X4254Y-1193D02*
D03*
X4254Y-1567D02*
D03*
X-4272Y965D02*
D03*
X-4272Y591D02*
D03*
X-4272Y217D02*
D03*
X-3209D02*
D03*
Y965D02*
D03*
D33*
X2047Y2461D02*
D03*
Y1831D02*
D03*
Y689D02*
D03*
Y-571D02*
D03*
Y59D02*
D03*
X-1890Y689D02*
D03*
D34*
Y59D02*
D03*
Y-571D02*
D03*
Y2461D02*
D03*
D35*
X-1850Y1831D02*
D03*
D36*
X1772Y-2756D02*
D03*
X2953D02*
D03*
D37*
X3780Y1969D02*
X3886Y1862D01*
X3758Y1990D02*
X3780Y1969D01*
X1125Y4545D02*
X1286D01*
X4405Y212D02*
X4648Y-32D01*
X4405Y212D02*
Y395D01*
X4182Y618D02*
X4405Y395D01*
X3886Y1862D02*
X4016D01*
X3465Y1990D02*
X3758D01*
X1400Y2755D02*
X1516Y2871D01*
Y3236D01*
X1125Y4348D02*
Y4545D01*
X562D02*
X1125D01*
X454Y4437D02*
X562Y4545D01*
X1135Y3229D02*
X1142Y3236D01*
X1135Y2705D02*
Y3229D01*
X768Y3114D02*
Y3236D01*
X607Y2953D02*
X768Y3114D01*
X70Y2953D02*
X607D01*
X-12Y2870D02*
X70Y2953D01*
X-2842Y-196D02*
X-2744Y-98D01*
X-2842Y-640D02*
Y-196D01*
X99Y4422D02*
Y4437D01*
X-2001Y4004D02*
X-1224D01*
X-949Y4280D01*
X-648D01*
X-58Y4004D02*
X-57Y4004D01*
X-96Y3965D02*
X-57Y4004D01*
X-58Y4004D02*
X312D01*
X-2001Y3237D02*
X-1646D01*
X-98D02*
X312D01*
X-197Y3138D02*
X-98Y3237D01*
X3325Y1850D02*
X3465Y1990D01*
X4136Y-374D02*
X4207Y-445D01*
X4136Y-374D02*
Y-32D01*
X3445Y1276D02*
X3683Y1514D01*
Y1771D01*
X3604Y1850D02*
X3683Y1771D01*
X1368Y935D02*
X2748D01*
X1134Y1169D02*
X1368Y935D01*
X99Y4422D02*
X301Y4220D01*
X768D01*
X2748Y935D02*
X2923Y1110D01*
X3279D01*
X3445Y1276D01*
X3959Y618D02*
X4182D01*
X-734Y2870D02*
X-12D01*
X-734D02*
X-619Y2755D01*
X-2138Y2862D02*
X-1198D01*
X-648Y3413D01*
Y3728D01*
X-1646Y3237D02*
X-1547Y3138D01*
X-1378D01*
X-136Y4004D02*
X-58D01*
X-4272Y-1970D02*
X-4040Y-2202D01*
X-4469Y-1398D02*
Y-1201D01*
Y-1594D02*
Y-1398D01*
Y-1594D02*
X-4272Y-1791D01*
Y-1970D02*
Y-1791D01*
Y-1398D02*
X-3890Y-1780D01*
X-3701D01*
X-4087Y-114D02*
X-3819D01*
X-3209Y965D02*
Y1216D01*
X-3054Y1370D01*
X-2862D01*
X-3039Y-640D02*
Y-109D01*
X-2756Y174D01*
Y295D01*
D38*
X-1663Y-4045D02*
X-1594Y-4114D01*
X-2052Y-4045D02*
X-1663D01*
X-2186Y-4180D02*
X-2052Y-4045D01*
X-1594Y-4114D02*
X-1301D01*
X-1561Y-3539D02*
X-1366Y-3344D01*
X-2429Y-4016D02*
X-1953Y-3539D01*
X-1561D01*
X299Y-4578D02*
X366Y-4646D01*
X299Y-4578D02*
Y-4341D01*
X137Y-4180D02*
X299Y-4341D01*
X491Y-4326D02*
Y-4255D01*
X276Y-4040D02*
X491Y-4255D01*
X-1890Y-4264D02*
X-1757D01*
X-1045Y-2441D02*
X-948Y-2537D01*
X-1179Y-2441D02*
X-1045D01*
X-1454Y-2165D02*
X-1179Y-2441D01*
X-2769Y-2165D02*
X-1454D01*
X-1500Y-2264D02*
X-1088Y-2676D01*
X-2823Y-2264D02*
X-1500D01*
X-1326Y-2717D02*
X-1227Y-2816D01*
X-1400Y-2717D02*
X-1326D01*
X-1535Y-2581D02*
X-1400Y-2717D01*
X1654Y-1903D02*
Y-1642D01*
X1339Y-1917D02*
Y-1642D01*
X-941Y-4311D02*
X-670Y-4040D01*
X2896Y-1929D02*
X3122D01*
X1024Y-1857D02*
Y-1642D01*
X1163Y-2764D02*
Y-2136D01*
X972Y-2955D02*
X1163Y-2764D01*
X669Y-1642D02*
X1163Y-2136D01*
X972Y-3344D02*
X1262Y-3055D01*
Y-2095D01*
X1024Y-1857D02*
X1262Y-2095D01*
X276Y-4736D02*
X366Y-4646D01*
X79Y-4736D02*
X276D01*
X-4075Y965D02*
Y1199D01*
X-4073Y1201D01*
X-512Y-1165D02*
Y-437D01*
X-1121Y-4213D02*
X-809Y-3901D01*
X-1757Y-4264D02*
X-1706Y-4213D01*
X-1561Y-4311D02*
X-941D01*
X-1706Y-4213D02*
X-1121D01*
X-1301Y-4114D02*
X-948Y-3762D01*
X-1402Y-3938D02*
X-1088Y-3623D01*
X-1671Y-4421D02*
X-1561Y-4311D01*
X-4272Y-1201D02*
Y-1083D01*
X-4192Y-1003D01*
X-4229D02*
X-4192D01*
X-4457Y-776D02*
X-4229Y-1003D01*
X-2842Y-1456D02*
Y-1152D01*
X-3039Y-1476D02*
Y-1152D01*
X-2992Y-1606D02*
X-2842Y-1456D01*
X-2992Y-1942D02*
Y-1606D01*
Y-1942D02*
X-2769Y-2165D01*
X-3110Y-1977D02*
X-2823Y-2264D01*
X-3110Y-1977D02*
Y-1548D01*
X-3039Y-1476D01*
D39*
X1622Y4545D02*
X1811Y4356D01*
Y4213D02*
Y4356D01*
X1286Y4545D02*
X1622D01*
X-965Y-2243D02*
X-809Y-2398D01*
X-856Y-2073D02*
X-670Y-2259D01*
X-965Y-2243D02*
Y-1661D01*
X-866Y-1563D01*
X-512D02*
X-512D01*
X-488Y-1728D02*
X-357D01*
X-254Y-1625D01*
Y-1375D01*
X-157Y-1278D01*
X1024Y-1272D02*
Y-1022D01*
X1339Y-1272D02*
Y-1014D01*
X1654Y-1272D02*
Y-1053D01*
X1143Y-543D02*
X1654Y-1053D01*
X1143Y-543D02*
Y511D01*
X1321Y689D01*
X2047D01*
X694Y-2676D02*
X879Y-2492D01*
Y-2116D01*
X137Y-2120D02*
X337Y-1920D01*
Y-1639D01*
X1400Y-3621D02*
X1611D01*
X1389Y-532D02*
X1872Y-1016D01*
X1389Y-532D02*
Y382D01*
X2827Y-648D02*
X3053Y-421D01*
X2827Y-677D02*
Y-648D01*
X61Y264D02*
X1339Y-1014D01*
X-375Y264D02*
X61D01*
X-801Y689D02*
X-375Y264D01*
X-1890Y689D02*
X-801D01*
X-58Y59D02*
X1024Y-1022D01*
X-1890Y59D02*
X-58D01*
X-1890Y-571D02*
X-1438D01*
X-1036Y-169D01*
X17D01*
X669Y-821D01*
Y-1272D02*
Y-821D01*
X-807Y-1106D02*
Y-406D01*
X-866Y-1165D02*
X-807Y-1106D01*
X3492Y-1929D02*
X3612Y-1809D01*
Y-809D01*
X2856Y295D02*
X3120D01*
X-856Y-2073D02*
Y-1816D01*
X-770Y-1730D01*
X-679D01*
X-512Y-1563D01*
X-624Y-1864D02*
X-488Y-1728D01*
X-624Y-2027D02*
X-531Y-2120D01*
X-624Y-2027D02*
Y-1864D01*
X3317Y-315D02*
X3612D01*
X3053Y-51D02*
X3317Y-315D01*
X3612Y-809D02*
X3910Y-511D01*
Y-130D01*
X3120Y295D02*
X3435Y-20D01*
X3800D01*
X3910Y-130D01*
X1400Y-3621D02*
Y-2386D01*
X1647Y-2138D01*
X1772D01*
X1872Y-2038D01*
Y-1016D01*
X694Y-3623D02*
X902Y-3831D01*
X1190D01*
X1400Y-3621D01*
X833Y-3484D02*
X1036Y-3686D01*
X1076D01*
X1180Y-3583D01*
X-1486Y-3652D02*
X-1395D01*
X-1227Y-3484D01*
X-1565Y-3730D02*
X-1486Y-3652D01*
X-1565Y-3736D02*
Y-3730D01*
D40*
X-2448Y-1708D02*
Y-561D01*
X-2645Y-1654D02*
X-2520Y-1780D01*
X-2645Y-1654D02*
Y-1230D01*
X-2520Y-1780D02*
X-2448Y-1708D01*
X3661Y2874D02*
X4016Y2520D01*
X3504Y2874D02*
X3661D01*
X4016Y2232D02*
Y2520D01*
X-2489Y-201D02*
Y169D01*
X-2645Y-358D02*
X-2489Y-201D01*
X-2645Y-561D02*
Y-358D01*
X-4398Y591D02*
X-4075D01*
X-531Y-4180D02*
X-197Y-3846D01*
Y-3289D02*
X416Y-3901D01*
X-197Y-3289D02*
Y-3150D01*
Y-3846D02*
Y-3289D01*
X3384Y1631D02*
X3465Y1711D01*
X3053Y1631D02*
X3384D01*
X2953Y-2756D02*
X3346D01*
X2370Y-3390D02*
Y-3012D01*
X2362Y-3004D02*
X2370Y-3012D01*
X2047Y59D02*
X2520D01*
X2638Y-59D01*
X2108Y-2104D02*
Y-1813D01*
X2106Y-2106D02*
X2108Y-2104D01*
X2047Y-571D02*
X2480D01*
X2638Y-413D01*
X2982Y787D02*
X3327D01*
X3445Y906D01*
X4234Y-839D02*
X4254Y-819D01*
X3880Y-839D02*
X4234D01*
X1596Y59D02*
X2047D01*
X2125Y-969D02*
X2778D01*
X4163Y-1658D02*
X4254Y-1567D01*
X4057Y-1658D02*
X4163D01*
X3919Y-1795D02*
X4057Y-1658D01*
X3919Y-1795D02*
X3919D01*
X-3583Y591D02*
X-3253D01*
Y260D02*
Y591D01*
Y260D02*
X-3209Y217D01*
X-2489Y169D02*
X-2303Y354D01*
X-1934D01*
X-3843Y-2398D02*
Y-2202D01*
X-3917Y-1252D02*
Y-965D01*
X-3843Y-2202D02*
X-3406D01*
X-4040Y-2489D02*
Y-2398D01*
Y-2489D02*
X-3886Y-2643D01*
X-3610D01*
X-3507Y-2540D01*
X-1782Y-1280D02*
Y-896D01*
D41*
X3356Y-2323D02*
X3644D01*
X3213Y-2180D02*
X3356Y-2323D01*
X2692Y-2180D02*
X3213D01*
X2618Y-2221D02*
Y-2106D01*
X2083Y-2756D02*
X2618Y-2221D01*
X1772Y-2756D02*
X2083D01*
X-1459Y-2861D02*
X-1366Y-2955D01*
X-1660Y-2861D02*
X-1459D01*
X-1941Y-2581D02*
X-1660Y-2861D01*
X-1947Y-2581D02*
X-1941D01*
X-392Y-1967D02*
X32Y-1543D01*
X736Y-4646D02*
Y-4328D01*
X859Y-4205D01*
X2525Y1555D02*
X2559D01*
X2250Y1831D02*
X2525Y1555D01*
X2047Y1831D02*
X2250D01*
X-392Y-1980D02*
Y-1967D01*
X1503Y-4259D02*
X1665Y-4421D01*
X1110Y-4456D02*
X1306D01*
X1503Y-4259D01*
X1845Y-3910D02*
X1872Y-3883D01*
X1845Y-3910D02*
X1850D01*
X1695Y-4060D02*
X1845Y-3910D01*
X1772Y-3230D02*
Y-2756D01*
X-392Y-4319D02*
X-254Y-4457D01*
X-197Y-2175D02*
X-2Y-1980D01*
X3880Y-1193D02*
X4254D01*
X3880Y-1193D02*
X3880Y-1193D01*
X3848Y-1193D02*
X3880D01*
X-197Y-3070D02*
Y-2175D01*
X2816Y1446D02*
X2935Y1327D01*
X2668Y1446D02*
X2816D01*
X2559Y1555D02*
X2668Y1446D01*
X2559Y1555D02*
X2559D01*
X2778Y-1567D02*
X3191D01*
X2778D02*
Y-1339D01*
Y-1644D02*
Y-1567D01*
X2699Y-1723D02*
X2778Y-1644D01*
X1850Y-3910D02*
X2108Y-3652D01*
X2138Y-3622D01*
X3330Y315D02*
X3612D01*
X3134Y511D02*
X3330Y315D01*
X2559Y511D02*
X3134D01*
X2618Y-2106D02*
X2692Y-2180D01*
X3612Y315D02*
X4056D01*
X4136Y395D01*
X859Y-4205D02*
X946D01*
X1085Y-4067D01*
X710Y-4056D02*
X859Y-4205D01*
X710Y-4056D02*
Y-3917D01*
X555Y-3762D02*
X710Y-3917D01*
X1249Y-3953D02*
X1400D01*
X1085Y-4067D02*
X1135D01*
X1249Y-3953D01*
D42*
X3630Y2346D02*
Y2598D01*
X3257Y2343D02*
X3260Y2346D01*
X2953Y2343D02*
X3257D01*
X-3760Y217D02*
X-3323Y-220D01*
X-3661Y-1083D02*
X-3575D01*
X-3406Y-1252D01*
X-2520Y-1780D02*
X-1972D01*
X-1826Y-1634D01*
X-1782D01*
X-3216Y2862D02*
X-2508D01*
X-3268Y2913D02*
X-3246Y2892D01*
X-3216Y2862D01*
X-2433Y3748D02*
X-2001D01*
X-2289Y3493D02*
X-2001D01*
X-2489Y3692D02*
X-2289Y3493D01*
X-2489Y3692D02*
X-2433Y3748D01*
X-136Y4437D02*
X99D01*
X-569Y4004D02*
X-136Y4437D01*
X-923Y4004D02*
X-569D01*
X-1179Y3748D02*
X-923Y4004D01*
X-2001Y3748D02*
X-1179D01*
X312Y3493D02*
Y3748D01*
X-293Y3493D02*
X312D01*
X2620Y2343D02*
X2953D01*
X2501Y2461D02*
X2620Y2343D01*
X2047Y2461D02*
X2501D01*
X-2776Y-1780D02*
X-2748D01*
X4577Y-445D02*
X4667Y-535D01*
Y-760D02*
Y-535D01*
X-3843Y217D02*
Y1078D01*
X-3617Y1304D01*
X-3425D01*
X-4457Y-406D02*
Y-114D01*
Y-406D02*
X-4457Y-406D01*
X-4299D01*
X-4134Y-571D01*
X-3425Y1304D02*
X-3071Y1659D01*
X-3246Y2090D02*
Y2892D01*
Y2090D02*
X-3071Y1915D01*
Y1659D02*
Y1915D01*
X-2898Y591D02*
X-2492Y997D01*
Y1370D01*
Y1752D01*
X-2520Y1780D02*
X-2492Y1752D01*
X-4272Y217D02*
X-3760D01*
D43*
X2953Y1988D02*
X3185D01*
X2598D02*
X2953D01*
X283Y-1292D02*
Y-981D01*
X2551Y1209D02*
X2559Y1201D01*
X2223Y1209D02*
X2551D01*
D44*
X6063Y1841D02*
X6263D01*
X6163D01*
Y2440D01*
X6063Y2340D01*
X6563Y1841D02*
Y1941D01*
X6663D01*
Y1841D01*
X6563D01*
X7662Y2440D02*
X8062D01*
X7862D01*
Y1841D01*
X8362D02*
X8562D01*
X8662Y1941D01*
Y2140D01*
X8562Y2240D01*
X8362D01*
X8262Y2140D01*
Y1941D01*
X8362Y1841D01*
X8862Y1641D02*
Y2240D01*
X9162D01*
X9262Y2140D01*
Y1941D01*
X9162Y1841D01*
X8862D01*
D45*
X-2520Y-1780D02*
D03*
D46*
Y1780D02*
D03*
D47*
X-3701Y-1780D02*
D03*
Y1780D02*
D03*
D48*
X3644Y-2323D02*
D03*
D49*
X-1535Y-2581D02*
D03*
X-2429Y-4016D02*
D03*
X491Y-4326D02*
D03*
X3329Y-2756D02*
D03*
D50*
X-2561Y3620D02*
D03*
X4055Y1280D02*
D03*
D51*
X-3268Y2913D02*
D03*
D52*
X-2756Y-3150D02*
D03*
D53*
X2441Y3543D02*
D03*
D54*
X776Y302D02*
D03*
X-1291Y2073D02*
D03*
X-1024Y2138D02*
D03*
X-1890Y-4264D02*
D03*
X3780Y1969D02*
D03*
X3630Y2598D02*
D03*
X3504Y2874D02*
D03*
X1811Y2913D02*
D03*
X1811Y4213D02*
D03*
X1400Y2755D02*
D03*
X1135Y2705D02*
D03*
X-3323Y-220D02*
D03*
X-3661Y-1083D02*
D03*
X-1339Y-1971D02*
D03*
X-1947Y-2581D02*
D03*
X-4398Y591D02*
D03*
X-648Y4280D02*
D03*
Y3728D02*
D03*
X-293Y3493D02*
D03*
X-197Y3138D02*
D03*
X179Y2705D02*
D03*
X1654Y-1903D02*
D03*
X1339Y-1917D02*
D03*
X-431Y-4697D02*
D03*
X3053Y1631D02*
D03*
X2982Y787D02*
D03*
X2539Y2742D02*
D03*
X3185Y1988D02*
D03*
X-1782Y-896D02*
D03*
X-157Y-1278D02*
D03*
X736Y1804D02*
D03*
X-531Y1697D02*
D03*
X-569Y3098D02*
D03*
X283Y-981D02*
D03*
X2362Y-3004D02*
D03*
X1665Y-4421D02*
D03*
X1950Y-4303D02*
D03*
X416Y-3365D02*
D03*
X2896Y-1929D02*
D03*
X1695Y-4060D02*
D03*
X1772Y-3230D02*
D03*
X-254Y-4457D02*
D03*
X1085Y-4067D02*
D03*
X879Y-2116D02*
D03*
X337Y-1639D02*
D03*
X2699Y-3365D02*
D03*
X2108Y-1813D02*
D03*
X1389Y382D02*
D03*
X3880Y-1193D02*
D03*
X2827Y-677D02*
D03*
X-406Y-3398D02*
D03*
X-254Y-3070D02*
D03*
X2935Y1327D02*
D03*
X3880Y-839D02*
D03*
X2699Y-1723D02*
D03*
X1596Y59D02*
D03*
X2125Y-969D02*
D03*
X-197Y-1848D02*
D03*
X79Y-4736D02*
D03*
X2069Y-1547D02*
D03*
X-1041Y1848D02*
D03*
X-4073Y1201D02*
D03*
X-512Y-437D02*
D03*
X-807Y-406D02*
D03*
X4667Y-760D02*
D03*
X3919Y-1795D02*
D03*
X61Y-3043D02*
D03*
X2856Y295D02*
D03*
X3959Y618D02*
D03*
X4628Y735D02*
D03*
X4136Y395D02*
D03*
X2559Y511D02*
D03*
X2223Y1209D02*
D03*
X1134Y1169D02*
D03*
X1180Y-3583D02*
D03*
X-3583Y591D02*
D03*
X-619Y2755D02*
D03*
X-1378Y3138D02*
D03*
X-136Y4004D02*
D03*
X-1890Y-3760D02*
D03*
X-1402Y-3938D02*
D03*
X-1373Y-4500D02*
D03*
X-1671Y-4421D02*
D03*
X-2186Y-4180D02*
D03*
X-1565Y-3736D02*
D03*
X-4192Y-1003D02*
D03*
X-4409Y-1654D02*
D03*
X-3819Y-114D02*
D03*
X-4134Y-571D02*
D03*
X-2756Y295D02*
D03*
X-2744Y-98D02*
D03*
X-1934Y354D02*
D03*
X-3917Y-965D02*
D03*
X-3406Y-2202D02*
D03*
X-3507Y-2540D02*
D03*
M02*
