M48
;Layer_Color=9474304
;FILE_FORMAT=2:4
INCH,LZ
;TYPE=PLATED
T1F00S00C0.0098
T4F00S00C0.0276
T5F00S00C0.0354
T6F00S00C0.0827
T7F00S00C0.1181
%
T01
X004577Y-000787
X003878Y-001673
X003701Y-002224
X002992Y-001181
X002734Y-001437
X002744Y-000711
X001535Y-001061
X001181Y-000764
X000903Y-000771
X000118Y-000827
X-00002Y-001083
X-000394Y-000689
X-000315Y-000354
X000472Y-00175
X000945
X001125Y-001555
X001693Y-001917
X001839Y-003268
X001614Y-003425
X000797Y-003346
X000551Y-003228
X000236Y-003189
X-000097Y-003386
X0Y-003976
X-000157Y-004409
X-000787Y-004567
X-000827Y-004094
X-001224
Y-003425
X-000827
X-00185Y-003118
X-001984Y-003622
Y-004045
X-001457Y-002362
X-001153
X-000787Y-002087
X-001547Y-002028
X-001972Y-001009
X-002795Y-001024
X-002708Y-000689
X-003898Y-000748
X-00378Y-000374
X-004016Y-002244
X000866Y-003976
X000827Y-004331
X001327Y-004232
X001596Y000059
X002205Y-000236
X002539Y000433
X002982Y000787
X002776Y001536
X002035Y001531
X001209Y001358
X001339Y002816
X001035Y002795
X000079Y002756
X-000197Y003138
X-000551Y00311
X-000293Y003493
X-000648Y003728
Y00428
X-000136Y004004
X-001378Y003138
X-001024Y002138
X-000782Y001772
X-001915Y000384
X-001929Y-000276
X-002835Y-000197
X-002816Y000217
X-003209Y-000039
X-003495Y-000197
X-003583Y000965
X-003965Y000591
X000551Y000217
X004136Y000689
X001732Y003728
X001811Y004213
X004628Y000735
T04
X002088Y-004132
X002442Y-003779
X002795Y-003425
X003149Y-003072
X003502Y-002718
T05
X-003268Y002913
X-002561Y00362
X004055Y00128
T06
X-002756Y-00315
X002441Y003543
T07
X000079Y001142
M30
