G04 Layer_Physical_Order=4*
G04 Layer_Color=16711680*
%FSLAX24Y24*%
%MOIN*%
G70*
G01*
G75*
%ADD10R,0.0244X0.0228*%
%ADD12R,0.0228X0.0244*%
%ADD13C,0.0098*%
%ADD14R,0.0244X0.0244*%
%ADD15R,0.0244X0.0244*%
%ADD16R,0.0453X0.0709*%
%ADD23P,0.0345X4X180.0*%
G04:AMPARAMS|DCode=25|XSize=24.4mil|YSize=22.8mil|CornerRadius=0mil|HoleSize=0mil|Usage=FLASHONLY|Rotation=135.000|XOffset=0mil|YOffset=0mil|HoleType=Round|Shape=Rectangle|*
%AMROTATEDRECTD25*
4,1,4,0.0167,-0.0006,0.0006,-0.0167,-0.0167,0.0006,-0.0006,0.0167,0.0167,-0.0006,0.0*
%
%ADD25ROTATEDRECTD25*%

%ADD28R,0.0217X0.0335*%
%ADD37C,0.0059*%
%ADD38C,0.0049*%
%ADD39C,0.0098*%
%ADD40C,0.0118*%
%ADD41C,0.0079*%
%ADD42C,0.0157*%
%ADD43C,0.0197*%
%ADD44C,0.0100*%
%ADD45C,0.0591*%
%ADD46C,0.0984*%
G04:AMPARAMS|DCode=48|XSize=59.1mil|YSize=59.1mil|CornerRadius=0mil|HoleSize=0mil|Usage=FLASHONLY|Rotation=45.000|XOffset=0mil|YOffset=0mil|HoleType=Round|Shape=Octagon|*
%AMOCTAGOND48*
4,1,8,0.0313,0.0104,0.0104,0.0313,-0.0104,0.0313,-0.0313,0.0104,-0.0313,-0.0104,-0.0104,-0.0313,0.0104,-0.0313,0.0313,-0.0104,0.0313,0.0104,0.0*
%
%ADD48OCTAGOND48*%

%ADD49C,0.0236*%
%ADD50R,0.0236X0.0236*%
%ADD51O,0.0866X0.0433*%
%ADD52O,0.0591X0.0315*%
%ADD53O,0.0630X0.0315*%
%ADD54C,0.0197*%
%ADD58R,0.0669X0.1220*%
%ADD59R,0.0669X0.1378*%
%ADD60R,0.0591X0.0354*%
%ADD61R,0.0591X0.0335*%
%ADD62R,0.0551X0.0354*%
G04:AMPARAMS|DCode=63|XSize=59.1mil|YSize=35.4mil|CornerRadius=0mil|HoleSize=0mil|Usage=FLASHONLY|Rotation=270.000|XOffset=0mil|YOffset=0mil|HoleType=Round|Shape=Octagon|*
%AMOCTAGOND63*
4,1,8,-0.0089,-0.0295,0.0089,-0.0295,0.0177,-0.0207,0.0177,0.0207,0.0089,0.0295,-0.0089,0.0295,-0.0177,0.0207,-0.0177,-0.0207,-0.0089,-0.0295,0.0*
%
%ADD63OCTAGOND63*%

%ADD64R,0.0354X0.0591*%
%ADD65R,0.0394X0.0118*%
%ADD66C,0.0315*%
%ADD67C,0.1181*%
G36*
X2811Y1467D02*
X2799Y1462D01*
X2743Y1327D01*
X2799Y1191D01*
X2935Y1135D01*
X3051Y1057D01*
Y847D01*
X3425D01*
Y728D01*
X3051D01*
Y577D01*
X2968Y500D01*
X2894Y472D01*
X2856Y487D01*
X2729Y565D01*
X2695Y647D01*
X2559Y703D01*
X2423Y647D01*
X2367Y511D01*
X2423Y376D01*
X2559Y319D01*
X2687Y241D01*
X2721Y160D01*
X2846Y108D01*
X2856Y103D01*
X2894Y119D01*
X3003Y64D01*
X3051Y14D01*
Y-425D01*
X3030Y-444D01*
X2894Y-513D01*
X2827Y-486D01*
X2691Y-542D01*
X2531Y-518D01*
X2039Y-26D01*
Y1356D01*
X2296Y1613D01*
X2761D01*
X2811Y1467D01*
D02*
G37*
G36*
X1299Y1791D02*
X1847D01*
X1907Y1646D01*
X1784Y1523D01*
X1741Y1417D01*
X1741Y1417D01*
Y-88D01*
X1741Y-88D01*
X1784Y-193D01*
X2351Y-760D01*
Y-1298D01*
X2216Y-1414D01*
X2204Y-1412D01*
X2069Y-1355D01*
X1933Y-1412D01*
X1929Y-1422D01*
X1923Y-1435D01*
X1173D01*
X1091Y-1278D01*
X1101Y-1252D01*
X1101Y-1252D01*
Y-659D01*
X1067Y-577D01*
X590Y-99D01*
Y460D01*
X1115Y985D01*
X1134Y978D01*
X1269Y1034D01*
X1325Y1169D01*
X1269Y1305D01*
X1144Y1357D01*
X1134Y1361D01*
X998Y1305D01*
X994Y1295D01*
X949Y1186D01*
X875Y1172D01*
X778Y1202D01*
X667Y1471D01*
X736Y1613D01*
X737Y1613D01*
X872Y1669D01*
X923Y1791D01*
X1299D01*
Y1791D01*
D02*
G37*
G36*
X-3507Y2586D02*
X-3565Y2448D01*
X-3688D01*
Y2306D01*
X-3495D01*
Y2247D01*
X-3436D01*
Y2046D01*
X-2932D01*
Y2135D01*
X-2357D01*
X-2122Y1900D01*
Y1614D01*
X-2165D01*
Y1220D01*
X-2717D01*
X-2717Y1221D01*
X-2894D01*
X-2992Y1181D01*
X-3016Y1156D01*
X-3209D01*
X-3344Y1100D01*
X-3718Y726D01*
X-3718Y726D01*
X-4222Y222D01*
X-4278Y87D01*
Y-244D01*
X-4222Y-380D01*
X-4017Y-585D01*
X-4042Y-757D01*
X-4158Y-826D01*
X-4192Y-812D01*
X-4328Y-868D01*
X-4384Y-1003D01*
X-4328Y-1139D01*
X-4192Y-1195D01*
X-4057Y-1139D01*
X-4043Y-1104D01*
X-3803Y-1204D01*
X-3797Y-1218D01*
X-3661Y-1274D01*
X-3652Y-1270D01*
X-3526Y-1218D01*
X-3359Y-1228D01*
X-3253Y-1272D01*
Y-1820D01*
X-3215Y-1910D01*
X-2136Y-2989D01*
X-2046Y-3027D01*
X-2005Y-3088D01*
X-2030Y-3150D01*
X-1974Y-3285D01*
X-1943Y-3298D01*
Y-3417D01*
X-1750D01*
Y-3535D01*
X-1943D01*
Y-3590D01*
X-2015Y-3620D01*
X-2025Y-3624D01*
X-2082Y-3760D01*
X-2072Y-3783D01*
X-2190Y-3910D01*
X-2270Y-3885D01*
X-2278Y-3865D01*
X-2429Y-3803D01*
X-2567Y-3860D01*
X-3342Y-3342D01*
X-3666Y-2858D01*
X-3588Y-2732D01*
X-3507Y-2732D01*
X-3507Y-2732D01*
X-3371Y-2676D01*
X-3315Y-2540D01*
X-3320Y-2528D01*
X-3270Y-2337D01*
X-3214Y-2202D01*
X-3270Y-2066D01*
X-3406Y-2010D01*
X-3485Y-2043D01*
X-3642Y-1977D01*
Y-1977D01*
X-4044D01*
Y-1977D01*
X-4072Y-1989D01*
X-4242Y-1818D01*
Y-1713D01*
X-4218Y-1654D01*
X-4274Y-1518D01*
X-4409Y-1462D01*
X-4565Y-1356D01*
Y1412D01*
X-4437Y1504D01*
X-4428Y1501D01*
X-4367Y1809D01*
X-3782Y2684D01*
X-3602Y2698D01*
X-3507Y2586D01*
D02*
G37*
G36*
X-2165Y-1710D02*
X-2148Y-1742D01*
X-2148Y-1746D01*
Y-1883D01*
X-1947D01*
Y-2001D01*
X-2148D01*
Y-2143D01*
Y-2394D01*
X-2305Y-2459D01*
X-2997Y-1767D01*
Y-1274D01*
X-2862D01*
X-2795Y-1247D01*
X-2759Y-1263D01*
X-2717Y-1220D01*
X-2165D01*
Y-1710D01*
D02*
G37*
G36*
X878Y-3091D02*
X640Y-3328D01*
X556Y-3412D01*
X698Y-3554D01*
X615Y-3637D01*
X473Y-3495D01*
X419Y-3549D01*
X302Y-3518D01*
X262Y-3491D01*
Y-3366D01*
X61D01*
X-140D01*
Y-3549D01*
X-460D01*
Y-3417D01*
X-660D01*
Y-3299D01*
X-460D01*
Y-3157D01*
X-467D01*
Y-3129D01*
X-667D01*
Y-3011D01*
X-467D01*
Y-2933D01*
X869D01*
X878Y-3091D01*
D02*
G37*
G36*
X3787Y-2023D02*
X3790Y-2091D01*
X3759Y-2126D01*
X3447D01*
Y-2520D01*
X3702D01*
X3787Y-2677D01*
X3342Y-3342D01*
X3040Y-3544D01*
X2954Y-3520D01*
X2932Y-3475D01*
X2891Y-3365D01*
Y-3365D01*
X2834Y-3229D01*
X2699Y-3173D01*
X2646Y-3195D01*
X2522Y-3150D01*
X2405Y-3266D01*
X2403Y-3267D01*
X2362Y-3226D01*
X2321Y-3267D01*
X2319Y-3266D01*
X2240Y-3187D01*
X2223Y-3226D01*
X2125Y-3267D01*
X2125Y-3267D01*
X2105Y-3314D01*
X2085Y-3365D01*
X2054Y-3366D01*
X1963Y-3230D01*
X1959Y-3220D01*
X1907Y-3094D01*
X1898Y-3091D01*
X1930Y-2933D01*
X2283D01*
Y-2933D01*
X2480D01*
Y-2559D01*
X2539D01*
Y-2500D01*
X2795D01*
Y-2250D01*
X2889Y-2130D01*
X2922Y-2110D01*
X3031Y-2065D01*
X3087Y-1929D01*
X3732D01*
X3787Y-2023D01*
D02*
G37*
G36*
X-230Y-282D02*
Y-760D01*
X-244Y-766D01*
X-254Y-770D01*
X-310Y-906D01*
X-306Y-915D01*
X-254Y-1041D01*
X-292Y-1143D01*
X-349Y-1278D01*
X-292Y-1414D01*
X-157Y-1470D01*
X-137Y-1616D01*
Y-1616D01*
X-197Y-1656D01*
X-332Y-1712D01*
X-384Y-1838D01*
X-389Y-1848D01*
X-501Y-1989D01*
X-669D01*
X-748Y-2021D01*
X-748Y-2021D01*
X-902Y-1966D01*
X-925Y-1929D01*
Y-1437D01*
Y-1240D01*
X-1299D01*
Y-1122D01*
X-923D01*
X-827Y-1058D01*
X-691Y-1002D01*
X-639Y-876D01*
X-635Y-866D01*
X-691Y-731D01*
X-701Y-726D01*
X-715Y-721D01*
Y-537D01*
X-748Y-458D01*
X-691Y-394D01*
X-671Y-372D01*
X-664Y-355D01*
X-503Y-270D01*
X-376Y-218D01*
X-230Y-282D01*
D02*
G37*
G36*
X4367Y1809D02*
X4385Y1718D01*
X4247Y1605D01*
X4055Y1684D01*
X3769Y1566D01*
X3756Y1535D01*
X3051D01*
Y1535D01*
X3051D01*
X2994Y1561D01*
X2960Y1749D01*
X3058Y1848D01*
X3058D01*
X3102Y1953D01*
X3143Y1994D01*
X3259Y2043D01*
X3283Y2033D01*
X3544D01*
X3588Y1969D01*
X3644Y1833D01*
X3770Y1781D01*
X3780Y1777D01*
X3915Y1833D01*
X3971Y1969D01*
X3967Y1978D01*
X3954Y2010D01*
X3981Y2103D01*
X4153Y2129D01*
X4367Y1809D01*
D02*
G37*
G36*
X748Y3169D02*
X1309D01*
X1377Y3080D01*
X1326Y2916D01*
X1264Y2890D01*
X1135Y2896D01*
X990Y2906D01*
X990Y2906D01*
X486D01*
Y2705D01*
X427D01*
Y2646D01*
X234D01*
Y2539D01*
X-177D01*
Y2539D01*
X-357Y2539D01*
X-451Y2697D01*
X-427Y2755D01*
X-445Y2798D01*
X-441Y2840D01*
X-361Y2973D01*
X-288Y2984D01*
X-197Y2946D01*
X-61Y3002D01*
X-5Y3138D01*
X-61Y3273D01*
X-189Y3326D01*
X-197Y3330D01*
X-336Y3273D01*
X-480Y3258D01*
X-569Y3290D01*
X-587Y3283D01*
X-696Y3391D01*
X-627Y3545D01*
X-512Y3593D01*
X-456Y3728D01*
X-512Y3864D01*
X-628Y3912D01*
X-648Y3970D01*
Y4038D01*
X-628Y4096D01*
X-512Y4144D01*
X-456Y4280D01*
X-512Y4415D01*
X-462Y4565D01*
X748D01*
Y3169D01*
D02*
G37*
G36*
X3342Y3342D02*
X3413Y3237D01*
X3374Y3071D01*
X3281Y3023D01*
X3176Y2979D01*
X3176Y2979D01*
X2847Y2651D01*
X2798Y2545D01*
X2658Y2539D01*
X2598D01*
Y2165D01*
X2480D01*
Y2539D01*
X1766D01*
X1681Y2697D01*
X1717Y2753D01*
X1737Y2752D01*
X1811Y2722D01*
X1947Y2778D01*
X1999Y2903D01*
X2003Y2913D01*
X1947Y3049D01*
X1937Y3053D01*
X1819Y3102D01*
X1575Y3346D01*
Y3972D01*
X1732Y4053D01*
X1801Y4025D01*
X1811Y4021D01*
X1947Y4077D01*
X1949Y4084D01*
X2144Y4143D01*
X3342Y3342D01*
D02*
G37*
G36*
X-2026Y3522D02*
Y3314D01*
X-1884D01*
Y3507D01*
X-1766D01*
Y3314D01*
X-1664D01*
X-1549Y3188D01*
X-1566Y3148D01*
X-1570Y3138D01*
X-1514Y3002D01*
X-1378Y2946D01*
X-1329Y2913D01*
Y2736D01*
X-1024D01*
Y2677D01*
X-965D01*
Y2244D01*
X-719D01*
X-669Y2107D01*
Y1949D01*
X-732Y1895D01*
X-882Y1926D01*
X-902Y1974D01*
X-906Y1984D01*
X-1041Y2040D01*
X-1177Y1984D01*
X-1229Y1858D01*
X-1233Y1848D01*
X-1177Y1712D01*
X-1130Y1693D01*
X-1161Y1535D01*
X-1654D01*
Y1034D01*
X-1673D01*
Y735D01*
X-1741Y692D01*
X-1898Y777D01*
Y1946D01*
X-1931Y2025D01*
X-1950Y2089D01*
X-1900Y2244D01*
X-1900D01*
Y3110D01*
X-2404D01*
X-2435Y3268D01*
X-2274Y3334D01*
X-2184Y3553D01*
X-2026Y3522D01*
D02*
G37*
%LPC*%
G36*
X1389Y574D02*
X1253Y517D01*
X1197Y382D01*
X1253Y246D01*
X1389Y190D01*
X1524Y246D01*
X1580Y382D01*
X1524Y517D01*
X1389Y574D01*
D02*
G37*
G36*
X-3554Y2188D02*
X-3688D01*
Y2046D01*
X-3554D01*
Y2188D01*
D02*
G37*
G36*
X-4073Y1393D02*
X-4208Y1336D01*
X-4265Y1201D01*
X-4208Y1065D01*
X-4073Y1009D01*
X-3937Y1065D01*
X-3881Y1201D01*
X-3937Y1336D01*
X-4073Y1393D01*
D02*
G37*
G36*
X2Y-3106D02*
X-140D01*
Y-3247D01*
X2D01*
Y-3106D01*
D02*
G37*
G36*
X262D02*
X120D01*
Y-3247D01*
X262D01*
Y-3106D01*
D02*
G37*
G36*
X2362Y-3087D02*
X2323Y-3103D01*
X2362Y-3142D01*
X2401Y-3103D01*
X2362Y-3087D01*
D02*
G37*
G36*
X2795Y-2618D02*
X2598D01*
Y-2933D01*
X2795D01*
Y-2618D01*
D02*
G37*
G36*
X-136Y4196D02*
X-271Y4140D01*
X-328Y4004D01*
X-271Y3869D01*
X-136Y3813D01*
X-0Y3869D01*
X56Y4004D01*
X-0Y4140D01*
X-136Y4196D01*
D02*
G37*
G36*
X368Y2906D02*
X234D01*
Y2764D01*
X368D01*
Y2906D01*
D02*
G37*
G36*
X-1083Y2618D02*
X-1329D01*
Y2244D01*
X-1083D01*
Y2618D01*
D02*
G37*
%LPD*%
D10*
X-1825Y3877D02*
D03*
Y3507D02*
D03*
X-3843Y-2170D02*
D03*
X-3843Y-2540D02*
D03*
D12*
X1447Y-3055D02*
D03*
X1077D02*
D03*
X1209Y-4421D02*
D03*
X839D02*
D03*
X-3125Y2247D02*
D03*
X-3495D02*
D03*
X427Y2705D02*
D03*
X797D02*
D03*
X-1380Y-3476D02*
D03*
X-1750D02*
D03*
D13*
X3622Y2379D02*
D03*
Y2182D02*
D03*
X3819Y2379D02*
D03*
Y2182D02*
D03*
X2501Y-3365D02*
D03*
X2362Y-3226D02*
D03*
Y-3504D02*
D03*
X2223Y-3365D02*
D03*
X1672Y-3661D02*
D03*
X1811Y-3801D02*
D03*
Y-3522D02*
D03*
X1950Y-3661D02*
D03*
X-1161Y-3720D02*
D03*
Y-3917D02*
D03*
X-965Y-3720D02*
D03*
Y-3917D02*
D03*
D14*
X-1947Y-2297D02*
D03*
Y-1942D02*
D03*
X-1850Y-1244D02*
D03*
Y-1599D02*
D03*
X4116Y-1567D02*
D03*
Y-1213D02*
D03*
X61Y-3661D02*
D03*
Y-3307D02*
D03*
D15*
X-1022Y-3070D02*
D03*
X-667D02*
D03*
X-535Y-4139D02*
D03*
X-180D02*
D03*
X-660Y-3358D02*
D03*
X-1015D02*
D03*
D16*
X-2205Y2677D02*
D03*
X-1024D02*
D03*
D23*
X-1417Y-3150D02*
D03*
X-1668Y-2899D02*
D03*
D25*
X2375Y-3885D02*
D03*
X2113Y-4147D02*
D03*
X918Y-3334D02*
D03*
X657Y-3595D02*
D03*
D28*
X4156Y-701D02*
D03*
X4411Y126D02*
D03*
X3900D02*
D03*
D37*
X472Y-148D02*
Y508D01*
Y-148D02*
X984Y-659D01*
Y-1252D02*
Y-659D01*
X598Y-1639D02*
X984Y-1252D01*
X337Y-1639D02*
X598D01*
X1168Y-3594D02*
Y-3556D01*
X1077Y-3057D02*
Y-3055D01*
X918Y-3216D02*
X1077Y-3057D01*
X918Y-3334D02*
Y-3216D01*
X946Y-3334D02*
X1168Y-3556D01*
Y-3594D02*
X1180Y-3583D01*
X670Y-1923D02*
X861Y-1732D01*
X193Y-1923D02*
X670D01*
X-20Y-1710D02*
X193Y-1923D01*
X-157Y-1278D02*
X-20Y-1415D01*
Y-1710D02*
Y-1415D01*
X2827Y-1323D02*
Y-677D01*
X2508Y-1642D02*
X2827Y-1323D01*
X1483Y-1732D02*
X1654Y-1903D01*
X861Y-1732D02*
X1483D01*
X2856Y295D02*
X3425D01*
X918Y-3334D02*
X946D01*
X-1161Y3691D02*
X-569Y3098D01*
X-1161Y3691D02*
Y3937D01*
X571Y1970D02*
X736Y1804D01*
X571Y1970D02*
Y2165D01*
X879Y-2116D02*
X2236D01*
X2508Y-1845D01*
Y-1642D01*
X472Y508D02*
X1134Y1169D01*
D38*
X-118Y-906D02*
Y-200D01*
X-444Y126D02*
X-118Y-200D01*
X-693Y126D02*
X-444D01*
X-774Y44D02*
X-693Y126D01*
X337Y-770D02*
Y-506D01*
X-706Y536D02*
X337Y-506D01*
X-1643Y536D02*
X-706D01*
X337Y-770D02*
X551Y-984D01*
X84Y-1668D02*
Y-1552D01*
X258Y-1378D01*
X563D01*
X825Y-1116D01*
Y-855D01*
X-1102Y-2165D02*
X-734D01*
X-669Y-2100D01*
X564D01*
X-827Y-866D02*
Y-537D01*
X-916Y-448D02*
X-827Y-537D01*
X-1904Y-448D02*
X-916D01*
X-1949Y-492D02*
X-1904Y-448D01*
X-2362Y-492D02*
X-1949D01*
X-1685Y44D02*
X-774D01*
X-1828Y-98D02*
X-1685Y44D01*
X-2362Y-98D02*
X-1828D01*
X-1737Y443D02*
X-1643Y536D01*
X-1737Y157D02*
Y443D01*
X-1796Y98D02*
X-1737Y157D01*
X-2362Y98D02*
X-1796D01*
X-2010Y570D02*
Y1946D01*
X-1417Y-3439D02*
Y-3150D01*
Y-3439D02*
X-1380Y-3476D01*
Y-3502D02*
Y-3476D01*
Y-3502D02*
X-1161Y-3720D01*
X-2362Y492D02*
X-2088D01*
X-2010Y570D01*
X-965Y-3819D02*
Y-3720D01*
Y-3917D02*
Y-3819D01*
X-619D02*
X-461Y-3661D01*
X61D01*
X-965Y-3819D02*
X-619D01*
X-204Y1862D02*
X-92D01*
X-369Y1697D02*
X-204Y1862D01*
X-531Y1697D02*
X-369D01*
X-1041Y1848D02*
X-770Y1577D01*
Y740D02*
Y1577D01*
Y740D02*
X825Y-855D01*
X592Y-1820D02*
X865Y-1547D01*
X236Y-1820D02*
X592D01*
X84Y-1668D02*
X236Y-1820D01*
X865Y-1547D02*
X2069D01*
X2501Y-3365D02*
X2699D01*
X-92Y1862D02*
X79Y2033D01*
Y2165D01*
X-1221Y3877D02*
X-1161Y3937D01*
X-1825Y3877D02*
X-1221D01*
X-3125Y2247D02*
X-2311D01*
X-2010Y1946D01*
X61Y-3661D02*
X491Y-4091D01*
Y-4326D02*
Y-4091D01*
Y-4326D02*
X586Y-4421D01*
X839D01*
D39*
X-1373Y-4500D02*
Y-4326D01*
X-1890Y-3760D02*
X-1885Y-3765D01*
X-3012Y965D02*
X-2894Y1083D01*
X-2362D01*
X-3012Y965D02*
X-2933Y886D01*
X-2362D01*
X-180Y-4383D02*
Y-4139D01*
X-254Y-4457D02*
X-180Y-4383D01*
X1161Y3564D02*
Y3937D01*
Y3564D02*
X1787Y2938D01*
X4136Y-133D02*
Y395D01*
X4628Y421D02*
Y735D01*
X4411Y205D02*
X4628Y421D01*
X4136Y-133D02*
X4392Y-389D01*
Y-1880D02*
Y-389D01*
X3909Y-2362D02*
X4392Y-1880D01*
X3701Y-2362D02*
X3909D01*
X4096Y-1193D02*
X4116Y-1213D01*
X3880Y-1193D02*
X4096D01*
X1085Y-4067D02*
X1114D01*
X416Y-3365D02*
X646Y-3595D01*
X657D01*
X2362Y-3226D02*
Y-3004D01*
X4411Y126D02*
Y205D01*
X-1947Y-2581D02*
Y-2297D01*
X1787Y2938D02*
X1836D01*
X-1885Y-3967D02*
Y-3765D01*
X-1539Y-4160D02*
X-1373Y-4326D01*
X-1691Y-4160D02*
X-1539D01*
X-1885Y-3967D02*
X-1691Y-4160D01*
X1085Y-4067D02*
X1209Y-4191D01*
Y-4421D02*
Y-4191D01*
D40*
X-1792Y-886D02*
X-1782Y-896D01*
X-2362Y-886D02*
X-1792D01*
X-1374Y-1599D02*
X-1346Y-1626D01*
X-1850Y-1599D02*
X-1374D01*
X-2862Y-1083D02*
X-2665Y-886D01*
X-2362D01*
X-2862Y-1083D02*
X-2372D01*
X1447Y-3297D02*
X1741Y-3592D01*
X1447Y-3297D02*
Y-3055D01*
X-762Y-4598D02*
X-530D01*
X-1161Y-4199D02*
X-762Y-4598D01*
X-1161Y-4199D02*
Y-3917D01*
X2500Y-1421D02*
Y-698D01*
X2108Y-1813D02*
X2500Y-1421D01*
X2761Y1762D02*
X2953Y1953D01*
X3919Y-1795D02*
X4116Y-1598D01*
Y-1567D01*
X61Y-3307D02*
Y-3043D01*
X-530Y-4598D02*
X-431Y-4697D01*
X-535Y-4594D02*
X-530Y-4598D01*
X-535Y-4594D02*
Y-4139D01*
X-667Y-3070D02*
X-254D01*
X-651Y-3398D02*
X-406D01*
X2107Y-4147D02*
Y-4096D01*
X2776Y-2795D02*
X3386D01*
X2539Y-2559D02*
X2776Y-2795D01*
X1811Y-3801D02*
X2107Y-4096D01*
X1950Y-4303D02*
X2107Y-4147D01*
X1741Y-3592D02*
X1811Y-3522D01*
X1672Y-3661D02*
X1741Y-3592D01*
X3622Y2590D02*
X3630Y2598D01*
X3622Y2379D02*
X3819D01*
X2953Y1953D02*
Y2205D01*
X3261D01*
X2953D02*
Y2545D01*
X3281Y2874D01*
X3504D01*
X2234Y1762D02*
X2761D01*
X1890Y-88D02*
X2500Y-698D01*
X1890Y-88D02*
Y1417D01*
X2234Y1762D01*
X3622Y2379D02*
Y2590D01*
X3261Y2205D02*
X3283Y2182D01*
X3622D01*
D41*
X-2842Y-196D02*
X-2743Y-295D01*
X-2362D01*
X-3125Y-1820D02*
Y-1083D01*
Y-1820D02*
X-2046Y-2899D01*
X-3244Y-689D02*
X-2362D01*
X-3819Y-114D02*
X-3244Y-689D01*
X-2756Y295D02*
X-2362D01*
X-4409Y-1654D02*
X-4398Y-1642D01*
X-4409Y-1654D02*
X-4370Y-1693D01*
Y-1871D02*
Y-1693D01*
Y-1871D02*
X-4072Y-2170D01*
X-3843D01*
X2375Y-3660D02*
Y-3517D01*
Y-3885D02*
Y-3660D01*
X2374Y-3661D02*
X2375Y-3660D01*
X1950Y-3661D02*
X2374D01*
X3900Y559D02*
X3959Y618D01*
X3900Y126D02*
Y559D01*
X2362Y-3504D02*
X2375Y-3517D01*
X2223Y-3365D02*
X2362Y-3504D01*
X3900Y126D02*
Y205D01*
X797Y2705D02*
X1135D01*
X-2046Y-2899D02*
X-1668D01*
X3819Y2008D02*
Y2182D01*
X3780Y1969D02*
X3819Y2008D01*
D42*
X-3843Y-2540D02*
X-3507D01*
X-1346Y-1673D02*
X-1208D01*
X-1362Y-1244D02*
X-1299Y-1181D01*
X-1850Y-1244D02*
X-1362D01*
X-1346Y-1626D02*
X-1299Y-1673D01*
X179Y2705D02*
X427D01*
X-2520Y-1780D02*
X-2327D01*
X-2164Y-1942D01*
X-1947D01*
X-1990Y-1244D02*
X-1850D01*
X-2069Y-1323D02*
X-1990Y-1244D01*
X-2211Y-1323D02*
X-2069D01*
X-2247Y-1360D02*
X-2211Y-1323D01*
X-2254Y-1360D02*
X-2247D01*
X-1208Y-1673D02*
X-1122Y-1759D01*
X-1339Y-1971D02*
Y-1759D01*
X-1122D01*
X-1005Y-3398D02*
Y-2647D01*
X-1339Y-2314D02*
X-1005Y-2647D01*
X-1339Y-2314D02*
Y-1971D01*
D43*
X-3125Y-1083D02*
X-2862D01*
X-3248D02*
X-3125D01*
X-4087Y-244D02*
X-3248Y-1083D01*
X-4087Y87D02*
X-3583Y591D01*
X-4087Y-244D02*
Y87D01*
X-2756Y-3150D02*
X-2429Y-3476D01*
X-1750D01*
X-1350Y2717D02*
X-1063D01*
X-1825Y3191D02*
X-1350Y2717D01*
X-1825Y3191D02*
Y3507D01*
X-1063Y2717D02*
X-1024Y2677D01*
X-3268Y2913D02*
X-2441D01*
X-2205Y2677D01*
X-3209Y965D02*
X-3012D01*
X-3583Y591D02*
X-3209Y965D01*
X2539Y2165D02*
Y2742D01*
X2982Y787D02*
X3425D01*
X-1024Y2138D02*
Y2677D01*
D44*
X6363Y-1486D02*
Y-886D01*
X6063Y-1186D01*
X6463D01*
X6663Y-1486D02*
Y-1386D01*
X6763D01*
Y-1486D01*
X6663D01*
X7762Y-886D02*
Y-1486D01*
X8062D01*
X8162Y-1386D01*
Y-1286D01*
X8062Y-1186D01*
X7762D01*
X8062D01*
X8162Y-1086D01*
Y-986D01*
X8062Y-886D01*
X7762D01*
X8462Y-1486D02*
X8662D01*
X8762Y-1386D01*
Y-1186D01*
X8662Y-1086D01*
X8462D01*
X8362Y-1186D01*
Y-1386D01*
X8462Y-1486D01*
X9062Y-986D02*
Y-1086D01*
X8962D01*
X9162D01*
X9062D01*
Y-1386D01*
X9162Y-1486D01*
D45*
X4055Y1280D02*
D03*
X-2561Y3620D02*
D03*
D46*
X2441Y3543D02*
D03*
D48*
X-3268Y2913D02*
D03*
D49*
X3329Y-2756D02*
D03*
X491Y-4326D02*
D03*
X-2429Y-4016D02*
D03*
X-1535Y-2581D02*
D03*
D50*
X3644Y-2323D02*
D03*
D51*
X-3701Y1780D02*
D03*
Y-1780D02*
D03*
D52*
X-2520Y1780D02*
D03*
D53*
Y-1780D02*
D03*
D54*
X551Y-984D02*
D03*
X-118Y-906D02*
D03*
X-1102Y-2165D02*
D03*
X564Y-2100D02*
D03*
X-1839Y-3150D02*
D03*
X-827Y-866D02*
D03*
X-807Y-236D02*
D03*
X-503Y-79D02*
D03*
X-2842Y-196D02*
D03*
X-3507Y-2540D02*
D03*
X-3406Y-2202D02*
D03*
X-3917Y-965D02*
D03*
X-1934Y354D02*
D03*
X-2756Y295D02*
D03*
X-4134Y-571D02*
D03*
X-3819Y-114D02*
D03*
X-4409Y-1654D02*
D03*
X-4192Y-1003D02*
D03*
X-1565Y-3736D02*
D03*
X-2186Y-4180D02*
D03*
X-1671Y-4421D02*
D03*
X-1373Y-4500D02*
D03*
X-1402Y-3938D02*
D03*
X-1890Y-3760D02*
D03*
X-136Y4004D02*
D03*
X-1378Y3138D02*
D03*
X-619Y2755D02*
D03*
X-3583Y591D02*
D03*
X1180Y-3583D02*
D03*
X1134Y1169D02*
D03*
X2223Y1209D02*
D03*
X2559Y511D02*
D03*
X4136Y395D02*
D03*
X4628Y735D02*
D03*
X3959Y618D02*
D03*
X2856Y295D02*
D03*
X61Y-3043D02*
D03*
X3919Y-1795D02*
D03*
X4667Y-760D02*
D03*
X-4073Y1201D02*
D03*
X-1041Y1848D02*
D03*
X2069Y-1547D02*
D03*
X79Y-4736D02*
D03*
X-197Y-1848D02*
D03*
X2125Y-969D02*
D03*
X1596Y59D02*
D03*
X2699Y-1723D02*
D03*
X3880Y-839D02*
D03*
X2935Y1327D02*
D03*
X-254Y-3070D02*
D03*
X-406Y-3398D02*
D03*
X2827Y-677D02*
D03*
X3880Y-1193D02*
D03*
X1389Y382D02*
D03*
X2108Y-1813D02*
D03*
X2699Y-3365D02*
D03*
X337Y-1639D02*
D03*
X879Y-2116D02*
D03*
X1085Y-4067D02*
D03*
X-254Y-4457D02*
D03*
X1772Y-3230D02*
D03*
X1695Y-4060D02*
D03*
X2896Y-1929D02*
D03*
X416Y-3365D02*
D03*
X1950Y-4303D02*
D03*
X1665Y-4421D02*
D03*
X2362Y-3004D02*
D03*
X283Y-981D02*
D03*
X-569Y3098D02*
D03*
X-531Y1697D02*
D03*
X736Y1804D02*
D03*
X-157Y-1278D02*
D03*
X-1782Y-896D02*
D03*
X3185Y1988D02*
D03*
X2539Y2742D02*
D03*
X2982Y787D02*
D03*
X3053Y1631D02*
D03*
X-431Y-4697D02*
D03*
X1339Y-1917D02*
D03*
X1654Y-1903D02*
D03*
X179Y2705D02*
D03*
X-197Y3138D02*
D03*
X-293Y3493D02*
D03*
X-648Y3728D02*
D03*
Y4280D02*
D03*
X-4398Y591D02*
D03*
X-1947Y-2581D02*
D03*
X-1339Y-1971D02*
D03*
X-3661Y-1083D02*
D03*
X-3323Y-220D02*
D03*
X1135Y2705D02*
D03*
X1400Y2755D02*
D03*
X1811Y4213D02*
D03*
X1811Y2913D02*
D03*
X3504Y2874D02*
D03*
X3630Y2598D02*
D03*
X3780Y1969D02*
D03*
X-1890Y-4264D02*
D03*
X-1024Y2138D02*
D03*
X-1291Y2073D02*
D03*
X776Y302D02*
D03*
D58*
X-1161Y3937D02*
D03*
D59*
X1161D02*
D03*
D60*
X-1299Y-1673D02*
D03*
Y-1181D02*
D03*
X3425Y1280D02*
D03*
Y787D02*
D03*
Y295D02*
D03*
X3425Y-197D02*
D03*
X3425Y-689D02*
D03*
Y-1181D02*
D03*
Y-1673D02*
D03*
D61*
X-1299Y-689D02*
D03*
X-1299Y-197D02*
D03*
X-1299Y295D02*
D03*
Y787D02*
D03*
D62*
X-1299Y1280D02*
D03*
D63*
X-413Y2165D02*
D03*
X571D02*
D03*
D64*
X79D02*
D03*
X1063Y2165D02*
D03*
X1555Y2165D02*
D03*
X2047D02*
D03*
X2539D02*
D03*
X2539Y-2559D02*
D03*
X2047Y-2559D02*
D03*
X1555D02*
D03*
X1063Y-2559D02*
D03*
X571D02*
D03*
X79D02*
D03*
X-413D02*
D03*
D65*
X-2362Y295D02*
D03*
Y492D02*
D03*
Y689D02*
D03*
Y886D02*
D03*
Y1083D02*
D03*
Y1280D02*
D03*
Y1476D02*
D03*
Y-689D02*
D03*
Y-1476D02*
D03*
Y-1280D02*
D03*
Y-1083D02*
D03*
Y-886D02*
D03*
Y-492D02*
D03*
Y-295D02*
D03*
Y-98D02*
D03*
Y98D02*
D03*
D66*
X3425Y1280D02*
X3959D01*
D67*
X-2756Y-3150D02*
D03*
M02*
