G04 Layer_Color=8388736*
%FSLAX24Y24*%
%MOIN*%
G70*
G01*
G75*
%ADD70R,0.0283X0.0268*%
%ADD71R,0.0472X0.0256*%
%ADD72R,0.0268X0.0283*%
%ADD73C,0.0138*%
%ADD74R,0.0283X0.0283*%
%ADD75R,0.0283X0.0283*%
%ADD76R,0.0492X0.0748*%
G04:AMPARAMS|DCode=77|XSize=66.9mil|YSize=33.5mil|CornerRadius=9.3mil|HoleSize=0mil|Usage=FLASHONLY|Rotation=0.000|XOffset=0mil|YOffset=0mil|HoleType=Round|Shape=RoundedRectangle|*
%AMROUNDEDRECTD77*
21,1,0.0669,0.0148,0,0,0.0*
21,1,0.0482,0.0335,0,0,0.0*
1,1,0.0187,0.0241,-0.0074*
1,1,0.0187,-0.0241,-0.0074*
1,1,0.0187,-0.0241,0.0074*
1,1,0.0187,0.0241,0.0074*
%
%ADD77ROUNDEDRECTD77*%
G04:AMPARAMS|DCode=78|XSize=59.1mil|YSize=33.5mil|CornerRadius=9.3mil|HoleSize=0mil|Usage=FLASHONLY|Rotation=0.000|XOffset=0mil|YOffset=0mil|HoleType=Round|Shape=RoundedRectangle|*
%AMROUNDEDRECTD78*
21,1,0.0591,0.0148,0,0,0.0*
21,1,0.0404,0.0335,0,0,0.0*
1,1,0.0187,0.0202,-0.0074*
1,1,0.0187,-0.0202,-0.0074*
1,1,0.0187,-0.0202,0.0074*
1,1,0.0187,0.0202,0.0074*
%
%ADD78ROUNDEDRECTD78*%
G04:AMPARAMS|DCode=79|XSize=66.9mil|YSize=35.4mil|CornerRadius=9.8mil|HoleSize=0mil|Usage=FLASHONLY|Rotation=0.000|XOffset=0mil|YOffset=0mil|HoleType=Round|Shape=RoundedRectangle|*
%AMROUNDEDRECTD79*
21,1,0.0669,0.0157,0,0,0.0*
21,1,0.0472,0.0354,0,0,0.0*
1,1,0.0197,0.0236,-0.0079*
1,1,0.0197,-0.0236,-0.0079*
1,1,0.0197,-0.0236,0.0079*
1,1,0.0197,0.0236,0.0079*
%
%ADD79ROUNDEDRECTD79*%
G04:AMPARAMS|DCode=80|XSize=37.4mil|YSize=13.8mil|CornerRadius=0mil|HoleSize=0mil|Usage=FLASHONLY|Rotation=135.000|XOffset=0mil|YOffset=0mil|HoleType=Round|Shape=Rectangle|*
%AMROTATEDRECTD80*
4,1,4,0.0181,-0.0084,0.0084,-0.0181,-0.0181,0.0084,-0.0084,0.0181,0.0181,-0.0084,0.0*
%
%ADD80ROTATEDRECTD80*%

G04:AMPARAMS|DCode=81|XSize=37.4mil|YSize=13.8mil|CornerRadius=0mil|HoleSize=0mil|Usage=FLASHONLY|Rotation=225.000|XOffset=0mil|YOffset=0mil|HoleType=Round|Shape=Rectangle|*
%AMROTATEDRECTD81*
4,1,4,0.0084,0.0181,0.0181,0.0084,-0.0084,-0.0181,-0.0181,-0.0084,0.0084,0.0181,0.0*
%
%ADD81ROTATEDRECTD81*%

%ADD82P,0.2060X4X270.0*%
%ADD83P,0.0401X4X180.0*%
%ADD84P,0.0401X4X270.0*%
G04:AMPARAMS|DCode=85|XSize=28.3mil|YSize=26.8mil|CornerRadius=0mil|HoleSize=0mil|Usage=FLASHONLY|Rotation=135.000|XOffset=0mil|YOffset=0mil|HoleType=Round|Shape=Rectangle|*
%AMROTATEDRECTD85*
4,1,4,0.0195,-0.0006,0.0006,-0.0195,-0.0195,0.0006,-0.0006,0.0195,0.0195,-0.0006,0.0*
%
%ADD85ROTATEDRECTD85*%

G04:AMPARAMS|DCode=86|XSize=28.3mil|YSize=26.8mil|CornerRadius=0mil|HoleSize=0mil|Usage=FLASHONLY|Rotation=225.000|XOffset=0mil|YOffset=0mil|HoleType=Round|Shape=Rectangle|*
%AMROTATEDRECTD86*
4,1,4,0.0006,0.0195,0.0195,0.0006,-0.0006,-0.0195,-0.0195,-0.0006,0.0006,0.0195,0.0*
%
%ADD86ROTATEDRECTD86*%

%ADD87R,0.0413X0.0394*%
%ADD88R,0.0256X0.0374*%
G04:AMPARAMS|DCode=89|XSize=37.4mil|YSize=19.7mil|CornerRadius=0mil|HoleSize=0mil|Usage=FLASHONLY|Rotation=90.000|XOffset=0mil|YOffset=0mil|HoleType=Round|Shape=Octagon|*
%AMOCTAGOND89*
4,1,8,0.0049,0.0187,-0.0049,0.0187,-0.0098,0.0138,-0.0098,-0.0138,-0.0049,-0.0187,0.0049,-0.0187,0.0098,-0.0138,0.0098,0.0138,0.0049,0.0187,0.0*
%
%ADD89OCTAGOND89*%

%ADD90R,0.0620X0.0217*%
%ADD91R,0.0276X0.0512*%
G04:AMPARAMS|DCode=92|XSize=51.2mil|YSize=27.6mil|CornerRadius=7.9mil|HoleSize=0mil|Usage=FLASHONLY|Rotation=90.000|XOffset=0mil|YOffset=0mil|HoleType=Round|Shape=RoundedRectangle|*
%AMROUNDEDRECTD92*
21,1,0.0512,0.0118,0,0,90.0*
21,1,0.0354,0.0276,0,0,90.0*
1,1,0.0157,0.0059,0.0177*
1,1,0.0157,0.0059,-0.0177*
1,1,0.0157,-0.0059,-0.0177*
1,1,0.0157,-0.0059,0.0177*
%
%ADD92ROUNDEDRECTD92*%
%ADD93R,0.0252X0.0354*%
%ADD94R,0.0157X0.0433*%
%ADD95R,0.0157X0.0276*%
%ADD96R,0.0197X0.0433*%
%ADD97C,0.0630*%
%ADD98C,0.1024*%
%ADD99C,0.1496*%
%ADD100O,0.0039X0.0639*%
G04:AMPARAMS|DCode=101|XSize=63mil|YSize=63mil|CornerRadius=0mil|HoleSize=0mil|Usage=FLASHONLY|Rotation=45.000|XOffset=0mil|YOffset=0mil|HoleType=Round|Shape=Octagon|*
%AMOCTAGOND101*
4,1,8,0.0334,0.0111,0.0111,0.0334,-0.0111,0.0334,-0.0334,0.0111,-0.0334,-0.0111,-0.0111,-0.0334,0.0111,-0.0334,0.0334,-0.0111,0.0334,0.0111,0.0*
%
%ADD101OCTAGOND101*%

%ADD102C,0.0276*%
%ADD103R,0.0276X0.0276*%
%ADD104O,0.0906X0.0472*%
G36*
X-2205Y-1578D02*
X-2191Y-1595D01*
X-2179Y-1613D01*
X-2168Y-1631D01*
X-2158Y-1651D01*
X-2151Y-1671D01*
X-2144Y-1692D01*
X-2140Y-1714D01*
X-2137Y-1735D01*
X-2136Y-1757D01*
X-2137Y-1779D01*
X-2139Y-1800D01*
X-2143Y-1822D01*
X-2149Y-1843D01*
X-2156Y-1863D01*
X-2165Y-1883D01*
X-2175Y-1902D01*
X-2187Y-1920D01*
X-2201Y-1938D01*
X-2215Y-1954D01*
X-2231Y-1969D01*
X-2248Y-1982D01*
X-2266Y-1994D01*
X-2285Y-2005D01*
X-2305Y-2014D01*
X-2326Y-2022D01*
X-2347Y-2028D01*
X-2368Y-2032D01*
X-2390Y-2035D01*
X-2411Y-2035D01*
X-2628D01*
X-2650Y-2035D01*
X-2671Y-2032D01*
X-2693Y-2028D01*
X-2714Y-2022D01*
X-2734Y-2014D01*
X-2754Y-2005D01*
X-2773Y-1994D01*
X-2791Y-1982D01*
X-2808Y-1969D01*
X-2824Y-1954D01*
X-2839Y-1938D01*
X-2852Y-1920D01*
X-2864Y-1902D01*
X-2874Y-1883D01*
X-2883Y-1863D01*
X-2891Y-1843D01*
X-2896Y-1822D01*
X-2900Y-1800D01*
X-2903Y-1779D01*
X-2903Y-1757D01*
X-2902Y-1735D01*
X-2899Y-1714D01*
X-2895Y-1692D01*
X-2889Y-1671D01*
X-2881Y-1651D01*
X-2871Y-1631D01*
X-2861Y-1613D01*
X-2848Y-1595D01*
X-2834Y-1578D01*
X-2820Y-1563D01*
X-2219D01*
X-2205Y-1578D01*
D02*
G37*
G36*
X-2390Y2035D02*
X-2368Y2032D01*
X-2347Y2028D01*
X-2326Y2022D01*
X-2305Y2014D01*
X-2285Y2005D01*
X-2266Y1994D01*
X-2248Y1982D01*
X-2231Y1969D01*
X-2215Y1954D01*
X-2201Y1938D01*
X-2187Y1920D01*
X-2175Y1902D01*
X-2165Y1883D01*
X-2156Y1863D01*
X-2149Y1843D01*
X-2143Y1822D01*
X-2139Y1800D01*
X-2137Y1779D01*
X-2136Y1757D01*
X-2137Y1735D01*
X-2140Y1714D01*
X-2144Y1692D01*
X-2151Y1671D01*
X-2158Y1651D01*
X-2168Y1631D01*
X-2179Y1613D01*
X-2191Y1595D01*
X-2205Y1578D01*
X-2219Y1563D01*
X-2820D01*
X-2834Y1578D01*
X-2848Y1595D01*
X-2861Y1613D01*
X-2871Y1631D01*
X-2881Y1651D01*
X-2889Y1671D01*
X-2895Y1692D01*
X-2899Y1714D01*
X-2902Y1735D01*
X-2903Y1757D01*
X-2903Y1779D01*
X-2900Y1800D01*
X-2896Y1822D01*
X-2891Y1843D01*
X-2883Y1863D01*
X-2874Y1883D01*
X-2864Y1902D01*
X-2852Y1920D01*
X-2839Y1938D01*
X-2824Y1954D01*
X-2808Y1969D01*
X-2791Y1982D01*
X-2773Y1994D01*
X-2754Y2005D01*
X-2734Y2014D01*
X-2714Y2022D01*
X-2693Y2028D01*
X-2671Y2032D01*
X-2650Y2035D01*
X-2628Y2035D01*
X-2411D01*
X-2390Y2035D01*
D02*
G37*
D70*
X-1384Y-1262D02*
D03*
X-1384Y-1632D02*
D03*
X1654Y-1642D02*
D03*
X1654Y-1272D02*
D03*
X669D02*
D03*
X669Y-1642D02*
D03*
X4057Y1848D02*
D03*
Y2218D02*
D03*
X3053Y-51D02*
D03*
X3053Y-421D02*
D03*
X1024Y-1272D02*
D03*
X1024Y-1642D02*
D03*
X-512Y-1165D02*
D03*
X-512Y-1535D02*
D03*
X-866Y-1165D02*
D03*
X-866Y-1535D02*
D03*
X1339Y-1272D02*
D03*
Y-1642D02*
D03*
X3445Y1276D02*
D03*
Y906D02*
D03*
X2778Y-1339D02*
D03*
Y-969D02*
D03*
X-4457Y-776D02*
D03*
X-4457Y-406D02*
D03*
D71*
X-3209Y965D02*
D03*
Y217D02*
D03*
X-4272D02*
D03*
X-4272Y591D02*
D03*
X-4272Y965D02*
D03*
X4254Y-1567D02*
D03*
X4254Y-1193D02*
D03*
X4254Y-819D02*
D03*
X3191D02*
D03*
Y-1567D02*
D03*
D72*
X4207Y-445D02*
D03*
X4577D02*
D03*
X-2492Y1370D02*
D03*
X-2862D02*
D03*
X736Y-4646D02*
D03*
X366D02*
D03*
X-4087Y-114D02*
D03*
X-4457D02*
D03*
X3122Y-1929D02*
D03*
X3492D02*
D03*
X-2508Y2862D02*
D03*
X-2138D02*
D03*
X3260Y2346D02*
D03*
X3630D02*
D03*
D73*
X3604Y1850D02*
D03*
X3465Y1711D02*
D03*
Y1990D02*
D03*
X3325Y1850D02*
D03*
X-3843Y-2398D02*
D03*
X-4040D02*
D03*
X-3843Y-2202D02*
D03*
X-4040D02*
D03*
X-4272Y-1201D02*
D03*
Y-1398D02*
D03*
X-4469Y-1201D02*
D03*
Y-1398D02*
D03*
D74*
X-1782Y-1280D02*
D03*
X-1782Y-1634D02*
D03*
X2559Y1555D02*
D03*
Y1201D02*
D03*
X2638Y-413D02*
D03*
Y-59D02*
D03*
X2953Y1988D02*
D03*
Y2343D02*
D03*
X2598D02*
D03*
Y1988D02*
D03*
X1410Y-3983D02*
D03*
Y-4337D02*
D03*
D75*
X-2898Y591D02*
D03*
X-3253D02*
D03*
X-2894Y2311D02*
D03*
X-3248D02*
D03*
X99Y4437D02*
D03*
X454D02*
D03*
D76*
X2953Y-2756D02*
D03*
X1772D02*
D03*
D77*
X-1890Y2461D02*
D03*
Y-571D02*
D03*
Y59D02*
D03*
D78*
X-1850Y1831D02*
D03*
D79*
X-1890Y689D02*
D03*
X2047Y59D02*
D03*
Y-571D02*
D03*
Y689D02*
D03*
Y1831D02*
D03*
Y2461D02*
D03*
D80*
X-2Y-4319D02*
D03*
X137Y-4180D02*
D03*
X276Y-4040D02*
D03*
X416Y-3901D02*
D03*
X555Y-3762D02*
D03*
X694Y-3623D02*
D03*
X833Y-3484D02*
D03*
X972Y-3344D02*
D03*
X-392Y-1980D02*
D03*
X-531Y-2120D02*
D03*
X-670Y-2259D02*
D03*
X-809Y-2398D02*
D03*
X-948Y-2537D02*
D03*
X-1088Y-2676D02*
D03*
X-1227Y-2816D02*
D03*
X-1366Y-2955D02*
D03*
D81*
X972D02*
D03*
X833Y-2816D02*
D03*
X694Y-2676D02*
D03*
X555Y-2537D02*
D03*
X416Y-2398D02*
D03*
X276Y-2259D02*
D03*
X137Y-2120D02*
D03*
X-2Y-1980D02*
D03*
X-1366Y-3344D02*
D03*
X-1227Y-3484D02*
D03*
X-1088Y-3623D02*
D03*
X-948Y-3762D02*
D03*
X-809Y-3901D02*
D03*
X-670Y-4040D02*
D03*
X-531Y-4180D02*
D03*
X-392Y-4319D02*
D03*
D82*
X-197Y-3150D02*
D03*
D83*
X859Y-4205D02*
D03*
X1110Y-4456D02*
D03*
D84*
X32Y-1543D02*
D03*
X283Y-1292D02*
D03*
D85*
X2108Y-3652D02*
D03*
X2370Y-3390D02*
D03*
D86*
X1872Y-3883D02*
D03*
X1611Y-3621D02*
D03*
D87*
X3612Y-315D02*
D03*
Y315D02*
D03*
D88*
X4136Y-32D02*
D03*
X4648D02*
D03*
X2618Y-2106D02*
D03*
X2106D02*
D03*
X-3406Y-1252D02*
D03*
X-3917D02*
D03*
D89*
X4392Y795D02*
D03*
X2362Y-1280D02*
D03*
X-3661Y-425D02*
D03*
D90*
X245Y4006D02*
D03*
Y3750D02*
D03*
Y3494D02*
D03*
Y3238D02*
D03*
X-2069D02*
D03*
Y3494D02*
D03*
Y3750D02*
D03*
Y4006D02*
D03*
D91*
X768Y4220D02*
D03*
X1142Y4220D02*
D03*
X1516Y3236D02*
D03*
X1142Y3236D02*
D03*
X768D02*
D03*
D92*
X1516Y4220D02*
D03*
D93*
X-2496Y-896D02*
D03*
D94*
X-3039Y-640D02*
D03*
X-2842D02*
D03*
Y-1152D02*
D03*
D95*
X-2645Y-561D02*
D03*
X-2448D02*
D03*
X-2448Y-1230D02*
D03*
X-2645Y-1230D02*
D03*
D96*
X-3039Y-1152D02*
D03*
D97*
X4055Y1280D02*
D03*
X-2561Y3620D02*
D03*
D98*
X2441Y3543D02*
D03*
D99*
X-2756Y-3150D02*
D03*
D100*
X79Y1142D02*
D03*
D101*
X-3268Y2913D02*
D03*
D102*
X3329Y-2756D02*
D03*
X491Y-4326D02*
D03*
X-2429Y-4016D02*
D03*
X-1535Y-2581D02*
D03*
D103*
X3644Y-2323D02*
D03*
D104*
X-3701Y1780D02*
D03*
Y-1780D02*
D03*
M02*
