G04 Layer_Color=16711935*
%FSLAX24Y24*%
%MOIN*%
G70*
G01*
G75*
%ADD63R,0.0268X0.0283*%
%ADD64R,0.0283X0.0283*%
%ADD65R,0.0283X0.0283*%
%ADD69R,0.0283X0.0268*%
%ADD71R,0.0256X0.0374*%
%ADD79O,0.0906X0.0472*%
%ADD80O,0.0039X0.0639*%
G04:AMPARAMS|DCode=81|XSize=63mil|YSize=63mil|CornerRadius=0mil|HoleSize=0mil|Usage=FLASHONLY|Rotation=45.000|XOffset=0mil|YOffset=0mil|HoleType=Round|Shape=Octagon|*
%AMOCTAGOND81*
4,1,8,0.0334,0.0111,0.0111,0.0334,-0.0111,0.0334,-0.0334,0.0111,-0.0334,-0.0111,-0.0111,-0.0334,0.0111,-0.0334,0.0334,-0.0111,0.0334,0.0111,0.0*
%
%ADD81OCTAGOND81*%

%ADD82C,0.0630*%
%ADD83C,0.0472*%
G04:AMPARAMS|DCode=84|XSize=47.2mil|YSize=47.2mil|CornerRadius=0mil|HoleSize=0mil|Usage=FLASHONLY|Rotation=225.000|XOffset=0mil|YOffset=0mil|HoleType=Round|Shape=Octagon|*
%AMOCTAGOND84*
4,1,8,-0.0251,-0.0084,-0.0084,-0.0251,0.0084,-0.0251,0.0251,-0.0084,0.0251,0.0084,0.0084,0.0251,-0.0084,0.0251,-0.0251,0.0084,-0.0251,-0.0084,0.0*
%
%ADD84OCTAGOND84*%

%ADD85C,0.1024*%
%ADD87C,0.0236*%
%ADD88R,0.0709X0.1260*%
%ADD89R,0.0709X0.1417*%
%ADD90R,0.0433X0.0157*%
%ADD91R,0.0945X0.0433*%
G04:AMPARAMS|DCode=92|XSize=94.5mil|YSize=43.3mil|CornerRadius=0mil|HoleSize=0mil|Usage=FLASHONLY|Rotation=270.000|XOffset=0mil|YOffset=0mil|HoleType=Round|Shape=Octagon|*
%AMOCTAGOND92*
4,1,8,-0.0108,-0.0472,0.0108,-0.0472,0.0217,-0.0364,0.0217,0.0364,0.0108,0.0472,-0.0108,0.0472,-0.0217,0.0364,-0.0217,-0.0364,-0.0108,-0.0472,0.0*
%
%ADD92OCTAGOND92*%

%ADD93R,0.0433X0.0827*%
G04:AMPARAMS|DCode=94|XSize=94.5mil|YSize=43.3mil|CornerRadius=11.8mil|HoleSize=0mil|Usage=FLASHONLY|Rotation=270.000|XOffset=0mil|YOffset=0mil|HoleType=Round|Shape=RoundedRectangle|*
%AMROUNDEDRECTD94*
21,1,0.0945,0.0197,0,0,270.0*
21,1,0.0709,0.0433,0,0,270.0*
1,1,0.0236,-0.0098,-0.0354*
1,1,0.0236,-0.0098,0.0354*
1,1,0.0236,0.0098,0.0354*
1,1,0.0236,0.0098,-0.0354*
%
%ADD94ROUNDEDRECTD94*%
%ADD95R,0.0433X0.0945*%
G04:AMPARAMS|DCode=96|XSize=94.5mil|YSize=43.3mil|CornerRadius=11.8mil|HoleSize=0mil|Usage=FLASHONLY|Rotation=180.000|XOffset=0mil|YOffset=0mil|HoleType=Round|Shape=RoundedRectangle|*
%AMROUNDEDRECTD96*
21,1,0.0945,0.0197,0,0,180.0*
21,1,0.0709,0.0433,0,0,180.0*
1,1,0.0236,-0.0354,0.0098*
1,1,0.0236,0.0354,0.0098*
1,1,0.0236,0.0354,-0.0098*
1,1,0.0236,-0.0354,-0.0098*
%
%ADD96ROUNDEDRECTD96*%
%ADD97C,0.1220*%
G36*
X-2205Y-1578D02*
X-2191Y-1595D01*
X-2179Y-1613D01*
X-2168Y-1631D01*
X-2159Y-1651D01*
X-2151Y-1671D01*
X-2144Y-1692D01*
X-2140Y-1714D01*
X-2137Y-1735D01*
X-2136Y-1757D01*
X-2137Y-1779D01*
X-2139Y-1800D01*
X-2143Y-1822D01*
X-2149Y-1843D01*
X-2156Y-1863D01*
X-2165Y-1883D01*
X-2175Y-1902D01*
X-2187Y-1920D01*
X-2201Y-1938D01*
X-2216Y-1954D01*
X-2231Y-1969D01*
X-2248Y-1982D01*
X-2267Y-1994D01*
X-2285Y-2005D01*
X-2305Y-2014D01*
X-2326Y-2022D01*
X-2347Y-2028D01*
X-2368Y-2032D01*
X-2390Y-2035D01*
X-2411Y-2035D01*
X-2628D01*
X-2650Y-2035D01*
X-2671Y-2032D01*
X-2693Y-2028D01*
X-2714Y-2022D01*
X-2734Y-2014D01*
X-2754Y-2005D01*
X-2773Y-1994D01*
X-2791Y-1982D01*
X-2808Y-1969D01*
X-2824Y-1954D01*
X-2839Y-1938D01*
X-2852Y-1920D01*
X-2864Y-1902D01*
X-2874Y-1883D01*
X-2883Y-1863D01*
X-2891Y-1843D01*
X-2896Y-1822D01*
X-2900Y-1800D01*
X-2903Y-1779D01*
X-2903Y-1757D01*
X-2902Y-1735D01*
X-2899Y-1714D01*
X-2895Y-1692D01*
X-2889Y-1671D01*
X-2881Y-1651D01*
X-2872Y-1631D01*
X-2861Y-1613D01*
X-2848Y-1595D01*
X-2834Y-1578D01*
X-2820Y-1563D01*
X-2219D01*
X-2205Y-1578D01*
D02*
G37*
G36*
X-2390Y2035D02*
X-2368Y2032D01*
X-2347Y2028D01*
X-2326Y2022D01*
X-2305Y2014D01*
X-2285Y2005D01*
X-2267Y1994D01*
X-2248Y1982D01*
X-2231Y1969D01*
X-2216Y1954D01*
X-2201Y1938D01*
X-2187Y1920D01*
X-2175Y1902D01*
X-2165Y1883D01*
X-2156Y1863D01*
X-2149Y1843D01*
X-2143Y1822D01*
X-2139Y1800D01*
X-2137Y1779D01*
X-2136Y1757D01*
X-2137Y1735D01*
X-2140Y1714D01*
X-2144Y1692D01*
X-2151Y1671D01*
X-2159Y1651D01*
X-2168Y1631D01*
X-2179Y1613D01*
X-2191Y1595D01*
X-2205Y1578D01*
X-2219Y1563D01*
X-2820D01*
X-2834Y1578D01*
X-2848Y1595D01*
X-2861Y1613D01*
X-2872Y1631D01*
X-2881Y1651D01*
X-2889Y1671D01*
X-2895Y1692D01*
X-2899Y1714D01*
X-2902Y1735D01*
X-2903Y1757D01*
X-2903Y1779D01*
X-2900Y1800D01*
X-2896Y1822D01*
X-2891Y1843D01*
X-2883Y1863D01*
X-2874Y1883D01*
X-2864Y1902D01*
X-2852Y1920D01*
X-2839Y1938D01*
X-2824Y1954D01*
X-2808Y1969D01*
X-2791Y1982D01*
X-2773Y1994D01*
X-2754Y2005D01*
X-2734Y2014D01*
X-2714Y2022D01*
X-2693Y2028D01*
X-2671Y2032D01*
X-2650Y2035D01*
X-2628Y2035D01*
X-2411D01*
X-2390Y2035D01*
D02*
G37*
D63*
X-3125Y2247D02*
D03*
X-3495D02*
D03*
X445Y2939D02*
D03*
X815D02*
D03*
X1024Y-3346D02*
D03*
X1394D02*
D03*
D64*
X-1969Y-1280D02*
D03*
Y-1634D02*
D03*
X-1811Y-2539D02*
D03*
Y-2185D02*
D03*
D65*
X-2087D02*
D03*
X-2441D02*
D03*
X1398Y-3740D02*
D03*
X1043D02*
D03*
D69*
X-1825Y3877D02*
D03*
Y3507D02*
D03*
D71*
X4411Y-453D02*
D03*
X4667Y374D02*
D03*
X4155D02*
D03*
D79*
X-3701Y1780D02*
D03*
Y-1780D02*
D03*
D80*
X79Y1142D02*
D03*
D81*
X-3268Y2913D02*
D03*
D82*
X-2561Y3620D02*
D03*
X4055Y1280D02*
D03*
D83*
X2088Y-4132D02*
D03*
X2442Y-3779D02*
D03*
X2795Y-3425D02*
D03*
X3149Y-3072D02*
D03*
D84*
X3502Y-2718D02*
D03*
D85*
X2441Y3543D02*
D03*
D87*
X79Y2756D02*
D03*
X1209Y1358D02*
D03*
X1181Y-764D02*
D03*
X903Y-771D02*
D03*
X1839Y-3268D02*
D03*
X-787Y-2087D02*
D03*
X1693Y-1917D02*
D03*
X4136Y689D02*
D03*
X2205Y-236D02*
D03*
X472Y-1750D02*
D03*
X1035Y2795D02*
D03*
X551Y-3228D02*
D03*
X-1929Y-276D02*
D03*
X-1915Y384D02*
D03*
X-782Y1772D02*
D03*
X-1972Y-1009D02*
D03*
X3701Y-2224D02*
D03*
D88*
X-1161Y3937D02*
D03*
D89*
X1161D02*
D03*
D90*
X-2362Y295D02*
D03*
Y492D02*
D03*
Y689D02*
D03*
Y886D02*
D03*
Y1083D02*
D03*
Y1280D02*
D03*
Y1476D02*
D03*
Y-689D02*
D03*
Y-1476D02*
D03*
Y-1280D02*
D03*
Y-1083D02*
D03*
Y-886D02*
D03*
Y-492D02*
D03*
Y-295D02*
D03*
Y-98D02*
D03*
Y98D02*
D03*
D91*
X-1299Y-1673D02*
D03*
Y-1181D02*
D03*
Y-689D02*
D03*
X-1299Y-197D02*
D03*
X-1299Y295D02*
D03*
Y787D02*
D03*
X-1299Y1280D02*
D03*
X3425Y1280D02*
D03*
Y295D02*
D03*
X3425Y-197D02*
D03*
X3425Y-689D02*
D03*
Y-1181D02*
D03*
Y-1673D02*
D03*
D92*
X-413Y2165D02*
D03*
D93*
X79Y2224D02*
D03*
D94*
X571Y2165D02*
D03*
X2539Y-2559D02*
D03*
D95*
X1063Y2165D02*
D03*
X1555Y2165D02*
D03*
X2047D02*
D03*
X2539D02*
D03*
X2047Y-2559D02*
D03*
X1555D02*
D03*
X1063Y-2559D02*
D03*
X571D02*
D03*
X79D02*
D03*
X-413D02*
D03*
D96*
X3425Y787D02*
D03*
D97*
X-2756Y-3150D02*
D03*
M02*
