G04 Layer_Color=65535*
%FSLAX24Y24*%
%MOIN*%
G70*
G01*
G75*
%ADD29C,0.0079*%
%ADD31C,0.0098*%
%ADD34C,0.0100*%
%ADD60C,0.0039*%
%ADD61C,0.0060*%
D29*
X1764Y-3937D02*
Y-3701D01*
X976D02*
X1764D01*
X976Y-3937D02*
Y-3701D01*
Y-3937D02*
X1764D01*
X1575Y-2677D02*
X1811D01*
Y-1890D01*
X1575D02*
X1811D01*
X1575Y-2677D02*
Y-1890D01*
X2480Y-1299D02*
X2716D01*
X2480Y-2087D02*
Y-1299D01*
Y-2087D02*
X2716D01*
Y-1299D01*
X2638Y1418D02*
X3425D01*
X2638D02*
Y1654D01*
X3425D01*
Y1418D02*
Y1654D01*
X571Y3846D02*
X571Y3610D01*
X571Y3846D02*
X1713Y3846D01*
Y3610D02*
Y3846D01*
X571Y3610D02*
X1713D01*
X512Y3000D02*
Y3472D01*
X-1640Y4213D02*
X-184D01*
Y3031D02*
Y4213D01*
X-1640Y3031D02*
X-184D01*
X-1640D02*
Y4213D01*
X-2359Y4232D02*
X-1778D01*
X3998Y264D02*
X4785D01*
X3998D02*
Y500D01*
X4785Y500D01*
Y264D02*
Y500D01*
X-3927Y20D02*
X-3553D01*
Y1161D01*
X-3927D02*
X-3553D01*
X-3927Y20D02*
Y1161D01*
Y-1319D02*
X-3553D01*
Y-177D01*
X-3927D02*
X-3553D01*
X-3927Y-1319D02*
Y-177D01*
D31*
X848Y-4291D02*
G03*
X848Y-4291I-49J0D01*
G01*
X-1713Y-3091D02*
G03*
X-1713Y-3091I-49J0D01*
G01*
X1270Y-1713D02*
G03*
X1270Y-1713I-49J0D01*
G01*
X3120Y-2264D02*
G03*
X3120Y-2264I-49J0D01*
G01*
X2510Y1064D02*
G03*
X2510Y1064I-49J0D01*
G01*
X3999Y-420D02*
G03*
X3999Y-420I-49J0D01*
G01*
X-4341Y1280D02*
G03*
X-4341Y1280I-49J0D01*
G01*
Y-59D02*
G03*
X-4341Y-59I-49J0D01*
G01*
X-3796Y2380D02*
Y2695D01*
X-3954Y2537D02*
X-3639D01*
D34*
X4921Y-6045D02*
Y-110D01*
X-4661Y-6045D02*
Y-1680D01*
X130Y-5945D02*
X4921D01*
X-4661D02*
X130D01*
X4321Y-5745D02*
X4921Y-5945D01*
X4321Y-6145D02*
X4921Y-5945D01*
X-4661D02*
X-4061Y-6145D01*
X-4661Y-5945D02*
X-4061Y-5745D01*
D60*
X-1890Y-1024D02*
Y2913D01*
X2047D01*
Y-1024D02*
Y2913D01*
X-1890Y-1024D02*
X2047D01*
D61*
X-760Y-7047D02*
X-1160D01*
X-760Y-6647D01*
Y-6547D01*
X-860Y-6447D01*
X-1060D01*
X-1160Y-6547D01*
X-260Y-7047D02*
Y-6447D01*
X-560Y-6747D01*
X-160D01*
X140Y-7147D02*
X240Y-7047D01*
Y-6947D01*
X140D01*
Y-7047D01*
X240D01*
X140Y-7147D01*
X40Y-7247D01*
X640Y-6547D02*
X740Y-6447D01*
X939D01*
X1039Y-6547D01*
Y-6647D01*
X939Y-6747D01*
X839D01*
X939D01*
X1039Y-6847D01*
Y-6947D01*
X939Y-7047D01*
X740D01*
X640Y-6947D01*
X1539Y-7047D02*
Y-6447D01*
X1239Y-6747D01*
X1639D01*
M02*
