G04 Layer_Color=8388736*
%FSLAX24Y24*%
%MOIN*%
G70*
G01*
G75*
%ADD62R,0.0472X0.0256*%
%ADD63R,0.0268X0.0283*%
%ADD64R,0.0283X0.0283*%
%ADD65R,0.0283X0.0283*%
G04:AMPARAMS|DCode=66|XSize=66.9mil|YSize=33.5mil|CornerRadius=9.3mil|HoleSize=0mil|Usage=FLASHONLY|Rotation=0.000|XOffset=0mil|YOffset=0mil|HoleType=Round|Shape=RoundedRectangle|*
%AMROUNDEDRECTD66*
21,1,0.0669,0.0148,0,0,0.0*
21,1,0.0482,0.0335,0,0,0.0*
1,1,0.0187,0.0241,-0.0074*
1,1,0.0187,-0.0241,-0.0074*
1,1,0.0187,-0.0241,0.0074*
1,1,0.0187,0.0241,0.0074*
%
%ADD66ROUNDEDRECTD66*%
G04:AMPARAMS|DCode=67|XSize=59.1mil|YSize=33.5mil|CornerRadius=9.3mil|HoleSize=0mil|Usage=FLASHONLY|Rotation=0.000|XOffset=0mil|YOffset=0mil|HoleType=Round|Shape=RoundedRectangle|*
%AMROUNDEDRECTD67*
21,1,0.0591,0.0148,0,0,0.0*
21,1,0.0404,0.0335,0,0,0.0*
1,1,0.0187,0.0202,-0.0074*
1,1,0.0187,-0.0202,-0.0074*
1,1,0.0187,-0.0202,0.0074*
1,1,0.0187,0.0202,0.0074*
%
%ADD67ROUNDEDRECTD67*%
G04:AMPARAMS|DCode=68|XSize=66.9mil|YSize=35.4mil|CornerRadius=9.8mil|HoleSize=0mil|Usage=FLASHONLY|Rotation=0.000|XOffset=0mil|YOffset=0mil|HoleType=Round|Shape=RoundedRectangle|*
%AMROUNDEDRECTD68*
21,1,0.0669,0.0157,0,0,0.0*
21,1,0.0472,0.0354,0,0,0.0*
1,1,0.0197,0.0236,-0.0079*
1,1,0.0197,-0.0236,-0.0079*
1,1,0.0197,-0.0236,0.0079*
1,1,0.0197,0.0236,0.0079*
%
%ADD68ROUNDEDRECTD68*%
%ADD69R,0.0283X0.0268*%
%ADD70R,0.0413X0.0394*%
%ADD71R,0.0256X0.0374*%
G04:AMPARAMS|DCode=72|XSize=37.4mil|YSize=19.7mil|CornerRadius=0mil|HoleSize=0mil|Usage=FLASHONLY|Rotation=90.000|XOffset=0mil|YOffset=0mil|HoleType=Round|Shape=Octagon|*
%AMOCTAGOND72*
4,1,8,0.0049,0.0187,-0.0049,0.0187,-0.0098,0.0138,-0.0098,-0.0138,-0.0049,-0.0187,0.0049,-0.0187,0.0098,-0.0138,0.0098,0.0138,0.0049,0.0187,0.0*
%
%ADD72OCTAGOND72*%

%ADD73R,0.0620X0.0217*%
%ADD74R,0.0276X0.0512*%
G04:AMPARAMS|DCode=75|XSize=51.2mil|YSize=27.6mil|CornerRadius=7.9mil|HoleSize=0mil|Usage=FLASHONLY|Rotation=90.000|XOffset=0mil|YOffset=0mil|HoleType=Round|Shape=RoundedRectangle|*
%AMROUNDEDRECTD75*
21,1,0.0512,0.0118,0,0,90.0*
21,1,0.0354,0.0276,0,0,90.0*
1,1,0.0157,0.0059,0.0177*
1,1,0.0157,0.0059,-0.0177*
1,1,0.0157,-0.0059,-0.0177*
1,1,0.0157,-0.0059,0.0177*
%
%ADD75ROUNDEDRECTD75*%
%ADD76R,0.0374X0.0256*%
%ADD77R,0.0689X0.0984*%
%ADD78R,0.0335X0.0138*%
%ADD79O,0.0906X0.0472*%
%ADD80O,0.0039X0.0639*%
G04:AMPARAMS|DCode=81|XSize=63mil|YSize=63mil|CornerRadius=0mil|HoleSize=0mil|Usage=FLASHONLY|Rotation=45.000|XOffset=0mil|YOffset=0mil|HoleType=Round|Shape=Octagon|*
%AMOCTAGOND81*
4,1,8,0.0334,0.0111,0.0111,0.0334,-0.0111,0.0334,-0.0334,0.0111,-0.0334,-0.0111,-0.0111,-0.0334,0.0111,-0.0334,0.0334,-0.0111,0.0334,0.0111,0.0*
%
%ADD81OCTAGOND81*%

%ADD82C,0.0630*%
%ADD83C,0.0472*%
G04:AMPARAMS|DCode=84|XSize=47.2mil|YSize=47.2mil|CornerRadius=0mil|HoleSize=0mil|Usage=FLASHONLY|Rotation=225.000|XOffset=0mil|YOffset=0mil|HoleType=Round|Shape=Octagon|*
%AMOCTAGOND84*
4,1,8,-0.0251,-0.0084,-0.0084,-0.0251,0.0084,-0.0251,0.0251,-0.0084,0.0251,0.0084,0.0084,0.0251,-0.0084,0.0251,-0.0251,0.0084,-0.0251,-0.0084,0.0*
%
%ADD84OCTAGOND84*%

%ADD85C,0.1024*%
%ADD86C,0.1496*%
%ADD87C,0.0236*%
G36*
X-2205Y-1578D02*
X-2191Y-1595D01*
X-2179Y-1613D01*
X-2168Y-1631D01*
X-2159Y-1651D01*
X-2151Y-1671D01*
X-2144Y-1692D01*
X-2140Y-1714D01*
X-2137Y-1735D01*
X-2136Y-1757D01*
X-2137Y-1779D01*
X-2139Y-1800D01*
X-2143Y-1822D01*
X-2149Y-1843D01*
X-2156Y-1863D01*
X-2165Y-1883D01*
X-2175Y-1902D01*
X-2187Y-1920D01*
X-2201Y-1938D01*
X-2216Y-1954D01*
X-2231Y-1969D01*
X-2248Y-1982D01*
X-2267Y-1994D01*
X-2285Y-2005D01*
X-2305Y-2014D01*
X-2326Y-2022D01*
X-2347Y-2028D01*
X-2368Y-2032D01*
X-2390Y-2035D01*
X-2411Y-2035D01*
X-2628D01*
X-2650Y-2035D01*
X-2671Y-2032D01*
X-2693Y-2028D01*
X-2714Y-2022D01*
X-2734Y-2014D01*
X-2754Y-2005D01*
X-2773Y-1994D01*
X-2791Y-1982D01*
X-2808Y-1969D01*
X-2824Y-1954D01*
X-2839Y-1938D01*
X-2852Y-1920D01*
X-2864Y-1902D01*
X-2874Y-1883D01*
X-2883Y-1863D01*
X-2891Y-1843D01*
X-2896Y-1822D01*
X-2900Y-1800D01*
X-2903Y-1779D01*
X-2903Y-1757D01*
X-2902Y-1735D01*
X-2899Y-1714D01*
X-2895Y-1692D01*
X-2889Y-1671D01*
X-2881Y-1651D01*
X-2872Y-1631D01*
X-2861Y-1613D01*
X-2848Y-1595D01*
X-2834Y-1578D01*
X-2820Y-1563D01*
X-2219D01*
X-2205Y-1578D01*
D02*
G37*
G36*
X-2390Y2035D02*
X-2368Y2032D01*
X-2347Y2028D01*
X-2326Y2022D01*
X-2305Y2014D01*
X-2285Y2005D01*
X-2267Y1994D01*
X-2248Y1982D01*
X-2231Y1969D01*
X-2216Y1954D01*
X-2201Y1938D01*
X-2187Y1920D01*
X-2175Y1902D01*
X-2165Y1883D01*
X-2156Y1863D01*
X-2149Y1843D01*
X-2143Y1822D01*
X-2139Y1800D01*
X-2137Y1779D01*
X-2136Y1757D01*
X-2137Y1735D01*
X-2140Y1714D01*
X-2144Y1692D01*
X-2151Y1671D01*
X-2159Y1651D01*
X-2168Y1631D01*
X-2179Y1613D01*
X-2191Y1595D01*
X-2205Y1578D01*
X-2219Y1563D01*
X-2820D01*
X-2834Y1578D01*
X-2848Y1595D01*
X-2861Y1613D01*
X-2872Y1631D01*
X-2881Y1651D01*
X-2889Y1671D01*
X-2895Y1692D01*
X-2899Y1714D01*
X-2902Y1735D01*
X-2903Y1757D01*
X-2903Y1779D01*
X-2900Y1800D01*
X-2896Y1822D01*
X-2891Y1843D01*
X-2883Y1863D01*
X-2874Y1883D01*
X-2864Y1902D01*
X-2852Y1920D01*
X-2839Y1938D01*
X-2824Y1954D01*
X-2808Y1969D01*
X-2791Y1982D01*
X-2773Y1994D01*
X-2754Y2005D01*
X-2734Y2014D01*
X-2714Y2022D01*
X-2693Y2028D01*
X-2671Y2032D01*
X-2650Y2035D01*
X-2628Y2035D01*
X-2411D01*
X-2390Y2035D01*
D02*
G37*
D62*
X-3209Y-374D02*
D03*
Y-1122D02*
D03*
X-4272D02*
D03*
X-4272Y-748D02*
D03*
X-4272Y-374D02*
D03*
X-3209Y965D02*
D03*
Y217D02*
D03*
X-4272D02*
D03*
X-4272Y591D02*
D03*
X-4272Y965D02*
D03*
D63*
X2744Y-984D02*
D03*
X2374Y-984D02*
D03*
X-382Y-2165D02*
D03*
X-12Y-2165D02*
D03*
X4207Y-445D02*
D03*
X4577D02*
D03*
X-2492Y1370D02*
D03*
X-2862D02*
D03*
X-382Y-2559D02*
D03*
X-12D02*
D03*
X-382Y-1772D02*
D03*
X-12Y-1772D02*
D03*
X-382Y-1378D02*
D03*
X-12D02*
D03*
X-2508Y2862D02*
D03*
X-2138D02*
D03*
X3177Y433D02*
D03*
X2807D02*
D03*
X1996Y-2992D02*
D03*
X1626D02*
D03*
X1287D02*
D03*
X917D02*
D03*
X618Y-3622D02*
D03*
X248D02*
D03*
X618Y-4331D02*
D03*
X248D02*
D03*
Y-4685D02*
D03*
X618D02*
D03*
D64*
X-1782Y-1280D02*
D03*
X-1782Y-1634D02*
D03*
X2283Y1535D02*
D03*
Y1181D02*
D03*
X2638Y-413D02*
D03*
Y-59D02*
D03*
X2778Y2815D02*
D03*
Y2461D02*
D03*
X2501D02*
D03*
Y2815D02*
D03*
D65*
X-2898Y591D02*
D03*
X-3253D02*
D03*
X-2894Y2311D02*
D03*
X-3248D02*
D03*
X99Y4437D02*
D03*
X454D02*
D03*
X256Y-3976D02*
D03*
X610D02*
D03*
X-413Y-4685D02*
D03*
X-59D02*
D03*
D66*
X-1890Y2461D02*
D03*
Y-571D02*
D03*
Y59D02*
D03*
D67*
X-1850Y1831D02*
D03*
D68*
X-1890Y689D02*
D03*
X2047Y59D02*
D03*
Y-571D02*
D03*
Y689D02*
D03*
Y1831D02*
D03*
Y2461D02*
D03*
D69*
X3053Y-51D02*
D03*
X3053Y-421D02*
D03*
X-2559Y-382D02*
D03*
Y-12D02*
D03*
X-1384Y-1262D02*
D03*
X-1384Y-1632D02*
D03*
X866Y-2098D02*
D03*
Y-2469D02*
D03*
X3425Y-1878D02*
D03*
Y-1508D02*
D03*
X-1457Y-2980D02*
D03*
Y-2610D02*
D03*
X-1063Y-2980D02*
D03*
Y-2610D02*
D03*
D70*
X3612Y-315D02*
D03*
Y315D02*
D03*
D71*
X4136Y-32D02*
D03*
X4648D02*
D03*
X2776Y1123D02*
D03*
X3287D02*
D03*
X3031Y1949D02*
D03*
X1370Y-3406D02*
D03*
X1626Y-4232D02*
D03*
X1114D02*
D03*
D72*
X4392Y795D02*
D03*
D73*
X245Y4006D02*
D03*
Y3750D02*
D03*
Y3494D02*
D03*
Y3238D02*
D03*
X-2069D02*
D03*
Y3494D02*
D03*
Y3750D02*
D03*
Y4006D02*
D03*
D74*
X768Y4220D02*
D03*
X1142Y4220D02*
D03*
X1516Y3236D02*
D03*
X1142Y3236D02*
D03*
X768D02*
D03*
D75*
X1516Y4220D02*
D03*
D76*
X2185Y-1693D02*
D03*
X3012Y-1437D02*
D03*
Y-1949D02*
D03*
X2106Y-2283D02*
D03*
X1279Y-2539D02*
D03*
Y-2028D02*
D03*
D77*
X-1024Y-3780D02*
D03*
D78*
X-453Y-3337D02*
D03*
Y-3514D02*
D03*
X-453Y-3691D02*
D03*
Y-3868D02*
D03*
X-453Y-4045D02*
D03*
Y-4222D02*
D03*
X-1594D02*
D03*
Y-4045D02*
D03*
X-1594Y-3868D02*
D03*
X-1594Y-3691D02*
D03*
X-1594Y-3514D02*
D03*
Y-3337D02*
D03*
D79*
X-3701Y1780D02*
D03*
Y-1780D02*
D03*
D80*
X79Y1142D02*
D03*
D81*
X-3268Y2913D02*
D03*
D82*
X-2561Y3620D02*
D03*
X4055Y1280D02*
D03*
D83*
X2088Y-4132D02*
D03*
X2442Y-3779D02*
D03*
X2795Y-3425D02*
D03*
X3149Y-3072D02*
D03*
D84*
X3502Y-2718D02*
D03*
D85*
X2441Y3543D02*
D03*
D86*
X-2756Y-3150D02*
D03*
D87*
X79Y2756D02*
D03*
X1209Y1358D02*
D03*
X1181Y-764D02*
D03*
X903Y-771D02*
D03*
X1839Y-3268D02*
D03*
X-787Y-2087D02*
D03*
X1693Y-1917D02*
D03*
X4136Y689D02*
D03*
X2205Y-236D02*
D03*
X472Y-1750D02*
D03*
X1035Y2795D02*
D03*
X551Y-3228D02*
D03*
X-1929Y-276D02*
D03*
X-1915Y384D02*
D03*
X-782Y1772D02*
D03*
X-1972Y-1009D02*
D03*
X3701Y-2224D02*
D03*
M02*
