G04 Layer_Color=32896*
%FSLAX24Y24*%
%MOIN*%
G70*
G01*
G75*
%ADD37C,0.0079*%
%ADD39C,0.0059*%
%ADD41C,0.0098*%
%ADD44C,0.0100*%
%ADD112C,0.0200*%
%ADD113C,0.0050*%
D37*
X4549Y-406D02*
Y-169D01*
X3762Y-406D02*
X4549D01*
X3762D02*
Y-169D01*
X4549D01*
X-1831Y2362D02*
X-1398D01*
X-1831Y2992D02*
X-1398D01*
D39*
X-1241Y-3640D02*
G03*
X-1241Y-3640I-20J0D01*
G01*
X2078Y-3767D02*
G03*
X2078Y-3767I-20J0D01*
G01*
X2648Y-3351D02*
G03*
X2648Y-3351I-20J0D01*
G01*
X3840Y2031D02*
G03*
X3840Y2031I-20J0D01*
G01*
D41*
X-2835Y2520D02*
Y2782D01*
X-2703Y2651D02*
X-2966D01*
D44*
X-689Y3248D02*
X689D01*
X492Y4626D02*
X689D01*
X-689D02*
X-492D01*
X492D02*
Y4941D01*
X-492D02*
X492D01*
X-492Y4626D02*
Y4941D01*
D112*
X-1537Y-2297D02*
G03*
X-1537Y-2297I-100J0D01*
G01*
D113*
X-3130Y-1839D02*
X-3012D01*
X-3130Y1839D02*
X-3012D01*
X-4457D02*
X-4272D01*
X-4457Y-1839D02*
X-4272D01*
X-4457D02*
Y1839D01*
X-1287Y1653D02*
Y2153D01*
X-887Y2153D01*
X2963D02*
X3413D01*
X3413Y1653D02*
X3413Y2153D01*
X3413Y-2047D02*
X3413Y-2547D01*
X2963D02*
X3413D01*
X-1287D02*
X-1287Y-2047D01*
X-1287Y-2547D02*
X-837D01*
M02*
