G04 Layer_Physical_Order=1*
G04 Layer_Color=255*
%FSLAX24Y24*%
%MOIN*%
G70*
G01*
G75*
%ADD10R,0.0433X0.0217*%
%ADD11R,0.0228X0.0244*%
%ADD12R,0.0244X0.0244*%
%ADD13R,0.0244X0.0244*%
G04:AMPARAMS|DCode=14|XSize=63mil|YSize=29.5mil|CornerRadius=7.4mil|HoleSize=0mil|Usage=FLASHONLY|Rotation=0.000|XOffset=0mil|YOffset=0mil|HoleType=Round|Shape=RoundedRectangle|*
%AMROUNDEDRECTD14*
21,1,0.0630,0.0148,0,0,0.0*
21,1,0.0482,0.0295,0,0,0.0*
1,1,0.0148,0.0241,-0.0074*
1,1,0.0148,-0.0241,-0.0074*
1,1,0.0148,-0.0241,0.0074*
1,1,0.0148,0.0241,0.0074*
%
%ADD14ROUNDEDRECTD14*%
G04:AMPARAMS|DCode=15|XSize=55.1mil|YSize=29.5mil|CornerRadius=7.4mil|HoleSize=0mil|Usage=FLASHONLY|Rotation=0.000|XOffset=0mil|YOffset=0mil|HoleType=Round|Shape=RoundedRectangle|*
%AMROUNDEDRECTD15*
21,1,0.0551,0.0148,0,0,0.0*
21,1,0.0404,0.0295,0,0,0.0*
1,1,0.0148,0.0202,-0.0074*
1,1,0.0148,-0.0202,-0.0074*
1,1,0.0148,-0.0202,0.0074*
1,1,0.0148,0.0202,0.0074*
%
%ADD15ROUNDEDRECTD15*%
G04:AMPARAMS|DCode=16|XSize=63mil|YSize=31.5mil|CornerRadius=7.9mil|HoleSize=0mil|Usage=FLASHONLY|Rotation=0.000|XOffset=0mil|YOffset=0mil|HoleType=Round|Shape=RoundedRectangle|*
%AMROUNDEDRECTD16*
21,1,0.0630,0.0157,0,0,0.0*
21,1,0.0472,0.0315,0,0,0.0*
1,1,0.0157,0.0236,-0.0079*
1,1,0.0157,-0.0236,-0.0079*
1,1,0.0157,-0.0236,0.0079*
1,1,0.0157,0.0236,0.0079*
%
%ADD16ROUNDEDRECTD16*%
%ADD17R,0.0244X0.0228*%
%ADD18R,0.0374X0.0354*%
%ADD19R,0.0217X0.0335*%
G04:AMPARAMS|DCode=20|XSize=33.5mil|YSize=15.7mil|CornerRadius=0mil|HoleSize=0mil|Usage=FLASHONLY|Rotation=90.000|XOffset=0mil|YOffset=0mil|HoleType=Round|Shape=Octagon|*
%AMOCTAGOND20*
4,1,8,0.0039,0.0167,-0.0039,0.0167,-0.0079,0.0128,-0.0079,-0.0128,-0.0039,-0.0167,0.0039,-0.0167,0.0079,-0.0128,0.0079,0.0128,0.0039,0.0167,0.0*
%
%ADD20OCTAGOND20*%

%ADD21R,0.0581X0.0177*%
%ADD22R,0.0236X0.0472*%
G04:AMPARAMS|DCode=23|XSize=47.2mil|YSize=23.6mil|CornerRadius=5.9mil|HoleSize=0mil|Usage=FLASHONLY|Rotation=90.000|XOffset=0mil|YOffset=0mil|HoleType=Round|Shape=RoundedRectangle|*
%AMROUNDEDRECTD23*
21,1,0.0472,0.0118,0,0,90.0*
21,1,0.0354,0.0236,0,0,90.0*
1,1,0.0118,0.0059,0.0177*
1,1,0.0118,0.0059,-0.0177*
1,1,0.0118,-0.0059,-0.0177*
1,1,0.0118,-0.0059,0.0177*
%
%ADD23ROUNDEDRECTD23*%
%ADD24R,0.0335X0.0217*%
%ADD25R,0.0650X0.0945*%
%ADD26R,0.0295X0.0098*%
%ADD27C,0.0049*%
%ADD28C,0.0079*%
%ADD29C,0.0059*%
%ADD30C,0.0157*%
%ADD31C,0.0098*%
%ADD32C,0.0118*%
%ADD33C,0.0197*%
%ADD34C,0.0100*%
%ADD35O,0.0866X0.0433*%
%ADD36O,0.0591X0.0315*%
%ADD37O,0.0630X0.0315*%
G04:AMPARAMS|DCode=38|XSize=59.1mil|YSize=59.1mil|CornerRadius=0mil|HoleSize=0mil|Usage=FLASHONLY|Rotation=45.000|XOffset=0mil|YOffset=0mil|HoleType=Round|Shape=Octagon|*
%AMOCTAGOND38*
4,1,8,0.0313,0.0104,0.0104,0.0313,-0.0104,0.0313,-0.0313,0.0104,-0.0313,-0.0104,-0.0104,-0.0313,0.0104,-0.0313,0.0313,-0.0104,0.0313,0.0104,0.0*
%
%ADD38OCTAGOND38*%

%ADD39C,0.0591*%
%ADD40C,0.0433*%
G04:AMPARAMS|DCode=41|XSize=43.3mil|YSize=43.3mil|CornerRadius=0mil|HoleSize=0mil|Usage=FLASHONLY|Rotation=225.000|XOffset=0mil|YOffset=0mil|HoleType=Round|Shape=Octagon|*
%AMOCTAGOND41*
4,1,8,-0.0230,-0.0077,-0.0077,-0.0230,0.0077,-0.0230,0.0230,-0.0077,0.0230,0.0077,0.0077,0.0230,-0.0077,0.0230,-0.0230,0.0077,-0.0230,-0.0077,0.0*
%
%ADD41OCTAGOND41*%

%ADD42C,0.0984*%
%ADD43C,0.1457*%
%ADD44C,0.0197*%
G36*
X-1983Y-1480D02*
X-1983D01*
Y-1575D01*
X-1782D01*
Y-1634D01*
X-1723D01*
Y-1891D01*
X-1700Y-1933D01*
X-1739Y-2028D01*
X-1683Y-2163D01*
X-1665Y-2171D01*
X-1621Y-2295D01*
X-1648Y-2362D01*
X-1727Y-2427D01*
X-1756Y-2431D01*
X-2047Y-2139D01*
X-2153Y-2096D01*
X-2153Y-2096D01*
X-2761D01*
X-2951Y-1905D01*
Y-1646D01*
X-2734Y-1429D01*
X-1983D01*
Y-1480D01*
D02*
G37*
G36*
X4008Y-357D02*
Y-374D01*
X4014Y-388D01*
Y-646D01*
X4337D01*
X4403Y-744D01*
X4385Y-787D01*
X4441Y-923D01*
X4535Y-962D01*
X4367Y-1809D01*
X3884Y-2531D01*
X3787Y-2539D01*
X3744Y-2490D01*
X3770Y-2387D01*
X3836Y-2360D01*
X3893Y-2224D01*
X3836Y-2089D01*
X3701Y-2033D01*
X3626Y-1982D01*
Y-1785D01*
X3724Y-1766D01*
X3742Y-1809D01*
X3878Y-1865D01*
X4013Y-1809D01*
X4070Y-1673D01*
X4013Y-1538D01*
X3878Y-1481D01*
X3742Y-1538D01*
X3724Y-1581D01*
X3654Y-1567D01*
X3425D01*
Y-1508D01*
X3366D01*
Y-1315D01*
X3258D01*
Y-1250D01*
X3230D01*
X3184Y-1181D01*
X3128Y-1046D01*
X3109Y-1038D01*
Y-880D01*
X3136Y-854D01*
X3170Y-771D01*
X3170Y-771D01*
Y-614D01*
X3254D01*
Y-585D01*
X3346Y-571D01*
Y-571D01*
X3878D01*
Y-408D01*
X3976Y-343D01*
X4008Y-357D01*
D02*
G37*
G36*
X-3718Y829D02*
X-3583Y773D01*
X-3548Y787D01*
X-3453Y727D01*
Y404D01*
X-3504D01*
Y30D01*
X-3574Y-38D01*
X-3631Y-61D01*
X-3687Y-197D01*
X-3704Y-214D01*
X-3780Y-182D01*
X-3831Y-204D01*
X-3976D01*
Y-187D01*
X-4101D01*
Y30D01*
X-3976D01*
Y404D01*
X-3976Y404D01*
X-3976D01*
Y531D01*
X-4272D01*
Y650D01*
X-3976D01*
Y778D01*
X-3920Y853D01*
X-3728D01*
X-3718Y829D01*
D02*
G37*
G36*
X-3504Y-1266D02*
Y-1309D01*
X-3164D01*
X-3127Y-1400D01*
X-3206Y-1479D01*
X-3250Y-1585D01*
X-3250Y-1585D01*
Y-1967D01*
X-3250Y-1967D01*
X-3206Y-2073D01*
X-2928Y-2350D01*
X-2823Y-2394D01*
X-2823Y-2394D01*
X-2215D01*
X-2000Y-2609D01*
Y-3015D01*
X-2042Y-3118D01*
X-1986Y-3254D01*
X-1895Y-3291D01*
X-1900Y-3384D01*
X-1984Y-3430D01*
X-2120Y-3486D01*
X-2176Y-3622D01*
X-2120Y-3758D01*
X-2065Y-3780D01*
Y-3887D01*
X-2120Y-3910D01*
X-2162Y-4012D01*
X-2267Y-4061D01*
X-3342Y-3342D01*
X-3920Y-2478D01*
X-3891Y-2384D01*
X-3880Y-2380D01*
X-3824Y-2244D01*
X-3880Y-2109D01*
X-3932Y-2087D01*
X-4101Y-1918D01*
Y-1309D01*
X-3976D01*
Y-1293D01*
X-3740D01*
X-3620Y-1243D01*
X-3602Y-1225D01*
X-3504Y-1266D01*
D02*
G37*
G36*
X665Y-1957D02*
Y-2291D01*
Y-2661D01*
X959D01*
X972Y-2697D01*
X903Y-2791D01*
X724D01*
Y-2933D01*
X917D01*
Y-3051D01*
X724D01*
Y-3185D01*
X662Y-3211D01*
X637Y-3270D01*
X521Y-3293D01*
X425Y-3197D01*
X428Y-3189D01*
X372Y-3053D01*
X236Y-2997D01*
X102Y-3053D01*
X77Y-3062D01*
X-11Y-3066D01*
X-218Y-2858D01*
X-198Y-2760D01*
X181D01*
Y-2524D01*
X433Y-2272D01*
X466Y-2193D01*
Y-1946D01*
X472Y-1942D01*
X568Y-1902D01*
X665Y-1957D01*
D02*
G37*
G36*
X3342Y3342D02*
X4367Y1809D01*
X4402Y1634D01*
X4312Y1578D01*
X4055Y1684D01*
X3769Y1566D01*
X3650Y1280D01*
X3769Y993D01*
X3961Y914D01*
X3988Y796D01*
X3944Y689D01*
X4000Y553D01*
X4008Y550D01*
Y480D01*
X4045Y390D01*
X4130Y305D01*
X4092Y215D01*
X3949D01*
X3878Y281D01*
Y571D01*
X3573D01*
X3494Y604D01*
X3458D01*
Y877D01*
X3474D01*
Y1369D01*
X3361D01*
X3125Y1605D01*
X3166Y1703D01*
X3218D01*
Y2195D01*
X3202D01*
Y2207D01*
X3152Y2327D01*
X2978Y2501D01*
Y2756D01*
X2778D01*
Y2815D01*
X2718D01*
Y3016D01*
X2560D01*
Y2815D01*
X2501D01*
Y2756D01*
X2301D01*
Y2721D01*
X2283Y2710D01*
X1811D01*
X1690Y2660D01*
X1641Y2539D01*
Y2382D01*
X1690Y2261D01*
X1811Y2211D01*
X2283D01*
X2400Y2260D01*
X2737D01*
X2844Y2153D01*
Y1806D01*
X2776Y1728D01*
X2640Y1672D01*
X2584Y1536D01*
X2612Y1467D01*
X2589Y1369D01*
X2589D01*
Y877D01*
X2648D01*
Y686D01*
X2556Y618D01*
X2539Y625D01*
X2454Y696D01*
Y768D01*
X2404Y888D01*
X2439Y980D01*
X2484D01*
Y1122D01*
X2283D01*
X2083D01*
X2083Y980D01*
X2002Y938D01*
X1811D01*
X1690Y888D01*
X1661Y817D01*
X1547D01*
X1457Y779D01*
X1248Y571D01*
X1211Y480D01*
Y-552D01*
X1181Y-572D01*
X1046Y-628D01*
X1043Y-635D01*
X1039Y-635D01*
X903Y-579D01*
X768Y-635D01*
X765Y-641D01*
X669Y-660D01*
X-670Y678D01*
Y944D01*
X-572Y963D01*
X-434Y629D01*
X79Y417D01*
X591Y629D01*
X803Y1142D01*
X591Y1654D01*
X79Y1866D01*
X-434Y1654D01*
X-572Y1320D01*
X-670Y1340D01*
Y1626D01*
X-647Y1636D01*
X-590Y1772D01*
X-647Y1907D01*
X-782Y1963D01*
X-918Y1907D01*
X-974Y1772D01*
X-918Y1636D01*
X-905Y1631D01*
Y748D01*
X-1003Y707D01*
X-1076Y779D01*
X-1166Y817D01*
X-1503D01*
X-1533Y888D01*
X-1654Y938D01*
X-2126D01*
X-2247Y888D01*
X-2296Y768D01*
Y610D01*
X-2247Y490D01*
X-2181Y463D01*
X-2107Y384D01*
X-2171Y281D01*
X-2248Y250D01*
X-2268Y201D01*
X-2358Y181D01*
X-2358Y181D01*
X-2500D01*
Y-12D01*
X-2618D01*
Y207D01*
X-2624Y217D01*
X-2660Y304D01*
X-2680Y352D01*
X-2697Y390D01*
X-2697Y390D01*
X-2697Y390D01*
Y531D01*
X-2898D01*
Y650D01*
X-2697D01*
Y791D01*
X-2913D01*
Y1152D01*
X-2822Y1169D01*
X-2551D01*
Y1370D01*
Y1571D01*
X-3055D01*
Y1498D01*
X-3145Y1460D01*
X-3299Y1306D01*
X-3337Y1216D01*
Y1152D01*
X-3504D01*
Y1152D01*
X-3583Y1156D01*
X-3601Y1149D01*
X-3718Y1100D01*
X-3728Y1076D01*
X-3976D01*
Y1152D01*
X-4565D01*
Y1463D01*
X-4485Y1520D01*
X-4428Y1501D01*
X-4367Y1809D01*
X-3745Y2739D01*
X-3625Y2742D01*
X-3480Y2597D01*
X-3449Y2512D01*
X-3449Y2512D01*
X-3449D01*
X-3449Y2512D01*
Y2110D01*
X-2953D01*
Y2311D01*
Y2512D01*
X-3022D01*
X-3042Y2610D01*
X-2928Y2724D01*
X-2701D01*
Y2661D01*
X-2350D01*
X-2284Y2563D01*
X-2296Y2534D01*
Y2387D01*
X-2248Y2270D01*
X-2131Y2222D01*
X-1649D01*
X-1532Y2270D01*
X-1483Y2387D01*
Y2534D01*
X-1526Y2636D01*
X-1486Y2734D01*
X-1198D01*
X-1108Y2772D01*
X-826Y3053D01*
X-710Y3030D01*
X-687Y2975D01*
X-551Y2918D01*
X-543Y2922D01*
X-482Y2860D01*
X-392Y2823D01*
X-158D01*
X-113Y2756D01*
X-57Y2620D01*
X-31Y2610D01*
Y2486D01*
X2Y2407D01*
X1027Y1382D01*
X1017Y1358D01*
X1073Y1223D01*
X1209Y1167D01*
X1344Y1223D01*
X1400Y1358D01*
X1344Y1494D01*
X1209Y1550D01*
X1185Y1540D01*
X205Y2520D01*
X214Y2620D01*
X270Y2756D01*
X315Y2823D01*
X605D01*
X695Y2860D01*
X721Y2887D01*
X776Y2882D01*
X844Y2795D01*
X900Y2660D01*
X1035Y2604D01*
X1171Y2660D01*
X1274Y2651D01*
X1339Y2624D01*
X1474Y2680D01*
X1481Y2696D01*
X1551Y2725D01*
X1606Y2780D01*
X1644Y2871D01*
Y2921D01*
X1713D01*
Y3460D01*
X1713Y3523D01*
X1732Y3537D01*
X1868Y3593D01*
X1924Y3728D01*
X1868Y3864D01*
X1784Y3899D01*
X1781Y4007D01*
X1811Y4021D01*
X1947Y4077D01*
X1972Y4139D01*
X2094Y4177D01*
X3342Y3342D01*
D02*
G37*
%LPC*%
G36*
X-1841Y-1693D02*
X-1983D01*
Y-1835D01*
X-1841D01*
Y-1693D01*
D02*
G37*
G36*
X3626Y-1315D02*
X3484D01*
Y-1449D01*
X3626D01*
Y-1315D01*
D02*
G37*
G36*
X551Y408D02*
X416Y352D01*
X359Y217D01*
X416Y81D01*
X551Y25D01*
X687Y81D01*
X743Y217D01*
X687Y352D01*
X551Y408D01*
D02*
G37*
G36*
X-2693Y2512D02*
X-2835D01*
Y2370D01*
X-2693D01*
Y2512D01*
D02*
G37*
G36*
Y2252D02*
X-2835D01*
Y2110D01*
X-2693D01*
Y2252D01*
D02*
G37*
G36*
X2978Y3016D02*
X2837D01*
Y2874D01*
X2978D01*
Y3016D01*
D02*
G37*
G36*
X2442D02*
X2301D01*
Y2874D01*
X2442D01*
Y3016D01*
D02*
G37*
G36*
X2283Y2080D02*
X1811D01*
X1690Y2030D01*
X1641Y1909D01*
Y1752D01*
X1690Y1631D01*
X1766Y1600D01*
X1844Y1531D01*
X1900Y1396D01*
X2035Y1340D01*
X2083Y1253D01*
Y1240D01*
X2283D01*
X2484D01*
Y1335D01*
Y1736D01*
X2464D01*
X2454Y1752D01*
Y1909D01*
X2404Y2030D01*
X2283Y2080D01*
D02*
G37*
G36*
X-2299Y1311D02*
X-2433D01*
Y1169D01*
X-2299D01*
Y1311D01*
D02*
G37*
G36*
X-1649Y2070D02*
X-2052D01*
X-2169Y2021D01*
X-2217Y1905D01*
Y1757D01*
X-2169Y1640D01*
X-2052Y1592D01*
X-1649D01*
X-1532Y1640D01*
X-1484Y1757D01*
Y1905D01*
X-1532Y2021D01*
X-1649Y2070D01*
D02*
G37*
G36*
X-2299Y1571D02*
X-2433D01*
Y1429D01*
X-2299D01*
Y1571D01*
D02*
G37*
%LPD*%
D10*
X-3209Y-374D02*
D03*
Y-1122D02*
D03*
X-4272D02*
D03*
X-4272Y-748D02*
D03*
X-4272Y-374D02*
D03*
X-3209Y965D02*
D03*
Y217D02*
D03*
X-4272D02*
D03*
X-4272Y591D02*
D03*
X-4272Y965D02*
D03*
D11*
X2744Y-984D02*
D03*
X2374Y-984D02*
D03*
X-382Y-2165D02*
D03*
X-12Y-2165D02*
D03*
X4207Y-445D02*
D03*
X4577D02*
D03*
X-2492Y1370D02*
D03*
X-2862D02*
D03*
X-382Y-2559D02*
D03*
X-12D02*
D03*
X-382Y-1772D02*
D03*
X-12Y-1772D02*
D03*
X-382Y-1378D02*
D03*
X-12D02*
D03*
X-2508Y2862D02*
D03*
X-2138D02*
D03*
X3177Y433D02*
D03*
X2807D02*
D03*
X1996Y-2992D02*
D03*
X1626D02*
D03*
X1287D02*
D03*
X917D02*
D03*
X618Y-3622D02*
D03*
X248D02*
D03*
X618Y-4331D02*
D03*
X248D02*
D03*
Y-4685D02*
D03*
X618D02*
D03*
D12*
X-1782Y-1280D02*
D03*
X-1782Y-1634D02*
D03*
X2283Y1535D02*
D03*
Y1181D02*
D03*
X2638Y-413D02*
D03*
Y-59D02*
D03*
X2778Y2815D02*
D03*
Y2461D02*
D03*
X2501D02*
D03*
Y2815D02*
D03*
D13*
X-2898Y591D02*
D03*
X-3253D02*
D03*
X-2894Y2311D02*
D03*
X-3248D02*
D03*
X99Y4437D02*
D03*
X454D02*
D03*
X256Y-3976D02*
D03*
X610D02*
D03*
X-413Y-4685D02*
D03*
X-59D02*
D03*
D14*
X-1890Y2461D02*
D03*
Y-571D02*
D03*
Y59D02*
D03*
D15*
X-1850Y1831D02*
D03*
D16*
X-1890Y689D02*
D03*
X2047Y59D02*
D03*
Y-571D02*
D03*
Y689D02*
D03*
Y1831D02*
D03*
Y2461D02*
D03*
D17*
X3053Y-51D02*
D03*
X3053Y-421D02*
D03*
X-2559Y-382D02*
D03*
Y-12D02*
D03*
X-1384Y-1262D02*
D03*
X-1384Y-1632D02*
D03*
X866Y-2098D02*
D03*
Y-2469D02*
D03*
X3425Y-1878D02*
D03*
Y-1508D02*
D03*
X-1457Y-2980D02*
D03*
Y-2610D02*
D03*
X-1063Y-2980D02*
D03*
Y-2610D02*
D03*
D18*
X3612Y-315D02*
D03*
Y315D02*
D03*
D19*
X4136Y-32D02*
D03*
X4648D02*
D03*
X2776Y1123D02*
D03*
X3287D02*
D03*
X3031Y1949D02*
D03*
X1370Y-3406D02*
D03*
X1626Y-4232D02*
D03*
X1114D02*
D03*
D20*
X4392Y795D02*
D03*
D21*
X245Y4006D02*
D03*
Y3750D02*
D03*
Y3494D02*
D03*
Y3238D02*
D03*
X-2069D02*
D03*
Y3494D02*
D03*
Y3750D02*
D03*
Y4006D02*
D03*
D22*
X768Y4220D02*
D03*
X1142Y4220D02*
D03*
X1516Y3236D02*
D03*
X1142Y3236D02*
D03*
X768D02*
D03*
D23*
X1516Y4220D02*
D03*
D24*
X2185Y-1693D02*
D03*
X3012Y-1437D02*
D03*
Y-1949D02*
D03*
X2106Y-2283D02*
D03*
X1279Y-2539D02*
D03*
Y-2028D02*
D03*
D25*
X-1024Y-3780D02*
D03*
D26*
X-453Y-3337D02*
D03*
Y-3514D02*
D03*
X-453Y-3691D02*
D03*
Y-3868D02*
D03*
X-453Y-4045D02*
D03*
Y-4222D02*
D03*
X-1594D02*
D03*
Y-4045D02*
D03*
X-1594Y-3868D02*
D03*
X-1594Y-3691D02*
D03*
X-1594Y-3514D02*
D03*
Y-3337D02*
D03*
D27*
X81Y2486D02*
Y2756D01*
X79Y2756D02*
X79Y2756D01*
X81D01*
Y2486D02*
X1209Y1358D01*
X354Y-1868D02*
X472Y-1750D01*
X354Y-2193D02*
Y-1868D01*
X-12Y-2559D02*
X354Y-2193D01*
X383Y-1516D02*
X844D01*
X-12Y-2165D02*
X224Y-1929D01*
Y-1675D02*
X383Y-1516D01*
X224Y-1929D02*
Y-1675D01*
X945Y-1750D02*
Y-1617D01*
X844Y-1516D02*
X945Y-1617D01*
X987Y-1417D02*
X1125Y-1555D01*
X342Y-1417D02*
X987D01*
X-12Y-1772D02*
X342Y-1417D01*
X-1637Y-1009D02*
X-1384Y-1262D01*
X-1972Y-1009D02*
X-1637D01*
X118Y-827D02*
X610Y-1319D01*
X2323D01*
X2953Y-1949D01*
X3012D01*
X3354D02*
X3425Y-1878D01*
X3012Y-1949D02*
X3354D01*
X-4272Y965D02*
X-3583D01*
X-20Y-1370D02*
X-12Y-1378D01*
X-20Y-1370D02*
Y-1083D01*
D28*
X605Y2951D02*
X768Y3114D01*
X-551Y3110D02*
X-392Y2951D01*
X605D01*
X1602Y-3425D02*
X1614Y-3437D01*
X-108Y-3868D02*
X0Y-3976D01*
X-453Y-3868D02*
X-108D01*
X0Y-3976D02*
X256D01*
X618Y-3622D02*
Y-3571D01*
X236Y-3189D02*
X618Y-3571D01*
X1602Y-3425D02*
X1614D01*
X1390D02*
X1602D01*
X1370Y-3406D02*
X1390Y-3425D01*
X-1037Y-1837D02*
X-787Y-2087D01*
X-1384Y-1632D02*
X-1179Y-1837D01*
X-1037D01*
X-1153Y-2520D02*
Y-2362D01*
Y-2520D02*
X-1063Y-2610D01*
X4154Y689D02*
Y735D01*
X4136Y480D02*
X4648Y-32D01*
X4136Y480D02*
Y689D01*
Y717D01*
X4154Y735D01*
X1339Y2816D02*
X1461D01*
X1516Y2871D01*
X1035Y2795D02*
X1142Y2902D01*
Y3236D01*
X2539Y433D02*
X2807D01*
X1547Y689D02*
X2047D01*
X1339Y480D02*
X1547Y689D01*
X1339Y-591D02*
Y480D01*
Y-591D02*
X1732Y-984D01*
X2374D01*
X2776Y465D02*
X2807Y433D01*
X2776Y465D02*
Y1123D01*
X-1280Y-571D02*
X-906Y-945D01*
X-1890Y-571D02*
X-1280D01*
X-734Y-1419D02*
X-382Y-1772D01*
X-734Y-1419D02*
Y-427D01*
X-1221Y59D02*
X-734Y-427D01*
X-1890Y59D02*
X-1221D01*
X-1890Y689D02*
X-1166D01*
X-591Y114D01*
Y-1169D02*
Y114D01*
Y-1169D02*
X-382Y-1378D01*
X-2708Y-689D02*
Y-531D01*
X-2559Y-382D01*
X-3054Y1370D02*
X-2862D01*
X-3209Y1216D02*
X-3054Y1370D01*
X-3209Y965D02*
Y1216D01*
X-136Y4004D02*
X-58D01*
X-1547Y3138D02*
X-1378D01*
X-1646Y3237D02*
X-1547Y3138D01*
X-648Y3413D02*
Y3728D01*
X-1198Y2862D02*
X-648Y3413D01*
X-2138Y2862D02*
X-1198D01*
X301Y4220D02*
X768D01*
X99Y4422D02*
X301Y4220D01*
X4136Y-374D02*
Y-32D01*
Y-374D02*
X4207Y-445D01*
X-197Y3138D02*
X-98Y3237D01*
X312D01*
X-2001D02*
X-1646D01*
X-58Y4004D02*
X312D01*
X-97Y3965D02*
X-57Y4004D01*
X-58Y4004D02*
X-57Y4004D01*
X-949Y4280D02*
X-648D01*
X-1224Y4004D02*
X-949Y4280D01*
X-2001Y4004D02*
X-1224D01*
X99Y4422D02*
Y4437D01*
X768Y3114D02*
Y3236D01*
X454Y4437D02*
X562Y4545D01*
X1125D01*
Y4348D02*
Y4545D01*
X1516Y2871D02*
Y3236D01*
X1125Y4545D02*
X1286D01*
X618Y-4331D02*
X827D01*
X-59Y-4685D02*
X248D01*
X-453Y-4222D02*
X-69D01*
X39Y-4331D01*
X248D01*
X-157Y-4587D02*
X-59Y-4685D01*
X-157Y-4587D02*
Y-4409D01*
X-453Y-3691D02*
X-138D01*
X-69Y-3622D01*
X248D01*
X-1594Y-3337D02*
Y-3118D01*
X-1457Y-2980D01*
X-453Y-3337D02*
Y-3169D01*
X-642Y-2980D02*
X-453Y-3169D01*
X-1063Y-2980D02*
X-642D01*
X-1876Y-3514D02*
X-1594D01*
X-1915Y-3691D02*
X-1594D01*
X-1984Y-3622D02*
X-1876Y-3514D01*
X-1984Y-3622D02*
X-1915Y-3691D01*
X1114Y-4232D02*
X1327D01*
X-1457Y-2610D02*
Y-2362D01*
X-906Y-1466D02*
Y-945D01*
X-591Y-1957D02*
X-382Y-2165D01*
X-591Y-1957D02*
Y-1781D01*
X-906Y-1466D02*
X-591Y-1781D01*
D29*
X1748Y-3177D02*
X1839Y-3268D01*
X1626Y-2992D02*
X1748Y-3114D01*
Y-3177D02*
Y-3114D01*
X-787Y630D02*
Y1766D01*
X-782Y1772D01*
X3053Y-771D02*
Y-421D01*
X2992Y-832D02*
X3053Y-771D01*
X2992Y-1181D02*
Y-832D01*
X2744Y-984D02*
Y-711D01*
X1287Y-2992D02*
X1626D01*
X3053Y-51D02*
X3317Y-315D01*
X3612D01*
X1286Y4545D02*
X1622D01*
X1811Y4213D02*
Y4356D01*
X1622Y4545D02*
X1811Y4356D01*
X903Y-1061D02*
X1535D01*
X-787Y630D02*
X903Y-1061D01*
D30*
X-1547Y-2028D02*
X-1167D01*
X-636Y-2559D02*
X-382D01*
X-1167Y-2028D02*
X-636Y-2559D01*
X2047Y59D02*
X2205Y-98D01*
Y-236D02*
Y-98D01*
X551Y-3228D02*
X709Y-3071D01*
X839D02*
X917Y-2992D01*
X709Y-3071D02*
X839D01*
X-2492Y1370D02*
Y2141D01*
X-2662Y2311D02*
X-2492Y2141D01*
X-2894Y2311D02*
X-2662D01*
X2776Y1536D02*
X2953D01*
X3287Y1201D01*
Y1123D02*
Y1201D01*
X-2492Y323D02*
Y591D01*
X-2559Y256D02*
X-2492Y323D01*
X-2559Y-12D02*
Y256D01*
X-2492Y591D02*
Y1370D01*
X-2898Y591D02*
X-2492D01*
X-2898D02*
X-2864Y556D01*
X2778Y2461D02*
X3031Y2207D01*
Y1949D02*
Y2207D01*
X3307Y433D02*
X3494D01*
X3287Y453D02*
X3307Y433D01*
X3287Y453D02*
Y1123D01*
X3494Y433D02*
X3612Y315D01*
X3354Y-1437D02*
X3425Y-1508D01*
X3012Y-1437D02*
X3354D01*
X2734D02*
X3012D01*
X-4272Y-1988D02*
X-4016Y-2244D01*
X-4272Y-1988D02*
Y-1122D01*
X-3661Y-1043D02*
Y-492D01*
X-3740Y-1122D02*
X-3661Y-1043D01*
X-4272Y-1122D02*
X-3740D01*
X-3780Y-374D02*
X-3661Y-492D01*
X-4272Y-374D02*
X-3780D01*
X-4272D02*
Y217D01*
X-2776Y-1780D02*
X-2748D01*
X-293Y3493D02*
X312D01*
Y3748D01*
X-2001D02*
X-1179D01*
X-923Y4004D01*
X-569D01*
X-136Y4437D01*
X99D01*
X-2489Y3692D02*
X-2433Y3748D01*
X-2489Y3692D02*
X-2289Y3493D01*
X-2001D01*
X-2433Y3748D02*
X-2001D01*
X-1826Y-1634D02*
X-1782D01*
X-1972Y-1780D02*
X-1826Y-1634D01*
X-2520Y-1780D02*
X-1972D01*
X2047Y2461D02*
X2501D01*
X2778D01*
X610Y-3976D02*
X866D01*
X618Y-4685D02*
X906D01*
X1063Y-4528D02*
X1352D01*
X1626Y-4253D01*
Y-4232D01*
X906Y-4685D02*
X1063Y-4528D01*
X1626Y-4232D02*
X1726Y-4132D01*
X2088D01*
D31*
X1693Y-2217D02*
Y-1917D01*
X1370Y-2539D02*
X1693Y-2217D01*
X1279Y-2539D02*
X1370D01*
X2598Y-2224D02*
X3701D01*
X2291Y-1917D02*
X2598Y-2224D01*
X1693Y-1917D02*
X2291D01*
X-3248Y2894D02*
X-3217Y2862D01*
X-2508D01*
X866Y-2469D02*
X1209D01*
X1279Y-2539D01*
X4577Y-787D02*
Y-445D01*
X2047Y1831D02*
X2250D01*
X2283Y1797D01*
Y1535D02*
Y1797D01*
X2039Y1535D02*
X2283D01*
X2035Y1531D02*
X2039Y1535D01*
X-1807Y-3868D02*
X-1594D01*
X-1984Y-4045D02*
X-1807Y-3868D01*
X-1594Y-4045D02*
X-1289D01*
X-1024Y-3780D01*
D32*
X1949Y-1457D02*
X2185Y-1693D01*
X1632Y-1457D02*
X1949D01*
X1279Y-1809D02*
X1632Y-1457D01*
X1279Y-2028D02*
Y-1809D01*
X2106Y-2500D02*
Y-2283D01*
X1996Y-2610D02*
X2106Y-2500D01*
X1996Y-2992D02*
Y-2610D01*
X937Y-2028D02*
X1279D01*
X866Y-2098D02*
X937Y-2028D01*
X-4272Y-748D02*
X-3898D01*
X-4272Y591D02*
X-3965D01*
X1596Y59D02*
X2047D01*
X2480Y-571D02*
X2638Y-413D01*
X2047Y-571D02*
X2480D01*
X2520Y59D02*
X2638Y-59D01*
X2047Y59D02*
X2520D01*
X-2520Y-1780D02*
X-2448Y-1708D01*
X-2645Y-1654D02*
X-2520Y-1780D01*
X797Y-3346D02*
X1230Y-3779D01*
X1812D01*
X2872Y-2718D01*
X3502D01*
X-382Y-2905D02*
Y-2559D01*
Y-2905D02*
X-97Y-3191D01*
Y-3386D02*
Y-3191D01*
X-2795Y-1280D02*
Y-1024D01*
Y-1280D02*
X-1782D01*
X-3100Y-1585D02*
X-2795Y-1280D01*
X-3100Y-1967D02*
Y-1585D01*
Y-1967D02*
X-2823Y-2245D01*
X-2153D01*
X-1850Y-2547D01*
Y-3118D02*
Y-2547D01*
X-669Y-4685D02*
X-413D01*
X-787Y-4567D02*
X-669Y-4685D01*
D33*
X-3495Y-197D02*
X-3318Y-374D01*
X-3209D01*
X-3268Y2913D02*
X-3248Y2894D01*
Y2311D02*
Y2894D01*
X-3209Y217D02*
Y547D01*
X-3253Y591D02*
X-3209Y547D01*
Y-39D02*
Y217D01*
X2501Y2815D02*
X2778D01*
X2501D02*
Y3483D01*
X2441Y3543D02*
X2501Y3483D01*
D34*
X6063Y1841D02*
X6263D01*
X6163D01*
Y2440D01*
X6063Y2340D01*
X6563Y1841D02*
Y1941D01*
X6663D01*
Y1841D01*
X6563D01*
X7662Y2440D02*
X8062D01*
X7862D01*
Y1841D01*
X8362D02*
X8562D01*
X8662Y1941D01*
Y2140D01*
X8562Y2240D01*
X8362D01*
X8262Y2140D01*
Y1941D01*
X8362Y1841D01*
X8862Y1641D02*
Y2240D01*
X9162D01*
X9262Y2140D01*
Y1941D01*
X9162Y1841D01*
X8862D01*
D35*
X-3701Y1780D02*
D03*
Y-1780D02*
D03*
D36*
X-2520Y1780D02*
D03*
D37*
Y-1780D02*
D03*
D38*
X-3268Y2913D02*
D03*
D39*
X-2561Y3620D02*
D03*
X4055Y1280D02*
D03*
D40*
X2088Y-4132D02*
D03*
X2442Y-3779D02*
D03*
X2795Y-3425D02*
D03*
X3149Y-3072D02*
D03*
D41*
X3502Y-2718D02*
D03*
D42*
X2441Y3543D02*
D03*
D43*
X-2756Y-3150D02*
D03*
D44*
X79Y2756D02*
D03*
X1209Y1358D02*
D03*
X-551Y3110D02*
D03*
X1181Y-764D02*
D03*
X903Y-771D02*
D03*
X0Y-3976D02*
D03*
X1614Y-3425D02*
D03*
X1839Y-3268D02*
D03*
X-787Y-2087D02*
D03*
X-1153Y-2362D02*
D03*
X1693Y-1917D02*
D03*
X4136Y689D02*
D03*
X2205Y-236D02*
D03*
X472Y-1750D02*
D03*
X1339Y2816D02*
D03*
X1035Y2795D02*
D03*
X551Y-3228D02*
D03*
X236Y-3189D02*
D03*
X-1929Y-276D02*
D03*
X-1915Y384D02*
D03*
X-782Y1772D02*
D03*
X-1972Y-1009D02*
D03*
X3701Y-2224D02*
D03*
X2539Y433D02*
D03*
X3878Y-1673D02*
D03*
X2992Y-1181D02*
D03*
X1732Y3728D02*
D03*
X2776Y1536D02*
D03*
X551Y217D02*
D03*
X-3495Y-197D02*
D03*
X-3780Y-374D02*
D03*
X-2795Y-1024D02*
D03*
X118Y-827D02*
D03*
X2744Y-711D02*
D03*
X2734Y-1437D02*
D03*
X-394Y-689D02*
D03*
X-315Y-354D02*
D03*
X4577Y-787D02*
D03*
X-4016Y-2244D02*
D03*
X-3898Y-748D02*
D03*
X-3965Y591D02*
D03*
X-3209Y-39D02*
D03*
X-2708Y-689D02*
D03*
X-136Y4004D02*
D03*
X-1378Y3138D02*
D03*
X4628Y735D02*
D03*
X1596Y59D02*
D03*
X2982Y787D02*
D03*
X-197Y3138D02*
D03*
X-293Y3493D02*
D03*
X-648Y3728D02*
D03*
Y4280D02*
D03*
X1811Y4213D02*
D03*
X-1024Y2138D02*
D03*
X2035Y1531D02*
D03*
X827Y-4331D02*
D03*
X-157Y-4409D02*
D03*
X-1984Y-3622D02*
D03*
X-3583Y965D02*
D03*
X866Y-3976D02*
D03*
X1327Y-4232D02*
D03*
X797Y-3346D02*
D03*
X1125Y-1555D02*
D03*
X945Y-1750D02*
D03*
X1535Y-1061D02*
D03*
X-20Y-1083D02*
D03*
X-97Y-3386D02*
D03*
X-1457Y-2362D02*
D03*
X-2816Y217D02*
D03*
X-2835Y-197D02*
D03*
X-1547Y-2028D02*
D03*
X-1850Y-3118D02*
D03*
X-787Y-4567D02*
D03*
X-1984Y-4045D02*
D03*
X-827Y-4094D02*
D03*
X-1224Y-3425D02*
D03*
X-827D02*
D03*
X-1224Y-4094D02*
D03*
M02*
