G04 Layer_Color=2752767*
%FSLAX24Y24*%
%MOIN*%
G70*
G01*
G75*
%ADD101C,0.0020*%
%ADD102C,0.0027*%
D101*
X-2836Y-3230D02*
Y-3070D01*
X-2676D01*
Y-3230D01*
X-2836D01*
X2361Y3463D02*
Y3623D01*
X2521D01*
Y3463D01*
X2361D01*
X3502Y-2798D02*
X3422Y-2638D01*
X3582D01*
X3502Y-2798D01*
X3149Y-3152D02*
X3069Y-2992D01*
X3229D01*
X3149Y-3152D01*
X2795Y-3505D02*
X2715Y-3345D01*
X2875D01*
X2795Y-3505D01*
X2442Y-3859D02*
X2362Y-3699D01*
X2522D01*
X2442Y-3859D01*
X2088Y-4212D02*
X2008Y-4052D01*
X2168D01*
X2088Y-4212D01*
X79Y1062D02*
X119Y1102D01*
X159D01*
X119Y1142D01*
X159Y1182D01*
X119D01*
X79Y1222D01*
X39Y1182D01*
X-1D01*
X39Y1142D01*
X-1Y1102D01*
X39D01*
X79Y1062D01*
X-2600Y-1860D02*
X-2560Y-1780D01*
X-2600Y-1700D01*
X-2520Y-1740D01*
X-2440Y-1700D01*
X-2480Y-1780D01*
X-2440Y-1860D01*
X-2520Y-1820D01*
X-2600Y-1860D01*
Y1700D02*
X-2560Y1780D01*
X-2600Y1860D01*
X-2520Y1820D01*
X-2440Y1860D01*
X-2480Y1780D01*
X-2440Y1700D01*
X-2520Y1740D01*
X-2600Y1700D01*
X-3741Y-1820D02*
Y-1860D01*
X-3661D01*
Y-1820D01*
X-3621D01*
Y-1740D01*
X-3661D01*
Y-1700D01*
X-3741D01*
Y-1740D01*
X-3781D01*
Y-1820D01*
X-3741D01*
Y1740D02*
Y1700D01*
X-3661D01*
Y1740D01*
X-3621D01*
Y1820D01*
X-3661D01*
Y1860D01*
X-3741D01*
Y1820D01*
X-3781D01*
Y1740D01*
X-3741D01*
X-3702Y1219D02*
X-3662D01*
X-3622Y1259D01*
X-3582Y1219D01*
X-3542D01*
Y1259D01*
X-3582Y1299D01*
X-3542Y1339D01*
Y1379D01*
X-3582D01*
X-3622Y1339D01*
X-3662Y1379D01*
X-3702D01*
Y1339D01*
X-3662Y1299D01*
X-3702Y1259D01*
Y1219D01*
X-2549Y2167D02*
X-2509D01*
X-2469Y2207D01*
X-2429Y2167D01*
X-2389D01*
Y2207D01*
X-2429Y2247D01*
X-2389Y2287D01*
Y2327D01*
X-2429D01*
X-2469Y2287D01*
X-2509Y2327D01*
X-2549D01*
Y2287D01*
X-2509Y2247D01*
X-2549Y2207D01*
Y2167D01*
X-454Y-592D02*
X-414D01*
X-374Y-552D01*
X-334Y-592D01*
X-294D01*
Y-552D01*
X-334Y-512D01*
X-294Y-472D01*
Y-432D01*
X-334D01*
X-374Y-472D01*
X-414Y-432D01*
X-454D01*
Y-472D01*
X-414Y-512D01*
X-454Y-552D01*
Y-592D01*
X-237Y-375D02*
X-197D01*
X-157Y-335D01*
X-117Y-375D01*
X-77D01*
Y-335D01*
X-117Y-295D01*
X-77Y-255D01*
Y-215D01*
X-117D01*
X-157Y-255D01*
X-197Y-215D01*
X-237D01*
Y-255D01*
X-197Y-295D01*
X-237Y-335D01*
Y-375D01*
X-1340Y1731D02*
X-1300D01*
X-1260Y1771D01*
X-1220Y1731D01*
X-1180D01*
Y1771D01*
X-1220Y1811D01*
X-1180Y1851D01*
Y1891D01*
X-1220D01*
X-1260Y1851D01*
X-1300Y1891D01*
X-1340D01*
Y1851D01*
X-1300Y1811D01*
X-1340Y1771D01*
Y1731D01*
X2125Y-237D02*
X2165D01*
X2205Y-197D01*
X2245Y-237D01*
X2285D01*
Y-197D01*
X2245Y-157D01*
X2285Y-117D01*
Y-77D01*
X2245D01*
X2205Y-117D01*
X2165Y-77D01*
X2125D01*
Y-117D01*
X2165Y-157D01*
X2125Y-197D01*
Y-237D01*
X-1054Y2694D02*
X-1014D01*
X-974Y2734D01*
X-934Y2694D01*
X-894D01*
Y2734D01*
X-934Y2774D01*
X-894Y2814D01*
Y2854D01*
X-934D01*
X-974Y2814D01*
X-1014Y2854D01*
X-1054D01*
Y2814D01*
X-1014Y2774D01*
X-1054Y2734D01*
Y2694D01*
X-1304Y-4174D02*
X-1264D01*
X-1224Y-4134D01*
X-1184Y-4174D01*
X-1144D01*
Y-4134D01*
X-1184Y-4094D01*
X-1144Y-4054D01*
Y-4014D01*
X-1184D01*
X-1224Y-4054D01*
X-1264Y-4014D01*
X-1304D01*
Y-4054D01*
X-1264Y-4094D01*
X-1304Y-4134D01*
Y-4174D01*
X-907Y-3505D02*
X-867D01*
X-827Y-3465D01*
X-787Y-3505D01*
X-747D01*
Y-3465D01*
X-787Y-3425D01*
X-747Y-3385D01*
Y-3345D01*
X-787D01*
X-827Y-3385D01*
X-867Y-3345D01*
X-907D01*
Y-3385D01*
X-867Y-3425D01*
X-907Y-3465D01*
Y-3505D01*
X-1304D02*
X-1264D01*
X-1224Y-3465D01*
X-1184Y-3505D01*
X-1144D01*
Y-3465D01*
X-1184Y-3425D01*
X-1144Y-3385D01*
Y-3345D01*
X-1184D01*
X-1224Y-3385D01*
X-1264Y-3345D01*
X-1304D01*
Y-3385D01*
X-1264Y-3425D01*
X-1304Y-3465D01*
Y-3505D01*
X-907Y-4174D02*
X-867D01*
X-827Y-4134D01*
X-787Y-4174D01*
X-747D01*
Y-4134D01*
X-787Y-4094D01*
X-747Y-4054D01*
Y-4014D01*
X-787D01*
X-827Y-4054D01*
X-867Y-4014D01*
X-907D01*
Y-4054D01*
X-867Y-4094D01*
X-907Y-4134D01*
Y-4174D01*
X-2064Y-4125D02*
X-2024D01*
X-1984Y-4085D01*
X-1944Y-4125D01*
X-1904D01*
Y-4085D01*
X-1944Y-4045D01*
X-1904Y-4005D01*
Y-3965D01*
X-1944D01*
X-1984Y-4005D01*
X-2024Y-3965D01*
X-2064D01*
Y-4005D01*
X-2024Y-4045D01*
X-2064Y-4085D01*
Y-4125D01*
X-867Y-4647D02*
X-827D01*
X-787Y-4607D01*
X-747Y-4647D01*
X-707D01*
Y-4607D01*
X-747Y-4567D01*
X-707Y-4527D01*
Y-4487D01*
X-747D01*
X-787Y-4527D01*
X-827Y-4487D01*
X-867D01*
Y-4527D01*
X-827Y-4567D01*
X-867Y-4607D01*
Y-4647D01*
X-1930Y-3198D02*
X-1890D01*
X-1850Y-3158D01*
X-1810Y-3198D01*
X-1770D01*
Y-3158D01*
X-1810Y-3118D01*
X-1770Y-3078D01*
Y-3038D01*
X-1810D01*
X-1850Y-3078D01*
X-1890Y-3038D01*
X-1930D01*
Y-3078D01*
X-1890Y-3118D01*
X-1930Y-3158D01*
Y-3198D01*
X-1627Y-2108D02*
X-1587D01*
X-1547Y-2068D01*
X-1507Y-2108D01*
X-1467D01*
Y-2068D01*
X-1507Y-2028D01*
X-1467Y-1988D01*
Y-1948D01*
X-1507D01*
X-1547Y-1988D01*
X-1587Y-1948D01*
X-1627D01*
Y-1988D01*
X-1587Y-2028D01*
X-1627Y-2068D01*
Y-2108D01*
X-2915Y-277D02*
X-2875D01*
X-2835Y-237D01*
X-2795Y-277D01*
X-2755D01*
Y-237D01*
X-2795Y-197D01*
X-2755Y-157D01*
Y-117D01*
X-2795D01*
X-2835Y-157D01*
X-2875Y-117D01*
X-2915D01*
Y-157D01*
X-2875Y-197D01*
X-2915Y-237D01*
Y-277D01*
X-2896Y137D02*
X-2856D01*
X-2816Y177D01*
X-2776Y137D01*
X-2736D01*
Y177D01*
X-2776Y217D01*
X-2736Y257D01*
Y297D01*
X-2776D01*
X-2816Y257D01*
X-2856Y297D01*
X-2896D01*
Y257D01*
X-2856Y217D01*
X-2896Y177D01*
Y137D01*
X-1537Y-2442D02*
X-1497D01*
X-1457Y-2402D01*
X-1417Y-2442D01*
X-1377D01*
Y-2402D01*
X-1417Y-2362D01*
X-1377Y-2322D01*
Y-2282D01*
X-1417D01*
X-1457Y-2322D01*
X-1497Y-2282D01*
X-1537D01*
Y-2322D01*
X-1497Y-2362D01*
X-1537Y-2402D01*
Y-2442D01*
X-177Y-3466D02*
X-137D01*
X-97Y-3426D01*
X-57Y-3466D01*
X-16D01*
Y-3426D01*
X-57Y-3386D01*
X-16Y-3346D01*
Y-3306D01*
X-57D01*
X-97Y-3346D01*
X-137Y-3306D01*
X-177D01*
Y-3346D01*
X-137Y-3386D01*
X-177Y-3426D01*
Y-3466D01*
X-100Y-1163D02*
X-60D01*
X-20Y-1123D01*
X20Y-1163D01*
X60D01*
Y-1123D01*
X20Y-1083D01*
X60Y-1043D01*
Y-1003D01*
X20D01*
X-20Y-1043D01*
X-60Y-1003D01*
X-100D01*
Y-1043D01*
X-60Y-1083D01*
X-100Y-1123D01*
Y-1163D01*
X1455Y-1141D02*
X1495D01*
X1535Y-1101D01*
X1575Y-1141D01*
X1615D01*
Y-1101D01*
X1575Y-1061D01*
X1615Y-1021D01*
Y-981D01*
X1575D01*
X1535Y-1021D01*
X1495Y-981D01*
X1455D01*
Y-1021D01*
X1495Y-1061D01*
X1455Y-1101D01*
Y-1141D01*
X865Y-1830D02*
X905D01*
X945Y-1790D01*
X985Y-1830D01*
X1025D01*
Y-1790D01*
X985Y-1750D01*
X1025Y-1710D01*
Y-1670D01*
X985D01*
X945Y-1710D01*
X905Y-1670D01*
X865D01*
Y-1710D01*
X905Y-1750D01*
X865Y-1790D01*
Y-1830D01*
X1045Y-1635D02*
X1085D01*
X1125Y-1595D01*
X1165Y-1635D01*
X1205D01*
Y-1595D01*
X1165Y-1555D01*
X1205Y-1515D01*
Y-1475D01*
X1165D01*
X1125Y-1515D01*
X1085Y-1475D01*
X1045D01*
Y-1515D01*
X1085Y-1555D01*
X1045Y-1595D01*
Y-1635D01*
X717Y-3426D02*
X757D01*
X797Y-3386D01*
X837Y-3426D01*
X877D01*
Y-3386D01*
X837Y-3346D01*
X877Y-3306D01*
Y-3266D01*
X837D01*
X797Y-3306D01*
X757Y-3266D01*
X717D01*
Y-3306D01*
X757Y-3346D01*
X717Y-3386D01*
Y-3426D01*
X1247Y-4312D02*
X1287D01*
X1327Y-4272D01*
X1367Y-4312D01*
X1407D01*
Y-4272D01*
X1367Y-4232D01*
X1407Y-4192D01*
Y-4152D01*
X1367D01*
X1327Y-4192D01*
X1287Y-4152D01*
X1247D01*
Y-4192D01*
X1287Y-4232D01*
X1247Y-4272D01*
Y-4312D01*
X786Y-4056D02*
X826D01*
X866Y-4016D01*
X906Y-4056D01*
X946D01*
Y-4016D01*
X906Y-3976D01*
X946Y-3936D01*
Y-3896D01*
X906D01*
X866Y-3936D01*
X826Y-3896D01*
X786D01*
Y-3936D01*
X826Y-3976D01*
X786Y-4016D01*
Y-4056D01*
X-3663Y885D02*
X-3623D01*
X-3583Y925D01*
X-3543Y885D01*
X-3503D01*
Y925D01*
X-3543Y965D01*
X-3503Y1005D01*
Y1045D01*
X-3543D01*
X-3583Y1005D01*
X-3623Y1045D01*
X-3663D01*
Y1005D01*
X-3623Y965D01*
X-3663Y925D01*
Y885D01*
X-2064Y-3702D02*
X-2024D01*
X-1984Y-3662D01*
X-1944Y-3702D01*
X-1904D01*
Y-3662D01*
X-1944Y-3622D01*
X-1904Y-3582D01*
Y-3542D01*
X-1944D01*
X-1984Y-3582D01*
X-2024Y-3542D01*
X-2064D01*
Y-3582D01*
X-2024Y-3622D01*
X-2064Y-3662D01*
Y-3702D01*
X-237Y-4489D02*
X-197D01*
X-157Y-4449D01*
X-117Y-4489D01*
X-77D01*
Y-4449D01*
X-117Y-4409D01*
X-77Y-4369D01*
Y-4329D01*
X-117D01*
X-157Y-4369D01*
X-197Y-4329D01*
X-237D01*
Y-4369D01*
X-197Y-4409D01*
X-237Y-4449D01*
Y-4489D01*
X747Y-4411D02*
X787D01*
X827Y-4371D01*
X867Y-4411D01*
X907D01*
Y-4371D01*
X867Y-4331D01*
X907Y-4291D01*
Y-4251D01*
X867D01*
X827Y-4291D01*
X787Y-4251D01*
X747D01*
Y-4291D01*
X787Y-4331D01*
X747Y-4371D01*
Y-4411D01*
X1955Y1451D02*
X1995D01*
X2035Y1491D01*
X2075Y1451D01*
X2115D01*
Y1491D01*
X2075Y1531D01*
X2115Y1571D01*
Y1611D01*
X2075D01*
X2035Y1571D01*
X1995Y1611D01*
X1955D01*
Y1571D01*
X1995Y1531D01*
X1955Y1491D01*
Y1451D01*
X-1104Y2058D02*
X-1064D01*
X-1024Y2098D01*
X-984Y2058D01*
X-944D01*
Y2098D01*
X-984Y2138D01*
X-944Y2178D01*
Y2218D01*
X-984D01*
X-1024Y2178D01*
X-1064Y2218D01*
X-1104D01*
Y2178D01*
X-1064Y2138D01*
X-1104Y2098D01*
Y2058D01*
X1731Y4133D02*
X1771D01*
X1811Y4173D01*
X1851Y4133D01*
X1891D01*
Y4173D01*
X1851Y4213D01*
X1891Y4253D01*
Y4293D01*
X1851D01*
X1811Y4253D01*
X1771Y4293D01*
X1731D01*
Y4253D01*
X1771Y4213D01*
X1731Y4173D01*
Y4133D01*
X-728Y4200D02*
X-688D01*
X-648Y4240D01*
X-608Y4200D01*
X-568D01*
Y4240D01*
X-608Y4280D01*
X-568Y4320D01*
Y4360D01*
X-608D01*
X-648Y4320D01*
X-688Y4360D01*
X-728D01*
Y4320D01*
X-688Y4280D01*
X-728Y4240D01*
Y4200D01*
Y3648D02*
X-688D01*
X-648Y3688D01*
X-608Y3648D01*
X-568D01*
Y3688D01*
X-608Y3728D01*
X-568Y3768D01*
Y3808D01*
X-608D01*
X-648Y3768D01*
X-688Y3808D01*
X-728D01*
Y3768D01*
X-688Y3728D01*
X-728Y3688D01*
Y3648D01*
X-373Y3413D02*
X-333D01*
X-293Y3453D01*
X-253Y3413D01*
X-213D01*
Y3453D01*
X-253Y3493D01*
X-213Y3533D01*
Y3573D01*
X-253D01*
X-293Y3533D01*
X-333Y3573D01*
X-373D01*
Y3533D01*
X-333Y3493D01*
X-373Y3453D01*
Y3413D01*
X-277Y3058D02*
X-237D01*
X-197Y3098D01*
X-157Y3058D01*
X-117D01*
Y3098D01*
X-157Y3138D01*
X-117Y3178D01*
Y3218D01*
X-157D01*
X-197Y3178D01*
X-237Y3218D01*
X-277D01*
Y3178D01*
X-237Y3138D01*
X-277Y3098D01*
Y3058D01*
X2902Y707D02*
X2942D01*
X2982Y747D01*
X3022Y707D01*
X3062D01*
Y747D01*
X3022Y787D01*
X3062Y827D01*
Y867D01*
X3022D01*
X2982Y827D01*
X2942Y867D01*
X2902D01*
Y827D01*
X2942Y787D01*
X2902Y747D01*
Y707D01*
X1516Y-21D02*
X1556D01*
X1596Y19D01*
X1636Y-21D01*
X1676D01*
Y19D01*
X1636Y59D01*
X1676Y99D01*
Y139D01*
X1636D01*
X1596Y99D01*
X1556Y139D01*
X1516D01*
Y99D01*
X1556Y59D01*
X1516Y19D01*
Y-21D01*
X4548Y655D02*
X4588D01*
X4628Y695D01*
X4668Y655D01*
X4708D01*
Y695D01*
X4668Y735D01*
X4708Y775D01*
Y815D01*
X4668D01*
X4628Y775D01*
X4588Y815D01*
X4548D01*
Y775D01*
X4588Y735D01*
X4548Y695D01*
Y655D01*
X-1458Y3058D02*
X-1418D01*
X-1378Y3098D01*
X-1338Y3058D01*
X-1298D01*
Y3098D01*
X-1338Y3138D01*
X-1298Y3178D01*
Y3218D01*
X-1338D01*
X-1378Y3178D01*
X-1418Y3218D01*
X-1458D01*
Y3178D01*
X-1418Y3138D01*
X-1458Y3098D01*
Y3058D01*
X-216Y3924D02*
X-176D01*
X-136Y3964D01*
X-96Y3924D01*
X-56D01*
Y3964D01*
X-96Y4004D01*
X-56Y4044D01*
Y4084D01*
X-96D01*
X-136Y4044D01*
X-176Y4084D01*
X-216D01*
Y4044D01*
X-176Y4004D01*
X-216Y3964D01*
Y3924D01*
X-2788Y-769D02*
X-2748D01*
X-2708Y-729D01*
X-2668Y-769D01*
X-2628D01*
Y-729D01*
X-2668Y-689D01*
X-2628Y-649D01*
Y-609D01*
X-2668D01*
X-2708Y-649D01*
X-2748Y-609D01*
X-2788D01*
Y-649D01*
X-2748Y-689D01*
X-2788Y-729D01*
Y-769D01*
X-3289Y-119D02*
X-3249D01*
X-3209Y-79D01*
X-3169Y-119D01*
X-3129D01*
Y-79D01*
X-3169Y-39D01*
X-3129Y1D01*
Y41D01*
X-3169D01*
X-3209Y1D01*
X-3249Y41D01*
X-3289D01*
Y1D01*
X-3249Y-39D01*
X-3289Y-79D01*
Y-119D01*
X-4045Y511D02*
X-4005D01*
X-3965Y551D01*
X-3925Y511D01*
X-3885D01*
Y551D01*
X-3925Y591D01*
X-3885Y631D01*
Y671D01*
X-3925D01*
X-3965Y631D01*
X-4005Y671D01*
X-4045D01*
Y631D01*
X-4005Y591D01*
X-4045Y551D01*
Y511D01*
X-3978Y-828D02*
X-3938D01*
X-3898Y-788D01*
X-3858Y-828D01*
X-3818D01*
Y-788D01*
X-3858Y-748D01*
X-3818Y-708D01*
Y-668D01*
X-3858D01*
X-3898Y-708D01*
X-3938Y-668D01*
X-3978D01*
Y-708D01*
X-3938Y-748D01*
X-3978Y-788D01*
Y-828D01*
X-4096Y-2324D02*
X-4056D01*
X-4016Y-2284D01*
X-3976Y-2324D01*
X-3936D01*
Y-2284D01*
X-3976Y-2244D01*
X-3936Y-2204D01*
Y-2164D01*
X-3976D01*
X-4016Y-2204D01*
X-4056Y-2164D01*
X-4096D01*
Y-2204D01*
X-4056Y-2244D01*
X-4096Y-2284D01*
Y-2324D01*
X4497Y-867D02*
X4537D01*
X4577Y-827D01*
X4617Y-867D01*
X4657D01*
Y-827D01*
X4617Y-787D01*
X4657Y-747D01*
Y-707D01*
X4617D01*
X4577Y-747D01*
X4537Y-707D01*
X4497D01*
Y-747D01*
X4537Y-787D01*
X4497Y-827D01*
Y-867D01*
X2654Y-1517D02*
X2694D01*
X2734Y-1477D01*
X2774Y-1517D01*
X2814D01*
Y-1477D01*
X2774Y-1437D01*
X2814Y-1397D01*
Y-1357D01*
X2774D01*
X2734Y-1397D01*
X2694Y-1357D01*
X2654D01*
Y-1397D01*
X2694Y-1437D01*
X2654Y-1477D01*
Y-1517D01*
X2664Y-791D02*
X2704D01*
X2744Y-751D01*
X2784Y-791D01*
X2824D01*
Y-751D01*
X2784Y-711D01*
X2824Y-671D01*
Y-631D01*
X2784D01*
X2744Y-671D01*
X2704Y-631D01*
X2664D01*
Y-671D01*
X2704Y-711D01*
X2664Y-751D01*
Y-791D01*
X38Y-907D02*
X78D01*
X118Y-867D01*
X158Y-907D01*
X198D01*
Y-867D01*
X158Y-827D01*
X198Y-787D01*
Y-747D01*
X158D01*
X118Y-787D01*
X78Y-747D01*
X38D01*
Y-787D01*
X78Y-827D01*
X38Y-867D01*
Y-907D01*
X-2875Y-1104D02*
X-2835D01*
X-2795Y-1064D01*
X-2755Y-1104D01*
X-2715D01*
Y-1064D01*
X-2755Y-1024D01*
X-2715Y-984D01*
Y-944D01*
X-2755D01*
X-2795Y-984D01*
X-2835Y-944D01*
X-2875D01*
Y-984D01*
X-2835Y-1024D01*
X-2875Y-1064D01*
Y-1104D01*
X-3860Y-454D02*
X-3820D01*
X-3780Y-414D01*
X-3740Y-454D01*
X-3700D01*
Y-414D01*
X-3740Y-374D01*
X-3700Y-334D01*
Y-294D01*
X-3740D01*
X-3780Y-334D01*
X-3820Y-294D01*
X-3860D01*
Y-334D01*
X-3820Y-374D01*
X-3860Y-414D01*
Y-454D01*
X-3575Y-277D02*
X-3535D01*
X-3495Y-237D01*
X-3455Y-277D01*
X-3415D01*
Y-237D01*
X-3455Y-197D01*
X-3415Y-157D01*
Y-117D01*
X-3455D01*
X-3495Y-157D01*
X-3535Y-117D01*
X-3575D01*
Y-157D01*
X-3535Y-197D01*
X-3575Y-237D01*
Y-277D01*
X471Y137D02*
X511D01*
X551Y177D01*
X591Y137D01*
X631D01*
Y177D01*
X591Y217D01*
X631Y257D01*
Y297D01*
X591D01*
X551Y257D01*
X511Y297D01*
X471D01*
Y257D01*
X511Y217D01*
X471Y177D01*
Y137D01*
X2696Y1456D02*
X2736D01*
X2776Y1496D01*
X2816Y1456D01*
X2856D01*
Y1496D01*
X2816Y1536D01*
X2856Y1576D01*
Y1616D01*
X2816D01*
X2776Y1576D01*
X2736Y1616D01*
X2696D01*
Y1576D01*
X2736Y1536D01*
X2696Y1496D01*
Y1456D01*
X1652Y3648D02*
X1692D01*
X1732Y3688D01*
X1772Y3648D01*
X1812D01*
Y3688D01*
X1772Y3728D01*
X1812Y3768D01*
Y3808D01*
X1772D01*
X1732Y3768D01*
X1692Y3808D01*
X1652D01*
Y3768D01*
X1692Y3728D01*
X1652Y3688D01*
Y3648D01*
X2912Y-1261D02*
X2952D01*
X2992Y-1221D01*
X3032Y-1261D01*
X3072D01*
Y-1221D01*
X3032Y-1181D01*
X3072Y-1141D01*
Y-1101D01*
X3032D01*
X2992Y-1141D01*
X2952Y-1101D01*
X2912D01*
Y-1141D01*
X2952Y-1181D01*
X2912Y-1221D01*
Y-1261D01*
X3798Y-1753D02*
X3838D01*
X3878Y-1713D01*
X3918Y-1753D01*
X3958D01*
Y-1713D01*
X3918Y-1673D01*
X3958Y-1633D01*
Y-1593D01*
X3918D01*
X3878Y-1633D01*
X3838Y-1593D01*
X3798D01*
Y-1633D01*
X3838Y-1673D01*
X3798Y-1713D01*
Y-1753D01*
X2459Y353D02*
X2499D01*
X2539Y393D01*
X2579Y353D01*
X2619D01*
Y393D01*
X2579Y433D01*
X2619Y473D01*
Y513D01*
X2579D01*
X2539Y473D01*
X2499Y513D01*
X2459D01*
Y473D01*
X2499Y433D01*
X2459Y393D01*
Y353D01*
X3621Y-2304D02*
X3661D01*
X3701Y-2264D01*
X3741Y-2304D01*
X3781D01*
Y-2264D01*
X3741Y-2224D01*
X3781Y-2184D01*
Y-2144D01*
X3741D01*
X3701Y-2184D01*
X3661Y-2144D01*
X3621D01*
Y-2184D01*
X3661Y-2224D01*
X3621Y-2264D01*
Y-2304D01*
X-2052Y-1089D02*
X-2012D01*
X-1972Y-1049D01*
X-1932Y-1089D01*
X-1892D01*
Y-1049D01*
X-1932Y-1009D01*
X-1892Y-969D01*
Y-929D01*
X-1932D01*
X-1972Y-969D01*
X-2012Y-929D01*
X-2052D01*
Y-969D01*
X-2012Y-1009D01*
X-2052Y-1049D01*
Y-1089D01*
X156Y-3269D02*
X196D01*
X236Y-3229D01*
X276Y-3269D01*
X316D01*
Y-3229D01*
X276Y-3189D01*
X316Y-3149D01*
Y-3109D01*
X276D01*
X236Y-3149D01*
X196Y-3109D01*
X156D01*
Y-3149D01*
X196Y-3189D01*
X156Y-3229D01*
Y-3269D01*
X471Y-3308D02*
X511D01*
X551Y-3268D01*
X591Y-3308D01*
X631D01*
Y-3268D01*
X591Y-3228D01*
X631Y-3188D01*
Y-3148D01*
X591D01*
X551Y-3188D01*
X511Y-3148D01*
X471D01*
Y-3188D01*
X511Y-3228D01*
X471Y-3268D01*
Y-3308D01*
X955Y2715D02*
X995D01*
X1035Y2755D01*
X1075Y2715D01*
X1115D01*
Y2755D01*
X1075Y2795D01*
X1115Y2835D01*
Y2875D01*
X1075D01*
X1035Y2835D01*
X995Y2875D01*
X955D01*
Y2835D01*
X995Y2795D01*
X955Y2755D01*
Y2715D01*
X1259Y2736D02*
X1299D01*
X1339Y2776D01*
X1379Y2736D01*
X1419D01*
Y2776D01*
X1379Y2816D01*
X1419Y2856D01*
Y2896D01*
X1379D01*
X1339Y2856D01*
X1299Y2896D01*
X1259D01*
Y2856D01*
X1299Y2816D01*
X1259Y2776D01*
Y2736D01*
X392Y-1830D02*
X432D01*
X472Y-1790D01*
X512Y-1830D01*
X552D01*
Y-1790D01*
X512Y-1750D01*
X552Y-1710D01*
Y-1670D01*
X512D01*
X472Y-1710D01*
X432Y-1670D01*
X392D01*
Y-1710D01*
X432Y-1750D01*
X392Y-1790D01*
Y-1830D01*
X4056Y609D02*
X4096D01*
X4136Y649D01*
X4176Y609D01*
X4216D01*
Y649D01*
X4176Y689D01*
X4216Y729D01*
Y769D01*
X4176D01*
X4136Y729D01*
X4096Y769D01*
X4056D01*
Y729D01*
X4096Y689D01*
X4056Y649D01*
Y609D01*
X1613Y-1997D02*
X1653D01*
X1693Y-1957D01*
X1733Y-1997D01*
X1773D01*
Y-1957D01*
X1733Y-1917D01*
X1773Y-1877D01*
Y-1837D01*
X1733D01*
X1693Y-1877D01*
X1653Y-1837D01*
X1613D01*
Y-1877D01*
X1653Y-1917D01*
X1613Y-1957D01*
Y-1997D01*
X-1233Y-2442D02*
X-1193D01*
X-1153Y-2402D01*
X-1113Y-2442D01*
X-1073D01*
Y-2402D01*
X-1113Y-2362D01*
X-1073Y-2322D01*
Y-2282D01*
X-1113D01*
X-1153Y-2322D01*
X-1193Y-2282D01*
X-1233D01*
Y-2322D01*
X-1193Y-2362D01*
X-1233Y-2402D01*
Y-2442D01*
X-867Y-2167D02*
X-827D01*
X-787Y-2127D01*
X-747Y-2167D01*
X-707D01*
Y-2127D01*
X-747Y-2087D01*
X-707Y-2047D01*
Y-2007D01*
X-747D01*
X-787Y-2047D01*
X-827Y-2007D01*
X-867D01*
Y-2047D01*
X-827Y-2087D01*
X-867Y-2127D01*
Y-2167D01*
X1759Y-3348D02*
X1798D01*
X1839Y-3308D01*
X1878Y-3348D01*
X1919D01*
Y-3308D01*
X1878Y-3268D01*
X1919Y-3228D01*
Y-3188D01*
X1878D01*
X1839Y-3228D01*
X1798Y-3188D01*
X1759D01*
Y-3228D01*
X1798Y-3268D01*
X1759Y-3308D01*
Y-3348D01*
X1534Y-3505D02*
X1574D01*
X1614Y-3465D01*
X1654Y-3505D01*
X1694D01*
Y-3465D01*
X1654Y-3425D01*
X1694Y-3385D01*
Y-3345D01*
X1654D01*
X1614Y-3385D01*
X1574Y-3345D01*
X1534D01*
Y-3385D01*
X1574Y-3425D01*
X1534Y-3465D01*
Y-3505D01*
X-80Y-4056D02*
X-40D01*
X0Y-4016D01*
X40Y-4056D01*
X80D01*
Y-4016D01*
X40Y-3976D01*
X80Y-3936D01*
Y-3896D01*
X40D01*
X0Y-3936D01*
X-40Y-3896D01*
X-80D01*
Y-3936D01*
X-40Y-3976D01*
X-80Y-4016D01*
Y-4056D01*
X823Y-851D02*
X863D01*
X903Y-811D01*
X943Y-851D01*
X983D01*
Y-811D01*
X943Y-771D01*
X983Y-731D01*
Y-691D01*
X943D01*
X903Y-731D01*
X863Y-691D01*
X823D01*
Y-731D01*
X863Y-771D01*
X823Y-811D01*
Y-851D01*
X1101Y-844D02*
X1141D01*
X1181Y-804D01*
X1221Y-844D01*
X1261D01*
Y-804D01*
X1221Y-764D01*
X1261Y-724D01*
Y-684D01*
X1221D01*
X1181Y-724D01*
X1141Y-684D01*
X1101D01*
Y-724D01*
X1141Y-764D01*
X1101Y-804D01*
Y-844D01*
X-631Y3030D02*
X-591D01*
X-551Y3070D01*
X-511Y3030D01*
X-471D01*
Y3070D01*
X-511Y3110D01*
X-471Y3150D01*
Y3190D01*
X-511D01*
X-551Y3150D01*
X-591Y3190D01*
X-631D01*
Y3150D01*
X-591Y3110D01*
X-631Y3070D01*
Y3030D01*
X1129Y1278D02*
X1169D01*
X1209Y1318D01*
X1249Y1278D01*
X1289D01*
Y1318D01*
X1249Y1358D01*
X1289Y1398D01*
Y1438D01*
X1249D01*
X1209Y1398D01*
X1169Y1438D01*
X1129D01*
Y1398D01*
X1169Y1358D01*
X1129Y1318D01*
Y1278D01*
X-1Y2676D02*
X39D01*
X79Y2716D01*
X119Y2676D01*
X159D01*
Y2716D01*
X119Y2756D01*
X159Y2796D01*
Y2836D01*
X119D01*
X79Y2796D01*
X39Y2836D01*
X-1D01*
Y2796D01*
X39Y2756D01*
X-1Y2716D01*
Y2676D01*
D102*
X4135Y1280D02*
G03*
X4135Y1280I-80J0D01*
G01*
X-2481Y3620D02*
G03*
X-2481Y3620I-80J0D01*
G01*
X-3188Y2913D02*
G03*
X-3188Y2913I-80J0D01*
G01*
M02*
