M48
;Layer_Color=9474304
;FILE_FORMAT=2:4
INCH,LZ
;TYPE=PLATED
T1F00S00C0.0098
T2F00S00C0.0118
T5F00S00C0.0354
T6F00S00C0.0827
T7F00S00C0.1181
%
T01
X004667Y-00076
X00388Y-000839
Y-001193
X003919Y-001795
X002896Y-001929
X002699Y-001723
X002108Y-001813
X002069Y-001547
X002125Y-000969
X002827Y-000677
X001654Y-001903
X001339Y-001917
X000879Y-002116
X000564Y-0021
X000337Y-001639
X000283Y-000981
X000551Y-000984
X-000118Y-000906
X-000157Y-001278
X-000197Y-001848
X-001102Y-002165
X-001339Y-001971
X-001947Y-002581
X-001839Y-00315
X-00189Y-00376
X-001565Y-003736
X-001402Y-003938
X-001373Y-0045
X-001671Y-004421
X-00189Y-004264
X-002186Y-00418
X-000254Y-004457
X-000431Y-004697
X000079Y-004736
X001085Y-004067
X00118Y-003583
X001772Y-00323
X002362Y-003004
X002699Y-003365
X00195Y-004303
X001665Y-004421
X001695Y-00406
X000416Y-003365
X000061Y-003043
X-000254Y-00307
X-000406Y-003398
X-000827Y-000866
X-001782Y-000896
X-003661Y-001083
X-003917Y-000965
X-004192Y-001003
X-004134Y-000571
X-004409Y-001654
X-003406Y-002202
X-003507Y-00254
X-003323Y-00022
X-002842Y-000196
X-002756Y000295
X-001934Y000354
X-000807Y-000236
X-000503Y-000079
X000776Y000302
X001389Y000382
X001596Y000059
X002559Y000511
X002856Y000295
X002982Y000787
X002935Y001327
X003053Y001631
X003185Y001988
X00378Y001969
X00363Y002598
X003504Y002874
X002539Y002742
X001811Y002913
X0014Y002755
X001135Y002705
X000179
X-000197Y003138
X-000569Y003098
X-000619Y002755
X-000648Y003728
Y00428
X-000136Y004004
X-000293Y003493
X-001378Y003138
X-001291Y002073
X-001024Y002138
X-001041Y001848
X-000531Y001697
X000736Y001804
X001134Y001169
X002223Y001209
X003959Y000618
X004136Y000395
X001811Y004213
X-004073Y001201
X-004398Y000591
X-003583Y000591
X-003819Y-000114
X004628Y000735
T02
X-002429Y-004016
X-001535Y-002581
X000491Y-004326
X003329Y-002756
X003644Y-002323
T05
X-003268Y002913
X-002561Y00362
X004055Y00128
T06
X-002756Y-00315
X002441Y003543
T07
X000079Y001142
M30
