G04 Layer_Color=65535*
%FSLAX24Y24*%
%MOIN*%
G70*
G01*
G75*
%ADD67C,0.0039*%
D67*
X-4370Y-862D02*
X-4528D01*
Y-783D01*
X-4501Y-757D01*
X-4449D01*
X-4423Y-783D01*
Y-862D01*
Y-810D02*
X-4370Y-757D01*
X-4501Y-705D02*
X-4528Y-679D01*
Y-626D01*
X-4501Y-600D01*
X-4475D01*
X-4449Y-626D01*
Y-652D01*
Y-626D01*
X-4423Y-600D01*
X-4396D01*
X-4370Y-626D01*
Y-679D01*
X-4396Y-705D01*
X-4501Y-547D02*
X-4528Y-521D01*
Y-469D01*
X-4501Y-442D01*
X-4396D01*
X-4370Y-469D01*
Y-521D01*
X-4396Y-547D01*
X-4501D01*
X-4423Y-1352D02*
Y-1247D01*
X-4449Y-1221D01*
X-4501D01*
X-4528Y-1247D01*
Y-1352D01*
X-4501Y-1378D01*
X-4449D01*
X-4475Y-1325D02*
X-4423Y-1378D01*
X-4449D02*
X-4423Y-1352D01*
X-4265Y-1221D02*
X-4318Y-1247D01*
X-4370Y-1299D01*
Y-1352D01*
X-4344Y-1378D01*
X-4291D01*
X-4265Y-1352D01*
Y-1325D01*
X-4291Y-1299D01*
X-4370D01*
X3550Y2424D02*
X3445D01*
Y2345D01*
X3497D01*
X3445D01*
Y2267D01*
X3602Y2424D02*
Y2267D01*
X3681D01*
X3707Y2293D01*
Y2319D01*
X3681Y2345D01*
X3602D01*
X3681D01*
X3707Y2372D01*
Y2398D01*
X3681Y2424D01*
X3602D01*
X-3744Y-1373D02*
X-3587D01*
Y-1294D01*
X-3613Y-1268D01*
X-3718D01*
X-3744Y-1294D01*
Y-1373D01*
X-3587Y-1137D02*
X-3744D01*
X-3665Y-1215D01*
Y-1110D01*
X-2806Y-188D02*
X-2911D01*
Y-267D01*
X-2858D01*
X-2911D01*
Y-346D01*
X-2753Y-188D02*
Y-346D01*
X-2648D01*
X-2596D02*
X-2543D01*
X-2570D01*
Y-188D01*
X-2596Y-214D01*
X1732Y4161D02*
Y4030D01*
X1759Y4004D01*
X1811D01*
X1837Y4030D01*
Y4161D01*
X1995D02*
X1890D01*
Y4083D01*
X1942Y4109D01*
X1968D01*
X1995Y4083D01*
Y4030D01*
X1968Y4004D01*
X1916D01*
X1890Y4030D01*
X-2598Y2783D02*
Y2941D01*
X-2520D01*
X-2493Y2915D01*
Y2862D01*
X-2520Y2836D01*
X-2598D01*
X-2546D02*
X-2493Y2783D01*
X-2336D02*
X-2441D01*
X-2336Y2888D01*
Y2915D01*
X-2362Y2941D01*
X-2415D01*
X-2441Y2915D01*
X-2284D02*
X-2257Y2941D01*
X-2205D01*
X-2179Y2915D01*
Y2888D01*
X-2205Y2862D01*
X-2179Y2836D01*
Y2810D01*
X-2205Y2783D01*
X-2257D01*
X-2284Y2810D01*
Y2836D01*
X-2257Y2862D01*
X-2284Y2888D01*
Y2915D01*
X-2257Y2862D02*
X-2205D01*
X3110Y-2008D02*
Y-1850D01*
X3189D01*
X3215Y-1877D01*
Y-1929D01*
X3189Y-1955D01*
X3110D01*
X3163D02*
X3215Y-2008D01*
X3373D02*
X3268D01*
X3373Y-1903D01*
Y-1877D01*
X3346Y-1850D01*
X3294D01*
X3268Y-1877D01*
X3530Y-1850D02*
X3478Y-1877D01*
X3425Y-1929D01*
Y-1982D01*
X3451Y-2008D01*
X3504D01*
X3530Y-1982D01*
Y-1955D01*
X3504Y-1929D01*
X3425D01*
X-4509Y-209D02*
Y-52D01*
X-4430D01*
X-4404Y-78D01*
Y-131D01*
X-4430Y-157D01*
X-4509D01*
X-4457D02*
X-4404Y-209D01*
X-4247D02*
X-4352D01*
X-4247Y-104D01*
Y-78D01*
X-4273Y-52D01*
X-4325D01*
X-4352Y-78D01*
X-4116Y-209D02*
Y-52D01*
X-4194Y-131D01*
X-4089D01*
X2861Y-1348D02*
X2704D01*
Y-1270D01*
X2730Y-1243D01*
X2782D01*
X2809Y-1270D01*
Y-1348D01*
Y-1296D02*
X2861Y-1243D01*
Y-1086D02*
Y-1191D01*
X2756Y-1086D01*
X2730D01*
X2704Y-1112D01*
Y-1165D01*
X2730Y-1191D01*
Y-1034D02*
X2704Y-1007D01*
Y-955D01*
X2730Y-929D01*
X2835D01*
X2861Y-955D01*
Y-1007D01*
X2835Y-1034D01*
X2730D01*
X3528Y896D02*
X3371D01*
Y974D01*
X3397Y1001D01*
X3450D01*
X3476Y974D01*
Y896D01*
Y948D02*
X3528Y1001D01*
Y1053D02*
Y1106D01*
Y1079D01*
X3371D01*
X3397Y1053D01*
X3371Y1289D02*
Y1184D01*
X3450D01*
X3423Y1237D01*
Y1263D01*
X3450Y1289D01*
X3502D01*
X3528Y1263D01*
Y1211D01*
X3502Y1184D01*
X1417Y-1614D02*
X1260D01*
Y-1535D01*
X1286Y-1509D01*
X1339D01*
X1365Y-1535D01*
Y-1614D01*
Y-1562D02*
X1417Y-1509D01*
Y-1457D02*
Y-1404D01*
Y-1431D01*
X1260D01*
X1286Y-1457D01*
Y-1326D02*
X1260Y-1299D01*
Y-1247D01*
X1286Y-1221D01*
X1312D01*
X1339Y-1247D01*
Y-1273D01*
Y-1247D01*
X1365Y-1221D01*
X1391D01*
X1417Y-1247D01*
Y-1299D01*
X1391Y-1326D01*
X-1279Y4318D02*
Y4423D01*
X-1306Y4449D01*
X-1358D01*
X-1384Y4423D01*
Y4318D01*
X-1358Y4291D01*
X-1306D01*
X-1332Y4344D02*
X-1279Y4291D01*
X-1306D02*
X-1279Y4318D01*
X-1227Y4449D02*
X-1122D01*
Y4423D01*
X-1227Y4318D01*
Y4291D01*
X2263Y-2230D02*
X2420D01*
Y-2151D01*
X2394Y-2125D01*
X2289D01*
X2263Y-2151D01*
Y-2230D01*
X2289Y-2073D02*
X2263Y-2046D01*
Y-1994D01*
X2289Y-1968D01*
X2315D01*
X2341Y-1994D01*
Y-2020D01*
Y-1994D01*
X2368Y-1968D01*
X2394D01*
X2420Y-1994D01*
Y-2046D01*
X2394Y-2073D01*
X224Y4529D02*
X198Y4555D01*
X145D01*
X119Y4529D01*
Y4424D01*
X145Y4398D01*
X198D01*
X224Y4424D01*
X276Y4398D02*
X329D01*
X303D01*
Y4555D01*
X276Y4529D01*
X408D02*
X434Y4555D01*
X486D01*
X513Y4529D01*
Y4503D01*
X486Y4476D01*
X513Y4450D01*
Y4424D01*
X486Y4398D01*
X434D01*
X408Y4424D01*
Y4450D01*
X434Y4476D01*
X408Y4503D01*
Y4529D01*
X434Y4476D02*
X486D01*
X4283Y-110D02*
X4440D01*
Y-31D01*
X4414Y-5D01*
X4309D01*
X4283Y-31D01*
Y-110D01*
X4440Y48D02*
Y100D01*
Y74D01*
X4283D01*
X4309Y48D01*
X3503Y-340D02*
X3660D01*
Y-235D01*
X3503Y-78D02*
Y-183D01*
X3660D01*
Y-78D01*
X3581Y-183D02*
Y-130D01*
X3503Y-25D02*
X3660D01*
Y54D01*
X3634Y80D01*
X3529D01*
X3503Y54D01*
Y-25D01*
X3660Y132D02*
Y185D01*
Y159D01*
X3503D01*
X3529Y132D01*
X-787Y-1594D02*
X-945D01*
Y-1515D01*
X-919Y-1489D01*
X-866D01*
X-840Y-1515D01*
Y-1594D01*
Y-1541D02*
X-787Y-1489D01*
Y-1331D02*
Y-1436D01*
X-892Y-1331D01*
X-919D01*
X-945Y-1358D01*
Y-1410D01*
X-919Y-1436D01*
X-945Y-1279D02*
Y-1174D01*
X-919D01*
X-814Y-1279D01*
X-787D01*
X-426Y-1567D02*
X-583D01*
Y-1488D01*
X-557Y-1462D01*
X-505D01*
X-478Y-1488D01*
Y-1567D01*
Y-1514D02*
X-426Y-1462D01*
Y-1409D02*
Y-1357D01*
Y-1383D01*
X-583D01*
X-557Y-1409D01*
X-426Y-1278D02*
Y-1226D01*
Y-1252D01*
X-583D01*
X-557Y-1278D01*
X1102Y-1679D02*
X945D01*
Y-1601D01*
X971Y-1574D01*
X1024D01*
X1050Y-1601D01*
Y-1679D01*
Y-1627D02*
X1102Y-1574D01*
X1076Y-1522D02*
X1102Y-1496D01*
Y-1443D01*
X1076Y-1417D01*
X971D01*
X945Y-1443D01*
Y-1496D01*
X971Y-1522D01*
X997D01*
X1024Y-1496D01*
Y-1417D01*
X3132Y-433D02*
X2974D01*
Y-354D01*
X3001Y-328D01*
X3053D01*
X3079Y-354D01*
Y-433D01*
Y-381D02*
X3132Y-328D01*
X3001Y-276D02*
X2974Y-249D01*
Y-197D01*
X3001Y-171D01*
X3027D01*
X3053Y-197D01*
X3079Y-171D01*
X3106D01*
X3132Y-197D01*
Y-249D01*
X3106Y-276D01*
X3079D01*
X3053Y-249D01*
X3027Y-276D01*
X3001D01*
X3053Y-249D02*
Y-197D01*
X1881Y-3780D02*
X1769Y-3891D01*
X1714Y-3835D01*
Y-3798D01*
X1751Y-3761D01*
X1788Y-3761D01*
X1844Y-3817D01*
X1806Y-3780D02*
X1806Y-3706D01*
X1584D02*
X1639Y-3724D01*
X1714D01*
X1751Y-3687D01*
Y-3650D01*
X1714Y-3613D01*
X1677D01*
X1658Y-3631D01*
X1658Y-3668D01*
X1714Y-3724D01*
X2133Y-3749D02*
X2022Y-3638D01*
X2078Y-3582D01*
X2115D01*
X2152Y-3619D01*
X2152Y-3656D01*
X2096Y-3712D01*
X2133Y-3675D02*
X2208Y-3675D01*
Y-3452D02*
X2133Y-3526D01*
X2189Y-3582D01*
X2208Y-3526D01*
X2226Y-3508D01*
X2263D01*
X2300Y-3545D01*
Y-3582D01*
X2263Y-3619D01*
X2226D01*
X4135Y2033D02*
X3978D01*
Y2111D01*
X4004Y2138D01*
X4057D01*
X4083Y2111D01*
Y2033D01*
Y2085D02*
X4135Y2138D01*
Y2269D02*
X3978D01*
X4057Y2190D01*
Y2295D01*
X338Y-4736D02*
Y-4579D01*
X417D01*
X443Y-4605D01*
Y-4658D01*
X417Y-4684D01*
X338D01*
X391D02*
X443Y-4736D01*
X496Y-4605D02*
X522Y-4579D01*
X574D01*
X601Y-4605D01*
Y-4631D01*
X574Y-4658D01*
X548D01*
X574D01*
X601Y-4684D01*
Y-4710D01*
X574Y-4736D01*
X522D01*
X496Y-4710D01*
X1372Y-4272D02*
X1346Y-4298D01*
Y-4350D01*
X1372Y-4377D01*
X1477D01*
X1503Y-4350D01*
Y-4298D01*
X1477Y-4272D01*
X1503Y-4219D02*
Y-4167D01*
Y-4193D01*
X1346D01*
X1372Y-4219D01*
X1346Y-3983D02*
X1372Y-4035D01*
X1424Y-4088D01*
X1477D01*
X1503Y-4062D01*
Y-4009D01*
X1477Y-3983D01*
X1451D01*
X1424Y-4009D01*
Y-4088D01*
X11Y-1472D02*
X-26D01*
X-63Y-1509D01*
Y-1546D01*
X11Y-1620D01*
X49D01*
X86Y-1583D01*
Y-1546D01*
X141Y-1527D02*
X178Y-1490D01*
X160Y-1509D01*
X49Y-1397D01*
Y-1435D01*
X197Y-1249D02*
X123Y-1323D01*
X178Y-1379D01*
X197Y-1323D01*
X216Y-1305D01*
X253D01*
X290Y-1342D01*
Y-1379D01*
X253Y-1416D01*
X216D01*
X951Y-4234D02*
Y-4197D01*
X914Y-4160D01*
X877D01*
X802Y-4234D01*
Y-4271D01*
X840Y-4308D01*
X877D01*
X895Y-4364D02*
X932Y-4401D01*
X914Y-4383D01*
X1025Y-4271D01*
X988D01*
X1044Y-4512D02*
X1155Y-4401D01*
X1044Y-4401D01*
X1118Y-4475D01*
X2559Y2115D02*
X2533Y2089D01*
Y2036D01*
X2559Y2010D01*
X2664D01*
X2690Y2036D01*
Y2089D01*
X2664Y2115D01*
X2533Y2272D02*
X2559Y2220D01*
X2611Y2167D01*
X2664D01*
X2690Y2194D01*
Y2246D01*
X2664Y2272D01*
X2638D01*
X2611Y2246D01*
Y2167D01*
X2909Y2085D02*
X2883Y2059D01*
Y2006D01*
X2909Y1980D01*
X3014D01*
X3040Y2006D01*
Y2059D01*
X3014Y2085D01*
X2883Y2242D02*
Y2137D01*
X2961D01*
X2935Y2190D01*
Y2216D01*
X2961Y2242D01*
X3014D01*
X3040Y2216D01*
Y2164D01*
X3014Y2137D01*
X2690Y-144D02*
X2717Y-118D01*
Y-66D01*
X2690Y-39D01*
X2585D01*
X2559Y-66D01*
Y-118D01*
X2585Y-144D01*
X2559Y-276D02*
X2717D01*
X2638Y-197D01*
Y-302D01*
X1040Y-3043D02*
Y-3174D01*
X1066Y-3200D01*
X1119D01*
X1145Y-3174D01*
Y-3043D01*
X1302Y-3200D02*
X1197D01*
X1302Y-3095D01*
Y-3069D01*
X1276Y-3043D01*
X1224D01*
X1197Y-3069D01*
X3160Y-1133D02*
Y-1264D01*
X3186Y-1290D01*
X3239D01*
X3265Y-1264D01*
Y-1133D01*
X3396Y-1290D02*
Y-1133D01*
X3317Y-1211D01*
X3422D01*
X-3601Y3281D02*
X-3490Y3170D01*
X-3434Y3226D01*
Y3263D01*
X-3453Y3281D01*
X-3490Y3281D01*
X-3546Y3226D01*
X-3490Y3281D01*
Y3318D01*
X-3509Y3337D01*
X-3546D01*
X-3601Y3281D01*
X-3434Y3374D02*
X-3397Y3411D01*
X-3360D01*
X-3304Y3356D01*
X-3360Y3300D01*
X-3397D01*
Y3337D01*
X-3342Y3393D01*
X-3342Y3504D02*
X-3323Y3485D01*
X-3342Y3467D01*
X-3304Y3504D01*
X-3323Y3485D01*
X-3267Y3430D01*
X-3230D01*
X-3249Y3597D02*
X-3230Y3578D01*
X-3249Y3560D01*
X-3212Y3597D01*
X-3230Y3578D01*
X-3175Y3523D01*
X-3137D01*
X-3026Y3634D02*
X-3063Y3597D01*
X-3100D01*
X-3137Y3634D01*
Y3671D01*
X-3100Y3708D01*
X-3063D01*
X-3045Y3689D01*
X-3119Y3615D01*
X-3045Y3764D02*
X-2971Y3689D01*
X-3008Y3727D01*
Y3764D01*
Y3801D01*
X-2989Y3819D01*
X-2933Y3875D02*
X-2878Y3819D01*
X-2841D01*
X-2785Y3875D01*
X-2766Y3856D01*
Y3819D01*
X-2785Y3801D01*
X-2785Y3875D02*
X-2859Y3949D01*
X-3971Y-2258D02*
Y-2153D01*
X-3998Y-2127D01*
X-4050D01*
X-4076Y-2153D01*
Y-2258D01*
X-4050Y-2285D01*
X-3998D01*
X-4024Y-2232D02*
X-3971Y-2285D01*
X-3998D02*
X-3971Y-2258D01*
X-3814Y-2127D02*
X-3919D01*
Y-2206D01*
X-3866Y-2180D01*
X-3840D01*
X-3814Y-2206D01*
Y-2258D01*
X-3840Y-2285D01*
X-3893D01*
X-3919Y-2258D01*
X1010Y-814D02*
X984Y-787D01*
X932D01*
X906Y-814D01*
Y-919D01*
X932Y-945D01*
X984D01*
X1010Y-919D01*
Y-866D01*
X958D01*
X1063Y-945D02*
Y-787D01*
X1142D01*
X1168Y-814D01*
Y-866D01*
X1142Y-892D01*
X1063D01*
X1325Y-814D02*
X1299Y-787D01*
X1247D01*
X1220Y-814D01*
Y-840D01*
X1247Y-866D01*
X1299D01*
X1325Y-892D01*
Y-919D01*
X1299Y-945D01*
X1247D01*
X1220Y-919D01*
X2546Y1325D02*
X2520Y1299D01*
Y1247D01*
X2546Y1220D01*
X2651D01*
X2677Y1247D01*
Y1299D01*
X2651Y1325D01*
X2677Y1378D02*
Y1430D01*
Y1404D01*
X2520D01*
X2546Y1378D01*
X-3161Y2359D02*
X-3187Y2385D01*
X-3239D01*
X-3266Y2359D01*
Y2254D01*
X-3239Y2228D01*
X-3187D01*
X-3161Y2254D01*
X-3108Y2359D02*
X-3082Y2385D01*
X-3030D01*
X-3003Y2359D01*
Y2332D01*
X-3030Y2306D01*
X-3056D01*
X-3030D01*
X-3003Y2280D01*
Y2254D01*
X-3030Y2228D01*
X-3082D01*
X-3108Y2254D01*
X2985Y-3219D02*
X2959Y-3193D01*
X2906D01*
X2880Y-3219D01*
Y-3324D01*
X2906Y-3350D01*
X2959D01*
X2985Y-3324D01*
X3037Y-3193D02*
X3142D01*
Y-3219D01*
X3037Y-3324D01*
Y-3350D01*
X-3167Y643D02*
X-3194Y669D01*
X-3246D01*
X-3272Y643D01*
Y538D01*
X-3246Y512D01*
X-3194D01*
X-3167Y538D01*
X-3115D02*
X-3089Y512D01*
X-3036D01*
X-3010Y538D01*
Y643D01*
X-3036Y669D01*
X-3089D01*
X-3115Y643D01*
Y617D01*
X-3089Y591D01*
X-3010D01*
X-1834Y-1588D02*
X-1861Y-1614D01*
Y-1667D01*
X-1834Y-1693D01*
X-1729D01*
X-1703Y-1667D01*
Y-1614D01*
X-1729Y-1588D01*
X-1703Y-1535D02*
Y-1483D01*
Y-1509D01*
X-1861D01*
X-1834Y-1535D01*
X-1703Y-1404D02*
Y-1352D01*
Y-1378D01*
X-1861D01*
X-1834Y-1404D01*
X3481Y1786D02*
X3407Y1860D01*
X3370D01*
X3332Y1823D01*
Y1786D01*
X3407Y1711D01*
X3444D01*
X3481Y1749D01*
X3425Y1767D02*
X3499Y1767D01*
X3481Y1749D02*
Y1786D01*
X3444Y1897D02*
Y1934D01*
X3481Y1971D01*
X3518D01*
X3537Y1953D01*
Y1916D01*
X3518Y1897D01*
X3537Y1916D01*
X3574Y1916D01*
X3592Y1897D01*
Y1860D01*
X3555Y1823D01*
X3518D01*
X-2901Y1282D02*
Y1440D01*
X-2823D01*
X-2796Y1413D01*
Y1361D01*
X-2823Y1335D01*
X-2901D01*
X-2849D02*
X-2796Y1282D01*
X-2744D02*
X-2691D01*
X-2718D01*
Y1440D01*
X-2744Y1413D01*
X4240Y-500D02*
Y-343D01*
X4319D01*
X4345Y-369D01*
Y-421D01*
X4319Y-448D01*
X4240D01*
X4292D02*
X4345Y-500D01*
X4502D02*
X4397D01*
X4502Y-395D01*
Y-369D01*
X4476Y-343D01*
X4424D01*
X4397Y-369D01*
X748Y-1693D02*
X591D01*
Y-1614D01*
X617Y-1588D01*
X669D01*
X696Y-1614D01*
Y-1693D01*
Y-1640D02*
X748Y-1588D01*
Y-1535D02*
Y-1483D01*
Y-1509D01*
X591D01*
X617Y-1535D01*
X748Y-1299D02*
Y-1404D01*
X643Y-1299D01*
X617D01*
X591Y-1326D01*
Y-1378D01*
X617Y-1404D01*
X-3834Y1397D02*
Y1266D01*
X-3808Y1240D01*
X-3756D01*
X-3729Y1266D01*
Y1397D01*
X-3677Y1240D02*
X-3624D01*
X-3651D01*
Y1397D01*
X-3677Y1371D01*
X1736Y-1654D02*
X1579D01*
Y-1575D01*
X1605Y-1549D01*
X1658D01*
X1684Y-1575D01*
Y-1654D01*
Y-1601D02*
X1736Y-1549D01*
Y-1496D02*
Y-1444D01*
Y-1470D01*
X1579D01*
X1605Y-1496D01*
X1736Y-1286D02*
X1579D01*
X1658Y-1365D01*
Y-1260D01*
M02*
