M48
;Layer_Color=9474304
;FILE_FORMAT=2:4
INCH,LZ
;TYPE=PLATED
T1F00S00C0.0118
%
T01
X016757Y001526
X017226Y001506
X027008Y001545
X031575Y001821
X03174Y002106
X031522Y005793
Y006309
X031161Y007175
X031063Y007726
X030748Y007923
X034122Y007215
X035122Y007175
Y006506
X036496Y00623
X036591Y007191
X036142Y007175
X03811Y005601
X029882Y005848
X029902Y007018
X02874Y00624
Y005394
X030354Y004841
X027008Y002608
X024961Y002528
X02252Y003307
X021575Y003425
Y003937
X021181Y005079
X021278Y00563
X02063
X019016Y005669
X019226Y006993
X018465
X017594Y006703
X01752Y006034
X017106Y004758
X016099Y005191
X014882Y004124
X018606Y004439
X019961Y004488
X019803Y003868
X02252Y005315
Y007579
X024528Y007205
X025142Y006559
X014621Y006993
X013839Y007087
X013425Y006903
X012598Y00623
X013765Y005719
X01378Y004734
X014213Y00438
X014528
X014116Y003112
X012069
X011339Y004758
X010787Y004291
X010368Y006903
X006378Y005522
X006604Y005286
Y004975
X003418Y003986
X003819Y00312
X00252Y004439
M30
