G04 Layer_Color=16711935*
%FSLAX24Y24*%
%MOIN*%
G70*
G01*
G75*
%ADD42C,0.0079*%
D42*
X2559Y1119D02*
G03*
X1973Y1703I-591J-6D01*
G01*
X2559Y584D02*
G03*
X3145Y0I591J6D01*
G01*
X40354Y0D02*
G03*
X40940Y584I-5J591D01*
G01*
X40940Y7546D02*
G03*
X40354Y8130I-591J-6D01*
G01*
X3145Y8130D02*
G03*
X2559Y7546I5J-591D01*
G01*
X1973Y6427D02*
G03*
X2559Y7012I-5J591D01*
G01*
X586Y6427D02*
G03*
X0Y5843I5J-591D01*
G01*
Y2287D02*
G03*
X586Y1703I591J6D01*
G01*
X40354Y0D02*
G03*
X40940Y584I-5J591D01*
G01*
X40940Y7546D02*
G03*
X40354Y8130I-591J-6D01*
G01*
X2559Y584D02*
G03*
X3145Y0I591J6D01*
G01*
X0Y2287D02*
G03*
X586Y1703I591J6D01*
G01*
X2559Y1119D02*
G03*
X1973Y1703I-591J-6D01*
G01*
Y6427D02*
G03*
X2559Y7012I-5J591D01*
G01*
X586Y6427D02*
G03*
X0Y5843I5J-591D01*
G01*
X3145Y8130D02*
G03*
X2559Y7546I5J-591D01*
G01*
X586Y1703D02*
X1975Y1703D01*
X1973Y1703D02*
X1975Y1703D01*
X2559Y584D02*
Y1119D01*
X3145Y0D02*
X11033D01*
Y-0D02*
X15266D01*
Y0D02*
X40354D01*
X40940Y584D02*
Y7546D01*
X40940D02*
X40940D01*
X3145Y8130D02*
X40354D01*
X3145D02*
Y8130D01*
X2559Y7012D02*
Y7546D01*
X1973Y6427D02*
X1975Y6427D01*
X586D02*
X1975D01*
X586D02*
X586Y6427D01*
X0Y2287D02*
Y5843D01*
X40940Y584D02*
Y7546D01*
X0Y2289D02*
Y5843D01*
X2559Y584D02*
Y1119D01*
X586Y1703D02*
X1975D01*
X586Y6427D02*
X1975D01*
X2559Y7012D02*
Y7546D01*
M02*
