G04 Layer_Color=65535*
%FSLAX24Y24*%
%MOIN*%
G70*
G01*
G75*
%ADD42C,0.0079*%
%ADD43C,0.0197*%
%ADD44C,0.0098*%
%ADD56C,0.0100*%
%ADD57C,0.0200*%
%ADD58C,0.0060*%
%ADD59C,0.0060*%
%ADD60C,0.0050*%
%ADD61C,0.0080*%
%ADD62R,0.0630X0.0217*%
D42*
X15039Y5207D02*
X15669D01*
X15669Y5876D01*
X15039Y5207D02*
Y5876D01*
X15354Y7664D02*
X15591D01*
X15354Y6876D02*
Y7664D01*
Y6876D02*
X15591D01*
X15591Y7664D02*
X15591Y6876D01*
X11890Y3514D02*
X13248Y3514D01*
X11890Y4616D02*
X13248D01*
X18907Y7589D02*
X19282D01*
X18907Y6447D02*
Y7589D01*
Y6447D02*
X19282D01*
Y7589D01*
X10413Y4577D02*
X10846D01*
X10413Y3947D02*
X10846D01*
X-610Y1815D02*
Y6315D01*
X16850Y207D02*
Y443D01*
X19944Y1526D02*
Y2746D01*
X16007Y1526D02*
Y2746D01*
X19944D01*
X16007Y1526D02*
X19944D01*
X30236Y5608D02*
X30472D01*
X30236Y6703D02*
X30472D01*
X25457Y6118D02*
Y6354D01*
X9339Y5162D02*
X9506Y5329D01*
X15980Y4557D02*
X16217D01*
X11703Y6647D02*
X12077D01*
Y7789D01*
X11703D02*
X12077D01*
X11703Y6647D02*
Y7789D01*
X8972Y4769D02*
X9139Y4936D01*
X17165Y7018D02*
X17402D01*
X17795D02*
X18031D01*
X12953Y7218D02*
X13189D01*
X10591D02*
X10827D01*
X20157Y7018D02*
X20394D01*
X25831Y3169D02*
Y3406D01*
X25043D02*
X25831D01*
X25043Y3169D02*
Y3406D01*
Y3169D02*
X25831D01*
X19606Y4734D02*
Y4971D01*
X18819D02*
X19606D01*
X18819Y4734D02*
Y4971D01*
Y4734D02*
X19606D01*
X17244D02*
Y4971D01*
X16457D02*
X17244D01*
X16457Y4734D02*
Y4971D01*
Y4734D02*
X17244D01*
X18425D02*
Y4971D01*
X17638D02*
X18425D01*
X17638Y4734D02*
Y4971D01*
Y4734D02*
X18425D01*
X28268Y3004D02*
X28373D01*
X28320D01*
Y2689D01*
X28268D01*
X28373D01*
X28688Y3004D02*
X28583D01*
X28530Y2952D01*
Y2742D01*
X28583Y2689D01*
X28688D01*
X28740Y2742D01*
Y2952D01*
X28688Y3004D01*
X28845Y2952D02*
X28897Y3004D01*
X29002D01*
X29055Y2952D01*
Y2742D01*
X29002Y2689D01*
X28897D01*
X28845Y2742D01*
Y2952D01*
X28202Y7047D02*
X27992D01*
Y6732D01*
X28202D01*
X27992Y6890D02*
X28097D01*
X28307Y6732D02*
Y7047D01*
X28517Y6732D01*
Y7047D01*
X14567Y5162D02*
X14882D01*
Y5320D01*
X14829Y5372D01*
X14620D01*
X14567Y5320D01*
Y5162D01*
X14882Y5477D02*
Y5582D01*
Y5530D01*
X14567D01*
X14620Y5477D01*
X10788Y1653D02*
X11050D01*
X11102Y1705D01*
Y1810D01*
X11050Y1863D01*
X10788D01*
X10840Y2178D02*
X10788Y2125D01*
Y2020D01*
X10840Y1968D01*
X10892D01*
X10945Y2020D01*
Y2125D01*
X10997Y2178D01*
X11050D01*
X11102Y2125D01*
Y2020D01*
X11050Y1968D01*
X10788Y2283D02*
X11102D01*
Y2440D01*
X11050Y2492D01*
X10997D01*
X10945Y2440D01*
Y2283D01*
Y2440D01*
X10892Y2492D01*
X10840D01*
X10788Y2440D01*
Y2283D01*
X18985Y696D02*
Y434D01*
X19037Y381D01*
X19142D01*
X19194Y434D01*
Y696D01*
X19509D02*
X19299D01*
Y539D01*
X19404Y591D01*
X19457D01*
X19509Y539D01*
Y434D01*
X19457Y381D01*
X19352D01*
X19299Y434D01*
X10472Y325D02*
X10158D01*
Y482D01*
X10210Y535D01*
X10315D01*
X10367Y482D01*
Y325D01*
Y430D02*
X10472Y535D01*
Y640D02*
Y745D01*
Y692D01*
X10158D01*
X10210Y640D01*
X10420Y902D02*
X10472Y955D01*
Y1060D01*
X10420Y1112D01*
X10210D01*
X10158Y1060D01*
Y955D01*
X10210Y902D01*
X10263D01*
X10315Y955D01*
Y1112D01*
X15618Y1132D02*
X15303D01*
Y1289D01*
X15355Y1342D01*
X15460D01*
X15513Y1289D01*
Y1132D01*
Y1237D02*
X15618Y1342D01*
Y1447D02*
Y1552D01*
Y1499D01*
X15303D01*
X15355Y1447D01*
Y1709D02*
X15303Y1762D01*
Y1867D01*
X15355Y1919D01*
X15408D01*
X15460Y1867D01*
X15513Y1919D01*
X15565D01*
X15618Y1867D01*
Y1762D01*
X15565Y1709D01*
X15513D01*
X15460Y1762D01*
X15408Y1709D01*
X15355D01*
X15460Y1762D02*
Y1867D01*
X12736Y5601D02*
Y5915D01*
X12894D01*
X12946Y5863D01*
Y5758D01*
X12894Y5705D01*
X12736D01*
X12841D02*
X12946Y5601D01*
X13051D02*
X13156D01*
X13104D01*
Y5915D01*
X13051Y5863D01*
X13523Y5915D02*
X13418Y5863D01*
X13313Y5758D01*
Y5653D01*
X13366Y5601D01*
X13471D01*
X13523Y5653D01*
Y5705D01*
X13471Y5758D01*
X13313D01*
X24331Y6978D02*
Y7293D01*
X24488D01*
X24541Y7241D01*
Y7136D01*
X24488Y7083D01*
X24331D01*
X24436D02*
X24541Y6978D01*
X24646D02*
X24751D01*
X24698D01*
Y7293D01*
X24646Y7241D01*
X25118Y7293D02*
X24908D01*
Y7136D01*
X25013Y7188D01*
X25065D01*
X25118Y7136D01*
Y7031D01*
X25065Y6978D01*
X24960D01*
X24908Y7031D01*
X18858Y2175D02*
Y2490D01*
X19016D01*
X19068Y2438D01*
Y2333D01*
X19016Y2280D01*
X18858D01*
X18963D02*
X19068Y2175D01*
X19173D02*
X19278D01*
X19226D01*
Y2490D01*
X19173Y2438D01*
X19436Y2175D02*
X19540D01*
X19488D01*
Y2490D01*
X19436Y2438D01*
X17795Y2175D02*
Y2490D01*
X17953D01*
X18005Y2438D01*
Y2333D01*
X17953Y2280D01*
X17795D01*
X17900D02*
X18005Y2175D01*
X18110D02*
X18215D01*
X18163D01*
Y2490D01*
X18110Y2438D01*
X18373D02*
X18425Y2490D01*
X18530D01*
X18582Y2438D01*
Y2228D01*
X18530Y2175D01*
X18425D01*
X18373Y2228D01*
Y2438D01*
X13898Y5541D02*
Y5856D01*
X14055D01*
X14108Y5804D01*
Y5699D01*
X14055Y5646D01*
X13898D01*
X14003D02*
X14108Y5541D01*
X14212Y5594D02*
X14265Y5541D01*
X14370D01*
X14422Y5594D01*
Y5804D01*
X14370Y5856D01*
X14265D01*
X14212Y5804D01*
Y5751D01*
X14265Y5699D01*
X14422D01*
X26535Y7402D02*
Y7716D01*
X26693D01*
X26745Y7664D01*
Y7559D01*
X26693Y7507D01*
X26535D01*
X26640D02*
X26745Y7402D01*
X26850Y7664D02*
X26903Y7716D01*
X27008D01*
X27060Y7664D01*
Y7611D01*
X27008Y7559D01*
X27060Y7507D01*
Y7454D01*
X27008Y7402D01*
X26903D01*
X26850Y7454D01*
Y7507D01*
X26903Y7559D01*
X26850Y7611D01*
Y7664D01*
X26903Y7559D02*
X27008D01*
X26087Y4213D02*
Y4527D01*
X26244D01*
X26297Y4475D01*
Y4370D01*
X26244Y4318D01*
X26087D01*
X26192D02*
X26297Y4213D01*
X26401Y4527D02*
X26611D01*
Y4475D01*
X26401Y4265D01*
Y4213D01*
X22677Y7480D02*
X22362D01*
Y7638D01*
X22415Y7690D01*
X22520D01*
X22572Y7638D01*
Y7480D01*
Y7585D02*
X22677Y7690D01*
X22362Y8005D02*
X22415Y7900D01*
X22520Y7795D01*
X22625D01*
X22677Y7848D01*
Y7953D01*
X22625Y8005D01*
X22572D01*
X22520Y7953D01*
Y7795D01*
X16614Y6240D02*
X16299D01*
Y6398D01*
X16352Y6450D01*
X16457D01*
X16509Y6398D01*
Y6240D01*
Y6345D02*
X16614Y6450D01*
X16299Y6765D02*
Y6555D01*
X16457D01*
X16404Y6660D01*
Y6713D01*
X16457Y6765D01*
X16562D01*
X16614Y6713D01*
Y6608D01*
X16562Y6555D01*
X19488Y5423D02*
Y5738D01*
X19646D01*
X19698Y5686D01*
Y5581D01*
X19646Y5528D01*
X19488D01*
X19593D02*
X19698Y5423D01*
X19803D02*
X19908D01*
X19856D01*
Y5738D01*
X19803Y5686D01*
X17671Y469D02*
X17618Y522D01*
X17513D01*
X17461Y469D01*
Y259D01*
X17513Y207D01*
X17618D01*
X17671Y259D01*
X17775Y207D02*
X17880D01*
X17828D01*
Y522D01*
X17775Y469D01*
X18038Y207D02*
X18143D01*
X18090D01*
Y522D01*
X18038Y469D01*
X25340Y5482D02*
Y5797D01*
X25497D01*
X25550Y5745D01*
Y5640D01*
X25497Y5587D01*
X25340D01*
X25445D02*
X25550Y5482D01*
X25865D02*
X25655D01*
X25865Y5692D01*
Y5745D01*
X25812Y5797D01*
X25707D01*
X25655Y5745D01*
X26142Y3150D02*
Y3465D01*
X26299D01*
X26352Y3412D01*
Y3307D01*
X26299Y3255D01*
X26142D01*
X26247D02*
X26352Y3150D01*
X26614D02*
Y3465D01*
X26457Y3307D01*
X26667D01*
X38976Y7494D02*
Y7231D01*
X39029Y7179D01*
X39134D01*
X39186Y7231D01*
Y7494D01*
X39501Y7179D02*
X39291D01*
X39501Y7389D01*
Y7441D01*
X39449Y7494D01*
X39344D01*
X39291Y7441D01*
X2926Y5784D02*
X2874Y5837D01*
X2769D01*
X2717Y5784D01*
Y5574D01*
X2769Y5522D01*
X2874D01*
X2926Y5574D01*
X3031Y5522D02*
Y5837D01*
X3241Y5522D01*
Y5837D01*
X3346Y5522D02*
X3451D01*
X3399D01*
Y5837D01*
X3346Y5784D01*
X10525Y4997D02*
X10472Y5049D01*
X10367D01*
X10315Y4997D01*
Y4787D01*
X10367Y4734D01*
X10472D01*
X10525Y4787D01*
X10630Y4734D02*
X10735D01*
X10682D01*
Y5049D01*
X10630Y4997D01*
X11102Y4734D02*
X10892D01*
X11102Y4944D01*
Y4997D01*
X11050Y5049D01*
X10945D01*
X10892Y4997D01*
X5512Y7490D02*
Y7228D01*
X5564Y7175D01*
X5669D01*
X5722Y7228D01*
Y7490D01*
X6037D02*
X5932Y7438D01*
X5827Y7333D01*
Y7228D01*
X5879Y7175D01*
X5984D01*
X6037Y7228D01*
Y7280D01*
X5984Y7333D01*
X5827D01*
X20249Y7871D02*
X20197Y7923D01*
X20092D01*
X20039Y7871D01*
Y7661D01*
X20092Y7608D01*
X20197D01*
X20249Y7661D01*
X20512Y7608D02*
Y7923D01*
X20354Y7766D01*
X20564D01*
X30249Y7484D02*
X30197Y7431D01*
Y7326D01*
X30249Y7274D01*
X30459D01*
X30512Y7326D01*
Y7431D01*
X30459Y7484D01*
X30197Y7799D02*
Y7589D01*
X30354D01*
X30302Y7694D01*
Y7746D01*
X30354Y7799D01*
X30459D01*
X30512Y7746D01*
Y7641D01*
X30459Y7589D01*
X25367Y6794D02*
X25315Y6846D01*
X25210D01*
X25157Y6794D01*
Y6584D01*
X25210Y6532D01*
X25315D01*
X25367Y6584D01*
X25472Y6794D02*
X25525Y6846D01*
X25630D01*
X25682Y6794D01*
Y6742D01*
X25630Y6689D01*
X25682Y6637D01*
Y6584D01*
X25630Y6532D01*
X25525D01*
X25472Y6584D01*
Y6637D01*
X25525Y6689D01*
X25472Y6742D01*
Y6794D01*
X25525Y6689D02*
X25630D01*
X10210Y7287D02*
X10157Y7339D01*
X10052D01*
X10000Y7287D01*
Y7077D01*
X10052Y7024D01*
X10157D01*
X10210Y7077D01*
X10315Y7024D02*
X10420D01*
X10367D01*
Y7339D01*
X10315Y7287D01*
X13655D02*
X13602Y7339D01*
X13497D01*
X13445Y7287D01*
Y7077D01*
X13497Y7024D01*
X13602D01*
X13655Y7077D01*
X13970Y7024D02*
X13760D01*
X13970Y7234D01*
Y7287D01*
X13917Y7339D01*
X13812D01*
X13760Y7287D01*
X18005Y7841D02*
X17953Y7894D01*
X17848D01*
X17795Y7841D01*
Y7631D01*
X17848Y7579D01*
X17953D01*
X18005Y7631D01*
X18110Y7894D02*
X18320D01*
Y7841D01*
X18110Y7631D01*
Y7579D01*
X17257Y7871D02*
X17205Y7923D01*
X17100D01*
X17047Y7871D01*
Y7661D01*
X17100Y7608D01*
X17205D01*
X17257Y7661D01*
X17572Y7923D02*
X17467Y7871D01*
X17362Y7766D01*
Y7661D01*
X17415Y7608D01*
X17520D01*
X17572Y7661D01*
Y7713D01*
X17520Y7766D01*
X17362D01*
X30249Y4350D02*
X30197Y4297D01*
Y4192D01*
X30249Y4140D01*
X30459D01*
X30512Y4192D01*
Y4297D01*
X30459Y4350D01*
X30512Y4455D02*
Y4560D01*
Y4507D01*
X30197D01*
X30249Y4455D01*
Y4717D02*
X30197Y4770D01*
Y4875D01*
X30249Y4927D01*
X30302D01*
X30354Y4875D01*
Y4822D01*
Y4875D01*
X30407Y4927D01*
X30459D01*
X30512Y4875D01*
Y4770D01*
X30459Y4717D01*
X8360Y5535D02*
X8307Y5482D01*
Y5377D01*
X8360Y5325D01*
X8570D01*
X8622Y5377D01*
Y5482D01*
X8570Y5535D01*
X8622Y5640D02*
Y5745D01*
Y5692D01*
X8307D01*
X8360Y5640D01*
X8622Y6060D02*
X8307D01*
X8465Y5902D01*
Y6112D01*
X16968Y5915D02*
Y6230D01*
X17126D01*
X17178Y6178D01*
Y6073D01*
X17126Y6020D01*
X16968D01*
X17073D02*
X17178Y5915D01*
X17283Y6178D02*
X17336Y6230D01*
X17441D01*
X17493Y6178D01*
Y6125D01*
X17441Y6073D01*
X17388D01*
X17441D01*
X17493Y6020D01*
Y5968D01*
X17441Y5915D01*
X17336D01*
X17283Y5968D01*
X18858Y8022D02*
Y7759D01*
X18911Y7707D01*
X19016D01*
X19068Y7759D01*
Y8022D01*
X19331Y7707D02*
Y8022D01*
X19173Y7864D01*
X19383D01*
X12268Y7362D02*
Y7100D01*
X12320Y7047D01*
X12425D01*
X12478Y7100D01*
Y7362D01*
X12583Y7047D02*
X12688D01*
X12635D01*
Y7362D01*
X12583Y7310D01*
X15919Y5364D02*
X15866Y5312D01*
Y5207D01*
X15919Y5154D01*
X16129D01*
X16181Y5207D01*
Y5312D01*
X16129Y5364D01*
X16181Y5469D02*
Y5574D01*
Y5521D01*
X15866D01*
X15919Y5469D01*
Y5731D02*
X15866Y5784D01*
Y5889D01*
X15919Y5941D01*
X16129D01*
X16181Y5889D01*
Y5784D01*
X16129Y5731D01*
X15919D01*
X8793Y5929D02*
X8740Y5876D01*
Y5771D01*
X8793Y5719D01*
X9003D01*
X9055Y5771D01*
Y5876D01*
X9003Y5929D01*
Y6033D02*
X9055Y6086D01*
Y6191D01*
X9003Y6243D01*
X8793D01*
X8740Y6191D01*
Y6086D01*
X8793Y6033D01*
X8845D01*
X8898Y6086D01*
Y6243D01*
X12008Y5128D02*
Y4813D01*
X12218D01*
X12533Y5128D02*
X12323D01*
Y4813D01*
X12533D01*
X12323Y4971D02*
X12428D01*
X12638Y5128D02*
Y4813D01*
X12795D01*
X12847Y4866D01*
Y5075D01*
X12795Y5128D01*
X12638D01*
X12952Y4813D02*
X13057D01*
X13005D01*
Y5128D01*
X12952Y5075D01*
X26028Y1978D02*
Y2293D01*
X26185D01*
X26237Y2241D01*
Y2136D01*
X26185Y2083D01*
X26028D01*
X26133D02*
X26237Y1978D01*
X26342D02*
X26447D01*
X26395D01*
Y2293D01*
X26342Y2241D01*
X26815Y1978D02*
X26605D01*
X26815Y2188D01*
Y2241D01*
X26762Y2293D01*
X26657D01*
X26605Y2241D01*
X26028Y758D02*
Y1073D01*
X26185D01*
X26237Y1020D01*
Y915D01*
X26185Y863D01*
X26028D01*
X26133D02*
X26237Y758D01*
X26342D02*
X26447D01*
X26395D01*
Y1073D01*
X26342Y1020D01*
X26762Y758D02*
Y1073D01*
X26605Y915D01*
X26815D01*
X26028Y1349D02*
Y1663D01*
X26185D01*
X26237Y1611D01*
Y1506D01*
X26185Y1453D01*
X26028D01*
X26133D02*
X26237Y1349D01*
X26342D02*
X26447D01*
X26395D01*
Y1663D01*
X26342Y1611D01*
X26605D02*
X26657Y1663D01*
X26762D01*
X26815Y1611D01*
Y1558D01*
X26762Y1506D01*
X26710D01*
X26762D01*
X26815Y1453D01*
Y1401D01*
X26762Y1349D01*
X26657D01*
X26605Y1401D01*
X22060Y1115D02*
X22008Y1063D01*
Y958D01*
X22060Y906D01*
X22113D01*
X22165Y958D01*
Y1063D01*
X22218Y1115D01*
X22270D01*
X22323Y1063D01*
Y958D01*
X22270Y906D01*
X22008Y1220D02*
X22323D01*
X22218Y1325D01*
X22323Y1430D01*
X22008D01*
X15092Y7493D02*
Y7703D01*
X15039Y7756D01*
X14934D01*
X14882Y7703D01*
Y7493D01*
X14934Y7441D01*
X15039D01*
X14987Y7546D02*
X15092Y7441D01*
X15039D02*
X15092Y7493D01*
X15197Y7441D02*
X15302D01*
X15249D01*
Y7756D01*
X15197Y7703D01*
X25503Y4206D02*
X25293D01*
X25240Y4154D01*
Y4049D01*
X25293Y3996D01*
X25503D01*
X25555Y4049D01*
Y4154D01*
X25450Y4101D02*
X25555Y4206D01*
Y4154D02*
X25503Y4206D01*
X25555Y4521D02*
Y4311D01*
X25345Y4521D01*
X25293D01*
X25240Y4468D01*
Y4364D01*
X25293Y4311D01*
X18855Y5377D02*
X18645D01*
X18593Y5325D01*
Y5220D01*
X18645Y5167D01*
X18855D01*
X18907Y5220D01*
Y5325D01*
X18803Y5272D02*
X18907Y5377D01*
Y5325D02*
X18855Y5377D01*
X18645Y5482D02*
X18593Y5535D01*
Y5640D01*
X18645Y5692D01*
X18698D01*
X18750Y5640D01*
Y5587D01*
Y5640D01*
X18803Y5692D01*
X18855D01*
X18907Y5640D01*
Y5535D01*
X18855Y5482D01*
X17786Y5338D02*
X17576D01*
X17524Y5286D01*
Y5181D01*
X17576Y5128D01*
X17786D01*
X17839Y5181D01*
Y5286D01*
X17734Y5233D02*
X17839Y5338D01*
Y5286D02*
X17786Y5338D01*
X17839Y5600D02*
X17524D01*
X17681Y5443D01*
Y5653D01*
X16586Y5372D02*
X16377D01*
X16324Y5320D01*
Y5215D01*
X16377Y5162D01*
X16586D01*
X16639Y5215D01*
Y5320D01*
X16534Y5267D02*
X16639Y5372D01*
Y5320D02*
X16586Y5372D01*
X16324Y5687D02*
Y5477D01*
X16482D01*
X16429Y5582D01*
Y5635D01*
X16482Y5687D01*
X16586D01*
X16639Y5635D01*
Y5530D01*
X16586Y5477D01*
X16595Y2175D02*
Y2490D01*
X16753D01*
X16805Y2438D01*
Y2333D01*
X16753Y2280D01*
X16595D01*
X16700D02*
X16805Y2175D01*
X16910D02*
X17015D01*
X16963D01*
Y2490D01*
X16910Y2438D01*
X17172Y2490D02*
X17382D01*
Y2438D01*
X17172Y2228D01*
Y2175D01*
D43*
X16499Y1919D02*
G03*
X16499Y1919I-98J0D01*
G01*
D44*
X15994Y6699D02*
G03*
X15994Y6699I-49J0D01*
G01*
X19793Y6329D02*
G03*
X19793Y6329I-49J0D01*
G01*
X15958Y1221D02*
G03*
X15958Y1221I-49J0D01*
G01*
X11289Y7907D02*
G03*
X11289Y7907I-49J0D01*
G01*
X24915Y2815D02*
G03*
X24915Y2815I-49J0D01*
G01*
X18691Y4380D02*
G03*
X18691Y4380I-49J0D01*
G01*
X16329D02*
G03*
X16329Y4380I-49J0D01*
G01*
X17510D02*
G03*
X17510Y4380I-49J0D01*
G01*
D56*
X21251Y2565D02*
G03*
X21251Y2565I-300J0D01*
G01*
Y5565D02*
G03*
X21251Y5565I-300J0D01*
G01*
X24251Y2565D02*
G03*
X24251Y2565I-300J0D01*
G01*
Y5565D02*
G03*
X24251Y5565I-300J0D01*
G01*
X23751Y4065D02*
G03*
X23751Y4065I-1300J0D01*
G01*
X23632D02*
G03*
X23632Y4065I-1181J0D01*
G01*
X11791Y4656D02*
G03*
X11791Y4656I-88J0D01*
G01*
X27394Y4218D02*
X28344Y4218D01*
X27394Y3518D02*
Y4218D01*
Y3518D02*
X28344Y3518D01*
Y4218D01*
X27394Y6187D02*
X28344Y6187D01*
X27394Y5487D02*
Y6187D01*
Y5487D02*
X28344Y5487D01*
Y6187D01*
X23940Y6427D02*
X24813Y6427D01*
X21972Y6427D02*
X22910D01*
X20089D02*
X20942D01*
X23940Y1703D02*
X24813Y1703D01*
X21972Y1703D02*
X22910D01*
X20089D02*
X20942D01*
X20089D02*
Y6427D01*
X24813Y1703D02*
Y6427D01*
X20451Y2165D02*
Y5965D01*
X20551Y6065D01*
X24351D01*
X24451Y5965D01*
Y2165D02*
Y5965D01*
X24351Y2065D02*
X24451Y2165D01*
X20551Y2065D02*
X24351D01*
X20451Y2165D02*
X20551Y2065D01*
X14850Y1032D02*
Y1748D01*
Y-365D02*
Y141D01*
X11449Y1032D02*
Y1748D01*
Y-385D02*
Y141D01*
X13641Y2102D02*
X14330D01*
X11449Y-438D02*
X14850Y-438D01*
X11969Y2100D02*
X12658D01*
D57*
X9286Y4125D02*
G03*
X9286Y4125I-100J0D01*
G01*
D58*
X26683Y4215D02*
Y4587D01*
Y3149D02*
Y3522D01*
Y6183D02*
Y6556D01*
Y5118D02*
Y5490D01*
D59*
Y4587D02*
X29106D01*
Y4224D02*
Y4587D01*
X26683Y3149D02*
X29106D01*
Y3513D01*
X26683Y6556D02*
X29106D01*
Y6192D02*
Y6556D01*
X26683Y5118D02*
X29106D01*
Y5481D01*
D60*
X5792Y7024D02*
X6145Y6671D01*
X5509Y6741D02*
X5792Y7024D01*
X2468Y3701D02*
X2786Y4019D01*
X2468Y3701D02*
X2822Y3347D01*
X5438Y731D02*
X5792Y377D01*
X6110Y696D01*
X8761Y4054D02*
X9115Y3701D01*
X8797Y3383D02*
X9115Y3701D01*
D61*
X30985Y6565D02*
X30985Y7658D01*
X31390Y7658D01*
X30985Y472D02*
Y1565D01*
Y472D02*
X31390D01*
X38363Y7658D02*
X41125D01*
X38363Y472D02*
X41125Y472D01*
X41125Y7658D02*
X41125Y472D01*
D62*
X15354Y5315D02*
D03*
M02*
